<?xml version="1.0" encoding="UTF-8"?>
<svg width="40px" height="40px" viewBox="0 0 40 40" version="1.1" xmlns="http://www.w3.org/2000/svg" xmlns:xlink="http://www.w3.org/1999/xlink">
    <!-- Generator: Sketch 55.2 (78181) - https://sketchapp.com -->
    <title>TemplateIcon/coredns</title>
    <desc>Created with Sketch.</desc>
    <g id="TemplateIcon/coredns" stroke="none" stroke-width="1" fill="none" fill-rule="evenodd">
        <g id="coreos-1" transform="translate(4.000000, 4.000000)" fill-rule="nonzero">
            <path d="M16.001,0 C7.17725,0 0,7.1775 0,16 C0,24.823 7.177125,32 16.001,32 C24.82225,32 32,24.823 32,16 C32,7.1775 24.82225,0 16.001,0 Z" id="路径" fill="#53A3DA"></path>
            <path d="M16.0715,1.406625 C13.5235,1.406625 11.362625,5.482125 10.582125,11.146625 C10.557125,11.328875 10.533,11.51325 10.511625,11.698875 C10.402535,12.6198415 10.3308095,13.5448503 10.296625,14.471625 C10.279363,14.91308 10.2709972,15.3548327 10.2709972,15.796625 C10.2709972,16.24325 10.2795,16.6855 10.29675,17.12125 C10.332875,18.075375 10.405125,19.003 10.51175,19.8945 C11.706375,20.049125 12.983875,20.154 14.31625,20.203875 C14.89225,20.225375 15.47675,20.23825 16.071625,20.23825 C16.664625,20.23825 17.251,20.22525 17.82525,20.203875 C19.15925,20.154 20.43575,20.049125 21.6315,19.8945 C21.763,19.877625 21.8925,19.85925 22.0235,19.84025 C26.999625,19.1415 30.46125,17.594625 30.46125,15.796625 C30.46125,7.848875 24.018,1.406625 16.0715,1.406625 L16.0715,1.406625 Z" id="路径" fill="#F1606D"></path>
            <path d="M22.023375,11.75275 C21.8793321,11.5428405 21.7244123,11.3406061 21.55925,11.146875 C20.239,9.5905 18.272125,8.6015 16.071625,8.6015 C15.35825,8.6015 14.722875,9.6935 14.31625,11.389125 C14.154625,12.065375 14.02925,12.836625 13.948375,13.674 C13.8823851,14.3796095 13.8496821,15.0879368 13.8503642,15.796625 C13.8503642,16.535 13.88475,17.248625 13.948375,17.919 C14.61975,17.98275 15.33225,18.016875 16.071625,18.016875 C16.81,18.016875 17.5225,17.982625 18.193875,17.919 C19.66975,17.779 20.943875,17.49525 21.846375,17.12125 C22.737625,16.7525 23.265125,16.2935 23.265125,15.796625 C23.265,14.297625 22.80725,12.905375 22.023375,11.75275 L22.023375,11.75275 Z" id="路径" fill="#FFFFFF"></path>
        </g>
    </g>
</svg>