<?xml version="1.0" encoding="UTF-8"?>
<svg width="40px" height="40px" viewBox="0 0 40 40" version="1.1" xmlns="http://www.w3.org/2000/svg" xmlns:xlink="http://www.w3.org/1999/xlink">
    <!-- Generator: Sketch 55.2 (78181) - https://sketchapp.com -->
    <title>TemplateIcon/drone</title>
    <desc>Created with Sketch.</desc>
    <g id="TemplateIcon/drone" stroke="none" stroke-width="1" fill="none" fill-rule="evenodd">
        <g id="drone" transform="translate(4.000000, 6.000000)" fill="#252728" fill-rule="nonzero">
            <path d="M16.0280674,0.000651563753 C3.98366079,0.000651563753 0.0108761026,10.5063653 0.0108761026,14.3475842 L9.77543605,14.3475842 C9.77543605,14.3475842 11.1588813,9.34232157 16.0280674,9.34232157 C20.8972534,9.34232157 22.2813252,14.3475842 22.2813252,14.3475842 L31.9891239,14.3475842 C31.9891239,10.5058641 28.0724739,0.000651563753 16.0280674,0.000651563753 M28.4102847,16.8478348 L22.2813252,16.8478348 C22.2813252,16.8478348 21.210004,21.8530974 16.0280674,21.8530974 C10.846256,21.8530974 9.77543605,16.8478348 9.77543605,16.8478348 L3.75273156,16.8478348 C3.75273156,18.1321672 8.48007719,27.2112069 16.0877105,27.2112069 C23.6952185,27.2112069 28.4102847,19.7427827 28.4102847,16.8478348" id="形状"></path>
            <circle id="椭圆形" cx="16" cy="15.7077235" r="4.10585405"></circle>
        </g>
    </g>
</svg>