<?xml version="1.0" encoding="UTF-8"?>
<svg width="40px" height="40px" viewBox="0 0 40 40" version="1.1" xmlns="http://www.w3.org/2000/svg" xmlns:xlink="http://www.w3.org/1999/xlink">
    <!-- Generator: Sketch 55.2 (78181) - https://sketchapp.com -->
    <title>TemplateIcon/drupal</title>
    <desc>Created with Sketch.</desc>
    <g id="TemplateIcon/drupal" stroke="none" stroke-width="1" fill="none" fill-rule="evenodd">
        <g id="drupal" transform="translate(6.000000, 4.000000)">
            <path d="M9.12778218,5.10733255 C3.53134473,7.48451393 0.00911136728,12.146255 0.00911136728,18.1358998 C0.00911136728,25.790887 6.21465602,31.9966491 13.8699693,31.9966491 C21.5249565,31.9966491 27.7307186,25.790887 27.7307186,18.1358998 C27.7307186,8.93210836 19.1791926,5.27322539 19.1791926,5.27322539 C19.1791926,5.27322539 17.3113218,4.49757308 16.2669361,3.80127972 C16.2669361,3.80127972 14.9475118,2.99497093 12.6477326,0.0264022153 C12.6477326,0.0264022153 12.6999138,3.39926679 9.12789089,5.10754997" id="路径" fill="#136DA9" fill-rule="nonzero"></path>
            <path d="M12.4829269,29.3136639 C11.9961194,28.9753556 12.1118966,27.8980305 13.4311034,28.6677037 C13.4311034,28.6677037 16.2401932,30.7307106 20.6876651,28.2554719 C21.0334745,28.0630536 21.4573383,28.7419532 20.3578362,29.3643232 C20.3578362,29.3643232 15.8637273,31.6637763 12.4829269,29.3136639 Z" id="路径" fill="#F0F0F0" fill-rule="nonzero"></path>
            <path d="M12.4829269,29.3136639 C11.9961194,28.9753556 12.1118966,27.8980305 13.4311034,28.6677037 C13.4311034,28.6677037 16.2401932,30.7307106 20.6876651,28.2554719 C21.0334745,28.0630536 21.4573383,28.7419532 20.3578362,29.3643232 C20.3578362,29.3643232 15.8637273,31.6637763 12.4829269,29.3136639 Z" id="路径" fill="#FFFFFF"></path>
            <path d="M18.2138397,25.891662 C19.8493953,26.0832106 19.2870338,26.8696253 19.725791,26.9909467 C20.6189598,27.2384814 20.2342319,26.2625836 20.2342319,26.2625836 C19.5743567,24.943268 18.4337619,25.0257796 18.4337619,25.0257796 C16.6472068,24.7508497 15.314085,26.4551106 15.314085,26.4551106 C14.9841474,27.183365 15.4456252,27.2208702 15.6163013,27.1422723 C16.4821837,26.7436294 17.008888,25.7502291 18.2138397,25.891662 L18.2138397,25.891662 Z" id="路径" fill="#F0F0F0" fill-rule="nonzero"></path>
            <path d="M18.2138397,25.891662 C19.8493953,26.0832106 19.2870338,26.8696253 19.725791,26.9909467 C20.6189598,27.2384814 20.2342319,26.2625836 20.2342319,26.2625836 C19.5743567,24.943268 18.4337619,25.0257796 18.4337619,25.0257796 C16.6472068,24.7508497 15.314085,26.4551106 15.314085,26.4551106 C14.9841474,27.183365 15.4456252,27.2208702 15.6163013,27.1422723 C16.4821837,26.7436294 17.008888,25.7502291 18.2138397,25.891662 L18.2138397,25.891662 Z" id="路径"></path>
            <path d="M1.82317026,25.1056821 C1.82317026,25.1056821 6.79310676,29.2175635 18.8873038,20.0571477 C18.8873038,20.0571477 24.9619605,16.2436778 24.7788913,9.70526032 C24.7788913,9.70526032 22.8131807,6.8800813 19.4961936,5.42313773 C19.0243882,5.21582603 14.8795675,2.95420434 12.64121,0.118045509 C12.64121,0.118045509 12.2355009,8.34583044 1.69728303,11.5941123 C1.69728303,11.5941123 -0.958198276,15.5107488 0.489504862,21.8764247 C0.489504862,21.8764247 1.41604791,24.4572216 1.82317026,25.1057908" id="路径" fill="#008ECE" fill-rule="nonzero"></path>
            <path d="M9.70666775,26.6338313 C9.70666775,26.6338313 5.58358921,26.7436294 6.07844126,22.3457297 C6.07844126,22.3457297 6.93964906,17.3980789 12.7301355,18.497581 C12.7301355,18.497581 13.9947694,18.7724022 16.3585794,20.5865698 C16.3585794,20.5865698 17.9184722,21.7891298 18.7773971,21.7665179 C18.7773971,21.7665179 19.4439036,21.8303312 20.829859,20.9531429 C20.829859,20.9531429 23.6562338,18.772076 24.6443072,18.836759 C24.6688759,18.8383897 26.6386353,18.6214027 26.6386353,21.7960873 C26.6386353,21.7960873 26.6751357,25.2961436 24.0366133,26.4688082 C24.0366133,26.4688082 23.3402112,26.7069938 22.5888014,25.9190571 C22.5888014,25.9190571 20.4265415,23.4636039 19.363675,23.0603951 C19.363675,23.0603951 18.7498932,22.8199266 17.934344,23.1154029 C17.934344,23.1154029 17.4029651,23.1704106 15.2225504,24.618005 C15.2225504,24.618005 11.5573622,26.9085438 9.70666775,26.6338313 L9.70666775,26.6338313 Z" id="路径" fill="#F0F0F0" fill-rule="nonzero"></path>
            <path d="M9.70666775,26.6338313 C9.70666775,26.6338313 5.58358921,26.7436294 6.07844126,22.3457297 C6.07844126,22.3457297 6.93964906,17.3980789 12.7301355,18.497581 C12.7301355,18.497581 13.9947694,18.7724022 16.3585794,20.5865698 C16.3585794,20.5865698 17.9184722,21.7891298 18.7773971,21.7665179 C18.7773971,21.7665179 19.4439036,21.8303312 20.829859,20.9531429 C20.829859,20.9531429 23.6562338,18.772076 24.6443072,18.836759 C24.6688759,18.8383897 26.6386353,18.6214027 26.6386353,21.7960873 C26.6386353,21.7960873 26.6751357,25.2961436 24.0366133,26.4688082 C24.0366133,26.4688082 23.3402112,26.7069938 22.5888014,25.9190571 C22.5888014,25.9190571 20.4265415,23.4636039 19.363675,23.0603951 C19.363675,23.0603951 18.7498932,22.8199266 17.934344,23.1154029 C17.934344,23.1154029 17.4029651,23.1704106 15.2225504,24.618005 C15.2225504,24.618005 11.5573622,26.9085438 9.70666775,26.6338313 L9.70666775,26.6338313 Z" id="路径" fill="#FFFFFF"></path>
            <path d="M11.8872998,10.8562914 C14.5566961,7.03282012 12.64121,0.00803007217 12.64121,0.00803007217 C12.4056334,3.81943444 9.18996482,5.07721963 9.18996482,5.07721963 C3.43220038,7.56235094 1.69728303,11.4840969 1.69728303,11.4840969 C2.93115181,13.2337989 6.20661142,18.9922156 11.8872998,10.8562914" id="路径" fill="#008ECE" fill-rule="nonzero"></path>
            <path d="M12.64121,0.00803007217 C12.64121,0.00803007217 12.9866932,3.2150018 11.2459055,4.25938748 C11.2459055,4.25938748 8.45410069,5.55891765 7.6019159,5.98495569 C7.6019159,5.98495569 4.01673892,8.14884628 2.83494266,10.1827186 C2.83494266,10.1827186 0.306109563,13.5666717 3.79703418,12.7666682 C3.79703418,12.7666682 10.1098765,10.9844616 12.6754539,5.6062069 C12.6754539,5.6062069 12.8264533,5.15277371 12.3452989,4.68542552 C12.3452989,4.68542552 14.2695906,3.23326524 12.64121,0.00803007217" id="路径" fill="#A0D8F1" fill-rule="nonzero"></path>
            <path d="M12.64121,0.00803007217 C12.64121,0.00803007217 12.7851432,2.19790257 10.9672794,4.01228759 C10.9672794,4.01228759 10.4213332,4.78163467 7.6019159,5.98495569 C7.6019159,5.98495569 4.37428909,7.66780052 2.92723822,10.0016063 C2.92723822,10.0016063 0.782698176,12.588491 3.72332819,11.8949154 C3.72332819,11.8949154 9.68166424,9.6990638 11.8649054,5.66686758 C11.8649054,5.66686758 12.1602729,5.24311247 11.7107533,4.80652947 C11.7107533,4.80652947 13.8483359,3.13705608 12.64121,0.00803007217" id="路径" fill="#F0F0F0" fill-rule="nonzero"></path>
        </g>
    </g>
</svg>