<?xml version="1.0" encoding="UTF-8"?>
<svg width="40px" height="40px" viewBox="0 0 40 40" version="1.1" xmlns="http://www.w3.org/2000/svg" xmlns:xlink="http://www.w3.org/1999/xlink">
    <!-- Generator: Sketch 55.2 (78181) - https://sketchapp.com -->
    <title>TemplateIcon/etcd-operator</title>
    <desc>Created with Sketch.</desc>
    <g id="TemplateIcon/etcd-operator" stroke="none" stroke-width="1" fill="none" fill-rule="evenodd">
        <g id="etcd-1" transform="translate(4.000000, 5.000000)" fill="#419EDA" fill-rule="nonzero">
            <path d="M31.54825,16.008 C31.398,16.0205 31.247,16.026375 31.086625,16.026375 C30.155875,16.026375 29.252875,15.808125 28.43825,15.408375 C28.7095,13.8525 28.82475,12.285 28.7945,10.72325 C27.911375,9.44575 26.902,8.240375 25.7625,7.129875 C26.256875,6.203 26.987625,5.4055 27.9,4.84 L28.291625,4.597875 L27.986375,4.253625 C26.41375,2.48275 24.536875,1.113625 22.408875,0.184625 L21.9845,0 L21.87675,0.4485 C21.623,1.493875 21.0925,2.437 20.36425,3.19375 C18.969903,2.45259533 17.5064438,1.84951918 15.99475,1.393125 C14.4855525,1.84885605 13.0243889,2.45066188 11.632,3.19 C10.90675,2.434125 10.3775,1.493375 10.124875,0.451 L10.01625,0.0025 L9.5935,0.18625 C7.492375,1.101875 5.56375,2.508125 4.016875,4.2525 L3.71075,4.5975 L4.102,4.839625 C5.0115,5.402875 5.74025,6.19575 6.23375,7.1175 C5.09775,8.22375 4.0895,9.42525 3.207,10.696875 C3.172625,12.258 3.282,13.836875 3.5545,15.414375 C2.744,15.81025 1.846,16.026125 0.921375,16.026125 C0.759125,16.026125 0.60725,16.02025 0.45975,16.008 L0,15.973125 L0.043125,16.432 C0.268375,18.75425 0.989375,20.962875 2.187375,22.997375 L2.421125,23.394375 L2.772375,23.096375 C3.58498823,22.4085255 4.56586449,21.9490835 5.6145,21.765125 C6.29715186,23.16033 7.11169461,24.4870385 8.047,25.727125 C9.5255,26.24425 11.065875,26.63025 12.65675,26.86 C12.80925,27.912125 12.68775,29.00025 12.27275,30.006375 L12.09775,30.43275 L12.54775,30.531875 C13.70025,30.78525 14.863125,30.914375 16.001625,30.914375 L19.4545,30.531875 L19.905,30.43275 L19.729625,30.005625 C19.315625,28.999375 19.194125,27.91 19.34675,26.85775 C20.93125,26.62775 22.466,26.24275 23.939,25.727125 C24.8753056,24.4858559 25.6907671,23.157895 26.37425,21.761375 C27.4275151,21.9445908 28.4131604,22.4044551 29.23025,23.093875 L29.581375,23.391375 L29.814125,22.995375 C31.014125,20.95825 31.735125,18.74975 31.956875,16.43125 L32,15.973125 L31.54825,16.008 L31.54825,16.008 Z M20.93625,21.62 C19.30275,22.06425 17.64375,22.2885 15.99475,22.2885 C14.34125,22.2885 12.684375,22.064375 11.049375,21.62 C10.1545663,20.2312306 9.4431635,18.7325452 8.932875,17.16125 C8.424625,15.596625 8.12725,13.9575 8.041,12.2695 C9.09675,10.964125 10.2975,9.820625 11.624125,8.857875 C12.9710299,7.87837476 14.4403952,7.07945862 15.99475,6.4815 C17.5455483,7.0793206 19.011947,7.8764317 20.357,8.85275 C21.68875,9.820625 22.89475,10.973 23.95575,12.2865 C23.86525,13.964875 23.56425,15.594625 23.05525,17.156625 C22.5451837,18.7299023 21.8328896,20.2302494 20.93625,21.62 L20.93625,21.62 Z M17.34375,13.74525 C17.34375,14.89925 18.279,15.83275 19.4315,15.83275 C20.583625,15.83275 21.51775,14.8995 21.51775,13.74525 C21.51775,12.59575 20.583625,11.65875 19.4315,11.65875 C18.279,11.65875 17.343875,12.59575 17.343875,13.74525 L17.34375,13.74525 Z M14.6465,13.74525 C14.6465,14.89925 13.7115,15.83275 12.559,15.83275 C11.40575,15.83275 10.473375,14.8995 10.473375,13.74525 C10.473375,12.596125 11.405875,11.659125 12.559125,11.659125 C13.711625,11.659125 14.646625,12.596125 14.646625,13.745375 L14.6465,13.74525 Z" id="形状"></path>
        </g>
    </g>
</svg>