<?xml version="1.0" encoding="UTF-8"?>
<svg width="40px" height="40px" viewBox="0 0 40 40" version="1.1" xmlns="http://www.w3.org/2000/svg" xmlns:xlink="http://www.w3.org/1999/xlink">
    <!-- Generator: Sketch 55.2 (78181) - https://sketchapp.com -->
    <title>TemplateIcon/fluentd</title>
    <desc>Created with Sketch.</desc>
    <defs>
        <linearGradient x1="8.07950676e-06%" y1="49.9999926%" x2="99.9999986%" y2="49.9999926%" id="linearGradient-1">
            <stop stop-color="#2A59A2" offset="0%"></stop>
            <stop stop-color="#2A59A2" offset="100%"></stop>
        </linearGradient>
        <linearGradient x1="-7.214879%" y1="50.0000004%" x2="179.759176%" y2="50.0000004%" id="linearGradient-2">
            <stop stop-color="#91D3F2" offset="0%"></stop>
            <stop stop-color="#6FB2DE" offset="26.64%"></stop>
            <stop stop-color="#5598CE" offset="52.14%"></stop>
            <stop stop-color="#4B8FC8" offset="67.29%"></stop>
        </linearGradient>
        <linearGradient x1="1.29061428e-05%" y1="49.9999945%" x2="160.905283%" y2="49.9999945%" id="linearGradient-3">
            <stop stop-color="#2C9EC7" offset="0%"></stop>
            <stop stop-color="#2C63A5" offset="40.37%"></stop>
            <stop stop-color="#395DA1" offset="100%"></stop>
        </linearGradient>
        <linearGradient x1="-415.68433%" y1="50%" x2="441.177595%" y2="50%" id="linearGradient-4">
            <stop stop-color="#4FAAC4" offset="0%"></stop>
            <stop stop-color="#2F75B1" offset="0.155453%"></stop>
            <stop stop-color="#356EAC" offset="100%"></stop>
        </linearGradient>
        <linearGradient x1="-2.0096463e-05%" y1="50%" x2="162.175201%" y2="50%" id="linearGradient-5">
            <stop stop-color="#4FAAC4" offset="0%"></stop>
            <stop stop-color="#2F81B6" offset="0.155453%"></stop>
            <stop stop-color="#3B5EA9" offset="100%"></stop>
        </linearGradient>
        <linearGradient x1="-79.6109835%" y1="50%" x2="146.498207%" y2="50%" id="linearGradient-6">
            <stop stop-color="#4FAAC4" offset="0%"></stop>
            <stop stop-color="#1E3773" offset="0.155453%"></stop>
            <stop stop-color="#203370" offset="100%"></stop>
        </linearGradient>
        <linearGradient x1="49.9999819%" y1="147.299824%" x2="49.9999819%" y2="-3.0638215%" id="linearGradient-7">
            <stop stop-color="#4FAAC4" offset="0%"></stop>
            <stop stop-color="#2C5A9A" offset="0.155453%"></stop>
            <stop stop-color="#374580" offset="100%"></stop>
        </linearGradient>
        <linearGradient x1="-22.2598313%" y1="50.0000024%" x2="129.606152%" y2="50.0000024%" id="linearGradient-8">
            <stop stop-color="#38B1DA" offset="11.15%"></stop>
            <stop stop-color="#326FB5" offset="100%"></stop>
        </linearGradient>
    </defs>
    <g id="TemplateIcon/fluentd" stroke="none" stroke-width="1" fill="none" fill-rule="evenodd">
        <g id="Fluentd_icon" transform="translate(4.000000, 7.000000)" fill-rule="nonzero">
            <path d="M31.8216478,11.1483037 C31.6536349,11.1483037 31.3951535,11.1483037 31.2504039,11.1483037 C30.2113086,11.1353796 28.2184168,11.2465267 26.4116317,12.8077544 C22.0975767,16.542811 21.1127625,22.0407108 13.7305331,25.0080775 C7.5812601,27.4791599 0,25.1399031 0,25.1399031 C0,25.1399031 6.7644588,24.6694669 7.66138934,19.5075929 C8.36187399,15.4701131 4.68885299,12.6035541 2.38319871,8.96155089 C0.0387722132,5.25234249 -0.563489499,2.17124394 0.566074313,0.84006462 C3.76865913,-2.94151858 12.5880452,7.28142165 16.9667205,8.65912763 C21.2523425,10.0058158 24.1447496,6.87819063 27.6936995,7.33828756 C28.8258481,7.48303716 29.3789984,7.97156704 29.746042,8.59450727 C29.8701131,8.80387722 30.1751212,9.51728595 30.4465267,9.780937 C30.7127625,10.0394184 31.0668821,10.2306947 31.3977383,10.4245557 C31.819063,10.6726979 32.2352181,11.1483037 31.8216478,11.1483037 Z" id="路径" fill="url(#linearGradient-1)"></path>
            <path d="M11.5541195,5.23424879 C10.4943457,4.42778675 9.40096931,3.5825525 8.32568659,2.81227787 L8.32568659,2.81227787 C8.08271405,2.63909532 7.83974152,2.46849758 7.5993538,2.30306947 L7.5993538,2.30306947 C4.71728595,0.33085622 2.04458805,-0.904684976 0.566074313,0.84006462 C-0.563489499,2.17124394 0.0387722132,5.25234249 2.38578352,8.96155089 C2.40904685,9.0003231 2.43489499,9.0365105 2.45815832,9.07528271 C3.68077544,10.9673667 7.22714055,15.4003231 15.6329564,15.2116317 C16.1861066,14.6248788 17.0261712,13.5159935 18.1117932,12.3088853 C16.3515347,9.46300485 13.6995153,6.9815832 11.5541195,5.23424879 Z" id="路径" fill="url(#linearGradient-2)"></path>
            <path d="M20.0271405,18.6080775 C20.0607431,17.3466882 19.8306947,16.1033926 19.3938611,14.901454 C18.2901454,15.0668821 17.0468498,15.1806139 15.6329564,15.2116317 C14.6042003,16.3050081 12.2546042,19.2258481 8.36187399,21.857189 C3.17932149,25.3621971 0.00258481422,25.1399031 0.00258481422,25.1399031 C0.00258481422,25.1399031 7.58642973,27.4791599 13.7331179,25.0080775 C15.9379645,24.1214863 17.5741519,23.0100162 18.8975767,21.7848142 C19.1147011,21.5780291 19.9806139,20.4975767 20.0271405,18.6080775 Z" id="路径" fill="url(#linearGradient-3)"></path>
            <path d="M18.114378,12.3088853 C17.0287561,13.5134087 16.1861066,14.6248788 15.6355412,15.2116317 C17.0520194,15.1806139 18.295315,15.0668821 19.3964459,14.901454 C19.2672052,14.5421648 19.1172859,14.1880452 18.9518578,13.8390953 C18.7037157,13.3195477 18.4219709,12.8077544 18.114378,12.3088853 Z" id="路径" fill="url(#linearGradient-4)"></path>
            <path d="M24.4161551,7.73634895 C22.1466882,8.42390953 19.8798061,9.57415186 16.9667205,8.65912763 C15.5243942,8.20678514 13.5987076,6.79289176 11.5541195,5.23424879 C13.6995153,6.9815832 16.3515347,9.46042003 18.114378,12.3088853 C19.7221325,10.5279483 21.8675283,8.53764136 24.4161551,7.73634895 Z" id="路径" fill="url(#linearGradient-5)"></path>
            <path d="M19.3964459,14.901454 C19.8332795,16.1033926 20.0633279,17.3466882 20.0297254,18.6080775 C19.9806139,20.4949919 19.1147011,21.5754443 18.8975767,21.7848142 C22.0019386,18.9130856 23.3899838,15.4261712 26.4142165,12.8077544 C26.977706,12.3218094 27.5567044,11.9754443 28.1227787,11.7298869 L28.1201939,11.7298869 C26.1376414,12.5621971 23.9870759,14.2087237 19.3964459,14.901454 Z" id="路径" fill="url(#linearGradient-6)"></path>
            <path d="M31.8216478,11.1483037 C32.2352181,11.1483037 31.819063,10.6726979 31.4003231,10.4271405 C31.0694669,10.2306947 30.7153473,10.0394184 30.4491115,9.78352181 C30.1751212,9.51987076 29.8701131,8.80387722 29.7486268,8.59709208 C29.3789984,7.97156704 28.828433,7.48562197 27.6962843,7.34087237 C26.5589661,7.19353796 25.488853,7.41583199 24.4187399,7.73893376 C21.8701131,8.54022617 19.7221325,10.5305331 18.114378,12.3114701 C18.4219709,12.8103393 18.7063005,13.3195477 18.9518578,13.8390953 C19.1172859,14.19063 19.2672052,14.5447496 19.3964459,14.901454 C23.9896607,14.2087237 26.1376414,12.5621971 28.1201939,11.7298869 L28.1227787,11.7298869 C29.3712439,11.1870759 30.53958,11.1379645 31.2529887,11.1483037 C31.3977383,11.1483037 31.6562197,11.1483037 31.8216478,11.1483037 Z" id="路径" fill="url(#linearGradient-7)"></path>
            <path d="M8.36187399,21.857189 C12.2546042,19.2258481 14.6042003,16.3050081 15.6329564,15.2116317 C7.22714055,15.4003231 3.68077544,10.9673667 2.45815832,9.07528271 C4.76639742,12.6655897 8.35670436,15.5140549 7.66397415,19.5075929 C6.76704362,24.6694669 0.00258481422,25.1399031 0.00258481422,25.1399031 C0.00258481422,25.1399031 3.17932149,25.3621971 8.36187399,21.857189 Z" id="路径" fill="url(#linearGradient-8)"></path>
            <ellipse id="椭圆形" fill="#FFFFFF" cx="27.4610662" cy="9.26397415" rx="1" ry="1"></ellipse>
        </g>
    </g>
</svg>