<?xml version="1.0" encoding="UTF-8"?>
<svg width="40px" height="40px" viewBox="0 0 40 40" version="1.1" xmlns="http://www.w3.org/2000/svg" xmlns:xlink="http://www.w3.org/1999/xlink">
    <!-- Generator: Sketch 55.2 (78181) - https://sketchapp.com -->
    <title>TemplateIcon/Gitlab</title>
    <desc>Created with Sketch.</desc>
    <g id="TemplateIcon/Gitlab" stroke="none" stroke-width="1" fill="none" fill-rule="evenodd">
        <g id="gitlab" transform="translate(4.000000, 5.000000)" fill-rule="nonzero">
            <polygon id="路径" fill="#E24329" points="16.0029762 29.469963 21.8933323 11.3414616 10.112495 11.3414616 16.0028511 29.469963"></polygon>
            <polygon id="路径" fill="#FC6D26" points="16.0029762 29.4698379 10.112495 11.3413365 1.85744298 11.3413365"></polygon>
            <path d="M1.85744298,11.3413365 L0.0674769908,16.8505402 C-0.0957933777,17.3529775 0.0830213344,17.9034057 0.510404162,18.2139606 L16.0029762,29.469963 L1.85731793,11.3413365 L1.85744298,11.3413365 Z" id="路径" fill="#FCA326"></path>
            <path d="M1.85744298,11.3414616 L10.112495,11.3414616 L6.56495098,0.422719088 C6.38237795,-0.139130652 5.58756002,-0.139005602 5.40511204,0.422719088 L1.85744298,11.3414616 Z" id="路径" fill="#E24329"></path>
            <polygon id="路径" fill="#FC6D26" points="16.0029762 29.4698379 21.8933323 11.3413365 30.1485094 11.3413365 16.0028511 29.4698379"></polygon>
            <path d="M30.1485094,11.3413365 L31.9384754,16.8505402 C32.1017194,17.3530046 31.9228521,17.9034392 31.4954232,18.2139606 L16.0029762,29.469963 L30.1485094,11.3413365 L30.1485094,11.3413365 Z" id="路径" fill="#FCA326"></path>
            <path d="M30.1485094,11.3414616 L21.8933323,11.3414616 L25.4410014,0.422719088 C25.6235744,-0.139130652 26.4183924,-0.139005602 26.6008403,0.422719088 L30.1485094,11.3414616 Z" id="路径" fill="#E24329"></path>
        </g>
    </g>
</svg>