<?xml version="1.0" encoding="UTF-8"?>
<svg width="40px" height="40px" viewBox="0 0 40 40" version="1.1" xmlns="http://www.w3.org/2000/svg" xmlns:xlink="http://www.w3.org/1999/xlink">
    <!-- Generator: Sketch 55.2 (78181) - https://sketchapp.com -->
    <title>TemplateIcon/jaeger-operator</title>
    <desc>Created with Sketch.</desc>
    <g id="TemplateIcon/jaeger-operator" stroke="none" stroke-width="1" fill="none" fill-rule="evenodd">
        <g id="jaegertracingio-icon" transform="translate(6.000000, 4.000000)" fill-rule="nonzero">
            <path d="M20.2179091,8.96643235 C20.2179091,8.96643235 22.1988908,9.76816454 23.4724729,20.0976633 C23.4724729,20.0976633 21.6345839,20.805063 22.7650732,22.0315726 C23.8955624,23.2580821 24.0403431,25.5691338 24.0403431,25.5691338 C24.0403431,25.5691338 17.342738,26.5593434 5.69277236,25.7105387 C5.69277236,25.7105387 1.0234091,16.1829597 2.86092301,12.8813234 L5.9268219,12.9756559 C5.9268219,12.9756559 10.3602602,15.1923751 10.1717828,12.834251 C10.1717828,12.834251 10.9879556,12.7532338 11.1117318,12.678593 C11.235508,12.6039522 12.1895224,14.4377153 14.7537526,11.3778177 C14.7537526,11.3778177 18.7423468,9.85405772 20.1545207,8.98668664 L20.2179091,8.96643235 Z M5.01406622,10.7124269 C5.01406622,10.7124269 3.80762337,7.24331766 2.28217552,7.96609564 C0.75672766,8.68887361 2.39319902,11.2806722 2.82303999,11.8350395 C2.82303999,11.835227 4.14031879,10.9761077 5.01406622,10.7120518 L5.01406622,10.7124269 Z" id="形状" fill="#60D0E4"></path>
            <g id="编组" transform="translate(0.100526, 8.706127)">
                <path d="M15.0112396,19.6725386 C14.8606452,19.428362 14.5105086,19.4334255 14.1665608,19.3833524 C13.9415132,19.3501579 13.4299049,19.2946462 13.416402,19.0129615 C13.3976481,18.7053965 13.8503689,18.5917474 14.1571838,18.5268587 C14.8910266,18.3717633 15.622619,18.3993317 16.506306,18.3993317 C16.8851362,18.3993317 17.3903681,18.4231492 17.4320019,18.6768904 C17.4666968,18.8899355 17.2866587,19.0420302 17.1426282,19.1397384 C17.0147261,19.2265693 16.7562964,19.3085241 16.7493575,19.4986893 C16.7366048,19.8358857 17.3569861,19.7743727 17.2122054,20.2390961 C17.1587566,20.4108824 16.860756,20.5091532 16.6336455,20.5766675 C15.9134931,20.7829612 15.0671264,20.8536636 14.238201,20.923991 C13.4880422,20.9877545 12.5282141,21.1312224 11.6460274,21.0050082 C11.3934114,20.9675002 11.0601534,20.8726051 11.0444,20.6927546 C11.0190822,20.4045061 11.4944953,20.3135493 11.7502994,20.2758538 C12.4573241,20.172707 13.120652,20.2180916 13.891065,20.1833968 C14.4281787,20.1590166 14.9675428,20.1646428 15.0133025,19.674414 L15.0112396,19.6725386 Z M7.43144785,19.7768107 C7.95243311,19.7518679 8.68421299,19.7846874 9.20182254,19.9155901 C9.3372262,19.9499098 9.5947182,20.0056091 9.59528206,20.1470141 C9.59603098,20.2981711 9.25620905,20.3626847 9.06304317,20.4133204 C7.96256026,20.6983808 6.83507163,20.7883998 5.61475085,20.9337431 C5.39289139,20.9605613 5.16240511,20.975752 4.92029137,21.0380151 C4.77926152,21.0743978 4.43362587,21.1771696 4.44581595,21.3504563 C4.4611942,21.5642515 5.01406121,21.5061142 5.24435996,21.524118 C5.54067267,21.5469979 5.91575205,21.5830055 5.9386319,21.8016768 C5.97764015,22.1743181 5.24154686,22.1908216 4.87396906,22.2180149 C3.86125472,22.2939685 2.99069547,22.2560854 2.05037146,22.1369977 C1.86714518,22.1139304 1.63778413,22.0706087 1.44874412,21.9982184 C1.2799584,21.9331421 1.04853442,21.8354339 1.04365839,21.6741498 C1.0361568,21.4331613 1.41311158,21.3422045 1.62221834,21.292319 C2.39863266,21.108155 3.24481176,21.0376401 4.05235767,20.8641658 C4.56509119,20.75408 5.07013558,20.5579135 5.48703632,20.3896904 C5.94238269,20.2059015 6.3733489,19.9681012 6.8410729,19.8341979 C7.02861259,19.7811241 7.17864434,19.7886257 7.43107277,19.7764356 L7.43144785,19.7768107 Z M17.0361056,20.5869822 C17.1568812,20.5747921 17.4856383,20.588295 17.4873261,20.7488289 C17.4901392,20.9836286 16.7489824,20.9828785 16.7371674,20.7604564 C16.728353,20.6213019 16.900702,20.6010477 17.037981,20.5869822 L17.0361056,20.5869822 Z M16.0871548,20.7838989 C16.2446881,20.7692708 16.5079939,20.7782727 16.5154955,20.9459332 C16.5267478,21.1998619 15.7653367,21.1889846 15.7747137,20.9459332 C15.7799648,20.8362224 15.9221199,20.7990896 16.0869673,20.7838989 L16.0871548,20.7838989 Z M14.9532898,20.9800654 C15.0226795,20.9748143 15.1895898,20.9669376 15.3120533,20.9916928 C15.3565002,21.0006947 15.5384137,21.0676464 15.5434772,21.1304722 C15.5534168,21.2495599 15.301176,21.2943819 15.1849013,21.3039464 C14.9557278,21.323263 14.5416402,21.2940068 14.5251367,21.1535396 C14.5090083,21.0153228 14.8188239,20.990005 14.9532898,20.9800654 L14.9532898,20.9800654 Z M13.4492215,21.0959649 C13.631135,21.0715847 14.04466,21.0805867 14.0508488,21.280879 C14.0598507,21.5672522 13.1319043,21.5687525 13.1249654,21.2925065 C13.1215897,21.1434125 13.3081916,21.1149064 13.449409,21.0959649 L13.4492215,21.0959649 Z M11.6900992,21.1169694 C11.8444443,21.1064671 11.9984144,21.1068422 12.1645746,21.1402243 C12.2452167,21.1561651 12.4938943,21.2137398 12.502146,21.3249509 C12.513961,21.5378084 11.9136465,21.5762541 11.6207095,21.5565624 C11.4434845,21.5449349 11.112852,21.4762954 11.111534,21.3367659 C11.110414,21.2186159 11.290077,21.1786699 11.3429632,21.1631041 C11.4691774,21.1265339 11.5395048,21.1255962 11.6899116,21.1169694 L11.6900992,21.1169694 Z M0.870184172,21.5801924 C0.814859963,21.7489781 0.266306363,21.8423729 0.0600127015,21.7189718 C0.167660485,21.5314321 0.628820588,21.483797 0.870184172,21.5801924 L0.870184172,21.5801924 Z M0.997711163,21.8828815 C0.856493775,22.0918007 0.314504064,22.1675667 0.04876032,22.0334758 C0.191665566,21.826432 0.7314048,21.7480404 0.997711163,21.8828815 Z M1.21750768,22.1604402 C1.06653823,22.3504179 0.532987806,22.4443753 0.268556839,22.2995947 C0.374141686,22.1056786 1.00840093,22.0089081 1.21750768,22.1604402 Z M2.18952591,22.2995947 C2.09144265,22.5334566 1.43036523,22.636791 1.20588022,22.4500015 C1.32403023,22.2039494 1.93803518,22.1255578 2.18952591,22.2995947 Z M2.97625492,22.3457294 C3.12384865,22.334102 3.41997383,22.3219119 3.57788225,22.3687968 C3.87044417,22.4556277 3.64014543,22.6125984 3.4160355,22.6696105 C3.18536167,22.7301858 2.93480864,22.7588794 2.64055887,22.7390002 C2.50215457,22.7296232 2.26923028,22.6926778 2.25872805,22.6002208 C2.24597536,22.4905101 2.47008529,22.4364986 2.54791426,22.4149316 C2.71669998,22.3676716 2.82359761,22.357732 2.97625492,22.3455419 L2.97625492,22.3457294 Z M5.2908698,22.4728813 C5.27774202,22.6197249 5.08082534,22.7039302 4.90885145,22.7622551 C4.72138098,22.8240239 4.52710775,22.8628155 4.3302915,22.8777795 C4.20182681,22.8858437 3.94771052,22.8770294 3.92520576,22.7853225 C3.89144862,22.6484185 4.20013895,22.5415209 4.29559665,22.5077637 C4.49307595,22.4368737 4.68624183,22.3952399 4.86252914,22.3806118 C5.03450304,22.3678591 5.22729384,22.3731102 5.2908698,22.4730689 L5.2908698,22.4728813 Z M14.9649173,0.139341991 C14.9780451,0.141592468 14.9712936,0.150969452 14.9649173,0.150969452 C14.1903784,1.02021593 13.4668502,1.9513505 12.5580329,2.73151562 C12.4526356,2.82209729 12.2611575,3.00719897 12.1182523,2.99782198 C12.0372352,2.99257087 11.9352136,2.87910936 11.852321,2.84722761 C11.3647178,2.66100069 10.8471083,3.03964333 10.8686753,3.57638193 C10.6890123,3.63133106 10.4947212,3.65139781 10.2901154,3.668839 C10.0956367,3.68759297 9.86965139,3.73485297 9.67686058,3.7151613 C9.53433042,3.70053321 9.44149827,3.62589241 9.24870747,3.64577162 C9.16000119,3.6551486 9.09023643,3.71291083 8.9824011,3.72678877 C8.81361538,3.74816829 8.58856775,3.6905936 8.39221369,3.64577162 C7.16195331,3.36446208 6.11360643,2.72307633 4.90903899,2.46558433 C5.05757042,2.37500266 5.24548519,2.32380433 5.41820925,2.25929067 C5.44784052,2.20340384 5.35819655,2.11338479 5.38351441,2.062374 C8.23336757,2.35943687 10.7177059,1.67941794 12.8475942,0.974643781 C13.5859379,0.730279562 14.3057153,0.422151847 14.9667927,0.141592468 L14.9649173,0.139341991 Z" id="形状" fill="#000000"></path>
                <path d="M12.8472191,0.972393305 C10.7175183,1.67716747 8.23318003,2.35737393 5.38313933,2.06012352 C5.35800901,2.11075924 5.4472779,2.20077829 5.41783417,2.2570402 C5.24529765,2.32342925 5.05719534,2.37481512 4.90866391,2.46520926 C6.11304381,2.72270125 7.16157823,3.36239914 8.39183861,3.64539654 C8.58650481,3.69040607 8.81530324,3.74779321 8.98202602,3.72641369 C9.08967381,3.71253575 9.15943857,3.65458598 9.24833239,3.64539654 C9.44112319,3.62570487 9.5337678,3.70034567 9.6764855,3.71478623 C9.86965139,3.73447789 10.0952616,3.68515495 10.2897403,3.66846392 C10.4945336,3.65102273 10.6886372,3.63095598 10.8683002,3.57600685 C10.8469207,3.03926825 11.3624673,2.66081315 11.8519459,2.84685253 C11.935026,2.87873428 12.0370476,2.99200825 12.1178772,2.9974469 C12.2607825,3.00682389 12.4522605,2.82172221 12.5576578,2.73114054 C13.4664751,1.95097542 14.1903784,1.01984085 14.9645422,0.150594373 C14.9709186,0.150594373 14.97767,0.141217388 14.9645422,0.138966912 C14.3053402,0.419526292 13.5855629,0.727841546 12.8472191,0.972018225 L12.8472191,0.972393305 Z" id="路径" fill="#638B18"></path>
                <path d="M13.8888145,20.1817089 C13.1184015,20.2165913 12.4550736,20.1712067 11.7480489,20.274166 C11.4901819,20.3116739 11.0166441,20.4028182 11.0421495,20.6910667 C11.0579029,20.8711048 11.3909734,20.9675002 11.6437769,21.0033203 C12.5259636,21.1297221 13.4857917,20.9858791 14.2359505,20.9223032 C15.0648759,20.8519758 15.9112426,20.7835238 16.631395,20.5749796 C16.8564426,20.5093408 17.1565061,20.4112575 17.2099549,20.2374082 C17.3549231,19.7723098 16.7343543,19.8341979 16.747107,19.4970015 C16.7542335,19.3085241 17.0126632,19.2250689 17.1403777,19.1380505 C17.2844082,19.0405299 17.4644463,18.8882477 17.4297515,18.6752026 C17.3881177,18.4212738 16.8826982,18.3976438 16.5040555,18.3976438 C15.622619,18.3976438 14.8887762,18.3698879 14.1549334,18.5251708 C13.848306,18.5900595 13.397273,18.7038961 13.4141516,19.0112737 C13.4297174,19.2929583 13.9392627,19.3484701 14.1643103,19.3816646 C14.5084457,19.4317377 14.8582072,19.4266741 15.0089891,19.6708508 C14.963417,20.160892 14.4238653,20.1554534 13.8867516,20.1798335 L13.8888145,20.1817089 Z M6.84144798,19.8347605 C6.37372398,19.9686638 5.94275777,20.2064641 5.4874114,20.390253 C5.07032312,20.5582886 4.56527873,20.7544551 4.05273275,20.8647285 C3.24518684,21.0382027 2.39900774,21.1085301 1.62259342,21.2928816 C1.41348666,21.3427671 1.03671942,21.4335364 1.04403347,21.6747124 C1.0489095,21.8359965 1.28033348,21.9335172 1.4491192,21.998781 C1.63665889,22.0711713 1.86733272,22.114493 2.05074654,22.1375604 C2.99107055,22.2566481 3.86125472,22.2945311 4.87434414,22.2185775 C5.24192194,22.1911967 5.97801523,22.1748808 5.93900698,21.8022394 C5.91612713,21.5835681 5.54104775,21.5475605 5.24473504,21.5246806 C5.01406121,21.5068644 4.46156928,21.5646266 4.44619103,21.3510189 C4.43400095,21.1777322 4.77944906,21.0749605 4.92066645,21.0385778 C5.16296773,20.9763146 5.39326647,20.9611239 5.61512593,20.9343057 C6.83563424,20.7872746 7.96312288,20.6989434 9.06341825,20.413883 C9.25658413,20.3632473 9.59640606,20.2987337 9.59565714,20.1475767 C9.59509328,20.0057967 9.33760128,19.9502849 9.20219762,19.9161527 C8.68458807,19.78525 7.95262065,19.7524306 7.43182293,19.7773733 C7.1793945,19.7893759 7.02748735,19.7818743 6.84182305,19.8351356 L6.84144798,19.8347605 Z M16.7354795,20.7602689 C16.7491699,20.9828785 17.4903268,20.9853165 17.4856383,20.7486414 C17.4837629,20.5881074 17.1550058,20.5742295 17.0344178,20.5867946 C16.8971387,20.6010477 16.7249773,20.6211144 16.7336041,20.7602689 L16.7354795,20.7602689 Z M15.7749012,20.9478086 C15.7632738,21.19086 16.52506,21.2017373 16.515683,20.9478086 C16.5081814,20.779773 16.2446881,20.7711462 16.0873423,20.7857743 C15.9226825,20.8007774 15.7805274,20.8379103 15.7750888,20.9478086 L15.7749012,20.9478086 Z M14.5249492,21.1537271 C14.5414527,21.2943819 14.9553528,21.323263 15.1847138,21.304134 C15.3009884,21.294757 15.5532293,21.2478721 15.5432897,21.1306598 C15.5382261,21.067834 15.3563126,21.0008823 15.3118657,20.9918804 C15.1895898,20.9669376 15.0226795,20.9731264 14.9531023,20.9802529 C14.8186363,20.9901925 14.5086332,21.0155104 14.5249492,21.1537271 L14.5249492,21.1537271 Z M13.1249654,21.2925065 C13.1315293,21.5687525 14.0596632,21.5672522 14.0508488,21.280879 C14.0444725,21.0805867 13.6307599,21.0715847 13.4492215,21.0959649 C13.3080041,21.1147189 13.1214021,21.1432249 13.1247778,21.2925065 L13.1249654,21.2925065 Z M11.3427757,21.1653546 C11.2898895,21.1809204 11.1102265,21.2208663 11.1113464,21.3390163 C11.1126645,21.4785459 11.4432969,21.54531 11.620522,21.5588129 C11.9115836,21.578317 12.5117106,21.5400589 12.5019585,21.3272013 C12.4957697,21.2158028 12.2469045,21.1584156 12.1643871,21.1424748 C11.9982269,21.1090927 11.8442568,21.1087176 11.6899116,21.1192198 C11.5398799,21.1295345 11.4695525,21.1285968 11.3429632,21.1653546 L11.3427757,21.1653546 Z M0.0603877809,21.7208472 C0.266681442,21.8442483 0.815047503,21.7527289 0.870559252,21.5820678 C0.629383207,21.4856724 0.168223104,21.5333075 0.0603877809,21.7208472 L0.0603877809,21.7208472 Z M0.04876032,22.0332883 C0.314504064,22.1673792 0.856493775,22.0918007 0.997711163,21.8826939 C0.7314048,21.7480404 0.191665566,21.826432 0.04876032,22.0332883 Z M0.268556839,22.2995947 C0.531112409,22.4440002 1.06653823,22.3502304 1.21750768,22.1604402 C1.00840093,22.0104084 0.374141686,22.1056786 0.268556839,22.2995947 Z M1.20588022,22.4500015 C1.43036523,22.636791 2.09106757,22.5334566 2.18952591,22.2995947 C1.93822272,22.1257454 1.32421777,22.2058248 1.20588022,22.4500015 Z M2.5481018,22.414744 C2.47027283,22.4363111 2.24803829,22.4903225 2.25891559,22.6000332 C2.26960536,22.6924903 2.50215457,22.731311 2.64074641,22.7388126 C2.93518372,22.7585043 3.18536167,22.7299982 3.41622304,22.6694229 C3.64033297,22.6103479 3.87081925,22.4552526 3.57806979,22.3686093 C3.42016137,22.3217243 3.12422373,22.3339144 2.97644246,22.3455419 C2.82397269,22.3575444 2.71895046,22.367484 2.5481018,22.4149316 L2.5481018,22.414744 Z M4.86290422,22.3806118 C4.68661691,22.3933645 4.49345103,22.4368737 4.29597173,22.5077637 C4.20220189,22.5420835 3.89163616,22.6484185 3.92558084,22.7853225 C3.9480856,22.8790923 4.20220189,22.8858437 4.33066657,22.8777795 C4.52747027,22.8627242 4.72173258,22.8239347 4.90922653,22.7622551 C5.08120042,22.7059932 5.2781171,22.6197249 5.29124488,22.4728813 C5.22748138,22.3731102 5.03469058,22.3678591 4.86290422,22.3804243 L4.86290422,22.3806118 Z" id="形状" fill="#000000"></path>
            </g>
            <path d="M14.911661,7.00889305 C7.95468859,10.0277195 4.46457492,8.70687742 4.46457492,8.70687742 L5.28974956,10.3577893 C10.2657402,10.9237841 15.379385,8.24703009 15.379385,8.24703009 L15.6351891,7.54600672 C15.6351891,7.54600672 15.2113494,7.63733856 14.9675478,6.99088924 L14.911661,7.00889305 Z" id="路径" fill="#E1CAA2"></path>
            <path d="M15.4187683,4.98665254 L15.3302496,4.68602642 C15.3302496,4.68602642 9.72318789,2.49293726 8.44979338,3.16489197 C7.17639887,3.83684669 5.53167577,5.00446881 4.32879618,6.80822558 L4.31116745,8.24102882 C4.31116745,8.24102882 7.7662112,9.67383207 14.8884061,6.58449072 C14.8884061,6.58449072 14.7940736,5.72330846 15.4191434,4.98665254 L15.4187683,4.98665254 Z" id="路径" fill="#638B18"></path>
            <path d="M15.8501096,7.02727194 C15.7657168,7.1007875 15.6861999,7.15479893 15.6025572,7.13848297 C15.3497537,7.08878496 15.233104,6.5976185 15.3422522,6.04137577 C15.4514003,5.48513305 15.7450874,5.07460866 15.998266,5.12243128 C16.241505,5.1702539 16.3583422,5.62653797 16.2698235,6.15652514 C16.2698235,6.15652514 16.0005165,6.65069223 15.8729895,6.99764066 L15.8501096,7.02727194 Z" id="路径" fill="#000000"></path>
            <path d="M19.2980269,4.45028902 C19.2980269,4.45028902 18.0246324,3.61311184 16.6687204,5.47613114 C16.6687204,5.47613114 16.4918705,4.36777156 15.5838033,4.83924635 C15.5838033,4.83924635 15.7606532,3.24740944 15.6426907,3.02329951 C15.6426907,3.02329951 15.9965781,3.12944697 16.1025381,3.36518436 C16.1025381,3.36518436 17.0342353,2.45749225 16.9751603,1.1957252 C16.9751603,1.1957252 17.2227126,1.23098267 17.2227126,1.54942506 C17.2227126,1.54942506 17.5696611,0.782012642 17.9096705,0.368300081 L17.9419274,0.322915476 C19.3096543,-0.86796157 18.0480748,2.68141465 18.0480748,2.68141465 C18.0480748,2.68141465 17.9745593,2.85770196 17.8993559,2.95259704 C17.8241524,3.04749213 18.547118,2.71160854 18.5383036,2.43742551 C18.5294892,2.16324248 18.6288853,2.82431989 18.5383036,2.94378268 C18.5383036,2.94378268 19.7344317,1.99764493 19.7696892,1.50216506 C19.7696892,1.50216506 19.9583541,1.87949492 19.9110941,2.18593478 C19.9110941,2.18593478 20.9721937,1.38420259 20.9960113,1.00668519 C20.9960113,1.00668519 21.1254136,3.04655443 19.1093619,3.82484415 C19.1093619,3.82484415 19.4394318,3.82484415 19.8520191,3.74232669 L19.2980269,4.45028902 Z" id="路径" fill="#E1CAA2"></path>
            <path d="M19.9703567,6.89111812 C19.9703567,6.89111812 24.2271326,5.94779347 21.9631534,7.46874037 C19.6991743,8.98968728 19.3689169,8.91917235 19.3689169,8.91917235 C19.3689169,8.91917235 19.8287642,8.23727803 19.9703567,6.89111812 Z M19.2982144,8.97805982 L15.3833233,10.6878592 C15.3833233,10.6878592 16.5980179,9.65020207 16.1852431,9.08401974 C16.1852431,9.08420728 18.2369273,8.77776742 19.298402,8.97805982 L19.2982144,8.97805982 Z" id="形状" fill="#638B18"></path>
            <path d="M15.6663207,8.6836225 C16.7510503,5.67679861 17.2964157,5.33828947 17.2964157,5.33828947 C17.8106496,4.78504737 18.4578491,4.54124577 18.9688947,4.77529531 C19.4114884,4.97783818 19.6489136,5.49225955 19.6509766,6.11376609 L19.650789,6.15314943 C19.650789,6.15314943 19.5692093,7.66959538 19.144807,8.53040257 C19.144807,8.53040257 17.564785,8.30629264 15.8666131,8.7545125 L15.6663207,8.6836225 Z" id="路径" fill="#60D0E4"></path>
            <path d="M17.2153986,7.3399006 C17.2153986,7.3399006 18.0642032,5.65054305 18.5821879,6.04100069 C18.5821879,6.04100069 18.7097149,6.19384554 18.3785198,7.30595592 C18.3785198,7.30595592 19.7475595,5.63347694 18.3278841,5.59090543 C18.3276965,5.59109297 17.3770578,5.55714829 17.2157737,7.3399006 L17.2153986,7.3399006 Z M4.02010585,10.6559774 C4.02010585,10.6559774 2.90236928,8.96511958 2.80109785,9.30194086 C2.69982641,9.63876215 2.86861214,10.2343882 2.89486769,10.3971727 C2.92112325,10.5599571 2.04081193,9.35782769 2.63081181,8.91935989 C3.22081168,8.48089209 3.95109124,9.84092994 4.01860553,10.6554148 L4.02010585,10.6559774 Z" id="形状" fill="#000000"></path>
            <path d="M2.7172676,12.3659644 L2.76133943,12.3659644 C2.76133943,12.3659644 3.40910153,11.8946771 3.60057955,11.8211616 C3.79205758,11.747646 3.3650297,12.5278111 4.4985196,12.5278111 C5.6320095,12.5278111 1.55414643,12.6750298 0.626762654,11.8654209 C0.626762654,11.8654209 0.546120586,11.5152843 1.78913367,10.9389748 C1.78913367,10.9389748 2.53929244,12.2795086 2.71745514,12.3642765 L2.7172676,12.3659644 Z" id="路径" fill="#638B18"></path>
            <path d="M6.70754964,12.8222484 C5.42534076,12.2558786 4.46570016,12.0908436 4.46570016,12.0908436 C4.45632317,12.0915938 4.44657111,12.0919689 4.43700658,12.0919689 C4.23558895,12.0919689 4.07205434,11.9612537 4.07205434,11.8001571 C4.07205434,11.6390605 4.23558895,11.5083453 4.43700658,11.5083453 C4.45379407,11.5083453 4.47056978,11.5092344 4.48726722,11.5109709 C4.48726722,11.5109709 5.42871648,11.6685042 6.89340147,12.2804463 L7.05281021,12.3460851 C8.41472346,12.8501918 8.96308952,12.8636947 8.96308952,12.8636947 C9.14687841,12.8792605 9.19526366,12.8792605 9.21964382,12.8614442 C9.24402398,12.843628 9.39649375,12.7841779 9.39649375,12.7841779 C9.59022225,12.7892414 9.74569265,12.9235199 9.74569265,13.0883673 C9.74569265,13.2470258 9.4737601,13.4197499 9.29034628,13.4341904 C9.29034628,13.4341904 8.28232043,13.5137073 6.76118599,12.841565 L6.70754964,12.8222484 Z M15.8219787,9.42552952 C15.8251669,9.40958865 15.8266672,9.39308515 15.8266672,9.37601904 C15.8266672,9.23011316 15.7058916,9.11346335 15.5569851,9.11346335 C15.5203478,9.11346335 15.484071,9.1206966 15.450275,9.134843 L14.3355391,10.351413 C13.8786924,10.8686475 12.761706,12.090281 12.293982,12.1452301 L12.0299261,12.1726109 C12.0077964,12.1287266 11.8885212,12.0225792 11.8885212,12.0225792 C11.8135053,11.9560026 11.7122339,11.9278716 11.6158385,11.9573154 C11.4620559,12.0042003 11.3791634,12.182363 11.4312994,12.3507736 C11.4504006,12.4140167 11.4871613,12.4704915 11.5372593,12.5135581 C11.5372593,12.5135581 12.310673,13.2969114 13.6422048,11.9046167 L15.0948873,10.3694168 C15.0948873,10.3694168 15.7700302,9.63201072 15.8156023,9.45609849 L15.8219787,9.42552952 Z" id="形状" fill="#000000"></path>
            <path d="M18.1504715,14.9073147 C18.1504715,16.3860652 16.9502175,17.5859442 15.4686539,17.5859442 C13.9870903,17.5859442 12.7875865,16.3862527 12.7875865,14.9073147 C12.7875865,13.4272515 13.9878405,12.2254971 15.4686539,12.2254971 C16.9490488,12.2254971 18.1494363,13.4250448 18.1504715,14.9054393 L18.1504715,14.9073147 Z M9.82370916,16.864854 C9.82370916,18.343792 8.62345513,19.5434835 7.14189156,19.5434835 C5.660328,19.5434835 4.46269952,18.3456674 4.46269952,16.864854 C4.46269952,15.3840406 5.66295355,14.1830364 7.1439545,14.1830364 C8.62508146,14.1830364 9.8257721,15.3837271 9.8257721,16.864854 L9.82370916,16.864854 Z M12.0584321,21.1587628 C12.1291346,21.5595352 12.2941695,22.4085273 12.8601643,22.3376373 C13.4261591,22.2667473 13.2140517,21.1349453 13.2140517,21.1349453 C13.2140517,21.1349453 12.2470971,21.0880604 12.1525771,21.1349453 L12.0584321,21.1587628 Z M11.7283623,21.2701614 C11.7283623,21.2701614 11.2092524,21.4914582 10.7949772,21.7615154 C10.7949772,21.7615154 11.0012709,22.8162386 11.6895416,22.5013595 C11.6895416,22.5013595 12.1424499,22.4015884 11.7559306,21.3410514 L11.7283623,21.2701614 Z M10.4103333,18.9266654 C10.4103333,18.9266654 7.10963474,19.9206258 8.7286649,21.589729 C9.79013956,22.6838356 11.2593255,20.8208163 12.0428663,20.8388201 C12.0428663,20.8388201 12.2225294,20.7572403 12.5979838,20.8061882 C12.9734383,20.8551361 15.4227067,21.051115 15.65113,20.0714077 C15.8795534,19.0917003 15.5858662,18.9285408 15.4062032,18.8143291 C15.2265402,18.7001175 13.9368297,17.9328926 12.0102344,18.4715066 L10.4103333,18.9266654 Z" id="形状" fill="#FFFFFF"></path>
            <circle id="椭圆形" fill="#000000" cx="6.90784203" cy="17.7849238" r="1"></circle>
            <ellipse id="椭圆形" fill="#000000" cx="15.114954" cy="15.7804995" rx="1" ry="1"></ellipse>
            <ellipse id="椭圆形" fill="#000000" transform="translate(11.618599, 18.688967) rotate(-11.454882) translate(-11.618599, -18.688967) " cx="11.6185995" cy="18.6889671" rx="1.48721799" ry="1"></ellipse>
            <path d="M10.0772628,19.460966 C10.0772628,19.460966 8.00194859,20.4277331 8.97077864,21.2294653 C9.93960869,22.0311975 10.4092081,20.7343605 11.8241951,20.4986231 C13.239182,20.2628857 14.866464,20.640028 15.1965338,20.0267732 C15.5266037,19.4135185 15.6466291,18.9202891 13.333327,18.7061187 C13.333327,18.7061187 13.1214071,19.7203334 11.8948975,19.8381083 C10.6683879,19.9558832 10.4568432,19.7435883 10.0795133,19.4607785 L10.0772628,19.460966 Z" id="路径" fill="#E1CAA2"></path>
            <path d="M26.5018015,24.0217438 C26.5018015,24.0217438 29.9285268,24.748085 24.9744783,25.4746138 C24.9744783,25.4746138 26.1479141,24.9903863 26.5018015,24.0217438 Z" id="路径" fill="#231F20"></path>
            <path d="M24.1551174,24.3568772 C24.1551174,24.3568772 24.0431562,22.6065693 23.0002479,21.6566807 C21.9573397,20.7067922 23.8756832,20.4089791 24.4716844,20.6694718 C25.0676855,20.9299644 27.5447098,22.6437021 25.3654985,24.8412922 C25.3654985,24.8412922 24.434364,25.5117466 24.1736838,24.450272 L24.1551174,24.3568772 Z" id="路径" fill="#E1CAA2"></path>
            <path d="M2.25948321,23.9652943 C2.25948321,23.9652943 2.08263328,24.849544 2.22422575,25.2210601 C2.22422575,25.2210601 -0.765156943,24.7079515 2.08263328,24.0005518 L2.25948321,23.9652943 Z" id="路径" fill="#000000"></path>
            <path d="M3.69191138,21.9666838 C3.69191138,21.9666838 1.85646042,24.1383935 2.8074742,25.9106436 C3.58576392,27.3610755 5.15978456,25.7163524 5.19522956,25.6630912 L3.69191138,21.9666838 Z" id="路径" fill="#E1CAA2"></path>
        </g>
    </g>
</svg>