<?xml version="1.0" encoding="UTF-8"?>
<svg width="40px" height="40px" viewBox="0 0 40 40" version="1.1" xmlns="http://www.w3.org/2000/svg" xmlns:xlink="http://www.w3.org/1999/xlink">
    <!-- Generator: Sketch 55.2 (78181) - https://sketchapp.com -->
    <title>TemplateIcon/Jenkins</title>
    <desc>Created with Sketch.</desc>
    <g id="TemplateIcon/Jenkins" stroke="none" stroke-width="1" fill="none" fill-rule="evenodd">
        <g id="jenkins-1" transform="translate(10.000000, 4.000000)" fill-rule="nonzero">
            <path d="M19.2444485,12.9792865 C19.2444485,18.3101112 15.0177493,22.6357413 9.8011285,22.6357413 C4.58450775,22.6357413 0.357962,18.3101113 0.357962,12.9792865 C0.357962,7.648385 4.5845845,3.322755 9.8011285,3.322755 C15.017826,3.322755 19.2444485,7.648385 19.2444485,12.9792865" id="路径" fill="#D33833"></path>
            <path d="M0.746317,15.3705095 C0.746317,15.3705095 0.0609395,5.302905 9.34423575,5.013404 L8.69692625,3.9319965 L3.66304725,5.6226455 L2.2237545,7.2752265 L0.9672035,9.68172275 L0.2512795,12.484249 L0.46456775,14.3577165" id="路径" fill="#EF3D3A"></path>
            <path d="M3.335555,6.391834 C1.68305075,8.09008125 0.65490775,10.4281165 0.65490775,13.0173545 C0.65490775,15.6065925 1.68305075,17.944551 3.335555,19.6427983 C4.99573425,21.3410455 7.27283,22.384385 9.8011285,22.384385 C12.3295037,22.384385 14.6065227,21.3410455 16.266702,19.642875 C17.919283,17.944551 18.9473492,15.6065925 18.9473492,13.0173545 C18.9473492,10.4280398 17.919283,8.09008125 16.266702,6.391834 C14.6065995,4.701185 12.3295038,3.650324 9.8011285,3.650324 C7.28042825,3.650324 4.995811,4.69358675 3.335555,6.391834 Z M2.91673025,20.0464265 C1.15762025,18.2491717 0.06853775,15.7589413 0.06853775,13.0173545 C0.06853775,10.2757677 1.15762025,7.7854605 2.91673025,5.9806075 C4.675917,4.18335275 7.112883,3.06387725 9.80120525,3.06387725 C12.4894508,3.06387725 14.9264168,4.18335275 16.6856035,5.9806075 C18.4447135,7.77786225 19.533796,10.2680928 19.533796,13.0173545 C19.533796,15.7588645 18.4447135,18.2491717 16.6856035,20.0464265 C14.9264168,21.8512795 12.4894508,22.9631567 9.8011285,22.9631567 C7.112883,22.9631567 4.675917,21.8512795 2.91673025,20.0464265 Z" id="形状" fill="#231F20"></path>
            <polyline id="路径" fill="#F0D6B7" points="13.7764715 13.032551 12.337102 13.2457625 10.3951735 13.466649 9.1386225 13.4971188 7.91254125 13.4590507 6.9758075 13.1697032 6.1456795 12.2709607 5.49837 10.435638 5.35369625 10.039608 4.49317525 9.7502605 3.99046275 8.92020925 3.6325775 7.73211925 4.0286075 6.6888565 4.96534125 6.36136425 5.7192565 6.71932625 6.07714175 7.51138625 6.51123975 7.44277175 6.6559135 7.26003 6.51123975 6.429902 6.47317175 5.3865625 6.68638325 3.94726975 6.678785 3.12481675 7.33369275 2.073879 8.483638 1.243751 10.494181 0.38323 12.7255338 0.7106455 14.6674623 2.111947 15.566128 3.55123975 16.144823 4.59457925 16.2895735 7.18381725 15.8554755 9.41517 15.0634155 11.3952433 14.3171753 12.4537793"></polyline>
            <polyline id="路径" fill="#335061" points="12.5579885 19.2544432 7.41750375 19.4676547 7.41750375 20.3281757 7.85160175 23.3515885 7.6383135 23.602868 4.043804 22.3767867 3.7925245 21.9426887 3.4345625 17.8760132 2.589238 15.4390472 2.40649625 14.8602755 5.2851585 12.880279 6.18382425 12.522317 6.9758075 13.497042 7.661185 14.1063602 8.453245 14.3576397 8.81113025 14.4643222 9.24522825 16.337713 9.5727205 16.733743 10.4027717 16.4443187 9.824 17.5637175 12.9463435 19.041155 12.5579885 19.2543665"></polyline>
            <polyline id="路径" fill="#6D6B6D" points="4.0286075 6.704053 4.96534125 6.3766375 5.7192565 6.73452275 6.07714175 7.52658275 6.51123975 7.458045 6.61792225 7.023947 6.404634 6.193819 6.6178455 4.2138225 6.43510375 3.132415 7.08241325 2.37849975 8.483638 1.2666225 8.087608 0.72591875 6.1076115 1.70064375 5.27756025 2.34803 4.8129925 3.35322475 4.09714525 4.3280265 3.88393375 5.47797175 4.0286075 6.704053"></polyline>
            <path d="M5.506045,3.322755 C5.506045,3.322755 6.046672,1.990068 8.20188875,1.3427585 C10.3570287,0.695449 8.30857125,0.87819075 8.30857125,0.87819075 L5.97045925,1.7768565 L5.071947,2.6754455 L4.675917,3.39129275 L5.506045,3.322755 M4.4246375,6.4527735 C4.4246375,6.4527735 3.6706455,3.9319965 6.54930775,3.57411125 L6.442702,3.14001325 L4.4627055,3.604581 L3.88393375,5.4780485 L4.0286075,6.704053 L4.4246375,6.4527735" id="形状" fill="#DCD9D8"></path>
            <path d="M5.57458275,9.7960035 L6.046672,9.339034 C6.046672,9.339034 6.25996025,9.3619055 6.29802825,9.613185 C6.33609625,9.86454125 6.442702,12.133962 7.98867725,13.352445 C8.133351,13.466649 6.838732,13.1696265 6.838732,13.1696265 L5.68871,11.3723717 M12.1924282,9.11054925 C12.1924282,9.11054925 12.2761625,8.0215435 12.573185,8.1053545 C12.8702075,8.18908875 12.8702075,8.4860345 12.8702075,8.4860345 C12.8702075,8.4860345 12.1543602,8.943004 12.1924283,9.11054925 M15.1776963,5.1200865 C15.1776963,5.1200865 14.5836512,5.24188875 14.5303868,5.767396 C14.4770455,6.2928265 15.1776963,5.87400175 15.284302,5.83593375 M10.8292715,5.1581545 C10.8292715,5.1581545 10.0372115,5.26476025 10.0372115,5.767396 C10.0372115,6.269955 10.9358773,6.231887 11.1871567,6.0186755 M5.94006625,7.496113 C5.94006625,7.496113 4.57698625,6.665985 4.4323125,7.458045 C4.28763875,8.25002825 3.96774475,8.821125 4.645524,9.651253 L4.18095625,9.50657925 L3.746935,8.394702 L3.6021845,7.3132945 L4.4323125,6.4527735 L5.3689695,6.52131125 L5.90967325,6.95540925 L5.940143,7.496113 M6.5874525,5.22669225 C6.5874525,5.22669225 7.19661725,2.05860575 10.2885677,1.44936425 C12.8320627,0.9467285 14.1724247,1.55604675 14.6750605,2.13474175 C14.6750605,2.13474175 12.4056397,-0.561102 10.250423,0.261351 C8.095283,1.091479 6.51123975,2.5993095 6.54930775,3.566513 C6.61024725,5.2266155 6.58737575,5.2266155 6.58737575,5.2266155 M14.92634,2.49270375 C14.92634,2.49270375 13.8830772,2.45463575 13.8449325,3.39129275 C13.8449325,3.39129275 13.8449325,3.53604325 13.913547,3.680717 C13.913547,3.680717 14.7435982,2.74398325 15.246234,3.246619" id="形状" fill="#F7E4CD"></path>
            <path d="M10.3647037,3.7797245 C10.3647037,3.7797245 10.181962,2.34803 8.963479,3.17808125 C8.171419,3.718785 8.247555,4.47270025 8.38470725,4.61745075 C8.529381,4.7621245 8.491313,5.051472 8.59791875,4.85353375 C8.7045245,4.65551875 8.67405475,4.00820925 9.07008475,3.82539075 C9.45843975,3.642649 10.1134242,3.44471075 10.3647037,3.7797245" id="路径" fill="#F7E4CD"></path>
            <path d="M6.9834825,13.4971187 L3.602031,15.0048725 C3.602031,15.0048725 5.0033325,20.5794552 4.2874085,22.3081722 L3.7848495,22.1254305 L3.7467815,20.0006835 L2.81004775,15.979751 L2.41401775,14.867797 L5.9399895,12.4917705 L6.983329,13.497042 M7.3260945,16.5813175 L7.80585875,17.1677642 L7.80585875,19.3229042 L7.234762,19.3229042 C7.234762,19.3229042 7.16622425,17.8150737 7.16622425,17.632332 C7.16622425,17.4495135 7.234762,16.802204 7.234762,16.802204 M7.34136775,19.6503965 L5.7192565,19.7189342 L6.18382425,20.0464265 L7.33369275,20.229245" id="形状" fill="#49728B"></path>
            <polyline id="路径" fill="#335061" points="12.8778825 16.2925113 14.2104928 16.2544433 14.537985 19.5595285 13.1748283 19.742347 12.8778058 16.2924345"></polyline>
            <path d="M13.2357678,19.2925113 L15.246234,19.1858287 C15.246234,19.1858287 16.076362,17.0992265 16.076362,16.9926208 C16.076362,16.8859383 16.7922092,13.9692847 16.7922092,13.9692847 L15.170098,12.2786358 L14.8426058,11.9892882 L13.9820848,12.8498092 L13.9820848,16.1930392 L13.2357678,19.2925113" id="路径" fill="#335061"></path>
            <path d="M14.1343568,19.041155 L12.8778058,19.2925113 L13.0606243,20.2977827 C13.5251153,20.5109943 14.3171753,19.9398208 14.3171753,19.9398208 M14.1724248,12.7432035 L16.6932018,14.6165942 L16.7617395,13.7559965 L14.857879,11.9968865 L14.1725015,12.7432035" id="形状" fill="#49728B"></path>
            <polyline id="路径" fill="#FFFFFF" points="8.5903205 26.3749245 7.8440035 23.3515885 7.470845 21.1202357 7.4099055 19.4676548 10.7835285 19.284913 12.8778058 19.284913 12.6874658 23.0621643 13.0148813 25.9788945 12.9768133 26.5195983 10.2428248 26.7328865 8.5903205 26.3749245"></polyline>
            <path d="M12.413238,19.2544432 C12.413238,19.2544432 12.2304963,22.9937032 12.7712,25.6590772 C12.7712,25.6590772 11.6897925,26.3444548 10.1133475,26.5195982 L13.1367603,26.4129925 L13.4946455,26.199781 L13.0606243,20.305381 L12.9463435,19.041155" id="路径" fill="#DCD9D8"></path>
            <polyline id="路径" fill="#FFFFFF" points="14.5913262 22.2777793 15.992551 21.8817492 18.6504035 21.7370755 19.0464335 20.5109942 18.3305095 18.3862473 17.5004583 18.2796415 16.350513 18.6376035 15.2538323 19.1783072 14.6674623 19.0716247 14.2104928 19.2544432"></polyline>
            <path d="M14.5684548,21.5543338 C14.5684548,21.5543338 15.5051885,21.1202358 15.6498623,21.1583038 L15.2538323,19.1783072 L15.7184,18.9954887 C15.7184,18.9954887 16.0458923,20.8689563 16.0458923,21.0821677 C16.0458923,21.0821677 18.0563585,21.1887735 18.2391003,21.1887735 C18.2391003,21.1887735 18.6731983,20.3586455 18.5665925,19.4981245 L18.9626225,20.6480697 L19.0006905,21.2953793 L18.4219188,22.1559003 L17.7746093,22.3006508 L16.6932018,22.2625828 L16.3352398,21.798015 L15.0786888,21.9807568 L14.6826588,22.1255073" id="路径" fill="#DCD9D8"></path>
            <path d="M13.1519567,19.003087 L12.3598967,16.9926208 L11.5298455,15.8045307 C11.5298455,15.8045307 11.712664,15.3019717 11.9639435,15.3019717 L12.7940715,15.3019717 L13.5861315,15.5913193 L13.517517,16.924083 L13.1519567,19.003087" id="路径" fill="#FFFFFF"></path>
            <path d="M13.3119037,18.3177095 C13.3119037,18.3177095 12.3066322,16.375781 12.3066322,16.0863568 C12.3066322,16.0863568 12.4894507,15.6522588 12.7407302,15.7589413 C12.9920865,15.865547 13.5327902,16.1549713 13.5327902,16.1549713 L13.5327902,15.469517 L12.3066322,15.2182375 L11.476581,15.3248433 L12.8778057,18.6452018 L13.1671532,18.6832698" id="路径" fill="#DCD9D8"></path>
            <polyline id="路径" fill="#FFFFFF" points="8.91013775 13.5732548 7.91254125 13.4665723 6.9758075 13.1772248 6.9758075 13.504717 7.43270025 14.0073528 8.87206975 14.6546623"></polyline>
            <path d="M7.30329975,13.6798605 C7.30329975,13.6798605 8.41510025,14.1444283 8.78073725,14.0378225 L8.8187285,14.4719205 L7.81353375,14.2586323 L7.20429225,13.8245342 L7.30329975,13.6798605" id="路径" fill="#DCD9D8"></path>
            <path d="M14.5913263,15.4238507 C13.9820848,15.4085775 13.4261078,15.3324415 12.9463435,15.195366 C12.9768133,14.997351 12.9158738,14.807011 12.969215,14.6622605 C13.1062905,14.563253 13.3271003,14.563253 13.5327135,14.5404582 C13.35757,14.4566472 13.1062905,14.4185793 12.9082755,14.4719205 C12.9006005,14.334845 12.8397378,14.251034 12.801593,14.1444282 C13.1443585,14.0225493 13.951615,13.2229677 14.4085078,13.4818455 C14.6293943,13.6113227 14.7208035,14.32717 14.736,14.685132 C14.7511965,14.9744795 14.7055303,15.2639037 14.5913263,15.4238507" id="路径" fill="#D33833"></path>
            <path d="M14.5913263,15.4238507 C13.9820848,15.4085775 13.4261078,15.3324415 12.9463435,15.195366 C12.9768133,14.997351 12.9158738,14.807011 12.969215,14.6622605 C13.1062905,14.563253 13.3271003,14.563253 13.5327135,14.5404582 C13.35757,14.4566472 13.1062905,14.4185793 12.9082755,14.4719205 C12.9006005,14.334845 12.8397378,14.251034 12.801593,14.1444282 C13.1443585,14.0225493 13.951615,13.2229677 14.4085078,13.4818455 C14.6293943,13.6113227 14.7208035,14.32717 14.736,14.685132 C14.7511965,14.9744795 14.7055303,15.2639037 14.5913263,15.4238507 L14.5913263,15.4238507 Z" id="路径" fill="#000000"></path>
            <path d="M11.674596,14.4261775 C11.674596,14.4719205 11.674596,14.51751 11.666921,14.563253 C11.476581,14.685132 11.1718835,14.685132 10.958672,14.7917378 C11.2633695,14.8069343 11.5070508,14.8830703 11.7202623,14.9820778 C11.7125873,15.0963585 11.7125873,15.2182375 11.7050658,15.3324415 C11.354702,15.5685245 11.0348847,15.9264865 10.6236583,16.1548945 C10.4256432,16.261577 9.747864,16.535728 9.54225075,16.4823868 C9.42797,16.451917 9.4127735,16.3072432 9.36710725,16.1701678 C9.26809975,15.8808202 9.039615,15.4085775 9.0167435,14.9668813 C8.993872,14.410981 8.93300925,13.4742472 9.53457575,13.5884512 C10.0219382,13.6798605 10.5855135,13.900747 10.958672,14.1063602 C11.194755,14.2434357 11.3242323,14.3957077 11.674596,14.4261775" id="路径" fill="#D33833"></path>
            <path d="M11.674596,14.4261775 C11.674596,14.4719205 11.674596,14.51751 11.666921,14.563253 C11.476581,14.685132 11.1718835,14.685132 10.958672,14.7917378 C11.2633695,14.8069343 11.5070508,14.8830703 11.7202623,14.9820778 C11.7125873,15.0963585 11.7125873,15.2182375 11.7050658,15.3324415 C11.354702,15.5685245 11.0348847,15.9264865 10.6236583,16.1548945 C10.4256432,16.261577 9.747864,16.535728 9.54225075,16.4823868 C9.42797,16.451917 9.4127735,16.3072432 9.36710725,16.1701678 C9.26809975,15.8808202 9.039615,15.4085775 9.0167435,14.9668813 C8.993872,14.410981 8.93300925,13.4742472 9.53457575,13.5884512 C10.0219382,13.6798605 10.5855135,13.900747 10.958672,14.1063602 C11.194755,14.2434357 11.3242323,14.3957077 11.674596,14.4261775 L11.674596,14.4261775 Z" id="路径" fill="#000000"></path>
            <path d="M12.0172848,15.0887603 C11.9639435,14.7840628 11.903004,14.7004053 11.9258755,14.4337758 C12.7407303,13.893072 12.885404,15.3629113 12.017208,15.0887603" id="路径" fill="#D33833"></path>
            <path d="M12.0172848,15.0887603 C11.9639435,14.7840628 11.903004,14.7004053 11.9258755,14.4337758 C12.7407303,13.893072 12.885404,15.3629113 12.017208,15.0887603 L12.0172848,15.0887603 Z" id="路径" fill="#000000"></path>
            <path d="M13.1900247,15.3324415 C13.1900247,15.3324415 12.9387452,14.9744795 13.121487,14.8678737 C13.3043055,14.761268 13.479449,14.8678737 13.5860547,14.685132 C13.6927372,14.5023135 13.5860547,14.3957845 13.6241227,14.1824962 C13.6621907,13.9692847 13.8373342,13.9312167 14.0201527,13.8931487 C14.2028945,13.855004 14.7055302,13.7864663 14.774068,13.9616865 L14.5608565,13.3143002 L14.1267585,13.1696265 L12.7636017,13.9616865 L12.695064,14.3577165 L12.695064,15.1496997 M9.4127735,16.5204547 C9.36710725,15.9568795 9.321441,15.4009792 9.275698,14.837404 C9.199562,13.9997545 9.473713,14.1443515 10.2047568,14.1443515 C10.3190375,14.1443515 10.8901343,14.2739055 10.928279,14.3577165 C11.126294,14.761268 10.6007868,14.6698588 11.156687,14.9744795 C11.6212548,15.2258357 12.4513828,14.8222075 12.260966,14.251034 C12.1542835,14.1215567 11.712664,14.212966 11.552717,14.129155 L10.7073925,13.6951338 C10.3495073,13.5123153 9.5269775,13.2381643 9.14622075,13.4971188 C8.17901725,14.1520265 9.20716025,15.7970093 9.549849,16.4823867" id="形状" fill="#EF3D3A"></path>
            <path d="M10.3647038,3.7797245 C9.38230375,3.55123975 8.89494125,4.190951 8.59791875,4.853457 C8.331366,4.79259425 8.43797175,4.427034 8.50658625,4.24429225 C8.681653,3.764528 9.38997875,3.11714175 9.96867375,3.208551 C10.212355,3.23902075 10.5474455,3.4675055 10.3647038,3.7797245 M15.1396283,4.891525 L15.1852945,4.891525 C15.406181,5.3484945 15.596521,5.83593375 15.878347,6.24716025 C15.688007,6.6888565 14.461849,7.06961325 14.4770455,6.2928265 C14.7435983,6.1786225 15.2005677,6.269955 15.4366507,6.117683 C15.2995752,5.7445245 15.1091585,5.4246305 15.1396282,4.89160175 M10.8597412,4.906875 C11.0729527,5.29523 11.1414137,5.69885825 11.4384362,5.9882825 C11.5755885,6.117683 11.8344662,6.27763 11.7050657,6.6431135 C11.674596,6.7269245 11.4537095,6.91734125 11.3242322,6.95540925 C10.8597412,7.09248475 9.77065875,6.985879 10.136219,6.39943225 C10.524574,6.4147055 11.042483,6.6507885 11.3319072,6.3689625 C11.1110207,6.0186755 10.7149907,5.31802475 10.8597412,4.906875 M14.9644848,8.821125 C14.263834,9.27049625 13.4793723,9.76553375 12.3219055,9.651253 C12.0782242,9.4380415 11.9792167,8.9582005 12.222898,8.64605825 C12.3447002,8.85926975 12.2685643,9.25529975 12.618928,9.3161625 C13.2738357,9.43044325 14.0353492,8.91253425 14.5075152,8.7374675 C14.7968627,8.24243 14.4847205,8.0672865 14.2181677,7.7473925 C13.677464,7.100083 12.9616167,6.2928265 12.9844115,5.32569975 C13.205298,5.16575275 13.2204945,5.569381 13.2509643,5.63791875 C13.5327135,6.2928265 14.2410393,7.138151 14.7511965,7.70172625 C14.8806737,7.83880175 15.086287,7.97587725 15.1091585,8.0672865 C15.1776962,8.32616425 14.934015,8.6459815 14.9644848,8.82120175 M5.68871,8.34903575 C5.46790025,8.2195585 5.41463575,7.6712565 5.15568125,7.65598325 C4.78252275,7.6331885 4.8510605,8.37190725 4.8510605,8.8059285 C4.599781,8.5775205 4.554038,7.8615965 4.7368565,7.496113 C4.523645,7.3894305 4.432159,7.610317 4.31035675,7.686453 C4.47030375,6.58225075 5.932468,7.176219 5.68878675,8.34903575 M15.406181,9.28569275 C15.0786887,9.9102075 14.614121,10.595585 13.6545925,10.6184565 C13.631721,10.4204415 13.6165245,10.1082225 13.6545925,9.9863435 C14.3933112,9.9102075 14.850204,9.537049 15.406181,9.28569275 M10.8064,9.689321 C11.4156415,10.009215 12.5427152,10.047283 13.3804415,10.0244115 C13.4261077,10.20723 13.4261077,10.435638 13.4261077,10.6565245 C12.3523752,10.7021907 11.0881493,10.435638 10.8064,9.689321 M10.692196,10.283366 C11.118619,11.3495002 12.573185,11.227698 13.7992663,11.1972283 C13.7460018,11.3343038 13.631721,11.501849 13.479449,11.5551135 C13.083419,11.7150605 12.0020115,11.8369395 11.4537095,11.5475153 C11.1110208,11.3647735 10.882536,10.945872 10.692196,10.7021907 C10.608385,10.5879868 10.1514923,10.2909643 10.692196,10.283366" id="形状" fill="#231F20"></path>
            <path d="M14.9111435,16.1548945 C14.416106,17.0078173 13.9364185,17.8836115 13.3500485,18.6299285 C13.593653,17.906483 13.7002587,16.688 13.7384035,15.7589413 C14.2562358,15.5151833 14.697932,15.8122058 14.9111435,16.1549713" id="路径" fill="#81B0C4"></path>
            <path d="M17.5841925,19.2163752 C17.0282923,19.3305792 16.6398605,19.871283 16.0915585,19.833215 C16.3961792,19.4143135 16.9140115,19.2315718 17.5841925,19.2163752 M17.8278738,20.0844945 C17.370981,20.1302375 16.8378755,20.2063735 16.3809828,20.1683055 C16.6017925,19.833215 17.4395188,19.9550172 17.8278738,20.0844945 M17.9878208,20.8384865 C17.4775868,20.8460847 16.8454738,20.8384865 16.3581113,20.8003417 C16.6474588,20.4881227 17.6603285,20.6861378 17.9878208,20.8384865" id="形状" fill="#231F20"></path>
            <path d="M13.951615,22.894619 C14.027751,23.5343303 14.2791072,24.1817165 14.2486375,24.8822905 C13.9668115,24.973623 13.8069412,25.057434 13.4261077,25.057434 C13.403313,24.463389 13.319502,23.5496035 13.3423735,22.97843 C13.5251152,22.9936265 13.7992662,22.8489527 13.951615,22.894619" id="路径" fill="#DCD9D8"></path>
            <path d="M13.129162,13.4514525 C12.8702075,13.618921 12.656996,13.8245342 12.4056398,14.0073527 C11.8573378,14.0378225 11.5603153,13.9692847 11.164362,13.6570658 C11.1719602,13.6341943 11.2100283,13.6417925 11.2100283,13.6113228 C11.7963982,13.8702772 12.5427153,13.504717 13.129162,13.4513758" id="路径" fill="#F0D6B7"></path>
            <path d="M10.0676812,17.434317 C10.2276283,16.7412645 10.8597412,16.375781 11.430838,15.9950243 C12.017208,16.7413412 12.37517,17.7008697 12.7712,18.6299285 C11.8344662,18.3481793 10.882536,17.8988848 10.0676812,17.434317" id="路径" fill="#81B0C4"></path>
            <path d="M13.3423735,22.9860283 C13.319502,23.5572018 13.395638,24.4634658 13.4261078,25.0650323 C13.8069413,25.0650323 13.9668115,24.981298 14.2486375,24.8898888 C14.2791073,24.189238 14.027751,23.5419285 13.951615,22.9022172 C13.7992663,22.8489527 13.5251153,22.9936265 13.3423735,22.9860283 L13.3423735,22.9860283 Z M7.46317,19.757079 C7.71452625,22.0492945 8.0724115,23.9683515 8.7349175,26.001766 C10.2047568,26.4510605 11.9715418,26.4891285 13.2738358,26.0855003 C13.0377528,24.94323 13.1367603,23.5496035 12.9996848,22.3234455 C12.8930023,21.401985 12.9463435,20.4805245 12.8016698,19.5437908 C11.2252248,19.2163753 9.001547,19.4676548 7.46317,19.757079 Z M13.1748282,19.559064 C13.159555,20.541464 13.2204945,21.516189 13.2967072,22.498589 C13.6773872,22.4453245 13.9287435,22.4072565 14.2791072,22.3234455 C14.1648265,21.3791135 14.1800998,20.305381 13.9440167,19.4676547 C13.677464,19.4753297 13.4413042,19.4676547 13.1748282,19.5589872 L13.1748282,19.559064 Z M15.086287,19.399117 C14.9035453,19.361049 14.697932,19.399117 14.5303868,19.399117 C14.614121,20.1987753 14.8045378,21.0821677 14.8730755,21.9274923 C15.1396283,21.9350905 15.284302,21.8056133 15.5051885,21.7675453 C15.520385,21.0288265 15.444249,20.0083585 15.086287,19.399117 Z M17.9878208,22.0492945 C18.551396,21.912219 18.901683,21.2268415 18.741736,20.5185925 C18.6351302,20.0464265 18.4523885,19.1478375 18.2466985,18.84314 C18.1020248,18.6223302 17.6983965,18.3253077 17.370981,18.530921 C16.8454738,18.8660115 15.9240132,18.965019 15.5432565,19.3686472 C15.7335965,20.0083585 15.794536,20.8765545 15.870672,21.6837342 C16.5256565,21.721879 17.325238,21.5010692 17.8736168,21.7370755 C17.4927833,21.8589545 17.0054208,21.8589545 16.6779285,22.0416962 C16.9520795,22.1711735 17.5765943,22.1483787 17.9878208,22.0493712 L17.9878208,22.0492945 Z M12.7636018,18.6299285 C12.3675718,17.7008697 12.0096865,16.7413412 11.4232398,15.9950242 C10.8520663,16.3757042 10.2276283,16.7413412 10.060083,17.434317 C10.882536,17.8988847 11.834543,18.3481792 12.7636018,18.6299285 Z M13.7383268,15.7589413 C13.7002588,16.688 13.593653,17.906483 13.3499718,18.6299285 C13.9363418,17.8760132 14.4161828,17.0078173 14.9111435,16.1548945 C14.697932,15.8122058 14.2562358,15.5151832 13.7384035,15.7588645 L13.7383268,15.7589413 Z M12.6341245,15.3705862 C12.413238,15.347638 12.222898,15.629464 11.9334738,15.507585 C11.864936,15.583721 11.8039965,15.6599337 11.7354587,15.7360697 C12.37517,16.5127797 12.6721925,17.6095372 13.16723,18.5157245 C13.4337828,17.640007 13.403313,16.688 13.4642525,15.7360697 C13.0986923,15.7512662 12.893079,15.393381 12.6341245,15.3705095 L12.6341245,15.3705862 Z M11.9258755,14.4337758 C11.903004,14.7003285 11.9639435,14.7841395 12.017208,15.0887603 C12.885404,15.3629113 12.7407303,13.893072 11.9258755,14.4337758 Z M10.958672,14.1139585 C10.5855135,13.9082685 10.022015,13.6874587 9.53457575,13.5961262 C8.93300925,13.4818455 8.993872,14.4185792 9.0167435,14.9745562 C9.039615,15.4161757 9.26809975,15.8807435 9.36710725,16.177766 C9.4127735,16.3148415 9.42797,16.4595152 9.54225075,16.489985 C9.747864,16.535728 10.4332415,16.2691752 10.6236583,16.1624927 C11.0348847,15.941683 11.354702,15.5837977 11.7050658,15.3400397 C11.712664,15.2258357 11.712664,15.1039567 11.7202623,14.9897527 C11.5070508,14.8830702 11.2709678,14.8146092 10.958672,14.7994127 C11.164362,14.6927302 11.476581,14.6927302 11.666921,14.570928 C11.666921,14.525185 11.666921,14.4795187 11.674596,14.4337757 C11.3242323,14.3957077 11.194755,14.2434357 10.958672,14.1139585 Z M7.37943575,13.466649 C7.06721675,13.7864662 8.25515325,14.212966 8.6283885,14.2358375 C8.6283885,14.0378225 8.7425925,13.8474825 8.719721,13.702732 C8.2704265,13.626596 7.6840565,13.6798605 7.37943575,13.466649 Z M11.2177032,13.6113227 C11.2177032,13.6417925 11.1795585,13.6341942 11.1719602,13.6570657 C11.5755885,13.9692847 11.8725342,14.0377457 12.413238,14.0073527 C12.656996,13.8322092 12.8778057,13.6189977 13.1367602,13.4513757 C12.5427152,13.504717 11.7963982,13.8702772 11.2176265,13.6113227 L11.2177032,13.6113227 Z M14.736,14.6775338 C14.7208035,14.32717 14.6293175,13.6037245 14.4085078,13.4742473 C13.951615,13.2076945 13.1443585,14.014951 12.8016698,14.13683 C12.8397378,14.2434358 12.9006773,14.32717 12.9082755,14.4642455 C13.1139655,14.410981 13.35757,14.449049 13.5327135,14.5327833 C13.3271003,14.5556548 13.1062905,14.5556548 12.969215,14.6546622 C12.923472,14.799336 12.9844115,14.9897528 12.9463435,15.1877677 C13.4261078,15.3248432 13.9820848,15.393381 14.5913263,15.4161757 C14.7055303,15.2639037 14.7511965,14.9744795 14.736,14.6775338 L14.736,14.6775338 Z M6.8539285,13.7712698 C6.754921,13.702732 6.092415,12.8421343 6.00100575,12.8802022 C4.80539425,13.352445 3.68591875,14.1672998 2.6882455,14.9440097 C3.64017575,16.9926208 4.0286075,19.4981245 4.09714525,21.912219 C5.18622775,22.422453 6.1456795,23.1611718 7.63071525,23.2373077 C7.45557175,22.0264997 7.30329975,20.9374172 7.20429225,19.7950702 C6.83113375,19.6352 6.29802825,19.8027453 5.94774125,19.749404 C5.94774125,19.3305792 6.48077,19.5666622 6.52643625,19.284913 C6.55698275,19.0716247 6.22941375,19.0564282 6.33609625,18.7213377 C6.61024725,18.8203452 6.754921,19.041155 7.04434525,19.124966 C7.310898,18.5461942 7.04434525,17.518128 7.08241325,17.0306887 C7.09008825,16.9393562 7.1280795,16.528053 7.33369275,16.5965907 C7.51651125,16.6575302 7.3260945,17.7008697 7.34136775,18.1577625 C7.35656425,18.5842622 7.2880265,18.9878905 7.46317,19.2544432 C8.89494125,19.0564282 10.3495073,18.9345492 11.903004,18.888883 C11.5603153,18.7442092 11.156687,18.6071337 10.7149908,18.3557775 C10.4713095,18.218702 9.71739425,17.9369527 9.6488565,17.708468 C9.53457575,17.3429077 9.938204,17.1525677 10.0067418,16.840272 C9.28329625,17.236302 9.14622075,16.459592 8.97107725,15.9188115 C8.8187285,15.423774 8.727396,15.0506922 8.689328,14.7688662 C8.057215,14.449049 7.387034,14.1520265 6.8539285,13.7712697 L6.8539285,13.7712698 Z M14.103887,12.9792097 C15.1015603,12.4995222 15.284302,14.7841395 14.888272,15.5228582 C14.9492115,15.743668 15.1548248,15.827479 15.2386358,16.0254173 C14.6826588,17.0230905 14.0658958,17.9521492 13.4946455,18.9345492 C13.913547,18.6679965 14.5227885,18.888883 15.0177493,18.690868 C15.2005678,18.6223302 15.330045,18.2035055 15.4671205,17.868415 C15.8478005,16.9545527 16.2438305,15.7969325 16.4190508,14.92889 C16.4571188,14.730875 16.5713228,14.2967002 16.540853,14.1215567 C16.4951868,13.8017395 16.068687,13.5656565 15.8478005,13.3752397 C15.444249,13.0096795 15.1928928,12.6975372 14.766393,12.3547717 C14.6065228,12.606128 14.2409625,12.7735965 14.103887,12.9792865 L14.103887,12.9792097 Z M4.5769095,4.13760975 C4.1047435,4.663117 4.203751,5.63791875 4.25709225,6.33849275 C5.11761325,5.79786575 6.252362,6.38423575 6.244687,7.298098 C6.6559135,7.290423 6.39703575,6.787864 6.32089975,6.46037175 C6.07714175,5.40183575 6.73212625,4.25948875 6.35129275,3.292362 C5.61265075,3.35322475 5.0110075,3.65024725 4.5769095,4.1376865 L4.5769095,4.13760975 Z M7.973404,1.09907725 C6.8996715,1.403698 5.5212415,2.188083 5.07954525,3.15520975 C5.422234,3.10194525 5.658317,2.9344 5.9934075,2.9115285 C6.12288475,2.90393025 6.29043,2.96486975 6.43510375,2.92680175 C6.72445125,2.85066575 6.9758075,2.19568125 7.19661725,1.952 C7.4099055,1.715917 7.66878325,1.60931125 7.8440035,1.39609975 C7.9582075,1.3427585 8.125676,1.3427585 8.133351,1.17521325 C8.08768475,1.121872 8.0343435,1.08388075 7.973404,1.09907725 L7.973404,1.09907725 Z M13.5707815,1.38842475 C12.4513828,0.7563885 10.5627188,0.2842225 9.3747055,0.87819075 C8.41510025,1.357955 7.120558,2.14993825 6.678785,3.14768825 C7.0900115,4.11473825 6.55698275,4.99813075 6.518838,5.98053075 C6.5036415,6.506038 6.762596,6.95540925 6.78539075,7.52658275 C6.640717,7.76266575 6.21421725,7.7854605 5.9172715,7.770264 C5.818264,7.2675515 5.6431205,6.704053 5.1252115,6.6431135 C4.39416775,6.55937925 3.853464,7.16862075 3.82299425,7.80073375 C3.78492625,8.54705075 4.39416775,9.78073025 5.262287,9.696996 C5.5973775,9.66652625 5.6811885,9.33143575 6.046672,9.33143575 C6.244687,9.72746575 5.742128,9.849268 5.68878675,10.1310172 C5.6735135,10.20723 5.72685475,10.4889792 5.76492275,10.6260547 C5.92486975,11.2733642 6.27515675,12.1186887 6.6178455,12.6137262 C7.05954175,13.2457625 7.9201395,13.3371717 8.84919825,13.3981112 C9.0167435,13.0401492 9.625985,13.070619 10.0219383,13.1620282 C9.54225075,12.9716882 9.1005545,12.5147187 8.73499425,12.1110905 C8.31609275,11.6465227 7.88966975,11.151562 7.86679825,10.5423205 C8.6664565,11.6465227 9.32136425,12.6137262 10.768332,13.1011655 C11.864936,13.466649 13.1443585,12.9335435 13.989683,12.3395752 C14.33997,12.0958172 14.5455833,11.699864 14.7969395,11.3495002 C15.7259983,10.009215 16.1600963,8.10527775 16.068687,6.2547585 C16.030619,5.493245 16.030619,4.73165475 15.7716645,4.22142075 C15.5051885,3.68831525 14.5989245,3.20095275 14.065819,3.68831525 C13.9668115,3.16288475 14.5075153,2.84299075 15.1395515,3.0334075 C14.6903338,2.4470375 14.2181678,1.753985 13.5707815,1.38842475 Z M15.6574605,18.6071338 C16.5332548,18.1730358 18.1629643,17.4419153 18.703668,18.6071338 C18.909358,19.041155 19.1453643,19.7646773 19.2443718,20.2139718 C19.3890455,20.8384865 19.0844248,22.1635753 18.4371153,22.3691118 C17.8659418,22.5519303 17.2034358,22.544332 16.5180583,22.4072565 C16.4342473,22.3387188 16.350513,22.224438 16.2819753,22.102559 C15.7946128,22.0873625 15.330045,22.1255073 14.9492115,22.3311205 C14.9872795,22.696604 14.7435983,22.7499453 14.5075153,22.826158 C14.33997,23.5038605 14.850204,24.387253 14.7284018,24.9964945 C14.6445908,25.4381908 14.103887,25.5067285 13.7079338,25.5828645 C13.6926605,25.8266225 13.7231303,26.0322358 13.7536,26.237849 C13.6622675,26.5729395 13.2585625,26.7632795 12.8702075,26.8090225 C11.59846,26.9612945 9.671728,27.0298323 8.453245,26.588136 C8.1104795,25.7504865 7.8440035,24.7376168 7.5621775,23.7856865 C6.37416425,23.915087 5.4070375,23.2753758 4.5007735,22.8489528 C4.1885545,22.704279 3.7544565,22.620468 3.6325775,22.3691885 C3.5183735,22.1255073 3.56403975,21.6609395 3.53357,21.2268415 C3.46503225,20.107366 3.3964945,19.0259585 3.107147,17.8836115 C2.97766975,17.3657793 2.74158675,16.9164848 2.58163975,16.421524 C2.42936775,15.9645545 2.17041325,15.393381 2.1018755,14.9364115 C2.002868,14.258709 2.64257925,14.2205643 3.0462075,13.9235418 C3.6783205,13.466649 4.17328125,13.2152928 4.85865875,12.8040662 C5.06434875,12.682264 5.6735135,12.3776432 5.74205125,12.2328927 C5.8792035,11.9512203 5.506045,11.5551902 5.4070375,11.3343037 C5.2470905,10.9840168 5.1632795,10.6869942 5.14048475,10.3442287 C4.56931125,10.2528962 4.127615,9.9102075 3.86873725,9.52945075 C3.4345625,8.8897395 3.12994175,7.7093245 3.51077525,6.81833375 C3.541245,6.749796 3.68591875,6.6050455 3.70879025,6.49843975 C3.7544565,6.28522825 3.62497925,6.00340225 3.617381,5.77499425 C3.579313,4.60977575 3.815396,3.60450425 4.599781,3.25421725 C4.91959825,1.98246975 6.0618685,1.563645 7.1357545,0.931532 C7.53938275,0.695449 7.981079,0.543177 8.43797175,0.375555 C10.0752795,-0.2260115 12.5960565,-0.1118075 13.9592133,0.91625875 C14.537985,1.35035675 15.4594455,2.27181725 15.7869378,2.94199825 C16.6626553,4.701185 16.5941943,7.648385 15.9849528,9.7960035 C15.9011418,10.085351 15.7869378,10.5041757 15.6193925,10.8545395 C15.5051885,11.0982207 15.1472265,11.577985 15.1852945,11.7911965 C15.2310375,12.012083 16.0078243,12.598453 16.1753695,12.7584 C16.472392,13.0477475 17.0434888,13.428581 17.089155,13.7941412 C17.1424963,14.1824962 16.9216865,14.7156017 16.8074825,15.0887602 C16.4418455,16.337713 16.076362,17.4876582 15.6574605,18.6071338 L15.6574605,18.6071338 Z" id="形状" fill="#231F20"></path>
            <path d="M9.831675,9.95587375 C9.87734125,9.89493425 10.136219,9.7960035 10.5017792,9.971147 C10.5017792,9.971147 10.0676812,10.0396848 10.1057492,10.763207 L9.9230075,10.7250623 C9.9306825,10.7327372 9.74026575,10.0777528 9.831675,9.95587375" id="路径" fill="#F7E4CD"></path>
            <path d="M13.2550482,16.139698 C13.2550482,16.2463038 13.1013014,16.337713 12.9217148,16.337713 C12.7422575,16.337713 12.5883815,16.2463038 12.5883815,16.139698 C12.5883815,16.0330155 12.7422575,15.941683 12.9217148,15.941683 C13.1140921,15.941683 13.2550482,16.0330155 13.2550482,16.139698 M13.5883815,17.0611585 C13.5883815,17.167841 13.4346347,17.2591735 13.2550482,17.2591735 C13.0755908,17.2591735 12.9217148,17.167841 12.9217148,17.0611585 C12.9217148,16.954476 13.0755908,16.8631435 13.2550482,16.8631435 C13.4474254,16.8631435 13.5883815,16.9469545 13.5883815,17.0611585" id="形状" fill="#1D1919"></path>
            <g id="编组" transform="translate(0.000000, 28.154450)" fill="#231F20">
                <path d="M2.8101245,0.558433 C2.749185,0.566108 2.6959205,0.5736295 2.6501775,0.5813045 C2.60451125,0.58890275 2.558845,0.596501 2.4979055,0.61177425 C2.42936775,0.62697075 2.391223,0.6574405 2.3760265,0.70310675 C2.36083,0.74884975 2.34555675,0.79443925 2.34555675,0.8554555 L2.34555675,2.713573 C2.34553821,2.87695143 2.30912079,3.03827352 2.238951,3.18581575 C2.17041325,3.3304895 2.079004,3.4446935 1.95720175,3.543701 C1.83532275,3.6350335 1.69824725,3.71124625 1.54597525,3.7569125 C1.3936265,3.8026555 1.2336795,3.83312525 1.06613425,3.83312525 C0.76911175,3.83312525 0.5331055,3.7645875 0.350287,3.619837 C0.16754525,3.47516325 0.076136,3.2847465 0.076136,3.033467 C0.076136,2.88879325 0.114204,2.76691425 0.198015,2.66790675 C0.28174925,2.56889925 0.39603,2.523233 0.54070375,2.523233 C0.67777925,2.523233 0.784385,2.561301 0.868196,2.645112 C0.95193025,2.72884625 0.98999825,2.82785375 0.98999825,2.9421345 C0.98999825,3.041142 0.95193025,3.1401495 0.8833925,3.223807 C0.81485475,3.307618 0.7311205,3.391429 0.63971125,3.45996675 L0.63971125,3.4904365 C0.65490775,3.5208295 0.6853775,3.55129925 0.73104375,3.57417075 C0.77678675,3.59704225 0.83005125,3.6046405 0.87579425,3.6046405 C1.06613425,3.6046405 1.218483,3.53610275 1.32508875,3.3989505 C1.43177125,3.26195175 1.48503575,3.0563385 1.48503575,2.7821875 L1.48503575,0.87825025 C1.48503575,0.82498575 1.47736075,0.7716445 1.46216425,0.7335765 C1.44696775,0.6955085 1.40122475,0.66503875 1.332687,0.634569 C1.28702075,0.61177425 1.22608125,0.596501 1.1575435,0.5813045 C1.08900575,0.56603125 1.03574125,0.558433 0.98999825,0.55083475 L0.98999825,0.36801625 L2.787253,0.36801625 L2.787253,0.558433 L2.8101245,0.558433 L2.8101245,0.558433 Z M5.62784725,3.1782175 C5.57458275,3.26955 5.506045,3.35328425 5.42983225,3.43709525 C5.35369625,3.5208295 5.262287,3.581769 5.1632795,3.6427085 C5.05667375,3.703648 4.950068,3.749391 4.84346225,3.779784 C4.73677975,3.81025375 4.60737925,3.82545025 4.47030375,3.82545025 C4.23422075,3.82545025 4.03620575,3.79505725 3.86106225,3.72644275 C3.693517,3.657905 3.54884325,3.57417075 3.4422375,3.45996675 C3.32795675,3.345686 3.25182075,3.21620875 3.19088125,3.06393675 C3.13536176,2.904799 3.10705406,2.73744369 3.10714677,2.56889925 C3.10714677,2.409029 3.13761675,2.249082 3.1984795,2.10440825 C3.259419,1.95965775 3.34323,1.82258225 3.44983575,1.70837825 C3.5564415,1.59417425 3.693517,1.50268825 3.86106225,1.43422725 C4.03508405,1.36311746 4.22137559,1.32687093 4.40936425,1.32753553 C4.63025075,1.32753553 4.81306925,1.35809125 4.95766625,1.41135575 C5.10241675,1.464697 5.21662075,1.540833 5.30803,1.63224225 C5.3993625,1.72357475 5.460302,1.83025725 5.506045,1.9520595 C5.544113,2.0739385 5.56690775,2.20341575 5.56690775,2.3404145 L5.56690775,2.49276325 L3.96006975,2.49276325 C3.96006975,2.8202555 4.02100925,3.06393675 4.15040975,3.231482 C4.27228875,3.39902725 4.477902,3.4827615 4.74445475,3.4827615 C4.8968035,3.4827615 5.026204,3.4446935 5.148083,3.36095925 C5.2697555,3.27860118 5.37339813,3.17234724 5.45270375,3.0486635 L5.62784725,3.17814075 L5.62784725,3.1782175 Z M4.72166,2.27187675 C4.72166,2.1804675 4.71406175,2.08146 4.7064635,1.9824525 C4.6987885,1.883445 4.683592,1.79971075 4.65312225,1.73877125 C4.6226525,1.66263525 4.5922595,1.609294 4.53891825,1.571226 C4.493252,1.533158 4.43223575,1.51788475 4.36377475,1.51788475 C4.24189575,1.51788475 4.14288825,1.57882425 4.07442725,1.70070325 C3.9982145,1.8225055 3.96006975,2.0205205 3.95254825,2.28707325 L4.72166,2.27187675 L4.72166,2.27187675 Z M8.98627375,3.741716 L7.55457925,3.741716 L7.55457925,3.5665725 C7.585049,3.5665725 7.623117,3.5588975 7.66126175,3.55129925 C7.706928,3.543701 7.737321,3.53610275 7.76026925,3.5285045 C7.79066225,3.51323125 7.81353375,3.4827615 7.82873025,3.45229175 C7.8440035,3.421822 7.85160175,3.3685575 7.85160175,3.307618 L7.85160175,2.1958175 C7.85160175,2.03594725 7.821132,1.91406825 7.76026925,1.830334 C7.699253,1.746523 7.61551875,1.708455 7.49363975,1.708455 C7.43270025,1.708455 7.3718375,1.71613 7.31849625,1.73892475 C7.265155,1.75412125 7.21181375,1.784591 7.15854925,1.822659 C7.112883,1.85312875 7.074815,1.8835985 7.04434525,1.9216665 C7.0138755,1.95213625 6.991004,1.982606 6.9758075,2.012999 L6.9758075,3.28482325 C6.9758075,3.3381645 6.9834825,3.38383075 6.998679,3.42189875 C7.0138755,3.4600435 7.04434525,3.49051325 7.074815,3.50570975 C7.0976865,3.52090625 7.1280795,3.5361795 7.1661475,3.54377775 L7.28042825,3.56664925 L7.28042825,3.74179275 L5.8334605,3.74179275 L5.8334605,3.56664925 C5.8715285,3.56664925 5.9095965,3.55897425 5.9553395,3.551376 C5.9934075,3.54377775 6.0314755,3.5361795 6.06194525,3.52858125 C6.1152865,3.513308 6.1456795,3.48283825 6.16862775,3.44477025 C6.18382425,3.40670225 6.19902075,3.361036 6.19902075,3.3000965 L6.19902075,1.91406825 C6.19902075,1.868402 6.18382425,1.81506075 6.16095275,1.7693945 C6.13808125,1.7236515 6.10001325,1.6855835 6.06194525,1.65511375 C6.0314755,1.63991725 6.00100575,1.61704575 5.95526275,1.6094475 C5.908664,1.59386431 5.85979909,1.58613514 5.81066575,1.586576 L5.81066575,1.4114325 L6.94533775,1.350493 L6.98340575,1.388561 L6.98340575,1.7313265 L6.99108075,1.7313265 C7.04661671,1.68561635 7.09996605,1.63731253 7.150951,1.586576 C7.20704088,1.53802985 7.26549319,1.49228233 7.3260945,1.4495005 C7.387034,1.4114325 7.46317,1.38096275 7.55457925,1.350493 C7.64591175,1.32002325 7.75259425,1.312425 7.8592,1.312425 C8.1181545,1.312425 8.3084945,1.388561 8.43797175,1.5333115 C8.567449,1.67798525 8.62831175,1.87600025 8.62831175,2.1196815 L8.62831175,3.28482325 C8.62831175,3.34576275 8.63598675,3.39150575 8.65118325,3.42189875 C8.6664565,3.4600435 8.7045245,3.48283825 8.75019075,3.50570975 C8.77306225,3.51338475 8.803532,3.52858125 8.8416,3.5361795 C8.879668,3.5438545 8.917736,3.551376 8.97107725,3.559051 L8.97107725,3.741716 L8.98627375,3.741716 L8.98627375,3.741716 Z M12.260966,3.741716 L11.1414905,3.741716 C11.0234328,3.5307631 10.8963976,3.3249614 10.7607338,3.12487625 C10.646453,2.957331 10.5398473,2.797384 10.4408398,2.6603085 L10.3037643,2.7821875 L10.3037643,3.30001975 C10.3037643,3.35328425 10.3114393,3.4066255 10.3266358,3.43709525 C10.3418323,3.47516325 10.372302,3.49803475 10.4256433,3.5208295 C10.456113,3.53610275 10.4865828,3.543701 10.5246508,3.55129925 C10.5627188,3.55897425 10.6007867,3.5665725 10.6388548,3.5665725 L10.6388548,3.741716 L9.16141725,3.741716 L9.16141725,3.5665725 C9.199562,3.5665725 9.23763,3.5588975 9.28329625,3.55129925 C9.32136425,3.543701 9.35943225,3.53610275 9.38997875,3.5285045 C9.44324325,3.51323125 9.47363625,3.4827615 9.49650775,3.4446935 C9.511781,3.4066255 9.5269775,3.36095925 9.5269775,3.30001975 L9.5269775,0.64984225 C9.5269775,0.596501 9.511781,0.54315975 9.4889095,0.48989525 C9.466038,0.436554 9.435645,0.39088775 9.389902,0.360418 C9.35943225,0.3452215 9.313766,0.32235 9.2528265,0.31475175 C9.191887,0.2994785 9.1386225,0.29188025 9.08528125,0.29188025 L9.08528125,0.11673675 L10.2656962,0.05579725 L10.3037643,0.09386525 L10.3037643,2.54602775 C10.418045,2.439422 10.5551205,2.31761975 10.6997943,2.18054425 C10.844468,2.04346875 10.966347,1.929188 11.0500812,1.8378555 C11.1034225,1.78451425 11.1338923,1.74644625 11.1338923,1.7159765 C11.1414905,1.68550675 11.1414905,1.67031025 11.1414905,1.662712 C11.1414905,1.63224225 11.118619,1.60937075 11.0653545,1.59417425 C11.0120133,1.578901 10.9434755,1.5560295 10.8368698,1.540833 L10.8368698,1.37328775 L12.0400795,1.37328775 L12.0400795,1.540833 C11.8802093,1.58649925 11.758407,1.62456725 11.674596,1.662712 C11.590785,1.70078 11.4993758,1.7540445 11.400445,1.814984 C11.335685,1.85885984 11.272187,1.90457018 11.2100282,1.9520595 C11.1490887,1.99772575 11.080551,2.058742 10.9968167,2.127203 C11.1490887,2.35568775 11.2938392,2.561301 11.4232398,2.75171775 C11.552717,2.94205775 11.6897925,3.14774775 11.8344663,3.36095925 C11.8802093,3.43709525 11.9411487,3.4827615 12.0172847,3.51323125 C12.0934207,3.53610275 12.1619585,3.55129925 12.2380945,3.55897425 L12.2380945,3.74163925 L12.260966,3.74163925 L12.260966,3.741716 Z M13.7840697,3.741716 L12.2838375,3.741716 L12.2838375,3.5665725 C12.3219055,3.5665725 12.3675717,3.5588975 12.4056397,3.55129925 C12.4437077,3.543701 12.4817757,3.53610275 12.5046472,3.5285045 C12.5579885,3.51323125 12.5884582,3.4827615 12.6113297,3.4446935 C12.6341245,3.4066255 12.6417227,3.36095925 12.6417227,3.30001975 L12.6417227,1.9139915 C12.6417227,1.86065025 12.6265262,1.807309 12.6036547,1.76931775 C12.5836983,1.72799116 12.5519079,1.69352928 12.5123222,1.67031025 C12.4817757,1.655037 12.4437077,1.63224225 12.382845,1.616969 C12.3219055,1.6017725 12.2685642,1.58649925 12.222898,1.58649925 L12.222898,1.41135575 L13.3880397,1.35041625 L13.4261077,1.38848425 L13.4261077,3.277225 C13.4261077,3.33056625 13.441381,3.3762325 13.4641757,3.42189875 C13.4870472,3.4600435 13.5251152,3.49051325 13.5631832,3.50570975 C13.593653,3.52090625 13.631721,3.5361795 13.6698657,3.54377775 C13.7079337,3.55145275 13.7460017,3.559051 13.791668,3.56664925 L13.791668,3.74179275 L13.783993,3.74179275 L13.7840697,3.741716 Z M13.441381,0.5051685 C13.441381,0.62697075 13.395638,0.72597825 13.3043055,0.8097125 C13.2128962,0.8935235 13.0986155,0.93918975 12.9768132,0.93918975 C12.847336,0.93918975 12.7407302,0.8935235 12.6417227,0.8097125 C12.5503902,0.72597825 12.5046472,0.6193725 12.5046472,0.50509175 C12.5046472,0.3832895 12.5503135,0.284282 12.6417227,0.19287275 C12.7330552,0.1091385 12.8474128,0.0633955 12.9768132,0.0633955 C13.1062905,0.0633955 13.2128962,0.1091385 13.3043055,0.19287275 C13.395638,0.27668375 13.441381,0.38321275 13.441381,0.50509175 L13.441381,0.5051685 Z M17.1424963,3.741716 L15.7108018,3.741716 L15.7108018,3.5665725 C15.7412715,3.5665725 15.7793395,3.5588975 15.8174075,3.55129925 C15.8630738,3.543701 15.8935435,3.53610275 15.916415,3.5285045 C15.9468848,3.51323125 15.9696795,3.4827615 15.9849528,3.45229175 C16.0001493,3.421822 16.0078243,3.3685575 16.0078243,3.307618 L16.0078243,2.1958175 C16.0078243,2.03594725 15.9773545,1.91406825 15.916415,1.830334 C15.8554755,1.746523 15.7717413,1.708455 15.6498623,1.708455 C15.5889228,1.708455 15.5279833,1.71613 15.4747188,1.73892475 C15.4213775,1.7617195 15.3680363,1.784591 15.3147718,1.822659 C15.2691055,1.85312875 15.2310375,1.8835985 15.2005677,1.9216665 C15.170098,1.95213625 15.1472265,1.982606 15.13203,2.012999 L15.13203,3.28482325 C15.13203,3.3381645 15.1396282,3.38383075 15.1548247,3.42189875 C15.170098,3.4600435 15.2005677,3.49051325 15.2310375,3.50570975 C15.2538322,3.52090625 15.284302,3.5361795 15.32237,3.54377775 L15.4366508,3.56664925 L15.4366508,3.74179275 L13.989683,3.74179275 L13.989683,3.56664925 C14.027751,3.56664925 14.065819,3.55897425 14.111562,3.551376 C14.14963,3.54377775 14.187698,3.5361795 14.2181677,3.52858125 C14.2714322,3.513308 14.301902,3.48283825 14.3247735,3.44477025 C14.33997,3.40670225 14.3552432,3.361036 14.3552432,3.3000965 L14.3552432,1.91406825 C14.3552432,1.868402 14.33997,1.81506075 14.3171752,1.7693945 C14.2943037,1.7236515 14.2562357,1.6855835 14.2181677,1.65511375 C14.187698,1.63991725 14.1572282,1.61704575 14.1114852,1.6094475 C14.0648621,1.5938559 14.0159706,1.58612663 13.9668115,1.586576 L13.9668115,1.4114325 L15.1015603,1.350493 L15.1396283,1.388561 L15.1396283,1.7313265 L15.1473033,1.7313265 C15.2028393,1.68561644 15.2561886,1.63731261 15.3071735,1.586576 C15.3632634,1.53802985 15.4217157,1.49228233 15.482317,1.4495005 C15.5432565,1.4114325 15.6193925,1.38096275 15.7108017,1.350493 C15.8021342,1.32002325 15.9088167,1.312425 16.0154225,1.312425 C16.2743002,1.312425 16.464717,1.388561 16.5941175,1.5333115 C16.7236715,1.67798525 16.7845343,1.87600025 16.7845343,2.1196815 L16.7845343,3.28482325 C16.7845343,3.34576275 16.7922092,3.39150575 16.8074057,3.42189875 C16.822679,3.4600435 16.860747,3.48283825 16.9064132,3.50570975 C16.9292847,3.51338475 16.9597545,3.52858125 16.9977457,3.5361795 C17.0358905,3.5438545 17.0739585,3.551376 17.1272997,3.559051 L17.1272997,3.741716 L17.1424963,3.741716 L17.1424963,3.741716 Z M18.45991,3.82545025 C18.307638,3.82545025 18.155366,3.8026555 18.0106922,3.7569125 C17.8659418,3.71124625 17.7517378,3.66558 17.6680035,3.61223875 L17.5994658,3.77218575 L17.4166472,3.77218575 L17.3861775,2.88879325 L17.561321,2.88879325 C17.5841925,2.957331 17.6222605,3.04106525 17.6832,3.1324745 C17.7365412,3.223807 17.805079,3.30001975 17.87354,3.37615575 C17.9521463,3.44734443 18.0390999,3.50873251 18.1324945,3.55897425 C18.231502,3.6046405 18.3305095,3.63511025 18.437192,3.63511025 C18.5818657,3.63511025 18.6884715,3.6046405 18.7570092,3.55129925 C18.825547,3.49803475 18.863615,3.4066255 18.863615,3.2924215 C18.863615,3.231482 18.8483417,3.17814075 18.817872,3.1324745 C18.787479,3.0944065 18.741736,3.0563385 18.6884715,3.025792 C18.627532,2.995399 18.5589942,2.96492925 18.4827815,2.9421345 C18.4066455,2.919263 18.315313,2.8963915 18.2087072,2.8583235 C18.1020247,2.82785375 18.0106922,2.797384 17.9344795,2.759316 C17.8583435,2.72884625 17.7746092,2.675505 17.6983965,2.60696725 C17.6298587,2.5461045 17.568996,2.46989175 17.530928,2.3861575 C17.485185,2.3023465 17.4699885,2.1958175 17.4699885,2.0739385 C17.4699885,1.853052 17.561321,1.6702335 17.7517377,1.53323475 C17.9420777,1.39615925 18.1858357,1.32754475 18.4904565,1.32754475 C18.6351302,1.32754475 18.7646075,1.34289475 18.8864865,1.37328775 C19.0082887,1.4037575 19.1072962,1.43422725 19.1911072,1.47229525 L19.2443717,1.33521975 L19.4271135,1.33521975 L19.4652582,2.14247625 L19.297713,2.14247625 C19.2443717,1.974931 19.1453642,1.83777875 19.015887,1.7159765 C18.8788115,1.59417425 18.7341377,1.53323475 18.5818657,1.53323475 C18.4599867,1.53323475 18.3609792,1.5560295 18.2924415,1.60937075 C18.2239037,1.662712 18.185759,1.73124975 18.185759,1.82258225 C18.185759,1.94446125 18.2391002,2.02827225 18.3381077,2.08153675 C18.4371152,2.134878 18.5818657,2.18821925 18.7646075,2.23380875 C19.0463567,2.3100215 19.25197,2.409029 19.3890455,2.53083125 C19.5185227,2.6603085 19.5870605,2.82017875 19.5870605,3.0105955 C19.5870605,3.26955 19.488053,3.47516325 19.2824397,3.6123155 C19.053955,3.74931425 18.7874022,3.82545025 18.4599867,3.82545025 L18.45991,3.82545025 Z" id="形状"></path>
            </g>
        </g>
    </g>
</svg>