<?xml version="1.0" encoding="UTF-8"?>
<svg width="40px" height="40px" viewBox="0 0 40 40" version="1.1" xmlns="http://www.w3.org/2000/svg" xmlns:xlink="http://www.w3.org/1999/xlink">
    <!-- Generator: Sketch 55.2 (78181) - https://sketchapp.com -->
    <title>TemplateIcon/Kafka</title>
    <desc>Created with Sketch.</desc>
    <g id="TemplateIcon/Kafka" stroke="none" stroke-width="1" fill="none" fill-rule="evenodd">
        <g id="kafka" transform="translate(10.000000, 4.000000)" fill="#000000" fill-rule="nonzero">
            <path d="M15.5320761,17.7177846 C14.2863761,17.7177846 13.1695868,18.269676 12.4048197,19.1385722 L10.4451472,17.7512629 C10.6531743,17.1785149 10.7726187,16.563515 10.7726187,15.9198084 C10.7726187,15.2872613 10.6573303,14.6825743 10.4561527,14.118292 L12.4114384,12.7456824 C13.1761285,13.6101918 14.2899933,14.1590817 15.5320761,14.1590817 C17.8313029,14.1590817 19.7021617,12.2885307 19.7021617,9.988996 C19.7021617,7.68946127 17.8313029,5.81891033 15.5320761,5.81891033 C13.2328492,5.81891033 11.3619904,7.68946127 11.3619904,9.988996 C11.3619904,10.4005865 11.4241753,10.7974773 11.5357696,11.1733576 L9.57917564,12.5466598 C8.76184378,11.5326912 7.58502442,10.8247217 6.24419996,10.6086136 L6.24419996,8.25051111 C8.13314472,7.85377422 9.55639502,6.17547328 9.55639502,4.17008567 C9.55639502,1.87055094 7.68553623,0 5.38630935,0 C3.08708247,0 1.21622368,1.87055094 1.21622368,4.17008567 C1.21622368,6.14861369 2.60260939,7.80621197 4.45376601,8.23127072 L4.45376601,10.6200039 C1.92742554,11.0634565 0,13.2682515 0,15.9198084 C0,18.5842949 1.94651201,20.7971709 4.49109237,21.225539 L4.49109237,23.7478775 C2.6210032,24.1589292 1.21622368,25.8266864 1.21622368,27.8186827 C1.21622368,30.1182175 3.08708247,31.9887684 5.38630935,31.9887684 C7.68553623,31.9887684 9.55639502,30.1182175 9.55639502,27.8186827 C9.55639502,25.8266864 8.15161549,24.1589292 6.28152632,23.7478775 L6.28152632,21.2254621 C7.56946856,21.008519 8.73465785,20.3308493 9.56008917,19.3186622 L11.5328451,20.714976 C11.4233288,21.08747 11.3619904,21.4804357 11.3619904,21.8878703 C11.3619904,24.187405 13.2328492,26.057956 15.5320761,26.057956 C17.8313029,26.057956 19.7021617,24.187405 19.7021617,21.8878703 C19.7021617,19.5883356 17.8313029,17.7177846 15.5320761,17.7177846 Z M15.5320761,7.96713861 C16.6470183,7.96713861 17.5538565,8.87436159 17.5538565,9.988996 C17.5538565,11.1036304 16.6470183,12.0107764 15.5320761,12.0107764 C14.4171338,12.0107764 13.5102956,11.1036304 13.5102956,9.988996 C13.5102956,8.87436159 14.4171338,7.96713861 15.5320761,7.96713861 L15.5320761,7.96713861 Z M3.36445196,4.17008567 C3.36445196,3.05545126 4.27136709,2.14830524 5.38630935,2.14830524 C6.5012516,2.14830524 7.40808977,3.05545126 7.40808977,4.17008567 C7.40808977,5.28472008 6.5012516,6.19186609 5.38630935,6.19186609 C4.27136709,6.19186609 3.36445196,5.28472008 3.36445196,4.17008567 Z M7.40808977,27.8186827 C7.40808977,28.9333172 6.5012516,29.8404632 5.38630935,29.8404632 C4.27136709,29.8404632 3.36445196,28.9333172 3.36445196,27.8186827 C3.36445196,26.7040483 4.27136709,25.7969023 5.38630935,25.7969023 C6.5012516,25.7969023 7.40808977,26.7040483 7.40808977,27.8186827 Z M5.38615542,18.7395264 C3.83114692,18.7395264 2.5661296,17.47474 2.5661296,15.9198084 C2.5661296,14.3647999 3.83114692,13.0997826 5.38615542,13.0997826 C6.94108697,13.0997826 8.20610428,14.3647999 8.20610428,15.9198084 C8.20610428,17.47474 6.94108697,18.7395264 5.38615542,18.7395264 Z M15.5320761,23.9097277 C14.4171338,23.9097277 13.5102956,23.0025047 13.5102956,21.8878703 C13.5102956,20.7732359 14.4171338,19.8660899 15.5320761,19.8660899 C16.6470183,19.8660899 17.5538565,20.7732359 17.5538565,21.8878703 C17.5538565,23.0025047 16.6470183,23.9097277 15.5320761,23.9097277 Z" id="形状"></path>
        </g>
    </g>
</svg>