<?xml version="1.0" encoding="UTF-8"?>
<svg width="40px" height="40px" viewBox="0 0 40 40" version="1.1" xmlns="http://www.w3.org/2000/svg" xmlns:xlink="http://www.w3.org/1999/xlink">
    <!-- Generator: Sketch 55.2 (78181) - https://sketchapp.com -->
    <title>TemplateIcon/kubernetes-dashboard</title>
    <desc>Created with Sketch.</desc>
    <g id="TemplateIcon/kubernetes-dashboard" stroke="none" stroke-width="1" fill="none" fill-rule="evenodd">
        <g id="kubernets" transform="translate(4.000000, 4.000000)" fill-rule="nonzero">
            <path d="M10.2170591,30.6652806 C9.47231964,30.6652806 8.76903808,30.3343687 8.29321142,29.7344188 L1.05310621,20.7357966 C0.577279559,20.1358467 0.391157315,19.3705661 0.577279559,18.6257014 L3.16307615,7.39298597 C3.32853206,6.64824649 3.82502505,6.04829659 4.50776553,5.71738477 L14.9750752,0.711122244 C15.3061122,0.545791583 15.678482,0.463001002 16.0508517,0.463001002 C16.4232214,0.463001002 16.7954659,0.545666333 17.126503,0.711247495 L27.5939379,5.69671844 C28.2765531,6.02763026 28.7730461,6.62758016 28.938502,7.37231964 L31.5242986,18.6050351 C31.6898798,19.3497745 31.5242986,20.1151804 31.0485972,20.7151303 L23.8082415,29.7137525 C23.3324148,30.2929108 22.6291333,30.6446142 21.8843938,30.6446142 L10.2173096,30.6652806 L10.2170591,30.6652806 Z" id="路径" fill="#326DE6"></path>
            <path d="M16.0299349,0.980160321 C16.3196393,0.980160321 16.6092184,1.04215932 16.8781313,1.16628257 L27.3455661,6.15175351 C27.8833918,6.42066633 28.2970942,6.91715932 28.4212174,7.49644289 L31.007014,18.7291583 C31.1518036,19.3291082 31.007014,19.9497244 30.613978,20.4254259 L23.3737475,29.4241733 C23.0013778,29.8998747 22.4220942,30.1687876 21.8222695,30.1687876 L10.2170591,30.1687876 C9.61710922,30.1687876 9.0379509,29.8998747 8.66558116,29.4241733 L1.4253507,20.4254259 C1.05298096,19.9497244 0.908066132,19.3291082 1.03231463,18.7291583 L3.61811122,7.49644289 C3.7629008,6.89649299 4.15593687,6.4 4.69376253,6.15175351 L15.1613226,1.14574148 C15.4302355,1.04228457 15.740481,0.980160321 16.0300601,0.980160321 L16.0299349,0.980160321 Z M16.0299349,0.00784068136 C15.5955661,0.00784068136 15.1611974,0.111297595 14.7473697,0.29741984 L4.28006012,5.30368236 C3.45253006,5.69671844 2.87337174,6.42066633 2.66645792,7.31019539 L0.0806613226,18.5430361 C-0.126127255,19.4325651 0.0806613226,20.3427605 0.65994489,21.0668337 L7.90017535,30.0654559 C8.45879259,30.7687375 9.30686373,31.1617735 10.1963928,31.1617735 L21.801478,31.1617735 C22.691007,31.1617735 23.5392034,30.7687375 24.0976954,30.0654559 L31.3380511,21.0667084 C31.9172094,20.3634269 32.1241232,19.4325651 31.9172094,18.5429108 L29.3314128,7.31019539 C29.1246242,6.42066633 28.5453407,5.69671844 27.7179359,5.30368236 L17.2918337,0.297294589 C16.8987976,0.111297595 16.4644289,0.00784068136 16.0299349,0.00784068136 Z" id="形状" fill="#FFFFFF"></path>
            <path d="M26.5180361,17.8396293 C26.4973697,17.8396293 26.4973697,17.8396293 26.5180361,17.8396293 L26.4973697,17.8396293 C26.4767034,17.8396293 26.4560371,17.8396293 26.4560371,17.8189629 C26.4147044,17.8189629 26.3733717,17.7982966 26.3319138,17.7982966 C26.1871242,17.7776303 26.063001,17.7569639 25.9388778,17.7569639 C25.8767535,17.7569639 25.8147545,17.7569639 25.7319639,17.7361723 L25.7112976,17.7361723 C25.2769289,17.6948397 24.9252255,17.653507 24.5941884,17.5500501 C24.4493988,17.4879259 24.4080661,17.4052605 24.3666082,17.3224699 C24.3666082,17.3018036 24.3459419,17.3018036 24.3459419,17.2811373 L24.0770291,17.1984719 C24.2040812,16.225337 24.155037,15.2372824 23.9322395,14.281513 C23.7063671,13.3177959 23.3143616,12.4007853 22.7737976,11.5715932 L22.9807114,11.3854709 L22.9807114,11.3441383 C22.9807114,11.2406814 23.0013778,11.1372244 23.0840431,11.0337675 C23.3322896,10.8061874 23.6426603,10.6200651 24.0150301,10.392485 C24.0770291,10.3511523 24.1390281,10.330486 24.2011523,10.2890281 C24.3252756,10.2270291 24.4287325,10.1650301 24.5528557,10.0822395 C24.573522,10.0615731 24.6148547,10.0409068 24.6563126,9.99957415 C24.676979,9.97878257 24.6976453,9.97878257 24.6976453,9.95811623 C24.9872244,9.70986974 25.0493487,9.29616733 24.8424349,9.02712926 C24.738978,8.88233968 24.5528557,8.79967435 24.3666082,8.79967435 C24.2012776,8.79967435 24.0563627,8.86167335 23.9115731,8.96513026 L23.8702405,9.00646293 C23.8289078,9.02712926 23.8081162,9.06858717 23.7667836,9.08925351 C23.6633267,9.19271042 23.5805361,9.27537575 23.4978707,9.37883267 C23.4565381,9.42016533 23.4152054,9.48228958 23.3530812,9.52362224 C23.0633768,9.83399299 22.7944639,10.0822395 22.5255511,10.2683617 C22.4635521,10.3096944 22.4015531,10.330486 22.3394289,10.330486 C22.2980962,10.330486 22.2566383,10.330486 22.2153056,10.3096944 L22.1739729,10.3096944 L21.9256012,10.4752756 C21.6566884,10.1856964 21.3671092,9.9374499 21.0775301,9.68920341 C19.8305848,8.7145199 18.3299047,8.11853437 16.754008,7.97214429 L16.7333417,7.70323146 L16.692009,7.6618988 C16.6298848,7.59977455 16.5472194,7.53777555 16.5264279,7.39298597 C16.5057615,7.0619489 16.5472194,6.68957916 16.5885521,6.27587675 L16.5885521,6.25521042 C16.5885521,6.19308617 16.6092184,6.11042084 16.6298848,6.04829659 C16.6505511,5.9242986 16.6712174,5.8000501 16.692009,5.65526052 L16.692009,5.46913828 C16.692009,5.09676854 16.4023046,4.78652305 16.0507265,4.78652305 C15.8851453,4.78652305 15.7196894,4.86918838 15.5955661,4.99331162 C15.4715681,5.11743487 15.4094439,5.28289078 15.4094439,5.46913828 L15.4094439,5.63459419 C15.4094439,5.77938377 15.4301102,5.90350701 15.4714429,6.02763026 C15.4921092,6.08975451 15.4921092,6.15175351 15.5127756,6.23454409 L15.5127756,6.25521042 C15.5541082,6.66891283 15.6162325,7.04128257 15.5748998,7.37231964 C15.5542335,7.51710922 15.4714429,7.57910822 15.4094439,7.64123246 L15.3681112,7.68256513 L15.3473196,7.95147796 C14.9749499,7.99281062 14.6025802,8.03414329 14.2302104,8.11693387 C12.6373998,8.46863727 11.2307114,9.275501 10.1343938,10.4338176 L9.92747996,10.2890281 L9.88614729,10.2890281 C9.84481463,10.2890281 9.80335671,10.3096944 9.76202405,10.3096944 C9.6998998,10.3096944 9.6379008,10.2890281 9.57577655,10.2476954 C9.30686373,10.0615731 9.0379509,9.79253507 8.74837174,9.48228958 C8.70703908,9.44095691 8.66570641,9.37883267 8.60358216,9.3375 C8.52079158,9.23404309 8.438001,9.15125251 8.33454409,9.04792084 C8.31387776,9.02712926 8.27254509,9.00658818 8.23121242,8.96513026 C8.21054609,8.94446393 8.18987976,8.94446393 8.18987976,8.9237976 C8.06171148,8.81791089 7.90096511,8.75943354 7.73471944,8.75821643 C7.54847194,8.75821643 7.3623497,8.84100701 7.25889279,8.98579659 C7.05197896,9.25470942 7.11410321,9.66841182 7.40368236,9.91665832 C7.4243487,9.91665832 7.4243487,9.9374499 7.44501503,9.9374499 C7.4863477,9.95811623 7.50713928,9.9994489 7.54847194,10.0201152 C7.67259519,10.1027806 7.7760521,10.1649048 7.90017535,10.2270291 C7.9622996,10.2476954 8.0242986,10.2890281 8.08642285,10.330486 C8.45866733,10.5579409 8.76903808,10.7441884 9.01728457,10.9717685 C9.12074148,11.0751002 9.12074148,11.1785571 9.12074148,11.282014 L9.12074148,11.3233467 L9.32753006,11.5095942 C9.28619739,11.5715932 9.24486473,11.6130511 9.22407315,11.6750501 C8.18975451,13.3093186 7.79671844,15.2331663 8.06563126,17.1363477 L7.79671844,17.219013 C7.79671844,17.2398046 7.7760521,17.2398046 7.7760521,17.2603457 C7.73471944,17.3431363 7.67259519,17.4259269 7.54847194,17.4879259 C7.23822645,17.5913828 6.86585671,17.6328407 6.43148798,17.6741733 L6.41069639,17.6741733 C6.34869739,17.6741733 6.26590681,17.6741733 6.20390782,17.6948397 C6.07978457,17.6948397 5.95566132,17.715506 5.81087174,17.7361723 C5.76953908,17.7361723 5.72820641,17.7569639 5.6867485,17.7569639 C5.66608216,17.7569639 5.64541583,17.7569639 5.62462425,17.7776303 C5.25225451,17.8602956 5.02467435,18.211999 5.0867986,18.5429108 C5.14892285,18.8326152 5.41783567,19.0188627 5.74874749,19.0188627 C5.81087174,19.0188627 5.85220441,19.0188627 5.91432866,18.9980711 C5.93499499,18.9980711 5.95566132,18.9980711 5.95566132,18.9774048 C5.99699399,18.9774048 6.03832665,18.9567385 6.07965932,18.9567385 C6.22457415,18.9154058 6.32803106,18.8740731 6.45215431,18.8119489 C6.51415331,18.7912826 6.5761523,18.7498246 6.63827655,18.7292836 L6.65894289,18.7292836 C7.05197896,18.5843687 7.40368236,18.4602455 7.73471944,18.4189128 L7.7760521,18.4189128 C7.90017535,18.4189128 7.98296593,18.4809118 8.04496493,18.5223697 C8.06563126,18.5223697 8.06563126,18.5430361 8.0862976,18.5430361 L8.376002,18.5017034 C8.87249499,20.0323898 9.82402305,21.3977455 11.0859218,22.3907315 C11.375501,22.6181864 11.6650802,22.8044339 11.9754509,22.9906814 L11.8513277,23.2594689 C11.8513277,23.2802605 11.871994,23.2802605 11.871994,23.3008016 C11.9133267,23.3835922 11.9546593,23.4870491 11.9133267,23.6318387 C11.7893287,23.9422094 11.6030812,24.2524549 11.375501,24.6041583 L11.375501,24.6248246 C11.3341683,24.6869489 11.2928357,24.7282816 11.251503,24.7902806 C11.1687124,24.8937375 11.1065882,24.9971944 11.0237976,25.1213176 C11.0031313,25.141984 10.9824649,25.1833166 10.9617986,25.2247745 C10.9617986,25.2454409 10.9411323,25.2661072 10.9411323,25.2661072 C10.7756764,25.6178106 10.8997996,26.0108467 11.2100451,26.1556363 C11.2927104,26.1969689 11.375501,26.2177605 11.4582916,26.2177605 C11.7065381,26.2177605 11.9547846,26.0521794 12.0789078,25.8245992 C12.0789078,25.8039329 12.0995741,25.7832665 12.0995741,25.7832665 C12.1202405,25.7419339 12.1409068,25.7006012 12.1615731,25.6798096 C12.2236974,25.53502 12.2443637,25.4315631 12.2856964,25.3074399 L12.3478206,25.1213176 C12.4926102,24.7076152 12.5960671,24.3765782 12.7821894,24.086999 C12.8648547,23.9628758 12.9684369,23.9422094 13.0511022,23.9007515 C13.0717685,23.9007515 13.0717685,23.9007515 13.0924349,23.8800852 L13.2373497,23.6111723 C14.1475451,23.9628758 15.1405311,24.148998 16.1333918,24.148998 C16.7333417,24.148998 17.3539579,24.086999 17.9332415,23.9422094 C18.297764,23.8606997 18.6569802,23.7570506 19.0088928,23.6318387 L19.1328908,23.8594188 C19.1536824,23.8594188 19.1536824,23.8594188 19.1743487,23.8800852 C19.2778056,23.9007515 19.3604709,23.9422094 19.4432615,24.0663327 C19.6087174,24.3559118 19.7328407,24.7076152 19.8776303,25.1006513 L19.8776303,25.1213176 L19.9397545,25.3074399 C19.9810872,25.4315631 20.0017535,25.5556864 20.0637525,25.6798096 C20.0845441,25.7211423 20.1052104,25.7419339 20.1258768,25.7832665 C20.1258768,25.8039329 20.1466683,25.8245992 20.1466683,25.8245992 C20.2706663,26.0728457 20.5189128,26.2177605 20.7671593,26.2177605 C20.8499499,26.2177605 20.9327405,26.1969689 21.0154058,26.1556363 C21.1601954,26.0729709 21.2843186,25.9487224 21.3257766,25.7832665 C21.3671092,25.6178106 21.3671092,25.4315631 21.2844439,25.2661072 C21.2844439,25.2454409 21.2636523,25.2454409 21.2636523,25.2247745 C21.242986,25.1834419 21.2223196,25.1421092 21.2016533,25.1213176 C21.1395291,24.9971944 21.0568637,24.8937375 20.9740731,24.7902806 C20.9327405,24.7282816 20.8914078,24.6869489 20.8500752,24.6249499 L20.8500752,24.6041583 C20.6223697,24.2524549 20.4154559,23.9422094 20.3121242,23.6318387 C20.2707916,23.4870491 20.3121242,23.4043838 20.3327906,23.3009269 C20.3327906,23.2802605 20.3534569,23.2802605 20.3534569,23.2595942 L20.25,23.0113477 C21.3464429,22.3700651 22.2773046,21.4597445 22.9807114,20.3427605 C23.3530812,19.763477 23.6426603,19.1221944 23.8494489,18.4809118 L24.0976954,18.5222445 C24.118487,18.5222445 24.118487,18.5015782 24.1390281,18.5015782 C24.2218186,18.4602455 24.2839429,18.3982465 24.4080661,18.3982465 L24.4493988,18.3982465 C24.7804359,18.4395792 25.132014,18.5635772 25.5251754,18.708492 L25.5458417,18.708492 C25.6078407,18.7291583 25.6698397,18.770491 25.7319639,18.7911573 C25.8560872,18.8532816 25.9595441,18.8946142 26.1043337,18.9360721 C26.1456663,18.9360721 26.186999,18.9567385 26.2284569,18.9567385 C26.2491232,18.9567385 26.2697896,18.9567385 26.2904559,18.9774048 C26.3525802,18.9980711 26.3939128,18.9980711 26.4560371,18.9980711 C26.7662826,18.9980711 27.0351954,18.7912826 27.117986,18.5223697 C27.117986,18.2741232 26.8904058,17.9430862 26.5180361,17.8397545 L26.5180361,17.8396293 Z M16.9401303,16.825977 L16.0299349,17.2604709 L15.1197395,16.825977 L14.8922846,15.8537826 L15.5127756,15.0677104 L16.5264279,15.0677104 L17.1470441,15.8537826 L16.9402555,16.825977 L16.9401303,16.825977 Z M22.3394289,14.6746743 C22.4998976,15.3587238 22.5487908,16.0642069 22.4842184,16.7638527 L19.3191383,15.8537826 C19.0295591,15.7711172 18.8641032,15.4814128 18.9261022,15.1918337 C18.9467685,15.1090431 18.9882265,15.0262525 19.0502255,14.9642535 L21.5533567,12.7093687 C21.9049349,13.2886523 22.1738477,13.9506012 22.3394289,14.6745491 L22.3394289,14.6746743 Z M20.5603707,11.4682615 L17.8504509,13.3921092 C17.6228707,13.5368988 17.3125,13.4954409 17.1263778,13.267986 C17.0643788,13.2058617 17.0437124,13.1230711 17.0229208,13.0404058 L16.8367986,9.66841182 C18.2456318,9.83063973 19.5580548,10.4650209 20.5603707,11.4682615 L20.5603707,11.4682615 Z M14.5612475,9.77174349 C14.7888277,9.73041082 14.9956162,9.68907816 15.2231964,9.64774549 L15.0370741,12.95749 C15.0164078,13.2470691 14.7888277,13.4953156 14.4784569,13.4953156 C14.3957916,13.4953156 14.2923347,13.4746493 14.2302104,13.4333166 L11.4789579,11.4682615 C12.3271543,10.6200651 13.3821393,10.0407816 14.5612475,9.77186874 L14.5612475,9.77174349 Z M10.4859719,12.7092435 L12.9476453,14.902004 C13.1752255,15.0882515 13.1958918,15.4398297 13.0097695,15.6674098 C12.9476453,15.7500752 12.86498,15.8121994 12.761523,15.832991 L9.55511022,16.7638527 C9.43098697,15.3571643 9.74123246,13.9298096 10.4859719,12.7092435 L10.4859719,12.7092435 Z M9.92735471,18.3153307 L13.2166834,17.7567134 C13.4855962,17.7360471 13.7338427,17.9222946 13.7958417,18.1912074 C13.816508,18.3152054 13.816508,18.4187876 13.7751754,18.5222445 L12.5132766,21.5630762 C11.3548347,20.8183367 10.4239729,19.6805611 9.92747996,18.3153307 L9.92735471,18.3153307 Z M17.4780812,22.4319389 C17.0022545,22.5353958 16.5264279,22.5973948 16.0299349,22.5973948 C15.305987,22.5973948 14.6025802,22.4733968 13.9407565,22.266483 L15.5748998,19.3083166 C15.7403557,19.1220691 16.0092685,19.0394038 16.2368487,19.1635271 C16.333439,19.2226965 16.4177241,19.2999224 16.4850952,19.390982 L18.0779058,22.266483 C17.8917836,22.328482 17.6848697,22.3699399 17.4779559,22.4319389 L17.4780812,22.4319389 Z M21.5118988,19.5565631 C20.9947395,20.3839679 20.311999,21.0459168 19.5260521,21.5630762 L18.2228206,18.4393287 C18.1606964,18.1912074 18.2641533,17.9222946 18.5123998,17.7980461 C18.5950651,17.7567134 18.698522,17.7360471 18.801979,17.7360471 L22.1118487,18.2946643 C21.9877255,18.7496994 21.7808116,19.1635271 21.5118988,19.5565631 L21.5118988,19.5565631 Z" id="形状" fill="#FFFFFF"></path>
        </g>
    </g>
</svg>