<?xml version="1.0" encoding="UTF-8"?>
<svg width="40px" height="40px" viewBox="0 0 40 40" version="1.1" xmlns="http://www.w3.org/2000/svg" xmlns:xlink="http://www.w3.org/1999/xlink">
    <!-- Generator: Sketch 55.2 (78181) - https://sketchapp.com -->
    <title>TemplateIcon/mariadb</title>
    <desc>Created with Sketch.</desc>
    <g id="TemplateIcon/mariadb" stroke="none" stroke-width="1" fill="none" fill-rule="evenodd">
        <g id="mariadb" transform="translate(4.000000, 9.000000)" fill-rule="nonzero">
            <path d="M31.2853424,0.0133159792 C30.7909992,0.0292100521 30.9473118,0.171630957 29.879155,0.434446336 C28.8004856,0.699889868 27.4829045,0.618417101 26.3213857,1.10562675 C22.8539748,2.55987185 22.1582649,7.52996095 19.0061073,9.31034742 C16.6499049,10.6411944 14.2726772,10.7473218 12.1354876,11.4171256 C10.7309271,11.857529 9.19445835,12.7607379 7.92193132,13.8574289 C6.9342461,14.7088256 6.90846516,15.4575991 5.87635162,16.5256308 C4.77252703,17.6678765 1.48896175,16.5449039 0.000800961153,18.2932519 C0.480126151,18.7779586 0.690378454,18.9137465 1.63501201,18.7879706 C1.43952743,19.1586654 0.286518823,19.4710402 0.512164598,20.0164447 C0.74969964,20.5902583 3.53704445,20.9792251 6.07096015,19.4495144 C7.2510012,18.7370344 8.19100421,17.7100521 10.0287095,17.465008 C12.4069383,17.1480026 15.1467261,17.6682519 17.8999049,18.0653534 C17.491665,19.2825641 16.6720565,20.0920354 16.0155186,21.0614487 C15.8121496,21.2804616 16.4238837,21.304991 17.1217211,21.1727072 C18.3769774,20.8623348 19.2815629,20.6122847 20.2289497,20.060873 C21.3928464,19.38331 21.5693082,17.6463506 22.9972717,17.2703995 C23.7928514,18.493367 25.9569483,18.7822137 27.2996846,17.8040398 C26.1213957,17.4705146 25.7957549,14.962505 26.1934822,13.8574289 C26.5701842,12.8111734 26.942506,11.1379155 27.3219614,9.75500601 C27.7293252,8.26997397 27.8795054,6.39810272 28.372472,5.64156988 C29.1142371,4.50345414 29.9337205,4.11261013 30.6451992,3.47084001 C31.3568032,2.82894473 32.0080847,2.20432018 31.986684,0.735682819 C31.9798008,0.262615138 31.7351322,-0.00095114137 31.2853424,0.0133159792 Z" id="路径" fill="#002B64"></path>
            <path d="M1.02427913,19.911694 C2.82869443,20.1702543 3.92601121,19.911694 5.375,19.2834401 C6.60797958,18.7486734 7.79865839,17.6463506 9.25465559,17.1790398 C11.3928464,16.4929666 13.7376602,17.1799159 16.0234031,17.3169553 C16.5800711,17.3503704 17.1331097,17.3507459 17.6790148,17.2912996 C18.5304115,16.7679215 18.5128905,14.8104475 19.341635,14.6311073 C19.3172307,17.377528 18.1912545,19.0231278 17.0137165,20.6165398 C19.4954445,20.1782639 20.9806017,18.7427913 21.9836804,16.8256157 C22.2880457,16.2442932 22.5478574,15.6189177 22.7776332,14.9633811 C23.1329345,15.2360833 22.9315679,16.0657038 23.1101572,16.5152433 C24.8195835,15.5629756 25.7983831,13.3898678 26.446661,11.1919804 C27.1965609,8.64830296 27.5035543,6.0725871 27.9872597,5.31993392 C28.4593262,4.58530236 29.1939577,4.13250901 29.8645124,3.66219463 C30.626677,3.12742791 31.3062425,2.57013416 31.4236334,1.55128654 C30.6200441,1.47694734 30.434196,1.29097417 30.3153034,0.885988186 C29.9129455,1.11276031 29.5430016,1.16131858 29.125,1.1738336 C28.7623148,1.18484682 28.3638366,1.16870244 27.8771276,1.21863736 C23.8522978,1.63200841 23.340809,6.06820685 20.7610883,8.58297457 C20.5708464,8.7672388 20.3687112,8.93881328 20.1559872,9.09659091 C19.2524029,9.76989888 18.1440729,10.2509762 17.1248498,10.6405687 C15.474995,11.2709501 13.9064878,11.3157539 12.3586304,11.8599069 C11.2222667,12.2592611 10.0676312,12.8385813 9.13438626,13.4773478 C8.90900753,13.6307443 8.6902953,13.7937137 8.47884962,13.965809 C7.93119243,14.4138466 7.57163596,14.9110683 7.22396876,15.4225571 C6.86528835,15.9494393 6.5189978,16.4917151 5.99111434,17.0097117 C5.13583801,17.8494694 1.940003,17.2546306 0.814902883,18.0334401 C0.689502403,18.1200441 0.589882859,18.2240439 0.522051462,18.3489437 C1.13603825,18.6279035 1.54603024,18.456698 2.2522527,18.5347918 C2.34486384,19.204971 0.795254305,19.6031988 1.02427913,19.9118192 L1.02427913,19.911694 Z M25.4086654,15.084151 C25.4567231,15.8529485 25.9030086,17.3781538 26.2969814,17.7489738 C25.5253054,17.936699 24.1960853,17.6265769 23.8550511,17.0822988 C24.0302613,16.2963556 24.9421055,15.5779936 25.4086654,15.084151 Z" id="形状" fill="#FFFFFF"></path>
            <path d="M26.539147,2.88313476 C27.1088306,3.37772827 28.3043903,2.9807519 28.0907589,1.99657089 C27.2054465,1.92323288 26.6925811,2.22371846 26.539147,2.88313476 Z M30.5112885,1.73287946 C30.3598568,2.05076091 30.0696336,2.46062775 30.0696336,3.26972367 C30.0683821,3.40864037 29.964132,3.50387966 29.9623799,3.2897477 C29.9702643,2.49879856 30.1795154,2.15701342 30.4019073,1.70772427 C30.5052813,1.52362835 30.567481,1.59959451 30.5112885,1.73287946 Z" id="形状" fill="#002B64"></path>
            <path d="M30.3587305,1.61323588 C30.1798909,1.91647477 29.7494994,2.46976372 29.6782889,3.27585603 C29.6651482,3.41402183 29.5527633,3.49962455 29.5697837,3.28599319 C29.6473769,2.49904886 29.9914147,2.00645775 30.252478,1.57831898 C30.3709952,1.40423508 30.426687,1.4853324 30.3587305,1.61323588 Z M30.2195635,1.45454545 C30.0159441,1.74163997 29.3532739,2.40606227 29.2147327,3.20351922 C29.1898278,3.33993292 29.0706848,3.41602423 29.1057269,3.20452042 C29.249149,2.42671205 29.8203344,1.81535342 30.1164397,1.41099319 C30.2490989,1.24704646 30.2976572,1.33277433 30.2195635,1.45454545 Z M30.0954145,1.2775831 C29.8534992,1.53313977 29.0635513,2.38040649 28.8145024,3.1503304 C28.7704495,3.28186324 28.6417952,3.34055867 28.7063726,3.13606328 C28.9575491,2.3861634 29.6493793,1.57831898 29.9994243,1.21976372 C30.1539848,1.07621646 30.1899029,1.16782639 30.0954145,1.2775831 Z" id="形状" fill="#002B64"></path>
        </g>
    </g>
</svg>