<?xml version="1.0" encoding="UTF-8"?>
<svg width="40px" height="40px" viewBox="0 0 40 40" version="1.1" xmlns="http://www.w3.org/2000/svg" xmlns:xlink="http://www.w3.org/1999/xlink">
    <!-- Generator: Sketch 55.2 (78181) - https://sketchapp.com -->
    <title>TemplateIcon/MongoDB</title>
    <desc>Created with Sketch.</desc>
    <g id="TemplateIcon/MongoDB" stroke="none" stroke-width="1" fill="none" fill-rule="evenodd">
        <g id="mongodb" transform="translate(4.000000, 15.000000)" fill-rule="nonzero">
            <path d="M29.8184172,3.78196307 C29.7896442,3.78771767 29.7607461,3.85120596 29.7607461,3.88579614 C29.7549915,4.11673088 29.7492369,4.72859538 29.7492369,5.14417784 C29.7492369,5.1557496 29.7665007,5.17883056 29.7838271,5.17883056 C29.8703963,5.18458517 30.0781876,5.19033977 30.2571432,5.19033977 C30.5053418,5.19033977 30.6496447,5.1557496 30.7305219,5.12115943 C30.9382506,5.01720126 31.0363916,4.79208367 31.0363916,4.54382256 C31.0363916,3.9839997 30.6438901,3.77039131 30.0608612,3.77039131 C30.0204539,3.76463671 29.9051116,3.76463671 29.8184172,3.78196307 L29.8184172,3.78196307 Z M31.3077337,6.36215222 C31.3077337,5.79069506 30.8863341,5.47319105 30.124412,5.47319105 C30.0897593,5.47319105 29.8473154,5.46743645 29.7895817,5.47894566 C29.7722553,5.48476281 29.7492369,5.49633457 29.7492369,5.51366093 C29.7492369,5.92342624 29.7434197,6.57576061 29.7607461,6.82971377 C29.7722553,6.93936399 29.8531325,7.09523869 29.9512735,7.14140062 C30.0551066,7.19913431 30.2917959,7.21064351 30.4534252,7.21064351 C30.909415,7.21064351 31.3077337,6.95669035 31.3077337,6.36215222 L31.3077337,6.36215222 Z M28.6409753,3.46452162 C28.6986464,3.46452162 28.8717849,3.48178543 29.3162655,3.48178543 C29.7376651,3.48178543 30.0724329,3.47027622 30.4822608,3.47027622 C30.9844125,3.47027622 31.6770917,3.64916934 31.6770917,4.39958217 C31.6770917,4.7690027 31.4173214,5.06342574 31.0767989,5.20772868 C31.0595351,5.21348329 31.0595351,5.22499249 31.0767989,5.2307471 C31.5616243,5.35203163 31.9888411,5.65214672 31.9888411,6.21778673 C31.9888411,6.77198008 31.6425015,7.12407426 31.1402872,7.34343725 C30.834355,7.47616843 30.4534252,7.52233036 30.0666783,7.52233036 C29.7722553,7.52233036 28.9814977,7.48774019 28.5428343,7.49931195 C28.4966723,7.48192304 28.5832416,7.27413181 28.6235864,7.23954163 C28.7275445,7.23372448 28.8082966,7.22796988 28.9180094,7.19331715 C29.0738841,7.15297238 29.0911479,7.1067479 29.1142289,6.8701211 C29.1258006,6.66808447 29.1258006,5.95226181 29.1258006,5.44435548 C29.1258006,4.74592174 29.1316178,4.27260558 29.1258006,4.04173339 C29.120046,3.86284027 29.0565577,3.80504404 28.9295812,3.77039131 C28.8313776,3.7531275 28.6698108,3.72998399 28.5370171,3.71272018 C28.508119,3.68382206 28.60626,3.48754003 28.6409753,3.46452162 Z M25.3103107,7.05483137 C25.4489216,7.16441904 25.7202012,7.21058096 25.9626451,7.21058096 C26.274332,7.21058096 26.5860188,7.15297238 26.8861965,6.88156775 C27.1921287,6.60459618 27.4056745,6.17744195 27.4056745,5.49633457 C27.4056745,4.8440002 27.157476,4.31295036 26.6495071,4.00132606 C26.3609012,3.82230785 25.9914807,3.7473729 25.5643265,3.7473729 C25.4373499,3.7473729 25.3161279,3.7531275 25.2411304,3.78771767 C25.2237415,3.79928943 25.1833967,3.85120596 25.1833967,3.88004153 C25.171825,3.99550891 25.171825,4.88440753 25.171825,5.40394816 C25.171825,5.9407526 25.171825,6.69116543 25.1833967,6.77773469 C25.1833967,6.86436649 25.2237415,6.99709768 25.3103733,7.05483137 L25.3103107,7.05483137 Z M24.0000125,3.46445907 C24.1097253,3.46445907 24.5310623,3.48178543 24.733099,3.48178543 C25.0968275,3.48178543 25.3565352,3.46452162 26.0433972,3.46452162 C26.620609,3.46452162 27.1054969,3.62033377 27.4518365,3.91469426 C27.8731735,4.27836019 28.0925991,4.78057446 28.0925991,5.3923764 C28.0925991,6.26401121 27.6942804,6.76622548 27.2959618,7.05483137 C26.8977682,7.34919185 26.3782276,7.52233036 25.6393865,7.52233036 C25.246885,7.52233036 24.5715322,7.51082116 24.0115843,7.505004 L24.0058297,7.505004 C23.9769941,7.45308747 24.0519916,7.25105084 24.0981535,7.24529624 C24.2482736,7.22796988 24.2886809,7.22215272 24.363741,7.1933797 C24.4849004,7.14715522 24.5080439,7.08366693 24.5253703,6.8701211 C24.5426341,6.47180244 24.5368795,5.99273169 24.5368795,5.45011009 C24.5368795,5.06342574 24.5426341,4.30719576 24.5310623,4.0647518 C24.5137985,3.86277772 24.4272293,3.81079864 24.2540282,3.77614592 C24.167459,3.75888211 24.0519916,3.73573859 23.8904248,3.71847478 C23.8672813,3.6780049 23.9711769,3.49911179 24.0000125,3.46452162 L24.0000125,3.46445907 Z" id="形状" fill="#8E714E"></path>
            <path d="M17.015675,7.27988641 C16.8713721,7.26256005 16.7674765,7.23954163 16.6404999,7.18180795 C16.6231735,7.17023619 16.5942754,7.11256505 16.5942754,7.08942154 C16.5827662,6.88738491 16.5827662,6.31017314 16.5827662,5.92348879 C16.5827662,5.61173939 16.5308497,5.34045987 16.3980559,5.149995 C16.2421812,4.93056946 16.0171262,4.80365542 15.7284578,4.80365542 C15.4745046,4.80365542 15.1339196,4.97679394 14.8510684,5.21923789 C14.8453138,5.22499249 14.7991518,5.26546237 14.8049064,5.20191153 C14.8049064,5.13842324 14.8164782,5.01144666 14.8222328,4.92481485 C14.8280499,4.8440002 14.7818255,4.80365542 14.7818255,4.80365542 C14.5971152,4.89597928 14.0776371,5.01720126 13.8871097,5.03446507 C13.7486239,5.06342574 13.7139712,5.19615693 13.8583367,5.24231886 L13.8640913,5.24231886 C14.0198409,5.28848078 14.123799,5.34045987 14.2045511,5.39243895 C14.2622848,5.43860088 14.2565302,5.50208917 14.2565302,5.55406825 C14.2622848,5.98691453 14.2622848,6.65075811 14.245021,7.01442404 C14.2392664,7.15872698 14.1988591,7.21064351 14.0949009,7.23372448 L14.1064727,7.22796988 C14.025658,7.24529624 13.9621697,7.26256005 13.8640287,7.27413181 C13.829376,7.30878453 13.829376,7.4934948 13.8640287,7.53390212 C13.927517,7.53390212 14.2622848,7.51657576 14.5394441,7.51657576 C14.9203738,7.51657576 15.1166558,7.53390212 15.2147343,7.53390212 C15.2551416,7.48774019 15.2667134,7.31453913 15.2436324,7.27413181 C15.1339196,7.2683772 15.053105,7.25686799 14.9781075,7.23372448 C14.8742119,7.21058096 14.8453138,7.15872698 14.8394966,7.037505 C14.8280499,6.73151021 14.8280499,6.08505554 14.8280499,5.64639211 C14.8280499,5.52517014 14.8626401,5.46743645 14.8972303,5.43278373 C15.030024,5.3173789 15.2436324,5.23656425 15.4340973,5.23656425 C15.6188075,5.23656425 15.739967,5.29429794 15.8323534,5.36935799 C15.95933,5.47319105 15.9997373,5.62331115 16.0170637,5.73296137 C16.0458992,5.98115993 16.03439,6.47180244 16.03439,6.89895667 C16.03439,7.12982886 16.0170637,7.18756255 15.9305569,7.21639812 C15.8900871,7.23372448 15.7861915,7.25686799 15.6649695,7.26831465 C15.6245621,7.30878453 15.6361339,7.48774019 15.6649695,7.52814752 C15.8323534,7.52814752 16.0286354,7.51082116 16.3172413,7.51082116 C16.6750901,7.51082116 16.9060248,7.52814752 16.9984112,7.52814752 C17.0271842,7.4934948 17.038756,7.32611089 17.015675,7.27988641 L17.015675,7.27988641 Z M18.6145792,5.0749975 C18.3087095,5.0749975 18.118182,5.3116243 18.118182,5.68098229 C18.118182,6.05621998 18.285566,6.4891288 18.7588821,6.4891288 C18.8396968,6.4891288 18.9898169,6.45447608 19.0589972,6.37366143 C19.16871,6.26982836 19.24377,6.06197458 19.24377,5.84261159 C19.24377,5.36354083 19.0070807,5.07493495 18.6145792,5.07493495 L18.6145792,5.0749975 Z M18.5741718,7.62622598 C18.458767,7.62622598 18.3778898,7.6608787 18.3259733,7.68977682 C18.0835293,7.84552642 17.9738791,7.99564652 17.9738791,8.17466473 C17.9738791,8.34198609 18.0373674,8.47471727 18.1759157,8.59018465 C18.3432996,8.73448759 18.5741718,8.80379303 18.8685323,8.80379303 C19.4573159,8.80379303 19.7170862,8.48628903 19.7170862,8.17466473 C19.7170862,7.95523919 19.6073734,7.81093625 19.3823184,7.73018415 C19.2206891,7.6608787 18.9263286,7.62622598 18.5741718,7.62622598 L18.5741718,7.62622598 Z M18.6145792,9.12705164 C18.262485,9.12705164 18.0084693,9.05199159 17.7891688,8.88460769 C17.5755604,8.72297838 17.4832366,8.48053443 17.4832366,8.31315052 C17.4832366,8.26698859 17.4948083,8.13994946 17.598704,8.02454464 C17.6621297,7.95523919 17.8007406,7.82250801 18.1297538,7.59739041 C18.141263,7.59163581 18.1470176,7.5858812 18.1470176,7.5742469 C18.1470176,7.56273769 18.1354459,7.55116593 18.1239366,7.54547388 C17.8526571,7.44157826 17.7718425,7.27413181 17.748699,7.18180795 L17.748699,7.17023619 C17.7430069,7.13558347 17.7314351,7.10099329 17.7834142,7.06634057 C17.8238216,7.037505 17.8815552,7.00285228 17.944981,6.96250751 C18.043122,6.90471127 18.1470176,6.84122298 18.2105059,6.7892439 C18.2220777,6.77773469 18.2220777,6.76622548 18.2220777,6.75465372 C18.2220777,6.74308197 18.2105059,6.73151021 18.1989341,6.72581815 C17.794986,6.59302442 17.5929494,6.29284678 17.5929494,5.84261159 C17.5929494,5.5482511 17.7256805,5.28272618 17.9623073,5.11534227 C18.1239366,4.98836569 18.5280099,4.83249099 18.7935348,4.83249099 L18.8108612,4.83249099 C19.0821407,4.8382456 19.2321983,4.89597928 19.4457441,4.97103933 C19.5612115,5.01144666 19.6709242,5.02871047 19.8210443,5.02871047 C20.0460994,5.02871047 20.1442404,4.95946757 20.2249925,4.87871547 C20.2308096,4.89022468 20.2423814,4.9191228 20.248136,4.9941203 C20.2538906,5.06918034 20.2308096,5.17883056 20.173076,5.25964522 C20.126914,5.32313351 20.0230184,5.36935799 19.9191228,5.36935799 L19.8902247,5.36935799 C19.7863291,5.35778623 19.7401046,5.34621447 19.7401046,5.34621447 L19.7170862,5.35778623 C19.7113316,5.36935799 19.7170862,5.38086719 19.7228408,5.39819355 L19.7286579,5.40976531 C19.7401671,5.46168185 19.7632481,5.617494 19.7632481,5.65796387 C19.7632481,6.13128002 19.5727832,6.33900871 19.3707466,6.49488341 C19.1744646,6.63918635 18.9494095,6.73151021 18.6953938,6.75465372 C18.6896392,6.75465372 18.6666208,6.75465372 18.6145792,6.76040833 C18.5857436,6.76040833 18.5453363,6.76622548 18.5395191,6.76622548 L18.5337645,6.76622548 C18.4876026,6.77773469 18.3721978,6.83546837 18.3721978,6.93354684 C18.3721978,7.02011609 18.4241143,7.12407426 18.6723129,7.14140062 C18.7242294,7.14715522 18.7761459,7.14715522 18.8339422,7.15297238 C19.1629554,7.17599079 19.5727832,7.20488891 19.7632481,7.2683772 C20.028773,7.36645566 20.1961569,7.60314502 20.1961569,7.8859963 C20.1961569,8.31321307 19.8902872,8.71146918 19.3823184,8.95960518 C19.1341198,9.06931795 18.8858587,9.12705164 18.6145792,9.12705164 L18.6145792,9.12705164 Z M21.9047113,5.10383307 C21.7835518,5.10383307 21.6738391,5.13260608 21.5930244,5.19033977 C21.3679694,5.32888811 21.252502,5.60598479 21.252502,6.0099955 C21.252502,6.76622548 21.6334317,7.29727532 22.1760533,7.29727532 C22.3376826,7.29727532 22.4646592,7.25105084 22.5743094,7.15872698 C22.7416934,7.02011609 22.8283252,6.74308197 22.8283252,6.35633507 C22.8283252,5.60598479 22.4530875,5.10377052 21.9047738,5.10377052 L21.9047113,5.10383307 Z M22.0086694,7.57430945 C21.0273844,7.57430945 20.6752902,6.85279474 20.6752902,6.17744195 C20.6752902,5.7041258 20.8657551,5.34045987 21.2466848,5.08068955 C21.5180269,4.91330564 21.8412855,4.82098179 22.1298914,4.82098179 C22.8802417,4.82098179 23.4055369,5.35778623 23.4055369,6.13128002 C23.4055369,6.65651271 23.1977457,7.07209518 22.799427,7.32611089 C22.6089622,7.45308747 22.279949,7.57430945 22.0086069,7.57430945 L22.0086694,7.57430945 L22.0086694,7.57430945 Z M11.7225656,5.10377052 C11.6013436,5.10377052 11.4916934,5.13260608 11.4108162,5.19033977 C11.1857611,5.32888811 11.0702937,5.60598479 11.0702937,6.0099955 C11.0702937,6.76622548 11.4512235,7.29727532 11.9938451,7.29727532 C12.1554744,7.29727532 12.282451,7.25105084 12.3921637,7.15872698 C12.5594851,7.02011609 12.6461169,6.74308197 12.6461169,6.35633507 C12.6461169,5.60598479 12.2766964,5.10377052 11.7225656,5.10377052 Z M11.8264612,7.57430945 C10.8451761,7.57430945 10.493082,6.85279474 10.493082,6.17744195 C10.493082,5.7041258 10.6835468,5.34045987 11.0644766,5.08068955 C11.3358187,4.91330564 11.6590773,4.82098179 11.9476831,4.82098179 C12.698096,4.82098179 13.2233287,5.35778623 13.2233287,6.13128002 C13.2233287,6.65651271 13.0155374,7.07209518 12.6172188,7.32611089 C12.4325085,7.45308747 12.1034953,7.57430945 11.8264612,7.57430945 Z M5.22880805,7.51657576 C5.21723629,7.49931195 5.20566453,7.44733287 5.21148169,7.38384458 C5.21148169,7.3376201 5.22305344,7.30878453 5.22880805,7.29727532 C5.35003002,7.27988641 5.41351831,7.26256005 5.48276121,7.24529624 C5.59822858,7.21639812 5.64439051,7.15297238 5.65014512,7.00866944 C5.66753403,6.66232986 5.66753403,6.00424089 5.66171687,5.5482511 L5.66171687,5.53667934 C5.66171687,5.48476281 5.66171687,5.42121197 5.59822858,5.37505004 C5.50584217,5.3173789 5.39619195,5.26546237 5.25188901,5.22492994 C5.19997248,5.20772868 5.16531976,5.17883056 5.17107436,5.14424039 C5.17107436,5.10958767 5.20572708,5.06918034 5.28078713,5.05760859 C5.471252,5.04028223 5.96758657,4.9191228 6.16386859,4.83249099 C6.17544035,4.8440002 6.19276671,4.87871547 6.19276671,4.9248774 L6.18701211,4.98830314 C6.18119496,5.05185398 6.17544035,5.12691403 6.17544035,5.20191153 C6.17544035,5.22499249 6.19858387,5.24231886 6.22160228,5.24231886 C6.23317404,5.24231886 6.2447458,5.23656425 6.256255,5.2307471 C6.62567554,4.94214121 6.96044335,4.8382456 7.13358187,4.8382456 C7.4164957,4.8382456 7.63585869,4.97103933 7.80324259,5.24807346 C7.8147518,5.26546237 7.82632356,5.27121697 7.84364992,5.27121697 C7.85515913,5.27121697 7.87242294,5.26546237 7.87824009,5.25389061 C8.21882506,4.9941203 8.55941003,4.8382456 8.78446507,4.8382456 C9.32126952,4.8382456 9.63877352,5.23656425 9.63877352,5.91191703 C9.63877352,6.10238191 9.63877352,6.35058046 9.63301892,6.57576061 C9.63301892,6.77773469 9.62726431,6.96244496 9.62726431,7.09523869 C9.62726431,7.12401171 9.66760909,7.21639812 9.73109738,7.23372448 C9.81191203,7.27413181 9.9216248,7.29145817 10.0659277,7.31453913 L10.0716823,7.31453913 C10.0832541,7.35494646 10.0601731,7.505004 10.0370922,7.53390212 C10.0024395,7.53390212 9.95046037,7.53390212 9.89278923,7.52814752 C9.74667086,7.52052362 9.60038035,7.51666509 9.45406325,7.51657576 C9.09621447,7.51657576 8.9115042,7.52233036 8.73248599,7.53390212 C8.72103933,7.48774019 8.71522218,7.34919185 8.73248599,7.31453913 C8.83644416,7.29727532 8.88836069,7.27988641 8.95191153,7.2626226 C9.0673789,7.22796988 9.09621447,7.17599079 9.10203163,7.02593325 C9.10203163,6.91628303 9.12505004,5.98115993 9.09039732,5.75604233 C9.05580715,5.52517014 8.88260608,5.25389061 8.50161379,5.25389061 C8.35731085,5.25389061 8.1322558,5.3116243 7.91289281,5.47894566 C7.90138361,5.49051741 7.8897493,5.51935298 7.8897493,5.53667934 L7.8897493,5.5424965 C7.91289281,5.66365592 7.91289281,5.80226681 7.91289281,6.01581265 L7.91289281,6.39098779 C7.91289281,6.65075811 7.90707566,6.89320206 7.91289281,7.07784978 C7.91289281,7.20488891 7.98795286,7.23372448 8.05144115,7.25686799 C8.08609388,7.26256005 8.10911229,7.2683772 8.13801041,7.27413181 C8.18992694,7.28570356 8.24190602,7.29727532 8.32272068,7.31453913 C8.33429243,7.33768265 8.33429243,7.41268014 8.31696607,7.47616843 C8.31114892,7.51082116 8.29957716,7.52808497 8.29382256,7.53390212 C8.09760308,7.52814752 7.89556645,7.52233036 7.60120596,7.52233036 C7.51463671,7.52233036 7.36451661,7.52814752 7.23754003,7.52814752 C7.13358187,7.52814752 7.0355034,7.53390212 6.97783227,7.53390212 C6.97201511,7.52233036 6.96044335,7.48198559 6.96044335,7.41843475 C6.96044335,7.36651821 6.97201511,7.32611089 6.98358687,7.31453913 C7.01242244,7.30878453 7.0355034,7.30302992 7.06440152,7.30302992 C7.13358187,7.29145817 7.1913781,7.27988641 7.24904924,7.2683772 C7.3472528,7.23954163 7.38184297,7.18756255 7.38759758,7.06058597 C7.40492394,6.77198008 7.4222503,5.94656976 7.38184297,5.73871597 C7.31260008,5.40394816 7.12213521,5.23656425 6.81614041,5.23656425 C6.6372473,5.23656425 6.41206715,5.32313351 6.22741944,5.4617444 C6.19852132,5.48476281 6.17544035,5.54243395 6.17544035,5.59441303 L6.17544035,5.934998 C6.17544035,6.35058046 6.17544035,6.8701211 6.18119496,7.09523869 C6.18701211,7.16441904 6.21003052,7.24529624 6.34282426,7.27413181 C6.37172238,7.27988641 6.41788431,7.29145817 6.47561799,7.29727532 L6.57945106,7.31453913 C6.59108537,7.34919185 6.58526821,7.48774019 6.56218725,7.53390212 C6.50445356,7.53390212 6.43521067,7.52814752 6.35433347,7.52814752 C6.23317404,7.52233036 6.07729934,7.51657576 5.90416083,7.51657576 C5.7021242,7.51657576 5.55782126,7.52233036 5.44235388,7.52814752 C5.36153923,7.51657576 5.29805094,7.51657576 5.22880805,7.51657576 L5.22880805,7.51657576 Z" id="形状" fill="#442D22"></path>
            <path d="M2.19256655,8.90193405 L1.95593975,8.82105685 C1.95593975,8.82105685 1.98483787,7.61471677 1.55186649,7.52814752 C1.26332316,7.19331715 1.59815352,-6.67152472 2.63710969,7.48192304 C2.63710969,7.48192304 2.27919836,7.66081615 2.21571007,7.96681095 C2.14640462,8.26698859 2.19256655,8.90193405 2.19256655,8.90193405 L2.19256655,8.90193405 Z" id="路径" fill="#FFFFFF"></path>
            <path d="M2.19256655,8.90193405 L1.95593975,8.82105685 C1.95593975,8.82105685 1.98483787,7.61471677 1.55186649,7.52814752 C1.26332316,7.19331715 1.59815352,-6.67152472 2.63710969,7.48192304 C2.63710969,7.48192304 2.27919836,7.66081615 2.21571007,7.96681095 C2.14640462,8.26698859 2.19256655,8.90193405 2.19256655,8.90193405 L2.19256655,8.90193405 Z" id="路径" fill="#A6A385"></path>
            <path d="M2.31960568,7.7360013 C2.31960568,7.7360013 4.39188851,6.37366143 3.90693805,3.53945657 C3.43943905,1.4788706 2.33693205,0.803517814 2.21571007,0.543747498 C2.08297888,0.35903723 1.95593975,0.0358411729 1.95593975,0.0358411729 L2.04257156,5.76755154 C2.04257156,5.77336869 1.86361589,7.52233036 2.31966823,7.7360013" id="路径" fill="#FFFFFF"></path>
            <path d="M2.31960568,7.7360013 C2.31960568,7.7360013 4.39188851,6.37366143 3.90693805,3.53945657 C3.43943905,1.4788706 2.33693205,0.803517814 2.21571007,0.543747498 C2.08297888,0.35903723 1.95593975,0.0358411729 1.95593975,0.0358411729 L2.04257156,5.76755154 C2.04257156,5.77336869 1.86361589,7.52233036 2.31966823,7.7360013" id="路径" fill="#499D4A"></path>
            <path d="M1.83478032,7.81093625 C1.83478032,7.81093625 -0.110525921,6.48331165 0.00494145316,4.145629 C0.114591673,1.80788381 1.4883782,0.659214872 1.75390312,0.451423639 C1.92710418,0.266713371 1.93285879,0.197407926 1.94443054,0.0126976581 C2.06565252,0.272467974 2.04257156,3.89743044 2.05983537,4.32452212 C2.1117519,5.96958817 1.96751151,7.49931195 1.83478032,7.81093625 Z" id="路径" fill="#FFFFFF"></path>
            <path d="M1.83478032,7.81093625 C1.83478032,7.81093625 -0.110525921,6.48331165 0.00494145316,4.145629 C0.114591673,1.80788381 1.4883782,0.659214872 1.75390312,0.451423639 C1.92710418,0.266713371 1.93285879,0.197407926 1.94443054,0.0126976581 C2.06565252,0.272467974 2.04257156,3.89743044 2.05983537,4.32452212 C2.1117519,5.96958817 1.96751151,7.49931195 1.83478032,7.81093625 Z" id="路径" fill="#58AA50"></path>
        </g>
    </g>
</svg>