<?xml version="1.0" encoding="UTF-8"?>
<svg width="40px" height="40px" viewBox="0 0 40 40" version="1.1" xmlns="http://www.w3.org/2000/svg" xmlns:xlink="http://www.w3.org/1999/xlink">
    <!-- Generator: Sketch 55.2 (78181) - https://sketchapp.com -->
    <title>TemplateIcon/mysql</title>
    <desc>Created with Sketch.</desc>
    <g id="TemplateIcon/mysql" stroke="none" stroke-width="1" fill="none" fill-rule="evenodd">
        <g id="mysql" transform="translate(4.000000, 9.000000)">
            <polygon id="路径" points="0.00113409653 0.00749301589 31.9883392 0.00749301589 31.9883392 22.1783674 0.00113409653 22.1783674"></polygon>
            <path d="M9.79253119,17.9133732 L8.92654678,17.9133732 C8.89592356,16.4516585 8.81158421,15.0774625 8.67369606,13.7897814 L8.66599842,13.7897814 L7.3475267,17.9133732 L6.68820716,17.9133732 L5.37760041,13.7897814 L5.37007012,13.7897814 C5.27284559,15.0260892 5.21159915,16.4006198 5.18616347,17.9133732 L4.39682077,17.9133732 C4.44769213,16.0738048 4.57553988,14.3491989 4.779862,12.7393883 L5.85318065,12.7393883 L7.10237362,16.5411854 L7.11007126,16.5411854 L8.36696187,12.7393883 L9.39392735,12.7393883 C9.61883229,14.6249752 9.75170023,16.3497484 9.79253119,17.9133732 L9.79253119,17.9133732 Z M13.5481424,14.0960135 C13.1955571,16.0093789 12.7303519,17.3996395 12.153029,18.2674646 C11.7032191,18.9354858 11.2104029,19.2698311 10.6737435,19.2698311 C10.5306679,19.2698311 10.3541242,19.2266574 10.1449492,19.1409793 L10.1449492,18.679623 C10.2471939,18.6943489 10.3671767,18.7027159 10.5050648,18.7027159 C10.7557401,18.7027159 10.9572175,18.6337719 11.1108356,18.495549 C11.2945749,18.327205 11.3864445,18.1379435 11.3864445,17.9286012 C11.3864445,17.7850235 11.314823,17.4915091 11.1719147,17.0470541 L10.2215909,14.0958462 L11.0723474,14.0958462 L11.7544252,16.3030606 C11.9077086,16.8042438 11.9716325,17.1541517 11.9460294,17.3534536 C12.3190303,16.3572787 12.5795786,15.2710749 12.7280092,14.0956789 L13.5481424,14.0956789 L13.5481424,14.0960135 L13.5481424,14.0960135 Z" id="形状" fill="#5D87A1" fill-rule="nonzero"></path>
            <path d="M25.0753572,17.9133732 L22.6154594,17.9133732 L22.6154594,12.7393883 L23.4429556,12.7393883 L23.4429556,17.2764773 L25.0753572,17.2764773 L25.0753572,17.9133732 Z M21.9715352,18.0383762 L21.0203747,17.5689875 C21.1047141,17.4997088 21.1853719,17.4247405 21.2579975,17.337891 C21.6622909,16.8629802 21.8639356,16.1606542 21.8639356,15.2304113 C21.8639356,13.5186906 21.1922329,12.6624119 19.8483255,12.6624119 C19.1893406,12.6624119 18.6752722,12.8796192 18.3076262,13.3142011 C17.9036675,13.7894467 17.7020228,14.4892625 17.7020228,15.4144853 C17.7020228,16.3239781 17.8807419,16.9911626 18.2383475,17.4143654 C18.5654971,17.7977413 19.0586481,17.9896803 19.718135,17.9896803 C19.9641247,17.9896803 20.1898664,17.9595591 20.3955272,17.8988147 L21.6338431,18.6197153 L21.9715352,18.0383762 Z M18.8903041,16.8780408 C18.6807944,16.541018 18.5760396,15.9998405 18.5760396,15.2536715 C18.5760396,13.9509298 18.9717986,13.2988059 19.7641534,13.2988059 C20.1783199,13.2988059 20.4818746,13.4547667 20.675989,13.7660191 C20.885164,14.1035438 20.9904208,14.6398685 20.9904208,15.3756624 C20.9904208,16.6891139 20.5943271,17.3459235 19.8024743,17.3459235 C19.3881405,17.3460907 19.0845858,17.1906318 18.8903041,16.8780408 L18.8903041,16.8780408 Z M17.3414052,16.4792696 C17.3414052,16.918035 17.1804241,17.2779833 16.8587967,17.5599512 C16.5368345,17.8407477 16.1050974,17.9814806 15.5640872,17.9814806 C15.0580511,17.9814806 14.5674103,17.8198302 14.0924994,17.4982027 L14.3148942,17.0539151 C14.7235385,17.2585719 15.0935272,17.3603146 15.425697,17.3603146 C15.7374514,17.3603146 15.9810984,17.2912032 16.1578095,17.1541517 C16.3343532,17.0165983 16.43961,16.8236553 16.43961,16.5796736 C16.43961,16.27227 16.2252475,16.0095462 15.8319985,15.7894942 C15.4693728,15.5903596 14.7441213,15.1740177 14.7441213,15.1740177 C14.3510397,14.8875317 14.1542479,14.5799608 14.1542479,14.0732553 C14.1542479,13.6539013 14.301005,13.3153725 14.5946867,13.0578363 C14.888703,12.799296 15.2680628,12.6704442 15.7331006,12.6704442 C16.2133663,12.6704442 16.6499564,12.7991287 17.0432053,13.0538201 L16.8437361,13.4982751 C16.5073827,13.3553668 16.1753802,13.2839126 15.8478958,13.2839126 C15.5826619,13.2839126 15.3778378,13.3476691 15.2354315,13.4756842 C15.0918538,13.6031973 15.0033309,13.7663538 15.0033309,13.9664924 C15.0033309,14.2723899 15.2222116,14.5384605 15.6261703,14.7628634 C15.9936489,14.9623326 16.7369732,15.3858701 16.7369732,15.3858701 C17.1400952,15.6718542 17.3414052,15.9765803 17.3414052,16.4792696 L17.3414052,16.4792696 Z" id="形状" fill="#F8981D" fill-rule="nonzero"></path>
            <path d="M26.1142038,11.0064154 C25.6138572,10.9936976 25.2264652,11.0440669 24.9013236,11.1816204 C24.8074459,11.2191045 24.6581786,11.2191045 24.6451261,11.3377486 C24.6958301,11.3879506 24.701687,11.4689431 24.7456974,11.5382219 C24.8206657,11.6632249 24.9513582,11.8314015 25.0706717,11.9190877 C25.2016989,12.0194917 25.3332281,12.1188916 25.4711162,12.2064104 C25.7142612,12.3568491 25.9898702,12.4443679 26.2268236,12.5943045 C26.3648791,12.6814887 26.5020979,12.7942758 26.6403207,12.8881535 C26.7082607,12.9381882 26.7517691,13.0193481 26.8399573,13.0506407 L26.8399573,13.0315639 C26.7957795,12.9753377 26.783229,12.8940104 26.739888,12.8314253 L26.5521325,12.6503634 C26.370736,12.4067164 26.145329,12.1940273 25.902184,12.0193243 C25.7020454,11.8814362 25.264284,11.6940154 25.1831241,11.4634209 L25.1704063,11.4507031 C25.3079597,11.4378179 25.4711162,11.3879506 25.6018088,11.3496297 C25.8144979,11.2935708 26.0084449,11.3062887 26.2266563,11.2502298 C26.3270602,11.2251288 26.4266275,11.1936689 26.5273662,11.162711 L26.5273662,11.1063174 C26.4142444,10.9936976 26.3335865,10.8440956 26.2146078,10.7376674 C25.8963271,10.4627278 25.5455825,10.1938125 25.1831241,9.96874019 C24.9890097,9.84340255 24.7393385,9.76274467 24.5326736,9.6561491 C24.4582073,9.61849761 24.3327023,9.59992287 24.2888593,9.53733772 C24.1767415,9.39978425 24.1136543,9.21872239 24.0323271,9.05590058 C23.8515999,8.7123516 23.6760602,8.33115112 23.5200994,7.96785601 C23.4073122,7.724209 23.3387028,7.48089666 23.2011494,7.25548971 C22.5568904,6.19288081 21.857242,5.54929124 20.7819152,4.9175828 C20.5508187,4.78605357 20.2758791,4.72999468 19.9821974,4.66105061 L19.5131435,4.63628429 C19.4130742,4.59244121 19.3128375,4.47346249 19.225486,4.41723625 C18.8687172,4.19233131 17.950188,3.70486994 17.6877989,4.34845952 C17.5187856,4.75526302 17.9378049,5.15520558 18.0817173,5.36153578 C18.1879781,5.5047788 18.325699,5.66776795 18.3999979,5.83042241 C18.4440083,5.9366833 18.4563915,6.04947045 18.5004019,6.16175558 C18.6004712,6.43686251 18.6940143,6.74292734 18.8255435,6.99962687 C18.8941529,7.13048674 18.9689538,7.2680402 19.05664,7.38651691 C19.106842,7.45579567 19.1941935,7.48641888 19.2132702,7.59937337 C19.1260861,7.72387432 19.1192252,7.91179712 19.0691905,8.06809266 C18.8442856,8.77443473 18.932139,9.6494555 19.2509217,10.1685441 C19.3506563,10.3248397 19.5886138,10.6688907 19.9068945,10.5370268 C20.188695,10.4245743 20.1262772,10.0683075 20.2072697,9.75588373 C20.2258445,9.6804134 20.2136286,9.63088077 20.2511128,9.58134813 L20.2511128,9.59356395 C20.3382969,9.76843423 20.4263178,9.9369456 20.507143,10.1123179 C20.70109,10.4183827 21.0387821,10.7373327 21.3200806,10.9493525 C21.4698499,11.0624743 21.5884939,11.2559193 21.7760821,11.3250308 L21.7760821,11.3062887 L21.7636989,11.3062887 C21.7257127,11.2502298 21.6701559,11.2251288 21.6202885,11.1816204 C21.5075014,11.0690006 21.3826658,10.9314471 21.295147,10.8066115 C21.0330925,10.4563689 20.8011593,10.0686422 20.5953311,9.66853226 C20.4945925,9.47441788 20.407743,9.26223078 20.3265831,9.06845108 C20.2887643,8.99365011 20.2887643,8.88086296 20.2260118,8.84321147 C20.1319667,8.98059759 19.9949153,9.09957632 19.9263059,9.26792034 C19.8073272,9.53717038 19.794944,9.8683362 19.7507662,10.2127219 L19.7261673,10.2247704 C19.5270327,10.1747357 19.4577539,9.96874019 19.3821163,9.79386991 C19.1948628,9.34974959 19.1634029,8.63688127 19.32589,8.12448624 C19.3693984,7.99345903 19.5576559,7.58079863 19.4825203,7.45596301 C19.4448688,7.33631492 19.3196985,7.26820754 19.2510891,7.17399513 C19.1704312,7.05551843 19.0820757,6.9055818 19.0258494,6.77405257 C18.8759128,6.42414467 18.8004425,6.03641793 18.6389594,5.68667736 C18.5634891,5.52368822 18.4324619,5.35500952 18.3263683,5.20490555 C18.2072222,5.03622685 18.076195,4.91741546 17.9819826,4.71744418 C17.9508574,4.64866745 17.9071817,4.53621498 17.9572163,4.46141401 C17.9694321,4.41121201 17.9948678,4.39246993 18.0447351,4.37991944 C18.1257277,4.31147738 18.3571589,4.39849417 18.4383188,4.43614567 C18.6700846,4.52985606 18.8638643,4.61737487 19.0573094,4.74856942 C19.1448282,4.81132191 19.2387059,4.9301333 19.350991,4.96142588 L19.4825203,4.96142588 C19.6821569,5.00493427 19.9072291,4.97347436 20.0951519,5.03003527 C20.4263178,5.1364635 20.7263583,5.2925917 20.995441,5.46110307 C21.8142356,5.98035903 22.4894524,6.71816102 22.9452865,7.59937337 C23.0200875,7.74295108 23.0518821,7.8744803 23.1201568,8.02424959 C23.2518534,8.33081644 23.4146752,8.64340753 23.5453677,8.94344812 C23.6767296,9.23712979 23.8018999,9.53700304 23.989488,9.78098473 C24.0830311,9.91217928 24.4588767,9.98095601 24.627388,10.0497327 C24.7520563,10.1057916 24.9461707,10.155659 25.0586232,10.2244357 C25.2713123,10.3554629 25.4831647,10.5059015 25.683136,10.6499813 C25.7827033,10.7249496 26.095629,10.8812451 26.1142038,11.0064154 M19.7375464,5.57389022 C19.6512415,5.57299314 19.5652004,5.58357243 19.4816836,5.60535013 L19.4816836,5.61790063 L19.493732,5.61790063 C19.5441014,5.7178026 19.6316202,5.78708135 19.694038,5.87426548 C19.7444073,5.97450213 19.7880831,6.07390208 19.8374484,6.17397139 L19.8494968,6.16158824 C19.937685,6.09917042 19.9815281,5.99910111 19.9815281,5.84899715 C19.9435419,5.80481939 19.937685,5.76164568 19.9060578,5.7178026 C19.869243,5.65521745 19.7880831,5.62409221 19.7375464,5.57389022" id="形状" fill="#5D87A1" fill-rule="nonzero"></path>
            <path d="M26.7095994,18.2784853 L26.8391206,18.2784853 L26.8391206,17.2787493 L26.6448389,17.2787493 L26.4863679,17.9609873 L26.3141751,17.2787493 L26.127089,17.2787493 L26.127089,18.2784853 L26.2494145,18.2784853 L26.2494145,17.5178625 L26.2562754,17.5178625 L26.4366679,18.2784853 L26.5298763,18.2784853 L26.7095994,17.5178625 L26.7095994,18.2784853 Z M25.6662347,18.2784853 L25.8032861,18.2784853 L25.8032861,17.4481871 L25.9826746,17.4481871 L25.9826746,17.2784853 L25.4793159,17.2784853 L25.4793159,17.4481871 L25.6659,17.4481871 L25.6662347,18.2784853 Z" id="形状" fill="#F8981D" fill-rule="nonzero"></path>
        </g>
    </g>
</svg>