<?xml version="1.0" encoding="UTF-8"?>
<svg width="40px" height="40px" viewBox="0 0 40 40" version="1.1" xmlns="http://www.w3.org/2000/svg" xmlns:xlink="http://www.w3.org/1999/xlink">
    <!-- Generator: Sketch 55.2 (78181) - https://sketchapp.com -->
    <title>TemplateIcon/owncloud</title>
    <desc>Created with Sketch.</desc>
    <g id="TemplateIcon/owncloud" stroke="none" stroke-width="1" fill="none" fill-rule="evenodd">
        <g id="Fluentd_icon" transform="translate(4.000000, 12.000000)" fill="#242E42">
            <path d="M1.84404428,14.5818263 C1.08901518,14.5818263 0.474723268,13.9675344 0.474723268,13.2125053 C0.474723268,12.4574762 1.08901518,11.8431843 1.84404428,11.8431843 C2.59907339,11.8431843 3.21336529,12.4574762 3.21336529,13.2125053 C3.21336529,13.9675344 2.59907339,14.5818263 1.84404428,14.5818263 L1.84404428,14.5818263 Z M1.84404428,11.368461 C0.827260072,11.368461 0,12.1957211 0,13.2125053 C0,14.2292895 0.827260072,15.0565496 1.84404428,15.0565496 C2.86082847,15.0565496 3.68808854,14.2292895 3.68808854,13.2125053 C3.68808854,12.1957211 2.86082847,11.368461 1.84404428,11.368461 L1.84404428,11.368461 Z M8.59964853,11.4994773 L8.50835558,11.4994773 L8.50835558,11.5907703 L8.50835558,13.7872053 C8.50835558,14.2250462 8.15209403,14.5813078 7.71410704,14.5813078 C7.27612004,14.5813078 6.91985849,14.2250462 6.91985849,13.7872053 L6.91985849,11.5907703 L6.91985849,11.4994773 L6.82856557,11.4994773 L6.53642817,11.4994773 L6.44513522,11.4994773 L6.44513522,11.5907703 L6.44513522,13.7872053 C6.44513522,14.2250462 6.08887368,14.5813078 5.65088668,14.5813078 C5.21297272,14.5813078 4.8567842,14.2250462 4.8567842,13.7872053 L4.8567842,11.5907703 L4.8567842,11.4994773 L4.76549128,11.4994773 L4.47335388,11.4994773 L4.38206093,11.4994773 L4.38206093,11.5907703 L4.38206093,13.7872053 C4.38206093,14.4868013 4.95121761,15.056031 5.65088668,15.056031 C6.07601963,15.056031 6.4520735,14.8451809 6.68249686,14.5233185 C6.91292024,14.8451809 7.28897409,15.056031 7.71410704,15.056031 C8.41384915,15.056031 8.98307885,14.4868013 8.98307885,13.7872053 L8.98307885,11.5907703 L8.98307885,11.4994773 L8.89178593,11.4994773 L8.59964853,11.4994773 Z M11.5579706,11.3535474 C10.5411133,11.3535474 9.71385325,12.1808075 9.71385325,13.1976647 L9.71385325,14.8191003 L9.71385325,14.9103932 L9.80514618,14.9103932 L10.0972836,14.9103932 L10.1885765,14.9103932 L10.1885765,14.8191003 L10.1885765,13.1976647 C10.1885765,12.4425626 10.8028684,11.8282707 11.5579706,11.8282707 C12.3131457,11.8282707 12.9275107,12.4425626 12.9275107,13.1976647 L12.9275107,14.8191003 L12.9275107,14.9103932 L13.0188036,14.9103932 L13.310941,14.9103932 L13.4022339,14.9103932 L13.4022339,14.8191003 L13.4022339,13.1976647 C13.4022339,12.1808075 12.5749008,11.3535474 11.5579706,11.3535474 L11.5579706,11.3535474 Z M21.3816967,14.5819651 C20.6265945,14.5819651 20.0122296,13.9676001 20.0122296,13.212498 C20.0122296,12.4573959 20.6265945,11.8430309 21.3816967,11.8430309 C22.1367988,11.8430309 22.7511638,12.4573959 22.7511638,13.212498 C22.7511638,13.9676001 22.1367988,14.5819651 21.3816967,14.5819651 L21.3816967,14.5819651 Z M21.3816967,11.3683077 C20.3647664,11.3683077 19.5375063,12.1955677 19.5375063,13.212498 C19.5375063,14.2294283 20.3647664,15.0566884 21.3816967,15.0566884 C22.3986269,15.0566884 23.225887,14.2294283 23.225887,13.212498 C23.225887,12.1955677 22.3986269,11.3683077 21.3816967,11.3683077 L21.3816967,11.3683077 Z M27.11482,11.4994773 L27.0235271,11.4994773 L27.0235271,11.5907703 L27.0235271,13.212498 C27.0235271,13.9675271 26.4091621,14.581746 25.653987,14.581746 C24.8988849,14.581746 24.284593,13.9675271 24.284593,13.212498 L24.284593,11.5907703 L24.284593,11.4994773 L24.1933,11.4994773 L23.9011626,11.4994773 L23.8098697,11.4994773 L23.8098697,11.5907703 L23.8098697,13.212498 C23.8098697,14.2292822 24.6371298,15.0564692 25.653987,15.0564692 C26.6709173,15.0564692 27.4982503,14.2292822 27.4982503,13.212498 L27.4982503,11.5907703 L27.4982503,11.4994773 L27.4069574,11.4994773 L27.11482,11.4994773 Z" id="形状"></path>
            <path d="M31.3522584,13.7823704 C31.3447358,14.1937729 30.8888554,14.5811471 30.5409928,14.5811471 L29.9677462,14.5811471 C29.2126441,14.5811471 28.5983522,13.9668552 28.5983522,13.2118991 C28.5983522,12.456797 29.2127171,11.8425051 29.9678923,11.8425051 L31.353573,11.8408253 C31.355764,12.282537 31.36,13.3586251 31.3522584,13.7823704 M31.8270547,11.6111323 L31.8270547,11.6032445 L31.8270547,8.66930868 L31.8270547,8.57801575 L31.7357617,8.57801575 L31.4436243,8.57801575 L31.3523314,8.57801575 L31.3523314,8.66930868 L31.3523314,11.366175 L29.9676732,11.3677818 C28.950889,11.3677818 28.1236289,12.1950419 28.1236289,13.2118991 C28.1236289,14.2286103 28.950889,15.0558704 29.9677462,15.0558704 L30.5409928,15.0558704 C31.1129978,15.0558704 31.8141276,14.491607 31.8269816,13.7909155 C31.8360379,13.2898268 31.8285884,11.8872021 31.8270547,11.6111323" id="形状"></path>
            <path d="M18.3144658,13.7872199 L18.3144658,10.1543453 C18.149116,10.070867 17.9906315,9.97614151 17.8397426,9.870899 L17.8397426,13.7872199 C17.8397426,14.4868159 18.4089723,15.0560457 19.1085683,15.0560457 L19.1998612,15.0560457 L19.1998612,14.9647527 L19.1998612,14.6726153 L19.1998612,14.5813224 L19.1085683,14.5813224 C18.6707274,14.5813224 18.3144658,14.2250608 18.3144658,13.7872199 M14.5459592,12.2509278 C14.5459592,11.5430058 14.8636586,10.9081182 15.3634326,10.480283 C15.2061166,10.4197375 15.0599749,10.3364784 14.9290243,10.2345224 C14.4006938,10.7450325 14.0712359,11.4599658 14.0712359,12.2509278 C14.0712359,13.7979413 15.3298368,15.0564692 16.8769965,15.0564692 L16.9682894,15.0564692 L16.9682894,14.9651763 L16.9682894,14.6730389 L16.9682894,14.581746 L16.8769965,14.581746 C15.591665,14.581746 14.5459592,13.5361862 14.5459592,12.2509278 M23.6548178,6.95479814 C23.659565,6.89301107 23.6627055,6.8310049 23.6643122,6.76848751 C23.6651156,6.737667 23.6666493,6.70684651 23.6666493,6.67580692 C23.6666493,6.15879675 23.5563674,5.66742166 23.3594669,5.22256945 C23.3393824,5.17721512 23.3187137,5.13215292 23.2968764,5.08782108 C23.2754043,5.04429259 23.253567,5.00098323 23.2304151,4.95847723 C22.9119124,4.37361817 22.4356554,3.88706333 21.8597795,3.55439189 C21.8171275,3.52970626 21.7740372,3.50589707 21.7302896,3.48296428 C21.6866881,3.46010454 21.6427214,3.43782906 21.5980244,3.41672212 C21.1559475,3.20777086 20.6648646,3.08675293 20.147051,3.07484833 C20.1192249,3.07426406 20.0915449,3.07273036 20.0635727,3.07273036 C20.0289545,3.07273036 19.9948474,3.07441013 19.9604483,3.07535957 C19.8983691,3.07711242 19.8368741,3.08039894 19.7756714,3.08529225 C19.2077562,3.13042749 18.6765774,3.30702453 18.2128823,3.58579664 C18.1697921,3.61172384 18.1272861,3.63881958 18.0852913,3.66657262 C18.0429314,3.69447176 18.0013749,3.72346638 17.9602565,3.75311834 C17.7199735,3.92657492 17.501893,4.1285149 17.3109812,4.35448317 C17.2790652,4.39231496 17.2480255,4.43095012 17.2176433,4.47002351 C17.1876262,4.50865867 17.1584854,4.54787812 17.1300021,4.58768184 C16.7091781,5.17728814 16.4605692,5.89784504 16.4605692,6.67580692 C16.4605692,6.88103342 16.4787548,7.08217003 16.5119124,7.27819422 C16.5214068,7.33450371 16.5322159,7.39059409 16.5443396,7.44610018 C16.5575588,7.50657262 16.5723848,7.5664608 16.5886715,7.62591075 C16.6785767,7.9544923 16.8133251,8.26459613 16.9870008,8.54869977 C17.0132201,8.59179003 17.040535,8.63414995 17.0685802,8.67592559 C17.0967714,8.71792035 17.1260582,8.75911171 17.1560023,8.79993791 C17.2233399,8.89174209 17.2949136,8.98033277 17.3704311,9.06534476 C17.4116955,9.11172155 17.4538363,9.15707588 17.4973648,9.2013347 C17.5371686,9.24179573 17.5780678,9.28130731 17.6197704,9.32001552 C18.2625457,9.91422299 19.1212105,10.2784453 20.0635727,10.2784453 C20.9714628,10.2784453 21.801352,9.94022322 22.4356554,9.38406665 C22.4722456,9.35207761 22.5080324,9.31928517 22.543235,9.28576242 C22.5793139,9.25150929 22.6147356,9.21659888 22.6493539,9.18088509 C23.1767349,8.63670614 23.534092,7.92761565 23.6358288,7.13906379 C23.6437165,7.07800708 23.6500705,7.01673126 23.6548178,6.95479814 M16.7730102,8.75597125 C16.7453301,8.71229669 16.7184535,8.66811092 16.6925263,8.62334088 C16.4945302,8.28197831 16.3467817,7.90826154 16.2597247,7.51183111 C16.1670442,7.49255005 16.0711501,7.48232524 15.9728458,7.48232524 C15.9624019,7.48232524 15.9523232,7.48356682 15.9419523,7.48385895 C15.8927272,7.48488144 15.8441593,7.48860619 15.7963218,7.494595 C15.7473158,7.50072988 15.6991861,7.50956704 15.6517868,7.5205222 C15.2365866,7.61780394 14.8923026,7.89869405 14.7083291,8.2729951 C14.6866379,8.31718088 14.6672838,8.36253521 14.6501938,8.40920416 C14.6332498,8.45558098 14.618716,8.50290721 14.6065923,8.55125596 C14.5793505,8.66051535 14.5633559,8.77422982 14.5633559,8.89174209 C14.5633559,9.16262649 14.6415027,9.41517929 14.7744982,9.63011936 C14.8005715,9.67233323 14.8285436,9.71301334 14.8587068,9.75194066 C14.8883588,9.79013763 14.9196175,9.82694695 14.9529211,9.86193038 C15.209856,10.1319384 15.5715951,10.301232 15.9728458,10.301232 C16.5699016,10.301232 17.0802657,9.92736917 17.2852731,9.40188702 C17.1288335,9.24252609 16.9861244,9.0699459 16.8586795,8.88575327 C16.8292466,8.84310123 16.8008362,8.79979185 16.7730102,8.75597125 M27.703842,7.43083601 C27.701724,7.37971197 27.6984375,7.32909916 27.6936902,7.27877851 C27.6889431,7.22853087 27.6830271,7.17872144 27.6756508,7.12927718 C27.4794076,5.81736118 26.3678246,4.80130731 25.013914,4.75259341 C24.9801721,4.75142486 24.9464302,4.75003719 24.9123232,4.75003719 C24.8974242,4.75003719 24.8826712,4.75091361 24.8678453,4.75120574 C24.8188392,4.75186306 24.7701253,4.7540541 24.7216305,4.75734065 C24.3232281,4.78429032 23.9475394,4.89493735 23.6119466,5.07211868 C23.8139596,5.51733606 23.9347584,6.00673925 23.9548429,6.52170444 C23.9568878,6.57290152 23.9587867,6.6240986 23.9587867,6.67580692 C23.9587867,6.69092503 23.9577642,6.705751 23.9576912,6.72072305 C23.9568878,6.78645395 23.9545507,6.85167363 23.9506069,6.91660117 C23.8910839,7.88569393 23.4761757,8.75984207 22.8342038,9.41013992 C23.3460285,9.9797348 24.0879845,10.3387717 24.9123232,10.3387717 C25.6240428,10.3387717 26.2741216,10.0708817 26.7680529,9.63121489 C26.8054466,9.59783819 26.8421828,9.56380417 26.8777504,9.52852858 C26.9136103,9.4930339 26.948667,9.45666278 26.9826278,9.41912312 C27.4323003,8.92300079 27.7066174,8.26510738 27.7066174,7.54447746 C27.7066174,7.50642656 27.7053027,7.46859477 27.703842,7.43083601 M28.21815,7.33223965 C28.1410258,7.33223965 28.0658734,7.34020039 27.9921817,7.35203195 C27.9961255,7.41579094 27.9987548,7.47984207 27.9987548,7.54447746 C27.9987548,8.36428803 27.6768925,9.10974962 27.1536743,9.66305786 C27.4123621,9.96147621 27.79309,10.1513655 28.21815,10.1513655 C28.9953083,10.1513655 29.6276399,9.51896108 29.6276399,8.7418756 C29.6276399,7.96457104 28.9953083,7.33223965 28.21815,7.33223965 M16.6251156,2.97953852 C16.6333685,3.03139291 16.6435933,3.08258998 16.6548406,3.13334886 C16.6809138,3.25013077 16.7145096,3.36399133 16.7557741,3.47420016 C16.7741057,3.52313318 16.7941171,3.5710437 16.8153701,3.61858908 C16.8361118,3.66511194 16.8581682,3.71097751 16.8816853,3.75603971 C16.9501185,3.88786671 17.0294338,4.01312063 17.1188278,4.13048683 C17.2984923,3.92292319 17.4991177,3.73405637 17.7182937,3.56819538 C17.7595581,3.53700969 17.801772,3.50691956 17.844351,3.4772676 C17.886784,3.44776171 17.9298012,3.41927834 17.9734027,3.39145225 C18.5644697,3.01401073 19.2632624,2.79154809 20.0128869,2.78190758 C20.0298309,2.78168847 20.0466288,2.78059296 20.0635727,2.78059296 C20.1122867,2.78059296 20.1605624,2.78256486 20.2089111,2.78424466 C20.2755184,2.78672784 20.3418336,2.79089078 20.4075645,2.79666051 C20.8574561,2.83624511 21.2854374,2.95266187 21.6786543,3.13269155 C21.7187502,2.95258885 21.7405144,2.76569393 21.7405144,2.57375967 C21.7405144,2.43105055 21.7283177,2.29111674 21.7058962,2.15461554 C21.6978624,2.10633984 21.6884409,2.05850234 21.677851,2.01110305 C21.6671149,1.96333858 21.6550642,1.91608536 21.641699,1.86948944 C21.3345165,0.791721557 20.3416876,2.92137396e-05 19.166711,2.92137396e-05 C18.197253,2.92137396e-05 17.3515883,0.538949674 16.9127249,1.33276001 C16.8883314,1.37694579 16.8649604,1.42193495 16.8430501,1.46772749 C16.8204094,1.51527285 16.7995216,1.56384069 16.7796563,1.61299281 C16.6596609,1.91009654 16.5929074,2.23422298 16.5929074,2.57375967 C16.5929074,2.65979414 16.5972895,2.74480612 16.6055424,2.82864955 C16.6106548,2.87940843 16.6172279,2.92965606 16.6251156,2.97953852 M23.4821646,4.81050963 C23.8544206,4.61492367 24.2711546,4.49332147 24.7129394,4.46505718 C24.5987867,3.15058497 23.4930467,2.1156152 22.1495068,2.1156152 C22.0980906,2.1156152 22.0471126,2.11751409 21.9964998,2.1205085 C22.0200169,2.26825699 22.0326518,2.41951113 22.0326518,2.57375967 C22.0326518,2.81309324 22.0027808,3.04541551 21.9472016,3.26780508 C22.5931174,3.62625766 23.1271446,4.16247587 23.4821646,4.81050963 M14.4641022,8.10625766 C14.6951829,7.66418076 15.1146922,7.33567226 15.6155618,7.22823874 C15.6628881,7.21801393 15.7110177,7.21012621 15.7597316,7.20399133 C15.8078612,7.19785645 15.8565021,7.19369348 15.9057273,7.19186762 C15.9280758,7.19099122 15.9503512,7.19018784 15.9728458,7.19018784 C16.051796,7.19018784 16.1293584,7.19603059 16.2055333,7.20640146 C16.1817241,7.03279882 16.1684318,6.85583657 16.1684318,6.67580692 C16.1684318,5.81071506 16.4521703,5.01098893 16.9309835,4.3639046 C16.8225274,4.22879106 16.7257569,4.08396394 16.6428629,3.93037271 C16.619638,3.88728244 16.5975086,3.8433888 16.5764017,3.79891087 C16.5552948,3.754506 16.5354294,3.7094438 16.5166596,3.66379734 C16.4418724,3.48274517 16.3855629,3.29234464 16.3491188,3.09493279 C16.2841182,3.09040466 16.2188255,3.08726418 16.1527294,3.08726418 C15.669096,3.08726418 15.2137998,3.21091132 14.816639,3.42796941 C14.7727454,3.45207075 14.7297282,3.47734065 14.6872952,3.50363301 C14.6454465,3.52956019 14.6044743,3.55665595 14.5640863,3.58462811 C14.1109812,3.89904096 13.7552309,4.34367408 13.5509538,4.86418988 C13.5329873,4.90998244 13.5161894,4.95628621 13.5005601,5.00324729 C13.4850038,5.04998927 13.470689,5.09724251 13.4576159,5.14500697 C13.3933457,5.37988543 13.3583622,5.62674152 13.3583622,5.8816314 C13.3583622,6.78849892 13.7927705,7.5953824 14.4641022,8.10625766 M14.348708,8.3837882 C13.5725719,7.8226653 13.0662248,6.91046627 13.0662248,5.8816314 C13.0662248,5.61878077 13.0994554,5.36337965 13.1616077,5.11966405 C13.1358265,5.11886067 13.1101915,5.11761907 13.0842643,5.11761907 C11.6649878,5.11761907 10.5103147,6.27229213 10.5103147,7.69156863 C10.5103147,9.11077211 11.6649878,10.2654452 13.0842643,10.2654452 C13.6251567,10.2654452 14.1273409,10.0972471 14.5421029,9.81109848 C14.3709835,9.54583773 14.2712185,9.2302563 14.2712185,8.89174209 C14.2712185,8.71492593 14.2983873,8.54431771 14.348708,8.3837882 M14.6438398,3.19060777 C14.5326815,2.99560607 14.4683382,2.77058724 14.4683382,2.53045029 C14.4683382,1.7922191 15.0689727,1.19158462 15.8072039,1.19158462 C16.0802794,1.19158462 16.3343659,1.27418647 16.5463115,1.41514276 C16.3889225,1.76965149 16.3007701,2.16155381 16.3007701,2.57375967 C16.3007701,2.6497154 16.3045678,2.72472166 16.3104106,2.79914366 C16.258191,2.79651444 16.2056063,2.79512678 16.1527294,2.79512678 C15.6048258,2.79512678 15.0902988,2.93929658 14.6438398,3.19060777" id="形状"></path>
        </g>
    </g>
</svg>