<?xml version="1.0" encoding="UTF-8"?>
<svg width="40px" height="40px" viewBox="0 0 40 40" version="1.1" xmlns="http://www.w3.org/2000/svg" xmlns:xlink="http://www.w3.org/1999/xlink">
    <!-- Generator: Sketch 55.2 (78181) - https://sketchapp.com -->
    <title>TemplateIcon/postgresql</title>
    <desc>Created with Sketch.</desc>
    <g id="TemplateIcon/postgresql" stroke="none" stroke-width="1" fill="none" fill-rule="evenodd">
        <g id="postgresql" transform="translate(4.000000, 4.000000)" fill-rule="nonzero">
            <path d="M30.9556632,19.1676255 C30.7691736,18.6028111 30.280656,18.2094214 29.6488998,18.1150225 C29.3510024,18.0705565 29.009854,18.0895092 28.6061375,18.172731 C27.9024583,18.3179134 27.380409,18.3731921 26.9994114,18.3838833 C28.4375072,15.9558741 29.6068637,13.187081 30.2800485,10.5807221 C31.3686131,6.36630072 30.7869114,4.44636929 30.107166,3.57794747 C28.3082402,1.27932678 25.6836576,0.0444863673 22.517344,0.00670248597 C20.8282466,-0.0139510826 19.3454419,0.319543304 18.571905,0.559367682 C17.8517029,0.43228749 17.0773156,0.361336407 16.2647799,0.348215317 C14.7416399,0.323917001 13.3958777,0.655953488 12.2459599,1.33837169 C11.609344,1.12308861 10.5875998,0.819602646 9.40767362,0.625945068 C6.63256295,0.170351644 4.39590297,0.52535004 2.75989735,1.68109944 C0.778855654,3.08043945 -0.139499198,5.51172895 0.0303460305,8.9074186 C0.0842882919,9.98553488 0.687372494,13.2658075 1.63695068,16.3767209 C2.18269086,18.164834 2.76463553,19.6497041 3.3666263,20.79051 C4.22034763,22.4081704 5.13384282,23.3607859 6.15935325,23.7029062 C6.73412991,23.8943769 7.77847153,24.0285036 8.8768769,23.113672 C9.01610626,23.2823023 9.20186688,23.4498392 9.4483733,23.6054699 C9.7614571,23.8028937 10.1442771,23.9642346 10.5266111,24.0598484 C11.9044471,24.4042771 13.1950521,24.3181395 14.2961303,23.835332 C14.3029338,24.0311764 14.308158,24.2182735 14.3125317,24.3798573 C14.3198212,24.6419146 14.3271107,24.8988693 14.3367085,25.1391796 C14.4019495,26.764008 14.5125068,28.027399 14.8400481,28.9113717 C14.8580289,28.9599683 14.8822057,29.0340782 14.9077189,29.1126832 C15.0711251,29.6129856 15.3443597,30.4505485 16.0395345,31.1064816 C16.7593721,31.785984 17.6301022,31.994342 18.427573,31.994342 C18.8275233,31.994342 19.2091283,31.9418577 19.5438376,31.8701776 C20.7368849,31.6144379 22.0918805,31.2249358 23.0720746,29.8292406 C23.9988123,28.509842 24.4493031,26.5226043 24.530824,23.3914018 C24.5413937,23.3028344 24.5511131,23.2182763 24.5604679,23.1377273 L24.5799066,22.9722558 L24.7982269,22.9914515 L24.8544775,22.9952177 C26.0696363,23.0506179 27.5554783,22.7929342 28.4680016,22.3690501 C29.1890541,22.0344623 31.4997025,20.8145654 30.9556632,19.1676255" id="路径" fill="#000000"></path>
            <path d="M28.8779142,19.4878773 C25.2647546,20.2332281 25.0163043,19.0099294 25.0163043,19.0099294 C28.8311399,13.3492723 30.4259599,6.16389575 29.0498248,4.40530513 C25.295249,-0.391789896 18.7960569,1.87694387 18.687565,1.93574579 L18.6526969,1.94206335 C17.9388123,1.79384362 17.1400052,1.70564074 16.2420609,1.69094026 C14.6072702,1.66421211 13.3670842,2.11956255 12.4260104,2.83320409 C12.4260104,2.83320409 0.832068966,-1.94311588 1.37137009,8.84023376 C1.48605814,11.1342378 4.6594182,26.1981002 8.44436688,21.6481191 C9.8277915,19.9842919 11.1645634,18.5775409 11.1645634,18.5775409 C11.8283933,19.0185553 12.6231913,19.2435577 13.4563805,19.1627658 L13.5211355,19.1078516 C13.5009679,19.3143873 13.5102013,19.5164278 13.5470132,19.7556447 C12.5719218,20.8450597 12.8585204,21.0362875 10.9093095,21.4375742 C8.93689374,21.844085 10.0955589,22.5676889 10.852087,22.7569727 C11.7692269,22.9862273 13.8909559,23.3110958 15.3245565,21.3041764 L15.2674555,21.5331881 C15.649425,21.8392253 15.9176784,23.5235846 15.8727265,25.0506123 C15.8277747,26.5775184 15.7977662,27.6258693 16.0987009,28.4447225 C16.3998785,29.2635758 16.6998412,31.1059956 19.2623416,30.5569751 C21.4033877,30.0981014 22.5129703,28.9090634 22.6673861,26.9255918 C22.77685,25.5155605 23.0248144,25.7240401 23.0403653,24.463322 L23.239247,23.8665553 C23.4685016,21.9551283 23.2756945,21.338437 24.5947285,21.6252787 L24.9154663,21.6534647 C25.886184,21.6975662 27.156986,21.4972265 27.9028228,21.1506111 C29.5086985,20.4053817 30.4611925,19.1609435 28.8776712,19.4878773 L28.8779142,19.4878773" id="路径" fill="#336791"></path>
            <path d="M13.1046624,9.86610866 C12.779065,9.8207923 12.4842049,9.8627069 12.3350132,9.97569407 C12.251184,10.0392342 12.2251848,10.1128581 12.2181383,10.16352 C12.1994286,10.2977682 12.2934631,10.446231 12.3512931,10.5227706 C12.5148208,10.7395116 12.7536732,10.8884603 12.9900958,10.921263 C13.0243565,10.9261227 13.0584956,10.9283095 13.0923917,10.9283095 C13.4866319,10.9283095 13.8451536,10.6213003 13.8767414,10.3947185 C13.9162261,10.1109142 13.5042482,9.9217518 13.1046624,9.86623015 M23.8911708,9.87509904 C23.860069,9.65264796 23.4642494,9.58922935 23.0885974,9.64147073 C22.7134314,9.69371211 22.3496856,9.86307137 22.3800585,10.0860084 C22.4043569,10.2593769 22.7174407,10.5553304 23.08799,10.5553304 C23.1193348,10.5553304 23.1509226,10.553265 23.1827534,10.5487698 C23.4301103,10.5145092 23.6116187,10.3574206 23.6978777,10.2669094 C23.8290886,10.1288949 23.9051423,9.97508661 23.8911708,9.87509904" id="形状" fill="#FFFFFF"></path>
            <path d="M30.0801949,19.4031977 C29.9424234,18.986603 29.4989791,18.8525978 28.7622542,19.0047053 C26.5747983,19.456168 25.7914206,19.1434487 25.5342229,18.9540433 C27.2344976,16.3638428 28.6332302,13.2327618 29.3878144,10.3114968 C29.7452426,8.9277077 29.9426664,7.64256977 29.9588248,6.59506937 C29.976684,5.44539455 29.7808396,4.6005421 29.3770016,4.08444587 C27.7487715,2.00390257 25.3590321,0.887880914 22.4663176,0.857265036 C20.4776219,0.834910585 18.7973933,1.34383881 18.4716744,1.48695589 C17.785733,1.31638172 17.0379523,1.21165597 16.2238372,1.1982919 C14.7309487,1.17411508 13.4404651,1.5315433 12.3720682,2.26012831 C11.9079703,2.08736728 10.7086055,1.67563232 9.24183761,1.43933119 C6.70606536,1.03111949 4.69100601,1.34043705 3.25303168,2.35914395 C1.53720609,3.57478869 0.745080994,5.74778709 0.89852486,8.81763633 C0.950158781,9.85043625 1.53866399,13.027684 2.46734563,16.0704407 C3.68979391,20.0752891 5.01866881,22.3424435 6.41679391,22.8088496 C6.58044306,22.8633994 6.76911949,22.9015477 6.97723456,22.9015477 C7.48725621,22.9015477 8.11257338,22.6716856 8.76316079,21.8895229 C9.55669074,20.937582 10.3775465,20.0087562 11.2247017,19.1042069 C11.7743296,19.3991885 12.3781427,19.563931 12.9956844,19.5804539 C12.9968994,19.5966123 12.9984787,19.6127706 12.9999366,19.6288075 C12.8936346,19.7555697 12.7895411,19.8841676 12.6877033,20.0145433 C12.2598099,20.5577322 12.1707566,20.6708408 10.7934066,20.9544022 C10.4015962,21.0353156 9.36102085,21.2497482 9.34571291,21.9791836 C9.32919006,22.7761684 10.5758152,23.1108777 10.7178388,23.1463532 C11.2127955,23.2702747 11.68965,23.3313849 12.1443929,23.3313849 C13.2503308,23.3313849 14.2235998,22.9678821 15.0013889,22.2645674 C14.9774551,25.1057694 15.0959094,27.9054214 15.4370577,28.7584138 C15.7164884,29.4567474 16.3990281,31.1632181 18.5550176,31.1632181 C18.8713817,31.1632181 19.2195766,31.1264062 19.6026395,31.0442779 C21.8527851,30.5619563 22.8299419,29.5674262 23.2079022,27.3748677 C23.4101856,26.2030814 23.7572871,23.4050088 23.9205718,21.9041018 C24.2651219,22.0116219 24.7086877,22.060826 25.1882149,22.0607045 C26.1883336,22.0607045 27.3423821,21.8482157 28.0661075,21.5122915 C28.8791291,21.1346957 30.3462614,20.2082009 30.0801949,19.4031977 L30.0801949,19.4031977 Z M24.7216872,9.26108059 C24.7142763,9.70416038 24.6532875,10.106419 24.588654,10.5262939 C24.5190393,10.9778781 24.4471163,11.4447702 24.429014,12.0115285 C24.4111548,12.5631002 24.4800405,13.1365405 24.5466179,13.6911496 C24.6812306,14.8113019 24.8193665,15.9645 24.284682,17.1023901 C24.1958643,16.9450146 24.1167473,16.7823581 24.0477735,16.6153304 C23.9813176,16.4542326 23.8369856,16.1954555 23.6371319,15.8372983 C22.8597073,14.4430609 21.039156,11.1780962 21.9711179,9.84581957 C22.2487261,9.44927105 22.9532558,9.04154531 24.7216872,9.26108059 L24.7216872,9.26108059 Z M22.5780898,1.75448035 C25.1699912,1.81170289 27.2202831,2.78132719 28.6718645,4.63626063 C29.7852133,6.05904852 28.5592418,12.5329703 25.0101083,18.1180597 C24.9744161,18.0726753 24.9385353,18.0274395 24.9024667,17.9823536 L24.8575148,17.9262245 C25.7746548,16.411589 25.5953332,14.9129904 25.4356933,13.5843585 C25.3700878,13.0391043 25.3081271,12.5241014 25.323921,12.040322 C25.3402009,11.5276275 25.4079932,11.087828 25.4735986,10.6626075 C25.5541476,10.1386143 25.6361544,9.59639735 25.6135569,8.95723015 C25.6304443,8.8901668 25.6372478,8.81095429 25.6283789,8.71691981 C25.5706704,8.10399479 24.8708789,6.26959342 23.4445678,4.60928949 C22.6643488,3.70113994 21.5265802,2.68486287 19.9730674,1.99940738 C20.6412711,1.86090698 21.5550092,1.73176143 22.5780898,1.75448035 Z M8.074668,21.3170545 C7.35786768,22.1789158 6.86291099,22.0136872 6.70011227,21.959502 C5.63949078,21.6057185 4.40878107,19.3639559 3.32373978,15.8091123 C2.38485285,12.7331885 1.83619687,9.64013432 1.79270289,8.77280593 C1.65566038,6.02976905 2.3205838,4.11809904 3.76912791,3.09076624 C6.12655052,1.4190421 10.0023749,2.41964675 11.5597755,2.92711708 C11.537421,2.94922855 11.5140946,2.96988212 11.4919832,2.99235806 C8.93628629,5.57332518 8.99691059,9.98298356 9.00322815,10.2525734 C9.00298516,10.3565702 9.01173256,10.503818 9.02363873,10.7063444 C9.06761868,11.4480505 9.14950401,12.8284379 8.93081917,14.39167 C8.72768524,15.8443448 9.17550321,17.2661608 10.1592205,18.2926431 C10.2601778,18.3977867 10.3662894,18.4978568 10.477164,18.5924844 C10.0393083,19.0614419 9.0876648,20.098494 8.074668,21.3170545 Z M10.8056772,17.6731576 C10.0128232,16.8457999 9.65272213,15.6950317 9.81758621,14.5155914 C10.0484202,12.8642779 9.96325461,11.4260605 9.91745229,10.6533741 C9.91101323,10.5452466 9.90530313,10.4504832 9.90202285,10.3757658 C10.2753665,10.0447013 12.0055281,9.11772053 13.2393966,9.40043144 C13.8023885,9.529334 14.1454808,9.91276143 14.2881119,10.5722177 C15.0262947,13.9864956 14.3857911,15.4095265 13.8711528,16.5531267 C13.7650906,16.7886989 13.6648601,17.0113929 13.57933,17.241741 L13.5129956,17.4198476 C13.3450942,17.8700954 13.1888561,18.2887554 13.0920273,18.6862759 C12.2491187,18.683846 11.429172,18.323745 10.8056772,17.6730361 L10.8056772,17.6731576 Z M10.9350658,22.2776885 C10.6889238,22.2162137 10.4675662,22.1094226 10.3376917,22.0208553 C10.4461836,21.9698288 10.6392338,21.9003356 10.9740646,21.8313284 C12.5943978,21.497834 12.8446704,21.2623833 13.3911395,20.5685449 C13.5163974,20.4093909 13.658421,20.2290974 13.8551159,20.0094407 L13.8553589,20.0091977 C14.1482751,19.6811704 14.2822803,19.7368136 14.5252634,19.8376516 C14.7222013,19.9190509 14.9140365,20.1659218 14.9917911,20.437577 C15.028603,20.5658721 15.0699102,20.8093412 14.9346901,20.9988681 C13.7931552,22.5972113 12.1296925,22.5766792 10.9350658,22.2776885 L10.9350658,22.2776885 Z M19.4150565,30.1688095 C17.4327999,30.5935441 16.7309431,29.5821267 16.2684246,28.4258913 C15.9699198,27.6794471 15.823158,24.3134014 15.9272763,20.5961235 C15.9286127,20.5466764 15.9215662,20.4989302 15.9079591,20.4539783 C15.8957873,20.365213 15.8772732,20.2774335 15.8525589,20.1913136 C15.6977787,19.650433 15.3205473,19.1979984 14.8679912,19.0104154 C14.6881836,18.9359411 14.3582125,18.799263 13.961664,18.9007085 C14.0462221,18.5522706 14.1928625,18.1587594 14.3518949,17.7326885 L14.4185938,17.5534884 C14.4936756,17.3514479 14.5879531,17.1421179 14.6875762,16.9205172 C15.2261484,15.7240682 15.9637237,14.0852682 15.1632157,10.3830553 C14.8633745,8.99635044 13.8620409,8.31915638 12.3441251,8.47648797 C11.4341532,8.57064395 10.6015714,8.9377915 10.1863132,9.14833641 C10.0970168,9.19353128 10.0153745,9.23726824 9.93907779,9.2797903 C10.0549808,7.88263713 10.4928364,5.2715401 12.1307859,3.61949759 C13.1621279,2.57952967 14.5355902,2.06586327 16.2090152,2.09356335 C19.5062967,2.14750561 21.6207362,3.83964034 22.8140265,5.2497931 C23.8423312,6.46483039 24.3991271,7.68885806 24.6213352,8.3490433 C22.9502185,8.17907658 21.8136648,8.50892622 21.2375517,9.33263913 C19.9841231,11.124397 21.9232502,14.6019719 22.8552121,16.2733316 C23.0261508,16.5796119 23.1736415,16.844342 23.2200513,16.9568432 C23.5235373,17.6923532 23.9164411,18.1834222 24.2032827,18.5418224 C24.2912426,18.6516508 24.3765297,18.7581989 24.4414062,18.8512614 C23.9352723,18.9971728 23.0261508,19.3343119 23.109008,21.0195217 C23.0421877,21.865103 22.5670341,25.8240277 22.3256303,27.2227602 C22.0069579,29.0706472 21.3269695,29.758897 19.4150565,30.168931 L19.4150565,30.1688095 Z M27.6891191,20.7002418 C27.171565,20.9404306 26.3054515,21.1206026 25.4827105,21.1593585 C24.5739535,21.2018805 24.1113136,21.0575485 24.0024571,20.9687382 C23.9514306,19.918565 24.342269,19.8088581 24.7559479,19.6927121 C24.8209459,19.6744884 24.8843645,19.6566291 24.9455962,19.6352466 C24.9836231,19.6662269 25.0252947,19.6969643 25.0709755,19.7270942 C25.8013829,20.2091728 27.1041371,20.2611712 28.9433982,19.88151 L28.9635658,19.8775008 C28.71548,20.1094282 28.2909884,20.4206897 27.6891191,20.7002418 Z" id="形状" fill="#FFFFFF"></path>
        </g>
    </g>
</svg>