<?xml version="1.0" encoding="UTF-8"?>
<svg width="40px" height="40px" viewBox="0 0 40 40" version="1.1" xmlns="http://www.w3.org/2000/svg" xmlns:xlink="http://www.w3.org/1999/xlink">
    <!-- Generator: Sketch 55.2 (78181) - https://sketchapp.com -->
    <title>TemplateIcon/redis</title>
    <desc>Created with Sketch.</desc>
    <g id="TemplateIcon/redis" stroke="none" stroke-width="1" fill="none" fill-rule="evenodd">
        <g id="redis" transform="translate(4.000000, 6.000000)" fill-rule="nonzero">
            <path d="M30.74625,21.053875 C29.0385,21.944 20.192,25.581375 18.308625,26.56325 C16.42525,27.54525 15.379,27.53575 13.891125,26.8245 C12.403375,26.11325 2.989125,22.3105 1.29325,21.499875 C0.44575,21.094875 0,20.752875 0,20.429875 L0,17.195375 C0,17.195375 12.25625,14.52725 14.234875,13.817375 C16.213375,13.1075 16.899875,13.081875 18.583625,13.698625 C20.267625,14.315625 30.335875,16.132125 32,16.741625 L31.99925,19.930375 C31.9995,20.250125 31.6155,20.600875 30.74625,21.053875" id="路径" fill="#912626"></path>
            <path d="M30.745625,17.8385 C29.038,18.72825 20.19175,22.36575 18.308375,23.3475 C16.425125,24.329625 15.378875,24.32 13.891125,23.60875 C12.40325,22.898 2.989375,19.094625 1.293625,18.2845 C-0.402125,17.473875 -0.437625,16.916 1.228125,16.26375 C2.893875,15.61125 12.256125,11.938125 14.235,11.22825 C16.2135,10.518625 16.899875,10.49275 18.583625,11.10975 C20.2675,11.7265 29.061,15.226625 30.724875,15.836 C32.389375,16.446125 32.45325,16.9485 30.745625,17.8385" id="路径" fill="#C6302B"></path>
            <path d="M30.74625,15.82025 C29.0385,16.7105 20.192,20.34775 18.308625,21.33 C16.42525,22.311625 15.379,22.302125 13.891125,21.590875 C12.40325,20.88 2.989125,17.076875 1.29325,16.26625 C0.44575,15.86125 0,15.51975 0,15.196625 L0,11.96175 C0,11.96175 12.25625,9.29375 14.234875,8.583875 C16.213375,7.874 16.899875,7.84825 18.583625,8.465125 C20.26775,9.082 30.336,10.898125 32,11.50775 L31.99925,14.696875 C31.9995,15.0165 31.6155,15.36725 30.74625,15.82025" id="路径" fill="#912626"></path>
            <path d="M30.745625,12.604875 C29.038,13.494875 20.19175,17.132125 18.308375,18.11425 C16.425125,19.096 15.378875,19.086375 13.891125,18.375125 C12.40325,17.664375 2.989375,13.861125 1.293625,13.050875 C-0.402125,12.2405 -0.437625,11.6825 1.228125,11.03 C2.893875,10.377875 12.25625,6.7045 14.235,5.99475 C16.2135,5.285 16.899875,5.25925 18.583625,5.876125 C20.2675,6.492875 29.061,9.99275 30.724875,10.602375 C32.389375,11.212375 32.45325,11.714875 30.745625,12.604875" id="路径" fill="#C6302B"></path>
            <path d="M30.74625,10.392625 C29.0385,11.282625 20.192,14.920125 18.308625,15.902375 C16.42525,16.884125 15.379,16.8745 13.891125,16.16325 C12.40325,15.452375 2.989125,11.649125 1.29325,10.838875 C0.44575,10.4335 0,10.091875 0,9.769125 L0,6.534125 C0,6.534125 12.25625,3.86625 14.234875,3.1565 C16.213375,2.4465 16.899875,2.421 18.583625,3.03775 C20.26775,3.654625 30.336,5.47075 32,6.080375 L31.99925,9.269375 C31.9995,9.58875 31.6155,9.9395 30.74625,10.392625" id="路径" fill="#912626"></path>
            <path d="M30.745625,7.17725 C29.038,8.06725 20.19175,11.70475 18.308375,12.6865 C16.425125,13.66825 15.378875,13.658625 13.891125,12.94775 C12.403375,12.2365 2.989375,8.4335 1.29375,7.623125 C-0.402125,6.812875 -0.4375,6.25475 1.228125,5.602375 C2.893875,4.950125 12.25625,1.27725 14.235,0.56725 C16.2135,-0.142625 16.899875,-0.168125 18.583625,0.44875 C20.2675,1.065625 29.061,4.5655 30.724875,5.175125 C32.389375,5.784625 32.45325,6.28725 30.745625,7.17725" id="路径" fill="#C6302B"></path>
            <path d="M19.910375,4.030625 L17.159125,4.31625 L16.54325,5.79825 L15.5485,4.1445 L12.371625,3.859 L14.742125,3.004125 L14.030875,1.691875 L16.25025,2.559875 L18.3425,1.874875 L17.777,3.23175 L19.910375,4.030625 M16.379,11.220375 L11.244375,9.09075 L18.601875,7.961375 L16.379,11.220375 M9.26025,4.854375 C11.432125,4.854375 13.19275,5.536875 13.19275,6.378625 C13.19275,7.220625 11.432125,7.903 9.26025,7.903 C7.088375,7.903 5.32775,7.2205 5.32775,6.378625 C5.32775,5.536875 7.088375,4.854375 9.26025,4.854375" id="形状" fill="#FFFFFF"></path>
            <polyline id="路径" fill="#621B1C" points="23.161875 4.43575 27.516375 6.1565 23.165625 7.875625 23.161875 4.435625"></polyline>
            <polyline id="路径" fill="#9A2928" points="18.344375 6.341375 23.161875 4.43575 23.165625 7.875625 22.69325 8.060375 18.344375 6.341375"></polyline>
        </g>
    </g>
</svg>