<?xml version="1.0" encoding="UTF-8"?>
<svg width="40px" height="40px" viewBox="0 0 40 40" version="1.1" xmlns="http://www.w3.org/2000/svg" xmlns:xlink="http://www.w3.org/1999/xlink">
    <!-- Generator: Sketch 55.2 (78181) - https://sketchapp.com -->
    <title>TemplateIcon/Tensorfloew</title>
    <desc>Created with Sketch.</desc>
    <g id="TemplateIcon/Tensorfloew" stroke="none" stroke-width="1" fill="none" fill-rule="evenodd">
        <g id="tensorflow-2" transform="translate(5.000000, 4.000000)" fill-rule="nonzero">
            <path d="M17.05344,4.92288 L17.05344,9.84576 L25.5808,14.76864 L25.5808,9.84576 L17.05344,4.92288 Z M0,9.84576 L0,14.76864 L4.26368,17.23008 L4.26368,12.3072 L0,9.84576 Z M12.78976,12.3072 L8.52608,14.76864 L8.52608,29.53728 L12.78976,32 L12.78976,22.15424 L17.05344,24.61568 L17.05344,19.6928 L12.78976,17.23136 L12.78976,12.3072 Z" id="形状" fill="#E55B2D"></path>
            <path d="M17.05344,4.92288 L4.26368,12.3072 L4.26368,17.23008 L12.79104,12.3072 L12.79104,17.23008 L17.05472,14.76864 L17.05472,4.92288 L17.05344,4.92288 Z M29.8432,7.38432 L25.57952,9.84576 L25.57952,14.76864 L29.8432,12.3072 L29.8432,7.38432 Z M21.31712,17.23136 L17.05344,19.6928 L17.05344,24.61568 L21.31712,22.15424 L21.31712,17.23136 Z M17.05344,24.61568 L12.78976,22.15424 L12.78976,32 L17.05344,29.53856 L17.05344,24.61568 Z" id="形状" fill="#ED8E24"></path>
            <path d="M17.05344,0 L0,9.84576 L4.26368,12.3072 L17.05344,4.92288 L25.5808,9.84576 L29.84448,7.38432 L17.05344,0 Z M17.05344,14.76864 L12.78976,17.23008 L17.05344,19.69152 L21.31712,17.23008 L17.05344,14.76864 Z" id="形状" fill="#F8BF3C"></path>
        </g>
    </g>
</svg>