<?xml version="1.0" encoding="UTF-8"?>
<svg width="40px" height="40px" viewBox="0 0 40 40" version="1.1" xmlns="http://www.w3.org/2000/svg" xmlns:xlink="http://www.w3.org/1999/xlink">
    <!-- Generator: Sketch 55.2 (78181) - https://sketchapp.com -->
    <title>TemplateIcon/tomcat</title>
    <desc>Created with Sketch.</desc>
    <g id="TemplateIcon/tomcat" stroke="none" stroke-width="1" fill="none" fill-rule="evenodd">
        <g id="tomcat" transform="translate(4.000000, 9.000000)" fill-rule="nonzero">
            <path d="M5.53503599,14.9120352 C5.91877347,15.3837864 6.32369375,15.8379042 6.74855058,16.2729908 C5.45256897,16.6629598 4.60303379,17.3870452 4.0729958,18.0264144 C3.23458117,19.0383846 2.7907587,20.3748501 2.89284286,21.5218912 L0.661110556,21.5218912 C1.10868153,20.5506547 2.89521691,17.7447771 5.53503599,14.9120352 M31.3866953,22.1305228 L28.6731557,22.1305228 C22.4481457,18.8821971 16.9829568,16.5916134 11.1771541,16.0911885 C11.1895242,15.2832617 11.3333417,14.3686275 11.609981,13.3492853 L11.0751949,13.2054678 C10.7911835,14.2529238 10.6423681,15.2009196 10.625125,16.0493303 C10.016547,16.0088156 9.40678117,15.988729 8.79685626,15.9891044 C8.27668932,15.9891044 7.80212915,16.0370852 7.36942723,16.1206767 C6.80502799,15.557527 6.32434526,15.0189924 5.91613355,14.5088215 C8.59393743,11.7201869 13.0042983,9.19719612 16.8427629,8.24807577 C17.9235806,11.8406387 20.2436525,14.3021541 23.0591513,15.9583667 C23.2656768,15.8407075 23.4686444,15.7169103 23.6677829,15.5871401 L28.5796931,20.8751499 L28.7948571,20.8566573 C30.1361955,20.7412035 30.8985156,21.4690374 31.1003099,21.6951969 C31.2490004,21.860006 31.337465,22.0113205 31.3866953,22.1305228" id="形状" fill="#D1A41A"></path>
            <path d="M28.9904038,4.44272291 C29.089989,9.32264594 26.6002349,13.2067173 23.1145042,15.1985456 C17.1981208,12.2514744 16.0841913,4.78333667 17.092413,0.777563974 C17.3726759,2.30957617 17.8829718,3.26981707 18.9846561,3.7407537 C21.3870702,3.05340364 24.6932477,2.99917533 27.1288984,3.67065674 C28.1432427,2.93295182 28.5367103,1.80552779 28.7518743,0.820671731 C29.019892,1.96646341 28.9891543,4.44272291 28.9904038,4.44272291" id="路径" fill="#FFDC76"></path>
            <path d="M21.0190924,5.09496202 C21.2236355,5.09496202 21.3670782,5.17805378 21.4707867,5.35573271 C21.7138145,5.77381547 21.6739554,6.59848561 21.472411,7.46126549 L19.8360656,7.46126549 L19.8360656,7.8197471 L21.3803229,7.8197471 C21.2146391,8.40838665 20.9818573,8.99077869 20.7198371,9.45221911 L20.635121,9.60140944 L22.682552,10.8901439 L21.529888,11.6497151 L21.7271841,11.9492203 L23.0155438,11.0998101 L24.4063625,12.007447 L24.597411,11.7040684 L23.3078019,10.9062625 C23.3078019,10.9062625 25.2359056,9.65388844 25.3317423,9.59266293 L25.3302429,9.59041383 L25.332492,9.59003898 C24.907537,8.96353958 24.7728409,8.42862855 24.9497701,7.8197471 L25.0944622,7.8197471 L26.6493403,7.8179978 L26.6529638,7.46126549 L25.0862155,7.46126549 C25.3748501,6.78203719 25.7789384,6.17053179 27.2213615,6.17053179 L27.2213615,5.81205018 C25.8905188,5.81205018 25.0939624,6.34046381 24.71249,7.46126549 L21.8410136,7.46126549 C22.0418083,6.5652489 22.0766693,5.68447621 21.7802879,5.17530488 C21.6134796,4.88841963 21.350085,4.73635546 21.0190924,4.73635546 C19.8329418,4.73635546 19.3646291,5.9484956 19.3453868,6.00009996 L19.6810026,6.12604958 C19.6977459,6.08219212 20.0844662,5.09496202 21.0190924,5.09496202 Z M23.0112955,10.6734806 L21.4969012,9.71998701 L24.4564674,9.72073671 L23.0112955,10.6734806 Z M24.585041,7.8197471 C24.4577169,8.22558477 24.5088215,8.83696521 24.8221961,9.36163035 L21.1736555,9.36163035 C21.3955668,8.91693323 21.6013595,8.37490004 21.7517993,7.8197471 L24.585041,7.8197471 L24.585041,7.8197471 Z" id="形状" fill="#000000"></path>
            <polyline id="路径" fill="#000000" points="19.6811275 6.12604958 19.6810026 6.12604958 19.6808776 6.12629948 19.6811275 6.12604958"></polyline>
            <path d="M31.5130198,21.3167233 C30.9053878,20.6369952 29.715114,20.3152489 28.7211365,20.3391144 C28.087515,19.584916 24.7256098,16.0357107 24.0468812,15.319997 C25.4779289,14.3143055 26.6882051,13.0265986 27.6033337,11.5360106 L29.4584666,11.5360106 L29.4584666,11.1377949 L27.8381148,11.1377949 C27.9417123,10.9542453 28.0408682,10.7682239 28.1354958,10.579893 L29.4584666,10.579893 L29.4584666,10.1815524 L28.3281687,10.1815524 C29.1678329,8.36815274 29.632522,6.28623551 29.587415,4.00764694 L29.5921631,4.01027089 C29.5897891,3.38689524 29.3957417,0.75207417 29.0388844,0.0266143543 C28.0712715,0.394342263 26.3106008,1.58561575 25.9121351,2.80387845 C24.002399,2.5187425 21.8495102,2.55247901 19.9636395,2.87884846 C19.6485156,1.56812275 18.0671481,0.56502399 16.8741253,0 C16.3709516,0.849160336 16.1480408,2.8179978 16.2046431,4.21468912 L16.1980208,4.21906238 C16.2456267,5.48093263 16.4169332,6.63971911 16.6926979,7.70441823 C12.5668483,8.7267593 8.07501999,11.4295532 5.56240004,14.0416333 C4.38637045,12.4543932 3.91980708,11.1517893 3.7812375,10.1646841 C3.60618253,8.91805778 3.90381347,7.77439024 4.64176829,6.85738205 C5.79718113,5.42208117 7.43877449,5.3209966 9.12672431,5.60488305 C9.0937375,5.87140144 9.12872351,6.12617453 9.23555578,6.28386146 C9.68187725,6.94309776 12.0810426,7.1747551 13.5130948,6.53588565 C12.4562675,5.05497801 10.3156238,4.33189224 9.72248601,4.62165134 C9.52606457,4.717488 9.3777489,4.89379248 9.27616453,5.09933527 C8.69277289,4.995002 8.11337965,4.91728309 7.68979908,4.92040684 C6.20114454,4.93140244 5.06309976,5.45156937 4.21081567,6.51052079 C3.37452519,7.54948021 3.03653539,8.83971411 3.23333167,10.2416533 C3.4197571,11.5694972 4.07711915,12.9818073 5.17905338,14.4464714 C5.00028289,14.6381757 4.8235107,14.8317337 4.64876549,15.0271142 C1.96308976,18.0321621 0,21.2546232 0,21.7885346 L0,22.0651739 L3.54295782,22.0651739 L3.48085766,21.7371801 C3.28081267,20.6797281 3.68040284,19.3580068 4.49882547,18.3701519 C5.01261995,17.750025 5.86352959,17.0421831 7.1997451,16.7155638 C8.38789484,17.8751 9.90153938,19.1066074 11.5864904,20.2946321 L14.2193123,20.2946321 L14.2193123,20.0179928 C14.2193123,19.7058677 14.0646242,19.432602 13.7834866,19.2486755 C13.367528,18.9767843 12.7255348,18.9392993 12.1357707,19.1404688 C11.5734956,18.5142193 11.2582467,17.6776789 11.1901489,16.6387195 C16.9042383,17.1447671 22.3696771,19.4522191 28.5367103,22.6738055 L31.9298531,22.6738055 L31.9743353,22.4513944 C32.0376849,22.1347711 31.8651289,21.7105658 31.5130198,21.3167233 L31.5130198,21.3167233 Z M17.0922881,0.768442623 C17.3730508,2.29983007 17.8822221,3.26019592 18.985031,3.73138245 C19.9613904,3.4519942 21.0878149,3.27906337 22.2438525,3.21521391 L23.2027189,5.3182477 L23.817473,3.19697121 C24.9856307,3.23483107 26.1302979,3.38614554 27.1281487,3.66141044 C28.1431178,2.92345562 28.5367103,1.79628149 28.7516244,0.81142543 C29.0201419,1.95746701 28.9891543,4.43297681 28.989904,4.43347661 C29.0087715,5.35785686 28.9344262,6.2462515 28.7782387,7.09303778 L27.6830518,7.55847661 L28.6481657,7.70466813 C28.5726876,8.02595946 28.4841917,8.34405279 28.3828968,8.65816174 L27.4490204,8.92930328 L28.1930978,9.19719612 C28.067498,9.53147181 27.9269119,9.85992313 27.7717663,10.1815524 L26.2317573,10.1815524 L26.2317573,10.579893 L27.5692223,10.579893 C27.4685281,10.7687139 27.3626976,10.9547504 27.2518493,11.1377949 L26.2317573,11.1377949 L26.2317573,11.5360106 L27.0013245,11.5360106 C25.9888545,13.0692723 24.6481407,14.3126499 23.1141293,15.1892993 C21.3412135,14.3059026 20,13.0164184 19.017393,11.5360106 L19.6052829,11.5360106 L19.6052829,11.1377949 L18.7641194,11.1377949 C18.6529215,10.9546521 18.5465523,10.7686207 18.445122,10.579893 L19.6052829,10.579893 L19.6052829,10.1815524 L18.2395792,10.1815524 C18.0063864,9.7077863 17.8012396,9.22072436 17.6251999,8.72288585 L18.3210466,8.52808876 L17.4436475,8.17722911 C17.355458,7.89261947 17.2757877,7.60543962 17.2047431,7.31607357 L18.555078,7.22398541 L17.0109456,6.40468812 C16.632472,4.31789784 16.7084416,2.29258297 17.0922881,0.768442623 L17.0922881,0.768442623 Z M4.07287085,18.0171681 C3.23483107,19.0286385 2.79063375,20.3647291 2.89234306,21.5118952 L0.660485806,21.5118952 C1.10893143,20.5414084 2.89521691,17.7359056 5.53466114,14.9020392 C5.89839064,15.3516094 6.30347861,15.8056777 6.74842563,16.2634946 C5.45256897,16.6530888 4.60290884,17.377424 4.07287085,18.0171681 L4.07287085,18.0171681 Z M28.672406,22.1205268 C22.4480208,18.8727009 16.982457,16.5823671 11.1767793,16.0820672 C11.1893992,15.2741403 11.3333417,14.3596311 11.6092313,13.3404138 L11.0753199,13.1957217 C10.7915584,14.2434276 10.6421182,15.1920482 10.6252499,16.039959 C10.0167493,15.9994969 9.40707544,15.9792022 8.79723111,15.9791084 C8.27631447,15.9791084 7.80187925,16.027464 7.36917733,16.1115554 C6.80490304,15.547531 6.32409536,15.009996 5.91563375,14.4998251 C6.64221811,13.7428778 7.49712615,13.0060476 8.43262695,12.3145742 L9.72810876,13.2090914 L9.30515294,11.6984456 C9.70186733,11.4311007 10.105815,11.1746491 10.5165434,10.9293782 L12.4364004,11.904988 L11.534886,10.3507347 C11.7971998,10.2090096 12.0618814,10.0717117 12.3288185,9.93889944 L15.0108707,11.7379298 L14.130098,9.12797381 C15.0456068,8.7589964 15.9587415,8.4572421 16.8418882,8.23882947 C17.042171,8.90517512 17.2945139,9.55474942 17.5965864,10.1815524 L16.3784486,10.1815524 L16.3784486,10.579893 L17.797381,10.579893 C17.8972161,10.7696921 18.0004248,10.9559926 18.1082567,11.1377949 L16.3784486,11.1377949 L16.3784486,11.5360106 L18.354908,11.5360106 C19.5670482,13.417508 21.204893,14.8581817 23.0586515,15.9486206 C23.2649507,15.8302365 23.4678273,15.7059855 23.6670332,15.5760196 L24.1528389,16.0990604 L23.3364154,17.355058 L24.7289834,16.7193123 L25.5351609,17.5872151 L24.1723311,18.6256747 L26.0489554,18.1403689 L28.580068,20.8652789 L28.7943573,20.8469112 C30.1360706,20.7320822 30.8986405,21.4596661 31.1005598,21.6854508 C31.2486255,21.8510096 31.3379648,22.0020742 31.3865704,22.1205268 L28.672406,22.1205268 L28.672406,22.1205268 Z" id="形状" fill="#000000"></path>
        </g>
    </g>
</svg>