<?xml version="1.0" encoding="UTF-8"?>
<svg width="40px" height="40px" viewBox="0 0 40 40" version="1.1" xmlns="http://www.w3.org/2000/svg" xmlns:xlink="http://www.w3.org/1999/xlink">
    <!-- Generator: Sketch 55.2 (78181) - https://sketchapp.com -->
    <title>TemplateIcon/weavecloud</title>
    <desc>Created with Sketch.</desc>
    <g id="TemplateIcon/weavecloud" stroke="none" stroke-width="1" fill="none" fill-rule="evenodd">
        <g id="weave-(1)" transform="translate(4.000000, 4.000000)" fill-rule="nonzero">
            <path d="M7.9487142,30.1085535 C6.64599699,29.4120744 5.45663438,28.5359737 4.40066627,27.5208231 L4.40066627,22.8628345 L9.07869475,18.6384703 L9.07869475,22.8521384 L27.867157,5.88300501 C28.8944791,7.13998696 29.7250905,8.55987004 30.334771,10.0927389 L7.9487142,30.1085535" id="路径" fill="#FF4B19"></path>
            <path d="M17.8040477,25.926728 L31.3077517,13.814507 C31.4054924,14.5296737 31.4737264,15.2543071 31.4737264,15.9963985 C31.4737264,17.5949196 31.2323869,19.1359027 30.7959348,20.5925461 L18.1128837,31.7577276 C17.2536264,31.9004659 16.3771568,31.99292 15.4773279,31.99292 C14.6762232,31.99292 13.8954043,31.9148504 13.1260193,31.801127 L13.1260193,0.19179302 C13.8954043,0.0780695949 14.6762232,0 15.4773279,0 C16.2697036,0 17.0424081,0.0767172082 17.8040477,0.187981749 L17.8040477,25.926728" id="路径" fill="#00D2FF"></path>
            <path d="M13.1260193,14.3628383 L25.307089,3.39449057 C24.0181416,2.38745427 22.5715796,1.57983353 21.0094501,1.00297914 L0,19.975366 C0.405151409,21.5583067 1.05206896,23.0692738 1.9179302,24.4549625 L13.1260193,14.3628383" id="路径" fill="#556991"></path>
            <path d="M4.40066627,22.2193444 L4.40066627,23.3476037 L9.07869475,19.1231165 L9.07869475,1.33996931 C7.33337826,2.10308424 5.75477417,3.17036322 4.40066627,4.47197393 L4.40066627,22.2193444" id="路径" fill="#FF4B19"></path>
        </g>
    </g>
</svg>