<?xml version="1.0" encoding="UTF-8"?>
<svg width="40px" height="40px" viewBox="0 0 40 40" version="1.1" xmlns="http://www.w3.org/2000/svg" xmlns:xlink="http://www.w3.org/1999/xlink">
    <!-- Generator: Sketch 55.2 (78181) - https://sketchapp.com -->
    <title>TemplateIcon/wordpress</title>
    <desc>Created with Sketch.</desc>
    <g id="TemplateIcon/wordpress" stroke="none" stroke-width="1" fill="none" fill-rule="evenodd">
        <g id="wordpress-icon" transform="translate(4.000000, 4.000000)" fill="#464342" fill-rule="nonzero">
            <path d="M2.27368131,15.9950823 C2.27368131,21.4266359 5.43004817,26.1204085 10.0072762,28.3447912 L3.46171216,10.4107286 C2.67705868,12.1678104 2.27222122,14.0707602 2.27368131,15.9950823 L2.27368131,15.9950823 Z M25.2590576,15.3025893 C25.2590576,13.6068597 24.6498645,12.4323816 24.1274839,11.518341 C23.4318547,10.3880219 22.7798826,9.43082597 22.7798826,8.30050682 C22.7798826,7.03909073 23.7365767,5.86486351 25.084178,5.86486351 C25.1450221,5.86486351 25.2026044,5.87239061 25.261943,5.87590325 C22.8206544,3.63922621 19.5680701,2.27368527 15.9957096,2.27368527 C11.2018266,2.27368527 6.98426837,4.73328984 4.53068547,8.45870132 C4.85259434,8.4683611 5.15593637,8.47501004 5.41373946,8.47501004 C6.84890606,8.47501004 9.07065436,8.30100863 9.07065436,8.30100863 C9.81044259,8.25735147 9.89763147,9.34376255 9.1587214,9.43132778 C9.1587214,9.43132778 8.41529506,9.51876756 7.58806704,9.56204837 L12.5853071,24.4254316 L15.5882427,15.4192593 L13.4502961,9.56167202 C12.711386,9.51839121 12.0113659,9.43095143 12.0113659,9.43095143 C11.271954,9.38754516 11.3586411,8.25697511 12.098053,8.30063228 C12.098053,8.30063228 14.3642112,8.47475913 15.7124398,8.47475913 C17.1476064,8.47475913 19.3694801,8.30063228 19.3694801,8.30063228 C20.1096447,8.25697511 20.1967081,9.34338619 19.4575472,9.43095143 C19.4575472,9.43095143 18.7126154,9.51839121 17.8868928,9.56167202 L22.8458701,24.3123996 L24.2145474,19.7386843 C24.8076827,17.8407266 25.2591831,16.4775692 25.2591831,15.3027148 L25.2590576,15.3025893 Z M16.2364512,17.1954035 L12.1193798,29.1588468 C13.3781133,29.5295746 14.6835171,29.7178593 15.9957096,29.7178593 C17.5935869,29.7178593 19.1259785,29.4416148 20.552489,28.9400592 C20.5144011,28.8800464 20.4816979,28.8167812 20.4547621,28.7510036 L16.2364512,17.1954035 L16.2364512,17.1954035 Z M28.0361802,9.41175733 C28.0951425,9.84883079 28.1286381,10.3180199 28.1286381,10.8227118 C28.1286381,12.2152248 27.8685769,13.7804847 27.0852569,15.7376556 L22.8937927,27.8562826 C26.9732286,25.4773434 29.7171067,21.0576827 29.7171067,15.9954587 C29.7173575,13.6097451 29.1079135,11.3662937 28.0360548,9.41175733 L28.0361802,9.41175733 Z M15.9957096,0 C7.175833,0 0,7.17533119 0,15.9950823 C0,24.8159625 7.175833,31.9910428 15.9957096,31.9910428 C24.8152098,31.9910428 31.9920464,24.8159625 31.9920464,15.9950823 C31.9920464,7.17533119 24.8153352,0 15.995835,0 L15.9957096,0 Z M15.9957096,31.2579035 C7.58041449,31.2579035 0.733390205,24.4110046 0.733390205,15.9950823 C0.733390205,7.57978723 7.58003814,0.733390205 15.9957096,0.733390205 C24.4107537,0.733390205 31.2571507,7.57978723 31.2571507,15.9950823 C31.2571507,24.4110046 24.4107537,31.2579035 15.9957096,31.2579035 Z" id="形状"></path>
        </g>
    </g>
</svg>