<?xml version="1.0" encoding="UTF-8"?>
<svg width="48px" height="48px" viewBox="0 0 48 48" version="1.1" xmlns="http://www.w3.org/2000/svg" xmlns:xlink="http://www.w3.org/1999/xlink">
    <!-- Generator: Sketch 51.2 (57519) - http://www.bohemiancoding.com/sketch -->
    <title>Icon-Standard</title>
    <desc>Created with Sketch.</desc>
    <defs></defs>
    <g id="Page-1" stroke="none" stroke-width="1" fill="none" fill-rule="evenodd">
        <g id="Select-KubeSphere-Version" transform="translate(-287.000000, -757.000000)">
            <g id="Group-11-Copy-2" transform="translate(240.000000, 721.000000)">
                <g id="Group-11" transform="translate(39.000000, 28.000000)">
                    <g id="Icon-Standard">
                        <polygon id="Bound" points="0 0 64 0 64 64 0 64"></polygon>
                        <path d="M40.3888691,12.0295253 L20.1299833,23.1744328 C19.2779793,23.643141 18.7486564,24.5384671 18.7486564,25.5108858 L18.7486564,34.5623233 L24.0591784,37.2668857 L24.0591784,28.0887317 C24.0591784,27.102459 24.6035481,26.196722 25.4744865,25.7339042 L45.8779058,14.8914998 L53.1946297,18.7064274 C54.5164131,19.395603 55.3453159,20.7626 55.3453159,22.2532624 L55.3453159,41.7467376 C55.3453159,43.2374 54.5164131,44.604397 53.1946297,45.2935726 L33.8493138,55.3801878 C32.6904685,55.9844078 31.3095315,55.9844078 30.1506862,55.3801878 L10.8053703,45.2935726 C9.48358692,44.604397 8.65468408,43.2374 8.65468408,41.7467376 L8.65468408,22.2532624 C8.65468408,20.7626 9.48358692,19.395603 10.8053703,18.7064274 L30.1506862,8.61981216 C31.3095315,8.01559215 32.6904685,8.01559215 33.8493138,8.61981216 L40.3888691,12.0295253 Z" id="Combined-Shape" fill="#55BC8A"></path>
                        <path d="M55.3453159,41.7467376 C55.3453159,43.2374 54.5164131,44.604397 53.1946297,45.2935726 L34.5850148,54.9965946 C33.5095882,54.9630478 32.6482228,54.0805484 32.6485155,52.9970435 L32.6536611,33.9530393 C32.6540632,32.4646547 33.4808285,31.0995757 34.7996866,30.409719 L52.4183288,21.1939138 C52.7044088,21.0442735 53.022463,20.9661143 53.3453159,20.9661143 C54.4498854,20.9661143 55.3453159,21.8615448 55.3453159,22.9661143 L55.3453159,41.7467376 Z" id="Combined-Shape" fill="#36435C"></path>
                    </g>
                </g>
            </g>
        </g>
    </g>
</svg>