<?xml version="1.0" encoding="UTF-8"?>
<svg width="12px" height="16px" viewBox="0 0 12 16" version="1.1" xmlns="http://www.w3.org/2000/svg" xmlns:xlink="http://www.w3.org/1999/xlink">
    <!-- Generator: Sketch 49.3 (51167) - http://www.bohemiancoding.com/sketch -->
    <title>Glyph/003.Direction/017.Return/Black</title>
    <desc>Created with Sketch.</desc>
    <defs></defs>
    <g id="UX" stroke="none" stroke-width="1" fill="none" fill-rule="evenodd">
        <g id="Creat-yaml-Step3" transform="translate(-157.000000, -156.000000)" fill="#FFFFFF">
            <g id="Glyph/002.Object/008.Human/White" transform="translate(153.000000, 154.000000)">
                <path d="M4.16666667,17.3623403 L4.16666667,14.1735109 C4.16666667,12.9180889 4.97000444,11.8035173 6.16100235,11.406518 L8.54166667,10.6129632 L11.4583333,10.6129632 L13.8389977,11.406518 C15.0299956,11.8035173 15.8333333,12.9180889 15.8333333,14.1735109 L15.8333333,17.3623403 C14.0865995,17.7088707 12.1029962,17.9046299 10,17.9046299 C7.89700377,17.9046299 5.91340053,17.7088707 4.16666667,17.3623403 Z" id="Shape" opacity="0.400000006"></path>
                <path d="M10.0000795,2.07484414 C11.5941366,2.07484414 12.8863752,3.36708272 12.8863752,4.9611398 C12.8863752,5.06704688 12.8805461,5.1728737 12.8689144,5.27814009 L12.682642,6.9638948 C12.5315341,8.3314132 11.3759212,9.36636676 10.0000795,9.36636676 C8.62423791,9.36636676 7.46862502,8.3314132 7.31751707,6.9638948 L7.13124468,5.27814009 C6.95617025,3.69372635 8.0986655,2.26737936 9.68307925,2.09230494 C9.78834564,2.08067322 9.89417246,2.07484414 10.0000795,2.07484414 Z" id="Path" opacity="0.900000036"></path>
            </g>
        </g>
    </g>
</svg>