<?xml version="1.0" encoding="UTF-8"?>
<svg width="479px" height="515px" viewBox="0 0 479 515" version="1.1" xmlns="http://www.w3.org/2000/svg" xmlns:xlink="http://www.w3.org/1999/xlink">
    <!-- Generator: Sketch 50.2 (55047) - http://www.bohemiancoding.com/sketch -->
    <title>Group 24</title>
    <desc>Created with Sketch.</desc>
    <defs>
        <rect id="path-1" x="0" y="0" width="630" height="680"></rect>
    </defs>
    <g id="Page-1" stroke="none" stroke-width="1" fill="none" fill-rule="evenodd">
        <g id="首页" transform="translate(-959.000000, 0.000000)">
            <g id="Group-24" transform="translate(808.000000, 0.000000)">
                <mask id="mask-2" fill="white">
                    <use xlink:href="#path-1"></use>
                </mask>
                <g id="Mask"></g>
                <g mask="url(#mask-2)" opacity="0.9">
                    <g transform="translate(137.000000, -383.000000)">
                        <path d="M795.88286,256.063238 L607.60379,364.051779 L607.60379,148.074698 L795.88286,256.063238 Z M425.722142,147.987582 C434.833989,142.735993 445.166143,139.971667 455.683032,139.971667 C488.820117,139.971667 515.683032,166.834582 515.683032,199.971667 L515.683032,383.861219 C515.683032,405.313499 504.229797,425.133629 485.643405,435.845601 L427.223347,469.515074 C418.247713,474.688038 410.796835,482.138916 405.623871,491.11455 C389.396166,519.271315 399.066581,555.252037 427.223347,571.479742 L485.643405,605.149214 C504.229797,615.861186 515.683032,635.681317 515.683032,657.133597 L515.683032,841.018295 C515.683032,851.534395 512.919121,861.865801 507.668279,870.977168 C491.122451,899.687827 454.434818,909.549371 425.724159,893.003543 L178.041127,750.264885 C159.45389,739.55314 148,719.732536 148,698.279637 L148,342.72313 C148,321.271063 159.453009,301.451095 178.03911,290.739045 L425.722142,147.987582 Z M606.709599,572.499343 C597.527344,567.216405 589.907488,559.596549 584.62455,550.414293 C568.099285,521.691793 577.987099,485.011232 606.709599,468.485968 L794.078362,360.684827 C803.180859,355.447777 813.49847,352.691515 824,352.691515 C857.137085,352.691515 884,379.55443 884,412.691515 L884,628.293796 C884,638.795326 881.243738,649.112937 876.006688,658.215434 C859.481424,686.937934 822.800863,696.825748 794.078362,680.300484 L606.709599,572.499343 Z" id="Combined-Shape" fill="#55BC8A" fill-rule="evenodd" transform="translate(516.000000, 520.500000) rotate(-33.000000) translate(-516.000000, -520.500000) "></path>
                        <path d="M131.879777,515.939717 L58.8565013,474.314928 C44.4622573,466.109908 26.1419347,471.127267 17.9369156,485.521511 C15.356832,490.047808 14,495.168003 14,500.378012 L14,583.631243 C14,600.199786 27.4314575,613.631243 44,613.631243 C49.2103931,613.631243 54.3309523,612.274211 58.8574853,609.693767 L131.880761,568.065325 C146.274695,559.859762 151.291362,541.53925 143.085799,527.145316 C140.422368,522.47321 136.551983,518.602972 131.879777,515.939717 Z" id="Fill-1" fill="#232D41" fill-rule="nonzero"></path>
                    </g>
                </g>
            </g>
        </g>
    </g>
</svg>