<?xml version="1.0" encoding="UTF-8"?>
<svg width="560px" height="350px" viewBox="0 0 560 350" version="1.1" xmlns="http://www.w3.org/2000/svg" xmlns:xlink="http://www.w3.org/1999/xlink">
    <!-- Generator: Sketch 51.1 (57501) - http://www.bohemiancoding.com/sketch -->
    <title>undraw_building_blocks_n0nc</title>
    <desc>Created with Sketch.</desc>
    <defs>
        <linearGradient x1="50%" y1="100%" x2="50%" y2="8.04145242e-15%" id="linearGradient-1">
            <stop stop-color="#808080" stop-opacity="0.25" offset="0%"></stop>
            <stop stop-color="#808080" stop-opacity="0.12" offset="54%"></stop>
            <stop stop-color="#808080" stop-opacity="0.1" offset="100%"></stop>
        </linearGradient>
        <linearGradient x1="50.0139799%" y1="100.014927%" x2="50.0139799%" y2="0.00226217574%" id="linearGradient-2">
            <stop stop-color="#808080" stop-opacity="0.25" offset="0%"></stop>
            <stop stop-color="#808080" stop-opacity="0.12" offset="54%"></stop>
            <stop stop-color="#808080" stop-opacity="0.1" offset="100%"></stop>
        </linearGradient>
    </defs>
    <g id="Page-1" stroke="none" stroke-width="1" fill="none" fill-rule="evenodd">
        <g id="coomingsoon" transform="translate(-440.000000, -374.000000)">
            <g id="undraw_building_blocks_n0nc" transform="translate(440.000000, 374.000000)">
                <rect id="Rectangle-path" fill="#6B7B95" fill-rule="nonzero" x="86" y="220" width="55" height="22" rx="8.84"></rect>
                <rect id="Rectangle-path" fill="#6B7B95" fill-rule="nonzero" x="142" y="220" width="55" height="22" rx="8.84"></rect>
                <rect id="Rectangle-path" fill="#000000" fill-rule="nonzero" opacity="0.1" x="142" y="220" width="55" height="22" rx="8.84"></rect>
                <rect id="Rectangle-path" fill="#6B7B95" fill-rule="nonzero" x="198" y="220" width="55" height="22" rx="8.84"></rect>
                <rect id="Rectangle-path" fill="#6B7B95" fill-rule="nonzero" x="253" y="220" width="55" height="22" rx="8.84"></rect>
                <rect id="Rectangle-path" fill="#000000" fill-rule="nonzero" opacity="0.1" x="253" y="220" width="55" height="22" rx="8.84"></rect>
                <rect id="Rectangle-path" fill="#6B7B95" fill-rule="nonzero" x="308" y="220" width="55" height="22" rx="8.84"></rect>
                <rect id="Rectangle-path" fill="#6B7B95" fill-rule="nonzero" x="364" y="220" width="55" height="22" rx="8.84"></rect>
                <rect id="Rectangle-path" fill="#000000" fill-rule="nonzero" opacity="0.1" x="364" y="220" width="55" height="22" rx="8.84"></rect>
                <g id="Group-2" transform="translate(86.000000, 197.000000)" fill-rule="nonzero">
                    <rect id="Rectangle-path" fill="#6B7B95" transform="translate(305.500000, 11.000000) rotate(-180.000000) translate(-305.500000, -11.000000) " x="278" y="0" width="55" height="22" rx="8.84"></rect>
                    <rect id="Rectangle-path" fill="#6B7B95" transform="translate(249.500000, 11.000000) rotate(-180.000000) translate(-249.500000, -11.000000) " x="222" y="0" width="55" height="22" rx="8.84"></rect>
                    <rect id="Rectangle-path" fill="#000000" opacity="0.1" transform="translate(249.500000, 11.000000) rotate(-180.000000) translate(-249.500000, -11.000000) " x="222" y="0" width="55" height="22" rx="8.84"></rect>
                    <rect id="Rectangle-path" fill="#6B7B95" transform="translate(194.500000, 11.000000) rotate(-180.000000) translate(-194.500000, -11.000000) " x="167" y="0" width="55" height="22" rx="8.84"></rect>
                    <rect id="Rectangle-path" fill="#6B7B95" transform="translate(139.500000, 11.000000) rotate(-180.000000) translate(-139.500000, -11.000000) " x="112" y="0" width="55" height="22" rx="8.84"></rect>
                    <rect id="Rectangle-path" fill="#000000" opacity="0.1" transform="translate(139.500000, 11.000000) rotate(-180.000000) translate(-139.500000, -11.000000) " x="112" y="0" width="55" height="22" rx="8.84"></rect>
                    <rect id="Rectangle-path" fill="#6B7B95" transform="translate(83.500000, 11.000000) rotate(-180.000000) translate(-83.500000, -11.000000) " x="56" y="0" width="55" height="22" rx="8.84"></rect>
                    <rect id="Rectangle-path" fill="#6B7B95" transform="translate(27.500000, 11.000000) rotate(-180.000000) translate(-27.500000, -11.000000) " x="0" y="0" width="55" height="22" rx="8.84"></rect>
                    <rect id="Rectangle-path" fill="#000000" opacity="0.1" transform="translate(27.500000, 11.000000) rotate(-180.000000) translate(-27.500000, -11.000000) " x="0" y="0" width="55" height="22" rx="8.84"></rect>
                </g>
                <g id="Group-3" transform="translate(86.000000, 174.000000)" fill-rule="nonzero">
                    <rect id="Rectangle-path" fill="#6B7B95" x="0" y="0" width="55" height="22" rx="8.84"></rect>
                    <rect id="Rectangle-path" fill="#6B7B95" x="56" y="0" width="55" height="22" rx="8.84"></rect>
                    <rect id="Rectangle-path" fill="#000000" opacity="0.1" x="56" y="0" width="55" height="22" rx="8.84"></rect>
                    <rect id="Rectangle-path" fill="#6B7B95" x="112" y="0" width="55" height="22" rx="8.84"></rect>
                    <rect id="Rectangle-path" fill="#6B7B95" x="167" y="0" width="55" height="22" rx="8.84"></rect>
                    <rect id="Rectangle-path" fill="#000000" opacity="0.1" x="167" y="0" width="55" height="22" rx="8.84"></rect>
                    <rect id="Rectangle-path" fill="#6B7B95" x="222" y="0" width="55" height="22" rx="8.84"></rect>
                    <rect id="Rectangle-path" fill="#6B7B95" x="278" y="0" width="55" height="22" rx="8.84"></rect>
                    <rect id="Rectangle-path" fill="#000000" opacity="0.1" x="278" y="0" width="55" height="22" rx="8.84"></rect>
                </g>
                <g id="Group-4" transform="translate(86.000000, 151.000000)" fill-rule="nonzero">
                    <rect id="Rectangle-path" fill="#6B7B95" transform="translate(305.500000, 11.000000) rotate(-180.000000) translate(-305.500000, -11.000000) " x="278" y="0" width="55" height="22" rx="8.84"></rect>
                    <rect id="Rectangle-path" fill="#6B7B95" transform="translate(249.500000, 11.000000) rotate(-180.000000) translate(-249.500000, -11.000000) " x="222" y="0" width="55" height="22" rx="8.84"></rect>
                    <rect id="Rectangle-path" fill="#000000" opacity="0.1" transform="translate(249.500000, 11.000000) rotate(-180.000000) translate(-249.500000, -11.000000) " x="222" y="0" width="55" height="22" rx="8.84"></rect>
                    <rect id="Rectangle-path" fill="#6B7B95" transform="translate(194.500000, 11.000000) rotate(-180.000000) translate(-194.500000, -11.000000) " x="167" y="0" width="55" height="22" rx="8.84"></rect>
                    <rect id="Rectangle-path" fill="#6B7B95" transform="translate(139.500000, 11.000000) rotate(-180.000000) translate(-139.500000, -11.000000) " x="112" y="0" width="55" height="22" rx="8.84"></rect>
                    <rect id="Rectangle-path" fill="#000000" opacity="0.1" transform="translate(139.500000, 11.000000) rotate(-180.000000) translate(-139.500000, -11.000000) " x="112" y="0" width="55" height="22" rx="8.84"></rect>
                    <rect id="Rectangle-path" fill="#6B7B95" transform="translate(83.500000, 11.000000) rotate(-180.000000) translate(-83.500000, -11.000000) " x="56" y="0" width="55" height="22" rx="8.84"></rect>
                    <rect id="Rectangle-path" fill="#6B7B95" transform="translate(27.500000, 11.000000) rotate(-180.000000) translate(-27.500000, -11.000000) " x="0" y="0" width="55" height="22" rx="8.84"></rect>
                    <rect id="Rectangle-path" fill="#000000" opacity="0.1" transform="translate(27.500000, 11.000000) rotate(-180.000000) translate(-27.500000, -11.000000) " x="0" y="0" width="55" height="22" rx="8.84"></rect>
                </g>
                <g id="Group-5" transform="translate(86.000000, 128.000000)" fill-rule="nonzero">
                    <rect id="Rectangle-path" fill="#6B7B95" x="0" y="0" width="55" height="22" rx="8.84"></rect>
                    <rect id="Rectangle-path" fill="#6B7B95" x="56" y="0" width="55" height="22" rx="8.84"></rect>
                    <rect id="Rectangle-path" fill="#000000" opacity="0.1" x="56" y="0" width="55" height="22" rx="8.84"></rect>
                    <rect id="Rectangle-path" fill="#6B7B95" x="112" y="0" width="55" height="22" rx="8.84"></rect>
                    <rect id="Rectangle-path" fill="#6B7B95" x="167" y="0" width="55" height="22" rx="8.84"></rect>
                    <rect id="Rectangle-path" fill="#000000" opacity="0.1" x="167" y="0" width="55" height="22" rx="8.84"></rect>
                    <rect id="Rectangle-path" fill="#6B7B95" x="222" y="0" width="55" height="22" rx="8.84"></rect>
                    <rect id="Rectangle-path" fill="#6B7B95" x="278" y="0" width="55" height="22" rx="8.84"></rect>
                    <rect id="Rectangle-path" fill="#000000" opacity="0.1" x="278" y="0" width="55" height="22" rx="8.84"></rect>
                </g>
                <g id="Group-7" transform="translate(86.000000, 105.000000)" fill-rule="nonzero">
                    <rect id="Rectangle-path" fill="#6B7B95" transform="translate(305.500000, 11.000000) rotate(-180.000000) translate(-305.500000, -11.000000) " x="278" y="0" width="55" height="22" rx="8.84"></rect>
                    <rect id="Rectangle-path" fill="#6B7B95" transform="translate(249.500000, 11.000000) rotate(-180.000000) translate(-249.500000, -11.000000) " x="222" y="0" width="55" height="22" rx="8.84"></rect>
                    <rect id="Rectangle-path" fill="#000000" opacity="0.1" transform="translate(249.500000, 11.000000) rotate(-180.000000) translate(-249.500000, -11.000000) " x="222" y="0" width="55" height="22" rx="8.84"></rect>
                    <rect id="Rectangle-path" fill="#6B7B95" transform="translate(194.500000, 11.000000) rotate(-180.000000) translate(-194.500000, -11.000000) " x="167" y="0" width="55" height="22" rx="8.84"></rect>
                    <rect id="Rectangle-path" fill="#6B7B95" transform="translate(139.500000, 11.000000) rotate(-180.000000) translate(-139.500000, -11.000000) " x="112" y="0" width="55" height="22" rx="8.84"></rect>
                    <rect id="Rectangle-path" fill="#000000" opacity="0.1" transform="translate(139.500000, 11.000000) rotate(-180.000000) translate(-139.500000, -11.000000) " x="112" y="0" width="55" height="22" rx="8.84"></rect>
                    <rect id="Rectangle-path" fill="#6B7B95" transform="translate(83.500000, 11.000000) rotate(-180.000000) translate(-83.500000, -11.000000) " x="56" y="0" width="55" height="22" rx="8.84"></rect>
                    <rect id="Rectangle-path" fill="#6B7B95" transform="translate(27.500000, 11.000000) rotate(-180.000000) translate(-27.500000, -11.000000) " x="0" y="0" width="55" height="22" rx="8.84"></rect>
                    <rect id="Rectangle-path" fill="#000000" opacity="0.1" transform="translate(27.500000, 11.000000) rotate(-180.000000) translate(-27.500000, -11.000000) " x="0" y="0" width="55" height="22" rx="8.84"></rect>
                </g>
                <rect id="Rectangle-path" fill="url(#linearGradient-1)" fill-rule="nonzero" x="360" y="15" width="59" height="24" rx="8.84"></rect>
                <rect id="Rectangle-path" fill="#6B7B95" fill-rule="nonzero" transform="translate(389.500000, 27.000000) rotate(-180.000000) translate(-389.500000, -27.000000) " x="362" y="16" width="55" height="22" rx="8.84"></rect>
                <g id="Group-8" transform="translate(86.000000, 82.000000)" fill-rule="nonzero">
                    <rect id="Rectangle-path" fill="#6B7B95" transform="translate(249.500000, 11.000000) rotate(-180.000000) translate(-249.500000, -11.000000) " x="222" y="0" width="55" height="22" rx="8.84"></rect>
                    <rect id="Rectangle-path" fill="#000000" opacity="0.1" transform="translate(249.500000, 11.000000) rotate(-180.000000) translate(-249.500000, -11.000000) " x="222" y="0" width="55" height="22" rx="8.84"></rect>
                    <rect id="Rectangle-path" fill="#6B7B95" transform="translate(194.500000, 11.000000) rotate(-180.000000) translate(-194.500000, -11.000000) " x="167" y="0" width="55" height="22" rx="8.84"></rect>
                    <rect id="Rectangle-path" fill="#6B7B95" transform="translate(139.500000, 11.000000) rotate(-180.000000) translate(-139.500000, -11.000000) " x="112" y="0" width="55" height="22" rx="8.84"></rect>
                    <rect id="Rectangle-path" fill="#000000" opacity="0.1" transform="translate(139.500000, 11.000000) rotate(-180.000000) translate(-139.500000, -11.000000) " x="112" y="0" width="55" height="22" rx="8.84"></rect>
                    <rect id="Rectangle-path" fill="#6B7B95" transform="translate(83.500000, 11.000000) rotate(-180.000000) translate(-83.500000, -11.000000) " x="56" y="0" width="55" height="22" rx="8.84"></rect>
                    <rect id="Rectangle-path" fill="#6B7B95" transform="translate(27.500000, 11.000000) rotate(-180.000000) translate(-27.500000, -11.000000) " x="0" y="0" width="55" height="22" rx="8.84"></rect>
                    <rect id="Rectangle-path" fill="#000000" opacity="0.1" transform="translate(27.500000, 11.000000) rotate(-180.000000) translate(-27.500000, -11.000000) " x="0" y="0" width="55" height="22" rx="8.84"></rect>
                </g>
                <ellipse id="Oval" fill="#F5F5F5" fill-rule="nonzero" cx="269" cy="289" rx="269" ry="61"></ellipse>
                <path d="M61.2297947,262 C61.2297947,262 65.7238345,245.712844 60.3909073,233.721084 C58.1305147,228.707897 57.4488627,223.043016 58.4484834,217.578535 C58.9418234,214.987785 59.6555334,212.450994 60.5806556,210" id="Shape" stroke="#535461" stroke-width="2"></path>
                <path d="M57,202.804603 C57,204.906999 61,211 61,211 C61,211 65,204.906999 65,202.804603 C65,200.703379 63.209139,199 61,199 C58.790861,199 57,200.703379 57,202.804603 Z" id="Shape" fill="#6B7B95" fill-rule="nonzero"></path>
                <path d="M51.5824921,212.49146 C52.6757136,214.145824 59,217 59,217 C59,217 58.8852117,210.26626 57.7755919,208.611895 C56.6626175,206.970504 54.3875343,206.506671 52.6839707,207.57384 C50.9804071,208.641009 50.4882347,210.838343 51.5824921,212.49146 Z" id="Shape" fill="#6B7B95" fill-rule="nonzero"></path>
                <path d="M52.0223264,233.465458 C53.8908047,234.452062 61,233.770836 61,233.770836 C61,233.770836 57.2910986,227.375532 55.4226203,226.388929 C53.5637464,225.458239 51.335033,226.253712 50.406785,228.179183 C49.478537,230.104654 50.1913929,232.453533 52.0111043,233.465458 L52.0223264,233.465458 Z" id="Shape" fill="#6B7B95" fill-rule="nonzero"></path>
                <path d="M55.339354,247.090909 C56.9942545,248.407115 64,249 64,249 C64,249 61.4183552,241.974308 59.768971,240.658103 C58.1155856,239.489997 55.9009275,239.915687 54.7267192,241.627298 C53.5525108,243.338908 53.828861,245.738636 55.355903,247.090909 L55.339354,247.090909 Z" id="Shape" fill="#6B7B95" fill-rule="nonzero"></path>
                <path d="M66.8092298,218.184532 C65.2546599,219.568316 58,221 58,221 C58,221 59.7758196,214.416383 61.3303896,213.016632 C62.3371719,212.121998 63.7896076,211.786298 65.1405784,212.135987 C66.4915491,212.485677 67.5358103,213.46763 67.8799986,214.711954 C68.224187,215.956278 67.8160122,217.273931 66.8092298,218.168566 L66.8092298,218.184532 Z" id="Shape" fill="#6B7B95" fill-rule="nonzero"></path>
                <path d="M71.0409593,235.462945 C69.1593097,236.454187 62,235.769758 62,235.769758 C62,235.769758 65.7350463,229.344384 67.616696,228.353142 C69.4798315,227.475477 71.6743656,228.287389 72.5926919,230.194111 C73.5110182,232.100833 72.8266667,234.424516 71.0409593,235.462945 Z" id="Shape" fill="#6B7B95" fill-rule="nonzero"></path>
                <path d="M71.660646,252.090909 C70.0057455,253.407115 63,254 63,254 C63,254 65.5816448,246.974308 67.231029,245.658103 C68.8844144,244.489997 71.0990725,244.915687 72.2732808,246.627298 C73.4474892,248.338908 73.171139,250.738636 71.644097,252.090909 L71.660646,252.090909 Z" id="Shape" fill="#6B7B95" fill-rule="nonzero"></path>
                <path d="M321.419647,169 C321.419647,169 338.937476,186.8674 329.046747,213.377864 C319.156018,239.888327 346,284 346,284 C346,284 345.712386,283.95654 345.179767,283.858756 C309.201374,277.356087 291.326691,235.384808 311.331849,204.213284 C318.767206,192.620388 324.876343,179.028343 321.419647,169 Z" id="Shape" fill="#6B7B95" fill-rule="nonzero"></path>
                <path d="M321.419647,169 C321.419647,169 338.937476,186.8674 329.046747,213.377864 C319.156018,239.888327 346,284 346,284 C346,284 345.712386,283.95654 345.179767,283.858756 C309.201374,277.356087 291.326691,235.384808 311.331849,204.213284 C318.767206,192.620388 324.876343,179.028343 321.419647,169 Z" id="Shape" fill="#000000" fill-rule="nonzero" opacity="0.2"></path>
                <path d="M322.105412,169 C322.105412,169 332.116077,190.903468 322.105412,208.77509 C312.094747,226.646711 320.391146,276.79484 347,284" id="Shape" stroke="#535461"></path>
                <path d="M290,241.224709 C290,241.224709 310.239855,237.971361 312.084254,256.222644 C313.928654,274.473926 351,276.984427 351,276.984427 L350.304306,277.45074 C319.693749,297.654031 290.442224,290.317731 294.842896,263.493877 C296.482362,253.522365 296.336752,243.496631 290,241.224709 Z" id="Shape" fill="#6B7B95" fill-rule="nonzero"></path>
                <path d="M290,241.224709 C290,241.224709 310.239855,237.971361 312.084254,256.222644 C313.928654,274.473926 351,276.984427 351,276.984427 L350.304306,277.45074 C319.693749,297.654031 290.442224,290.317731 294.842896,263.493877 C296.482362,253.522365 296.336752,243.496631 290,241.224709 Z" id="Shape" fill="#F5F5F5" fill-rule="nonzero" opacity="0.2"></path>
                <path d="M290,241 C290,241 305.709752,244.487015 304.420829,258.942575 C303.131907,273.398134 327.750862,290.724069 351,276.988832" id="Shape" stroke="#535461"></path>
                <path d="M444,282.196971 C444,282.196971 413.94362,276.253425 405.924988,268.32514 C397.906355,260.396855 361.838699,246.53036 357.829383,256.438049 C353.820067,266.345737 303.727898,300.032943 337.820575,305.976489 C371.913252,311.920035 417.97452,313.899438 427.995112,309.940631 C438.015705,305.981824 444,282.196971 444,282.196971 Z" id="Shape" fill="#A8A8A8" fill-rule="nonzero"></path>
                <path d="M337.794737,302.29018 C371.860067,308.23059 417.94782,310.208949 427.968304,306.252231 C435.598334,303.234033 440.918849,288.745618 442.996333,282 L444,282.207968 C444,282.207968 437.988789,305.969608 427.968304,309.936992 C417.94782,313.904375 371.849275,311.915351 337.794737,305.974941 C327.963115,304.257874 325.151767,300.231833 326.209395,295.133959 C327.002616,298.456109 330.450698,301.010379 337.794737,302.29018 Z" id="Shape" fill="#000000" fill-rule="nonzero" opacity="0.2"></path>
                <path d="M504.572797,15.1921108 C504.037148,13.8586528 503.183586,12.6762048 502.086373,11.7476448 C494.023025,4.40591903 480.98683,6.63215452 470.976413,2.14195074 C468.667976,1.10699381 466.305604,-0.326852772 463.803,0.0666464787 C460.307984,0.605686548 457.055677,4.59458306 454.008325,2.82653163 L454.224066,3.48955092 L454.008325,3.3763525 L456.252039,10.2005998 C457.115006,12.8203345 458.021121,15.5155349 459.69312,17.6986471 C454.662707,22.0825969 452.203786,28.7194107 453.164312,35.3203995 C454.124837,41.9213883 458.373376,47.5833212 464.444832,50.3536945 C464.552703,50.5800913 464.65518,50.8118786 464.757657,51.0436658 L465.043515,51.1622546 C465.707391,52.6887039 466.202923,54.2828836 466.521346,55.916588 C463.927051,56.2777449 459.401868,59.1508284 454.957588,63.3769026 L446.069028,63.0804305 C440.319911,62.8886122 434.756721,60.9977797 430.082565,57.6469066 L403.460033,38.5379362 C401.563601,38.7246031 399.777104,39.5143604 398.363134,40.7911237 C395.062285,37.352048 392.257642,33.7836028 392.494958,31.6274425 C392.494958,31.6274425 380.122169,8.48645235 375.623954,20.0542522 C371.125738,31.6220521 384.059456,43.7720153 384.059456,43.7720153 L392.263036,54.396495 C391.939066,56.2592626 391.733699,58.1406994 391.648172,60.0294637 C401.771854,71.602654 437.196649,82.0708122 437.196649,82.0708122 L442.719638,82.3403322 L442.751999,82.6098522 C442.412137,84.0584081 442.24557,85.54217 442.255793,87.0299808 C442.255793,87.2455968 442.255793,87.4666032 442.255793,87.6930001 C442.255793,87.9193969 442.255793,87.9894721 442.255793,88.1350129 C442.536257,106.591745 445.065829,163.061583 445.065829,163.061583 C445.556642,162.840576 446.069028,162.641131 446.586808,162.452467 L446.19308,167.47093 C446.19308,167.47093 422.574752,170.775246 405.142818,177.389268 C387.710885,184.003289 387.149956,191.716953 387.149956,191.716953 L387.149956,259.776152 C382.171716,262.331202 374.313322,265.705592 370.278952,263.889027 C365.899394,261.937702 363.499267,263.576384 363.06239,265.285141 C362.979203,265.623295 362.979203,265.976554 363.06239,266.314708 C363.099358,266.46675 363.155543,266.61347 363.22959,266.75133 L363.22959,266.783673 C363.309855,266.92625 363.409707,267.056889 363.526235,267.171781 C365.214414,268.826634 401.76646,283.148929 410.201962,280.944255 C410.462939,280.875823 410.718849,280.789369 410.967846,280.685516 C411.048749,280.653174 411.118865,280.61005 411.199768,280.572318 C411.280671,280.534585 411.512594,280.426777 411.658219,280.34053 C411.803845,280.254284 411.825419,280.227332 411.906322,280.173428 C411.987225,280.119524 412.159819,280.006325 412.278477,279.914689 C412.397135,279.823052 412.434889,279.774538 412.510399,279.704463 C412.585909,279.634388 412.731534,279.515799 412.828618,279.407991 C412.925702,279.300183 412.96885,279.246279 413.038966,279.165423 C413.109082,279.084567 413.233134,278.949807 413.319431,278.831218 C413.405727,278.712629 413.438089,278.653335 413.502811,278.567088 C413.567534,278.480842 413.675405,278.31913 413.750914,278.18976 C413.826424,278.060391 413.853391,278.006487 413.901933,277.90946 C413.950475,277.812432 414.052953,277.634549 414.123069,277.489008 C414.193185,277.343468 414.209365,277.300344 414.24712,277.203317 C414.284875,277.10629 414.381959,276.896064 414.441288,276.739743 C414.500617,276.583421 414.50601,276.551079 414.543765,276.454051 C414.58152,276.357024 414.662423,276.114456 414.710965,275.915011 C414.710965,275.823375 414.759507,275.731738 414.786475,275.640101 C414.835016,275.451437 414.888952,275.268163 414.9321,275.101061 C414.9321,275.014814 414.969855,274.928568 414.986036,274.842322 C415.029184,274.637486 415.072332,274.432651 415.104694,274.227816 C415.104694,274.15235 415.104694,274.071494 415.142448,273.996029 C415.180203,273.775022 415.212565,273.548625 415.239532,273.327619 L415.239532,273.133565 C415.2665,272.890997 415.293468,272.648429 415.315042,272.40586 L415.315042,272.254929 C415.336616,271.992596 415.352797,271.730264 415.363584,271.467931 L415.363584,271.360123 C415.363584,271.079822 415.363584,270.799521 415.363584,270.51922 L415.363584,270.465316 C415.353346,267.178616 414.991723,263.902418 414.284875,260.69252 L416.404538,202.729541 C427.449848,202.901171 438.496572,202.494537 449.499322,201.511311 L450.707476,229.174847 C450.707476,229.174847 450.707476,247.356668 456.89387,255.620153 C462.19033,262.692358 468.306609,293.972854 469.957033,302.850844 C467.686351,307.163164 463.339155,312.553565 455.76662,312.370291 C455.76662,312.370291 441.522271,311.14128 442.325909,315.065492 C442.348536,315.168351 442.379193,315.269281 442.417599,315.367354 C442.462495,315.480255 442.514745,315.590095 442.574012,315.696168 C442.633341,315.798586 442.698063,315.901004 442.773573,316.008812 L442.816721,316.073496 C442.897624,316.186695 442.989315,316.305284 443.091792,316.429263 L443.091792,316.456215 C443.188876,316.569413 443.291353,316.682612 443.404618,316.79581 L443.501701,316.892837 C443.631146,317.022207 443.760591,317.151577 443.911611,317.286337 C451.219862,323.900358 493.958303,325 493.958303,325 L493.958303,324.849069 C493.958303,324.805946 493.958303,324.752042 493.958303,324.692747 C493.958303,322.779155 493.677839,312.742229 491.121299,305.184887 L491.714589,305.184887 C491.714589,305.184887 485.528194,249.53439 480.46905,242.925759 C480.46905,242.925759 479.126058,213.580418 482.157229,195.193761 L482.696584,194.988926 C496.870817,189.695552 497.879409,176.661563 496.417759,167.088212 C499.114531,167.950676 500.689446,168.53823 500.689446,168.53823 C500.689446,168.53823 500.640904,168.123169 500.549213,167.384684 L500.689446,167.438588 C500.689446,167.438588 500.419768,165.686708 499.972104,162.959165 C498.958118,155.450337 496.994868,142.330101 494.902173,136.136531 C494.56238,134.77276 494.238767,133.608433 493.942122,132.729798 C492.734431,129.00797 491.90503,125.174 491.466486,121.285977 C490.89331,116.246392 490.603401,111.178644 490.598125,106.106609 C490.644105,99.3299343 491.163146,92.5647244 492.151466,85.8602638 C493.009039,80.0062887 493.769529,73.3437534 493.715593,68.6918376 C493.775003,67.0672468 493.661096,65.4409526 493.3758,63.840477 C492.626098,60.4067918 489.309068,58.1751659 485.862594,56.7521001 C485.641459,56.6604633 485.41493,56.5849977 485.188401,56.4987513 C485.274698,55.1996647 485.382568,53.7226949 485.522801,52.1864307 C486.357327,52.7644555 487.392628,52.9749024 488.386772,52.768594 C489.869997,52.44517 490.932525,51.2107682 491.876395,50.0733937 C496.860029,43.9552889 501.978502,37.5784449 503.89321,29.9779799 C504.666649,26.5838213 505.028819,23.1090124 504.971919,19.6284106 C504.971919,19.4379498 504.971919,19.2474889 504.971919,19.0570281 C505.064068,17.7553398 504.929015,16.4475512 504.572797,15.1921108 Z" id="Shape" fill="url(#linearGradient-2)" fill-rule="nonzero"></path>
                <path d="M459,46.1727279 C459,46.1727279 466.455728,57.4917794 464.858072,62.881804 C463.260416,68.2718285 482.432289,65.0378138 482.432289,65.0378138 C482.432289,65.0378138 482.964841,44.016718 486.692705,39.1656959 C490.420569,34.3146738 459,46.1727279 459,46.1727279 Z" id="Shape" fill="#F7C4A7" fill-rule="nonzero"></path>
                <path d="M409,53.0735911 C409,53.0735911 393.453004,40.2184443 393.989107,35.3977643 C393.989107,35.3977643 382.194834,12.9012576 377.906007,24.1495109 C373.617181,35.3977643 385.947557,47.1816488 385.947557,47.1816488 L400.95845,67 L409,53.0735911 Z" id="Shape" fill="#F7C4A7" fill-rule="nonzero"></path>
                <path d="M393.865846,256 C393.865846,256 379.103001,265.39718 373.088509,262.633303 C367.074016,259.869427 364.886928,264.291629 366.527244,265.949955 C368.167561,267.608281 403.707742,281.980439 411.909323,279.769338 C420.110903,277.558236 415.939033,259.449318 415.939033,259.449318 L393.865846,256 Z" id="Shape" fill="#535461" fill-rule="nonzero"></path>
                <path d="M470.795636,295.148148 C470.795636,295.148148 467.261575,309.916667 455.028288,309.648148 C455.028288,309.648148 436.542432,308.037037 443.610553,314.481481 C450.678675,320.925926 492,322 492,322 C492,322 492,299.981481 484.388177,295.148148 C476.776354,290.314815 470.795636,295.148148 470.795636,295.148148 Z" id="Shape" fill="#535461" fill-rule="nonzero"></path>
                <path d="M449,190.567568 L450.618421,228.405405 C450.618421,228.405405 450.618421,246.243243 456.552632,254.351351 C462.486842,262.459459 469.5,303 469.5,303 L490,303 C490,303 484.065789,248.405405 479.210526,241.918919 C479.210526,241.918919 477.052632,193.810811 484.605263,183 L449,190.567568 Z" id="Shape" fill="#575988" fill-rule="nonzero"></path>
                <path d="M449,190.567568 L450.618421,228.405405 C450.618421,228.405405 450.618421,246.243243 456.552632,254.351351 C462.486842,262.459459 469.5,303 469.5,303 L490,303 C490,303 484.065789,248.405405 479.210526,241.918919 C479.210526,241.918919 477.052632,193.810811 484.605263,183 L449,190.567568 Z" id="Shape" fill="#000000" fill-rule="nonzero" opacity="0.1"></path>
                <path d="M490.620912,156.678763 C490.620912,156.678763 502.987479,186.145156 480.405054,194.717197 C457.822629,203.289238 416.959193,202.217733 416.959193,202.217733 L414.808486,264.365034 C414.808486,264.365034 389.537677,267.57955 389,259.543261 L389,191.502681 C389,191.502681 389.537677,184.002145 406.205657,177.573114 C422.873637,171.144083 445.456062,167.929567 445.456062,167.929567 L446.531416,154 L490.620912,156.678763 Z" id="Shape" fill="#575988" fill-rule="nonzero"></path>
                <path d="M471.153195,58.1563394 C475.4542,57.6805732 479.805861,58.2948255 483.806623,59.9424151 C487.107283,61.3303897 490.267948,63.509187 491.000231,66.8607689 C491.850973,70.8310217 490.908696,79.7345019 489.826424,87.2715265 C488.092653,99.0828723 487.87191,111.066778 489.169523,122.933865 C489.707966,127.877852 490.48871,132.187029 491.538675,134.107598 C494.769338,140.025319 498,168 498,168 C498,168 462.462714,154.550634 444.69407,162.620254 C444.69407,162.620254 442.271074,107.477854 442.001852,89.4557035 C441.791859,75.5006415 459.501273,59.5981114 465.424154,59.0601367 C468.891732,58.7481115 467.701771,58.5167824 471.153195,58.1563394 Z" id="Shape" fill="#000000" fill-rule="nonzero" opacity="0.1"></path>
                <path d="M471.153195,57.1563394 C475.4542,56.6805732 479.805861,57.2948255 483.806623,58.9424151 C487.107283,60.3303897 490.267948,62.509187 491.000231,65.8607689 C491.850973,69.8310217 490.908696,78.7345019 489.826424,86.2715265 C488.092653,98.0828723 487.87191,110.066778 489.169523,121.933865 C489.588391,125.727408 490.381975,129.470224 491.538675,133.107598 C493.961672,140.370256 498,167 498,167 C498,167 462.462714,153.550634 444.69407,161.620254 C444.69407,161.620254 442.271074,106.477854 442.001852,88.4557035 C441.791859,74.5006415 459.501273,58.5981114 465.424154,58.0601367 C468.891732,57.7481115 467.701771,57.5167824 471.153195,57.1563394 Z" id="Shape" fill="#F5A623" fill-rule="nonzero"></path>
                <path d="M480.446109,88 L442.530121,85.8155022 C442.530121,85.8155022 440.116314,66.8049097 445.590101,67.0015145 L483.116249,68.3395194 C483.116249,68.3395194 491.126669,78.1697597 480.446109,88 Z" id="Shape" fill="#000000" fill-rule="nonzero" opacity="0.1"></path>
                <path d="M481.389791,86 L437.694896,83.8795181 C437.694896,83.8795181 403.709977,73.8072289 394,62.6746988 C394,62.6746988 394.539443,43.060241 405.328306,42 L430.849362,60.3898795 C435.309934,63.6050039 440.651964,65.4263316 446.180336,65.6168675 L484.087007,66.9156627 C484.087007,66.9156627 492.178654,76.4578313 481.389791,86 Z" id="Shape" fill="#F5A623" fill-rule="nonzero"></path>
                <path d="M482.166013,48.1297099 C482.799749,42.9841686 485.089723,41.2744159 486.692705,39.1738626 C490.420569,34.288855 459,46.2299848 459,46.2299848 C460.624337,48.7728368 462.048912,51.4425764 463.260416,54.2142583 C465.765363,55.3905976 468.490639,55.9998199 471.248696,56 C475.860597,56 478.853539,50.9141643 482.166013,48.1297099 Z" id="Shape" fill="#000000" fill-rule="nonzero" opacity="0.1"></path>
                <circle id="Oval" fill="#F7C4A7" fill-rule="nonzero" cx="472.5" cy="35.5" r="19.5"></circle>
                <path d="M459.166022,21.5672556 C457.098083,19.3155787 456.099209,16.3169256 455.159728,13.4096292 L453,6.75132945 C455.926431,8.47098718 459.047237,4.60175729 462.405614,4.06436425 C464.808311,3.68281519 467.081424,5.0800371 469.295145,6.08496208 C478.905933,10.4593414 491.432354,8.28827355 499.164179,15.4517228 C500.221011,16.3626058 501.039947,17.5151593 501.550678,18.8104293 C501.907401,20.0310033 502.053456,21.3029727 501.982623,22.5721805 C502.045713,25.9640632 501.706816,29.3515221 500.97295,32.6644218 C499.137182,40.0750719 494.223802,46.2980833 489.434605,52.263146 C488.52752,53.3970453 487.507049,54.6008057 486.081628,54.9178676 C483.300979,55.5358696 481.15205,52.5479643 480.077585,49.9254863 C478.654067,46.4504501 477.604343,42.8351257 476.94598,39.140008 C476.665216,37.5761942 476.443844,35.9640151 475.660942,34.582915 C473.987153,31.6326272 469.862074,28.8381834 467.35679,26.548889 C464.851505,24.2595947 461.466132,24.0661332 459.166022,21.5672556 Z" id="Shape" fill="#000000" fill-rule="nonzero" opacity="0.1"></path>
                <path d="M459.166022,21.5672556 C457.098083,19.3155787 456.099209,16.3169256 455.159728,13.4096292 L453,6.75132945 C455.926431,8.47098718 459.047237,4.60175729 462.405614,4.06436425 C464.808311,3.68281519 467.081424,5.0800371 469.295145,6.08496208 C478.905933,10.4593414 491.432354,8.28827355 499.164179,15.4517228 C500.221011,16.3626058 501.039947,17.5151593 501.550678,18.8104293 C501.907401,20.0310033 502.053456,21.3029727 501.982623,22.5721805 C502.045713,25.9640632 501.706816,29.3515221 500.97295,32.6644218 C499.137182,40.0750719 494.223802,46.2980833 489.434605,52.263146 C488.52752,53.3970453 487.507049,54.6008057 486.081628,54.9178676 C483.300979,55.5358696 481.15205,52.5479643 480.077585,49.9254863 C478.654067,46.4504501 477.604343,42.8351257 476.94598,39.140008 C476.665216,37.5761942 476.443844,35.9640151 475.660942,34.582915 C473.987153,31.6326272 469.862074,28.8381834 467.35679,26.548889 C464.851505,24.2595947 461.466132,24.0661332 459.166022,21.5672556 Z" id="Shape" fill="#632652" fill-rule="nonzero"></path>
                <ellipse id="Oval" fill="#F7C4A7" fill-rule="nonzero" cx="477.5" cy="38" rx="1.5" ry="3"></ellipse>
                <path d="M486,132 C486,132 484.941176,135.520833 479.647059,134.934028 C474.352941,134.347222 459,133.173611 459,134.934028" id="Shape" fill="#000000" fill-rule="nonzero" opacity="0.1"></path>
                <path d="M443.607779,314.392801 C442.62906,313.440271 442.139701,312.671362 442.025517,312 C441.884146,312.745957 442.319132,313.72144 443.607779,314.966615 C450.676306,321.852374 492,323 492,323 C492,323 492,322.799165 492,322.426187 C491.733571,322.420449 450.654557,321.255608 443.607779,314.392801 Z" id="Shape" fill="#FFFFFF" fill-rule="nonzero" opacity="0.5"></path>
                <path d="M411.91107,277.744369 C403.709905,279.822127 368.171523,266.3167 366.53129,264.758382 C366.3127,264.547726 366.156209,264.286201 366.077492,264 C365.884782,264.633202 366.057192,265.316027 366.53129,265.797261 C368.171523,267.355579 403.709905,280.861006 411.91107,278.783248 C416.131937,277.713203 417.072337,272.690223 416.995793,268.062017 C416.913781,272.373365 415.814825,276.747045 411.91107,277.744369 Z" id="Shape" fill="#FFFFFF" fill-rule="nonzero" opacity="0.5"></path>
                <path d="M270.5,271 C270.776142,271 271,270.776142 271,270.5 C271,270.223858 270.776142,270 270.5,270 C270.223858,270 270,270.223858 270,270.5 C270,270.776142 270.223858,271 270.5,271 Z" id="Shape" fill="#67647E" fill-rule="nonzero"></path>
                <path d="M50,257.862282 C50,257.862282 70.1594425,257.242883 76.2310431,252.928634 C82.3026437,248.614385 107.23726,243.465294 108.744356,250.381019 C110.251453,257.296744 139.04294,284.787289 116.263634,284.99196 C93.484328,285.196631 63.3856105,281.458692 57.3194117,277.774615 C51.2532129,274.090537 50,257.862282 50,257.862282 Z" id="Shape" fill="#A8A8A8" fill-rule="nonzero"></path>
                <path d="M116.70682,282.580322 C93.9435095,282.762359 63.8157573,279.068083 57.7480625,275.40593 C53.1284018,272.616484 51.2643282,262.615168 50.675389,258 L50,258 C50,258 51.2751344,274.115611 57.3428291,277.772409 C63.4105239,281.429207 93.5382761,285.155607 116.279974,284.994987 C122.850158,284.941446 125.119465,282.628508 124.995194,279.196579 C124.10368,281.24717 121.596636,282.542844 116.70682,282.580322 Z" id="Shape" fill="#000000" fill-rule="nonzero" opacity="0.2"></path>
                <rect id="Rectangle-path" fill="#6B7B95" fill-rule="nonzero" transform="translate(532.500000, 298.000000) rotate(-180.000000) translate(-532.500000, -298.000000) " x="505" y="287" width="55" height="22" rx="8.84"></rect>
                <rect id="Rectangle-path" fill="#000000" fill-rule="nonzero" opacity="0.1" transform="translate(532.500000, 298.000000) rotate(-180.000000) translate(-532.500000, -298.000000) " x="505" y="287" width="55" height="22" rx="8.84"></rect>
                <rect id="Rectangle-path" fill="#6B7B95" fill-rule="nonzero" x="505" y="267" width="55" height="22" rx="8.84"></rect>
                <rect id="Rectangle-path" fill="#6B7B95" fill-rule="nonzero" transform="translate(532.500000, 255.000000) rotate(-180.000000) translate(-532.500000, -255.000000) " x="505" y="244" width="55" height="22" rx="8.84"></rect>
                <rect id="Rectangle-path" fill="#000000" fill-rule="nonzero" opacity="0.1" transform="translate(532.500000, 255.000000) rotate(-180.000000) translate(-532.500000, -255.000000) " x="505" y="244" width="55" height="22" rx="8.84"></rect>
                <rect id="Rectangle-path" fill="#6B7B95" fill-rule="nonzero" x="505" y="223" width="55" height="22" rx="8.84"></rect>
            </g>
        </g>
    </g>
</svg>