<?xml version="1.0" encoding="UTF-8"?>
<svg width="40px" height="28px" viewBox="0 0 40 28" version="1.1" xmlns="http://www.w3.org/2000/svg" xmlns:xlink="http://www.w3.org/1999/xlink">
    <!-- Generator: Sketch 50.2 (55047) - http://www.bohemiancoding.com/sketch -->
    <title>Glyph/Home/Black Copy 84</title>
    <desc>Created with Sketch.</desc>
    <defs></defs>
    <g id="Symbols" stroke="none" stroke-width="1" fill="none" fill-rule="evenodd">
        <g id="架构图/底层" transform="translate(-13.000000, -19.000000)">
            <g id="Glyph/002.Object/059.Cloud/Black" transform="translate(9.000000, 9.000000)">
                <path d="M24,38 C31.7319865,38 38,31.7319865 38,24 C38,22.8914608 37.8711603,21.8130138 37.6276383,20.7788164 C41.3060278,21.824504 44,25.2089576 44,29.222622 C44,34.070234 40.070234,38 35.222622,38 L35.2159824,37.9999975 L24,38 Z" id="Combined-Shape" fill="#324558"></path>
                <path d="M24,38 L12.7840176,38 C7.93273864,38 4,34.0672614 4,29.2159824 C4,25.1999628 6.69509601,21.8134165 10.3753099,20.7663218 C11.8348713,14.5933569 17.3810177,10 24,10 C31.7319865,10 38,16.2680135 38,24 C38,31.7319865 31.7319865,38 24,38 Z" id="Combined-Shape" fill="#B6C2CD"></path>
            </g>
        </g>
    </g>
</svg>