<?xml version="1.0" encoding="UTF-8"?>
<svg width="393px" height="300px" viewBox="0 0 393 300" version="1.1" xmlns="http://www.w3.org/2000/svg" xmlns:xlink="http://www.w3.org/1999/xlink">
    <!-- Generator: Sketch 51.2 (57519) - http://www.bohemiancoding.com/sketch -->
    <title>undraw_co-workers_ujs6</title>
    <desc>Created with Sketch.</desc>
    <defs>
        <linearGradient x1="-0.0079491256%" y1="49.9857218%" x2="100%" y2="49.9857218%" id="linearGradient-1">
            <stop stop-color="#808080" stop-opacity="0.25" offset="0%"></stop>
            <stop stop-color="#808080" stop-opacity="0.12" offset="54%"></stop>
            <stop stop-color="#808080" stop-opacity="0.1" offset="100%"></stop>
        </linearGradient>
        <linearGradient x1="0.00387688081%" y1="50.0080662%" x2="100.011897%" y2="50.0080662%" id="linearGradient-2">
            <stop stop-color="#808080" stop-opacity="0.25" offset="0%"></stop>
            <stop stop-color="#808080" stop-opacity="0.12" offset="54%"></stop>
            <stop stop-color="#808080" stop-opacity="0.1" offset="100%"></stop>
        </linearGradient>
        <linearGradient x1="0.00387688081%" y1="50.0110849%" x2="100.011897%" y2="50.0110849%" id="linearGradient-3">
            <stop stop-color="#808080" stop-opacity="0.25" offset="0%"></stop>
            <stop stop-color="#808080" stop-opacity="0.12" offset="54%"></stop>
            <stop stop-color="#808080" stop-opacity="0.1" offset="100%"></stop>
        </linearGradient>
        <linearGradient x1="-0.00991994667%" y1="49.9972838%" x2="100.044963%" y2="49.9972838%" id="linearGradient-4">
            <stop stop-color="#808080" stop-opacity="0.25" offset="0%"></stop>
            <stop stop-color="#808080" stop-opacity="0.12" offset="54%"></stop>
            <stop stop-color="#808080" stop-opacity="0.1" offset="100%"></stop>
        </linearGradient>
        <linearGradient x1="-0.000323723424%" y1="49.9984052%" x2="100.026101%" y2="49.9984052%" id="linearGradient-5">
            <stop stop-color="#808080" stop-opacity="0.25" offset="0%"></stop>
            <stop stop-color="#808080" stop-opacity="0.12" offset="54%"></stop>
            <stop stop-color="#808080" stop-opacity="0.1" offset="100%"></stop>
        </linearGradient>
        <linearGradient x1="-0.000323744549%" y1="49.9984052%" x2="100.032629%" y2="49.9984052%" id="linearGradient-6">
            <stop stop-color="#808080" stop-opacity="0.25" offset="0%"></stop>
            <stop stop-color="#808080" stop-opacity="0.12" offset="54%"></stop>
            <stop stop-color="#808080" stop-opacity="0.1" offset="100%"></stop>
        </linearGradient>
        <linearGradient x1="0%" y1="50.0015612%" x2="100%" y2="50.0015612%" id="linearGradient-7">
            <stop stop-color="#808080" stop-opacity="0.25" offset="0%"></stop>
            <stop stop-color="#808080" stop-opacity="0.12" offset="54%"></stop>
            <stop stop-color="#808080" stop-opacity="0.1" offset="100%"></stop>
        </linearGradient>
        <linearGradient x1="0.00260978606%" y1="50%" x2="100.019477%" y2="50%" id="linearGradient-8">
            <stop stop-color="#808080" stop-opacity="0.25" offset="0%"></stop>
            <stop stop-color="#808080" stop-opacity="0.12" offset="54%"></stop>
            <stop stop-color="#808080" stop-opacity="0.1" offset="100%"></stop>
        </linearGradient>
        <linearGradient x1="0.00260995551%" y1="50%" x2="100.025972%" y2="50%" id="linearGradient-9">
            <stop stop-color="#808080" stop-opacity="0.25" offset="0%"></stop>
            <stop stop-color="#808080" stop-opacity="0.12" offset="54%"></stop>
            <stop stop-color="#808080" stop-opacity="0.1" offset="100%"></stop>
        </linearGradient>
        <linearGradient x1="0%" y1="50%" x2="100%" y2="50%" id="linearGradient-10">
            <stop stop-color="#808080" stop-opacity="0.25" offset="0%"></stop>
            <stop stop-color="#808080" stop-opacity="0.12" offset="54%"></stop>
            <stop stop-color="#808080" stop-opacity="0.1" offset="100%"></stop>
        </linearGradient>
        <linearGradient x1="0.012722275%" y1="50%" x2="100%" y2="50%" id="linearGradient-11">
            <stop stop-color="#808080" stop-opacity="0.25" offset="0%"></stop>
            <stop stop-color="#808080" stop-opacity="0.12" offset="54%"></stop>
            <stop stop-color="#808080" stop-opacity="0.1" offset="100%"></stop>
        </linearGradient>
        <linearGradient x1="0%" y1="50.0641437%" x2="100%" y2="50.0641437%" id="linearGradient-12">
            <stop stop-color="#808080" stop-opacity="0.25" offset="0%"></stop>
            <stop stop-color="#808080" stop-opacity="0.12" offset="54%"></stop>
            <stop stop-color="#808080" stop-opacity="0.1" offset="100%"></stop>
        </linearGradient>
        <linearGradient x1="0.0145948284%" y1="49.9703393%" x2="100.003764%" y2="49.9703393%" id="linearGradient-13">
            <stop stop-color="#808080" stop-opacity="0.25" offset="0%"></stop>
            <stop stop-color="#808080" stop-opacity="0.12" offset="54%"></stop>
            <stop stop-color="#808080" stop-opacity="0.1" offset="100%"></stop>
        </linearGradient>
        <linearGradient x1="-0.0087558041%" y1="50.0163435%" x2="100.000395%" y2="50.0163435%" id="linearGradient-14">
            <stop stop-color="#808080" stop-opacity="0.25" offset="0%"></stop>
            <stop stop-color="#808080" stop-opacity="0.12" offset="54%"></stop>
            <stop stop-color="#808080" stop-opacity="0.1" offset="100%"></stop>
        </linearGradient>
        <linearGradient x1="-0.0164208501%" y1="50.0145761%" x2="100.023383%" y2="50.0145761%" id="linearGradient-15">
            <stop stop-color="#808080" stop-opacity="0.25" offset="0%"></stop>
            <stop stop-color="#808080" stop-opacity="0.12" offset="54%"></stop>
            <stop stop-color="#808080" stop-opacity="0.1" offset="100%"></stop>
        </linearGradient>
        <linearGradient x1="7.76264969e-14%" y1="50.0137563%" x2="99.9497114%" y2="50.0137563%" id="linearGradient-16">
            <stop stop-color="#808080" stop-opacity="0.25" offset="0%"></stop>
            <stop stop-color="#808080" stop-opacity="0.12" offset="54%"></stop>
            <stop stop-color="#808080" stop-opacity="0.1" offset="100%"></stop>
        </linearGradient>
        <linearGradient x1="7.76264969e-14%" y1="50.0022111%" x2="99.9497114%" y2="50.0022111%" id="linearGradient-17">
            <stop stop-color="#808080" stop-opacity="0.25" offset="0%"></stop>
            <stop stop-color="#808080" stop-opacity="0.12" offset="54%"></stop>
            <stop stop-color="#808080" stop-opacity="0.1" offset="100%"></stop>
        </linearGradient>
        <linearGradient x1="50.0093293%" y1="99.9928768%" x2="50.0093293%" y2="-0.000992369547%" id="linearGradient-18">
            <stop stop-color="#808080" stop-opacity="0.25" offset="0%"></stop>
            <stop stop-color="#808080" stop-opacity="0.12" offset="54%"></stop>
            <stop stop-color="#808080" stop-opacity="0.1" offset="100%"></stop>
        </linearGradient>
        <linearGradient x1="49.9991062%" y1="100%" x2="49.9991062%" y2="0%" id="linearGradient-19">
            <stop stop-color="#808080" stop-opacity="0.25" offset="0%"></stop>
            <stop stop-color="#808080" stop-opacity="0.12" offset="54%"></stop>
            <stop stop-color="#808080" stop-opacity="0.1" offset="100%"></stop>
        </linearGradient>
        <linearGradient x1="50%" y1="100%" x2="50%" y2="0%" id="linearGradient-20">
            <stop stop-color="#808080" stop-opacity="0.25" offset="0%"></stop>
            <stop stop-color="#808080" stop-opacity="0.12" offset="54%"></stop>
            <stop stop-color="#808080" stop-opacity="0.1" offset="100%"></stop>
        </linearGradient>
    </defs>
    <g id="Page-1" stroke="none" stroke-width="1" fill="none" fill-rule="evenodd">
        <g id="Select-KubeSphere-Version" transform="translate(-808.000000, -136.000000)">
            <g id="undraw_co-workers_ujs6" transform="translate(808.000000, 136.000000)">
                <path d="M324.590164,264.590164 L296.065574,264.590164 L296.065574,248.852459 L324.590164,248.852459 L324.590164,264.590164 Z M297.270838,263.409836 L323.3849,263.409836 L323.3849,250.032787 L297.270838,250.032787 L297.270838,263.409836 Z" id="Shape" fill="#6B7B95" fill-rule="nonzero" opacity="0.2"></path>
                <path d="M353.114754,264.590164 L324.590164,264.590164 L324.590164,248.852459 L353.114754,248.852459 L353.114754,264.590164 Z M325.795428,263.409836 L351.90949,263.409836 L351.90949,250.032787 L325.795428,250.032787 L325.795428,263.409836 Z" id="Shape" fill="#6B7B95" fill-rule="nonzero" opacity="0.2"></path>
                <path d="M381.639344,264.590164 L353.114754,264.590164 L353.114754,248.852459 L381.639344,248.852459 L381.639344,264.590164 Z M354.320018,263.409836 L380.43408,263.409836 L380.43408,250.032787 L354.320018,250.032787 L354.320018,263.409836 Z" id="Shape" fill="#6B7B95" fill-rule="nonzero" opacity="0.2"></path>
                <path d="M381.639344,246.885246 L353.114754,246.885246 L353.114754,231.147541 L381.639344,231.147541 L381.639344,246.885246 Z M354.320018,245.704918 L380.43408,245.704918 L380.43408,232.327869 L354.320018,232.327869 L354.320018,245.704918 Z" id="Shape" fill="#6B7B95" fill-rule="nonzero" opacity="0.2"></path>
                <path d="M353.114754,246.885246 L324.590164,246.885246 L324.590164,231.147541 L353.114754,231.147541 L353.114754,246.885246 Z M325.795428,245.704918 L351.90949,245.704918 L351.90949,232.327869 L325.795428,232.327869 L325.795428,245.704918 Z" id="Shape" fill="#6B7B95" fill-rule="nonzero" opacity="0.2"></path>
                <path d="M35.4098361,264.590164 L6.8852459,264.590164 L6.8852459,248.852459 L35.4098361,248.852459 L35.4098361,264.590164 Z M8.09051027,263.409836 L34.2045717,263.409836 L34.2045717,250.032787 L8.09051027,250.032787 L8.09051027,263.409836 Z" id="Shape" fill="#6B7B95" fill-rule="nonzero" opacity="0.2"></path>
                <path d="M64.9180328,264.590164 L36.3934426,264.590164 L36.3934426,248.852459 L64.9180328,248.852459 L64.9180328,264.590164 Z M37.598707,263.409836 L63.7127684,263.409836 L63.7127684,250.032787 L37.598707,250.032787 L37.598707,263.409836 Z" id="Shape" fill="#6B7B95" fill-rule="nonzero" opacity="0.2"></path>
                <path d="M91.4754098,264.590164 L62.9508197,264.590164 L62.9508197,248.852459 L91.4754098,248.852459 L91.4754098,264.590164 Z M64.156084,263.409836 L90.2701455,263.409836 L90.2701455,250.032787 L64.156084,250.032787 L64.156084,263.409836 Z" id="Shape" fill="#6B7B95" fill-rule="nonzero" opacity="0.2"></path>
                <path d="M120.983607,264.590164 L92.4590164,264.590164 L92.4590164,248.852459 L120.983607,248.852459 L120.983607,264.590164 Z M93.6642808,263.409836 L119.778342,263.409836 L119.778342,250.032787 L93.6642808,250.032787 L93.6642808,263.409836 Z" id="Shape" fill="#6B7B95" fill-rule="nonzero" opacity="0.2"></path>
                <path d="M91.4754098,246.885246 L62.9508197,246.885246 L62.9508197,231.147541 L91.4754098,231.147541 L91.4754098,246.885246 Z M64.156084,245.704918 L90.2701455,245.704918 L90.2701455,232.327869 L64.156084,232.327869 L64.156084,245.704918 Z" id="Shape" fill="#6B7B95" fill-rule="nonzero" opacity="0.2"></path>
                <path d="M64.9180328,246.885246 L36.3934426,246.885246 L36.3934426,231.147541 L64.9180328,231.147541 L64.9180328,246.885246 Z M37.598707,245.704918 L63.7127684,245.704918 L63.7127684,232.327869 L37.598707,232.327869 L37.598707,245.704918 Z" id="Shape" fill="#6B7B95" fill-rule="nonzero" opacity="0.2"></path>
                <path d="M353.231755,214.42623 C353.231755,214.42623 347.938718,196.861955 354.222688,183.933736 C356.895132,178.528265 357.700805,172.421708 356.518754,166.530818 C355.935429,163.737889 355.091352,161.003066 353.99711,158.360656" id="Shape" stroke="#535461" stroke-width="2"></path>
                <path d="M359.011925,150.300341 C359.011925,152.367379 354.58793,158.360656 354.58793,158.360656 C354.58793,158.360656 350.163934,152.367379 350.163934,150.300341 C350.163934,148.233159 352.145625,146.557377 354.590164,146.557377 C357.034703,146.557377 359.016393,148.233159 359.016393,150.300341 L359.011925,150.300341 Z" id="Shape" fill="#6B7B95" fill-rule="nonzero"></path>
                <path d="M364.263846,162.342781 C363.028546,164.128311 356.065574,167.213115 356.065574,167.213115 C356.065574,167.213115 356.193221,159.938735 357.416168,158.153205 C358.20762,156.997604 359.591532,156.328679 361.046597,156.398406 C362.501662,156.468134 363.806822,157.265921 364.470436,158.491249 C365.134049,159.716577 365.055298,161.18329 364.263846,162.338891 L364.263846,162.342781 Z" id="Shape" fill="#6B7B95" fill-rule="nonzero"></path>
                <path d="M363.676965,183.34723 C361.687876,184.43146 354.098361,183.682196 354.098361,183.682196 C354.098361,183.682196 358.052083,176.630292 360.045248,175.55047 C362.036358,174.464834 364.464371,175.330116 365.468368,177.483132 C366.472364,179.636148 365.672151,182.261594 363.681041,183.34723 L363.676965,183.34723 Z" id="Shape" fill="#6B7B95" fill-rule="nonzero"></path>
                <path d="M360.346463,196.83906 C358.586669,198.112526 351.147541,198.688525 351.147541,198.688525 C351.147541,198.688525 353.891219,191.874503 355.651013,190.597119 C356.788413,189.772581 358.288413,189.605157 359.585977,190.157914 C360.883541,190.710671 361.781538,191.899631 361.941701,193.276926 C362.101864,194.65422 361.499861,196.010605 360.362461,196.835142 L360.346463,196.83906 Z" id="Shape" fill="#6B7B95" fill-rule="nonzero"></path>
                <path d="M348.502806,167.086112 C350.185578,168.597259 358.032787,170.163934 358.032787,170.163934 C358.032787,170.163934 356.10962,162.961195 354.426848,161.438149 C353.33718,160.460412 351.765727,160.094059 350.30444,160.477093 C348.843153,160.860126 347.714037,161.934354 347.342419,163.295125 C346.970801,164.655896 347.413138,166.096476 348.502806,167.074213 L348.502806,167.086112 Z" id="Shape" fill="#6B7B95" fill-rule="nonzero"></path>
                <path d="M343.53615,186.29805 C345.525238,187.38228 353.114754,186.633015 353.114754,186.633015 C353.114754,186.633015 349.161032,179.581112 347.167867,178.501289 C345.176757,177.415654 342.748744,178.280936 341.744747,180.433952 C340.74075,182.586968 341.540964,185.212414 343.532074,186.29805 L343.53615,186.29805 Z" id="Shape" fill="#6B7B95" fill-rule="nonzero"></path>
                <path d="M342.922013,202.739881 C344.68376,204.01391 352.131148,204.590164 352.131148,204.590164 C352.131148,204.590164 349.400439,197.788805 347.634688,196.499095 C346.496024,195.674192 344.994359,195.506694 343.695355,196.059696 C342.396351,196.612698 341.497357,197.802185 341.337016,199.180089 C341.176675,200.557993 341.779346,201.914978 342.918009,202.739881 L342.922013,202.739881 Z" id="Shape" fill="#6B7B95" fill-rule="nonzero"></path>
                <path d="M359.011925,150.300341 C359.011925,152.367379 354.58793,158.360656 354.58793,158.360656 C354.58793,158.360656 350.163934,152.367379 350.163934,150.300341 C350.163934,148.233159 352.145625,146.557377 354.590164,146.557377 C357.034703,146.557377 359.016393,148.233159 359.016393,150.300341 L359.011925,150.300341 Z" id="Shape" fill="#000000" fill-rule="nonzero" opacity="0.25"></path>
                <path d="M364.263846,162.342781 C363.028546,164.128311 356.065574,167.213115 356.065574,167.213115 C356.065574,167.213115 356.193221,159.938735 357.416168,158.153205 C358.20762,156.997604 359.591532,156.328679 361.046597,156.398406 C362.501662,156.468134 363.806822,157.265921 364.470436,158.491249 C365.134049,159.716577 365.055298,161.18329 364.263846,162.338891 L364.263846,162.342781 Z" id="Shape" fill="#000000" fill-rule="nonzero" opacity="0.25"></path>
                <path d="M363.676965,183.34723 C361.687876,184.43146 354.098361,183.682196 354.098361,183.682196 C354.098361,183.682196 358.052083,176.630292 360.045248,175.55047 C362.036358,174.464834 364.464371,175.330116 365.468368,177.483132 C366.472364,179.636148 365.672151,182.261594 363.681041,183.34723 L363.676965,183.34723 Z" id="Shape" fill="#000000" fill-rule="nonzero" opacity="0.25"></path>
                <path d="M360.346463,196.83906 C358.586669,198.112526 351.147541,198.688525 351.147541,198.688525 C351.147541,198.688525 353.891219,191.874503 355.651013,190.597119 C356.788413,189.772581 358.288413,189.605157 359.585977,190.157914 C360.883541,190.710671 361.781538,191.899631 361.941701,193.276926 C362.101864,194.65422 361.499861,196.010605 360.362461,196.835142 L360.346463,196.83906 Z" id="Shape" fill="#000000" fill-rule="nonzero" opacity="0.25"></path>
                <path d="M348.502806,167.086112 C350.185578,168.597259 358.032787,170.163934 358.032787,170.163934 C358.032787,170.163934 356.10962,162.961195 354.426848,161.438149 C353.33718,160.460412 351.765727,160.094059 350.30444,160.477093 C348.843153,160.860126 347.714037,161.934354 347.342419,163.295125 C346.970801,164.655896 347.413138,166.096476 348.502806,167.074213 L348.502806,167.086112 Z" id="Shape" fill="#000000" fill-rule="nonzero" opacity="0.25"></path>
                <path d="M343.53615,186.29805 C345.525238,187.38228 353.114754,186.633015 353.114754,186.633015 C353.114754,186.633015 349.161032,179.581112 347.167867,178.501289 C345.176757,177.415654 342.748744,178.280936 341.744747,180.433952 C340.74075,182.586968 341.540964,185.212414 343.532074,186.29805 L343.53615,186.29805 Z" id="Shape" fill="#000000" fill-rule="nonzero" opacity="0.25"></path>
                <path d="M342.922013,202.739881 C344.68376,204.01391 352.131148,204.590164 352.131148,204.590164 C352.131148,204.590164 349.400439,197.788805 347.634688,196.499095 C346.496024,195.674192 344.994359,195.506694 343.695355,196.059696 C342.396351,196.612698 341.497357,197.802185 341.337016,199.180089 C341.176675,200.557993 341.779346,201.914978 342.918009,202.739881 L342.922013,202.739881 Z" id="Shape" fill="#000000" fill-rule="nonzero" opacity="0.25"></path>
                <path d="M67.0015122,214.42623 C67.0015122,214.42623 61.7097042,196.556685 67.9932304,183.417895 C70.6649967,177.917969 71.4709376,171.704412 70.2900496,165.71012 C69.7073823,162.861452 68.8628571,160.072042 67.7671186,157.377049" id="Shape" stroke="#535461" stroke-width="2"></path>
                <path d="M72.7868852,149.315819 C72.7868852,151.382324 68.3628567,157.377049 68.3628567,157.377049 C68.3628567,157.377049 63.9344262,151.363707 63.9344262,149.315819 C63.9344262,147.249143 65.9151313,145.57377 68.3584547,145.57377 C70.8017782,145.57377 72.7824832,147.249143 72.7824832,149.315819 L72.7868852,149.315819 Z" id="Shape" fill="#6B7B95" fill-rule="nonzero"></path>
                <path d="M77.991681,160.945527 C76.780451,162.882848 69.8360656,166.229508 69.8360656,166.229508 C69.8360656,166.229508 69.961226,158.33056 71.1805309,156.40571 C71.9537219,155.119199 73.3419342,154.363599 74.8098037,154.430308 C76.2776733,154.497017 77.5958403,155.375611 78.2559536,156.727261 C78.9160669,158.07891 78.8149815,159.692415 77.991681,160.945527 Z" id="Shape" fill="#6B7B95" fill-rule="nonzero"></path>
                <path d="M78.4346218,182.363136 C76.4257827,183.448986 68.852459,182.697578 68.852459,182.697578 C68.852459,182.697578 72.8098722,175.652584 74.7986229,174.566734 C76.7900879,173.48128 79.2184352,174.34663 80.2224885,176.499547 C81.2265419,178.652464 80.4260867,181.277682 78.4346218,182.363136 Z" id="Shape" fill="#6B7B95" fill-rule="nonzero"></path>
                <path d="M74.1186408,196.843635 C72.3635205,198.114645 64.9180328,198.688525 64.9180328,198.688525 C64.9180328,198.688525 67.6727058,191.890551 69.4160203,190.600284 C70.5520105,189.774669 72.051741,189.604923 73.3502779,190.154987 C74.6488148,190.70505 75.5488795,191.891356 75.7114263,193.267034 C75.873973,194.642711 75.2743071,195.998763 74.138317,196.824378 L74.1186408,196.843635 Z" id="Shape" fill="#6B7B95" fill-rule="nonzero"></path>
                <path d="M61.3225838,167.771852 C63.0087069,169.431816 70.8196721,171.147541 70.8196721,171.147541 C70.8196721,171.147541 68.9059224,163.246628 67.22823,161.586664 C66.1469967,160.489261 64.5689987,160.068944 63.0980333,160.486543 C61.6270679,160.904141 60.4908294,162.095013 60.1240825,163.603489 C59.7573356,165.111966 60.2168499,166.704546 61.3267992,167.771852 L61.3225838,167.771852 Z" id="Shape" fill="#6B7B95" fill-rule="nonzero"></path>
                <path d="M58.2866898,186.297562 C60.2955289,187.383412 67.8688525,186.632004 67.8688525,186.632004 C67.8688525,186.632004 63.9114394,179.58701 61.9226886,178.50116 C59.9312237,177.415706 57.5028763,178.281056 56.4988229,180.433973 C55.4947696,182.58689 56.2952248,185.212108 58.2866898,186.297562 Z" id="Shape" fill="#6B7B95" fill-rule="nonzero"></path>
                <path d="M55.7175858,202.745319 C57.4726754,204.016298 64.9180328,204.590164 64.9180328,204.590164 C64.9180328,204.590164 62.163408,197.792355 60.4201239,196.502119 C58.6640661,195.225861 56.1833962,195.584526 54.8793929,197.303221 C53.5753895,199.021915 53.941852,201.449804 55.6979099,202.726062 L55.7175858,202.745319 Z" id="Shape" fill="#6B7B95" fill-rule="nonzero"></path>
                <path d="M72.7868852,149.315819 C72.7868852,151.382324 68.3628567,157.377049 68.3628567,157.377049 C68.3628567,157.377049 63.9344262,151.363707 63.9344262,149.315819 C63.9344262,147.249143 65.9151313,145.57377 68.3584547,145.57377 C70.8017782,145.57377 72.7824832,147.249143 72.7824832,149.315819 L72.7868852,149.315819 Z" id="Shape" fill="#FFFFFF" fill-rule="nonzero" opacity="0.5"></path>
                <path d="M77.991681,160.945527 C76.780451,162.882848 69.8360656,166.229508 69.8360656,166.229508 C69.8360656,166.229508 69.961226,158.33056 71.1805309,156.40571 C71.9537219,155.119199 73.3419342,154.363599 74.8098037,154.430308 C76.2776733,154.497017 77.5958403,155.375611 78.2559536,156.727261 C78.9160669,158.07891 78.8149815,159.692415 77.991681,160.945527 Z" id="Shape" fill="#FFFFFF" fill-rule="nonzero" opacity="0.5"></path>
                <path d="M78.4346218,182.363136 C76.4257827,183.448986 68.852459,182.697578 68.852459,182.697578 C68.852459,182.697578 72.8098722,175.652584 74.7986229,174.566734 C76.7900879,173.48128 79.2184352,174.34663 80.2224885,176.499547 C81.2265419,178.652464 80.4260867,181.277682 78.4346218,182.363136 Z" id="Shape" fill="#FFFFFF" fill-rule="nonzero" opacity="0.5"></path>
                <path d="M74.1186408,196.843635 C72.3635205,198.114645 64.9180328,198.688525 64.9180328,198.688525 C64.9180328,198.688525 67.6727058,191.890551 69.4160203,190.600284 C70.5520105,189.774669 72.051741,189.604923 73.3502779,190.154987 C74.6488148,190.70505 75.5488795,191.891356 75.7114263,193.267034 C75.873973,194.642711 75.2743071,195.998763 74.138317,196.824378 L74.1186408,196.843635 Z" id="Shape" fill="#FFFFFF" fill-rule="nonzero" opacity="0.5"></path>
                <path d="M61.3225838,167.771852 C63.0087069,169.431816 70.8196721,171.147541 70.8196721,171.147541 C70.8196721,171.147541 68.9059224,163.246628 67.22823,161.586664 C66.1469967,160.489261 64.5689987,160.068944 63.0980333,160.486543 C61.6270679,160.904141 60.4908294,162.095013 60.1240825,163.603489 C59.7573356,165.111966 60.2168499,166.704546 61.3267992,167.771852 L61.3225838,167.771852 Z" id="Shape" fill="#FFFFFF" fill-rule="nonzero" opacity="0.5"></path>
                <path d="M58.2866898,186.297562 C60.2955289,187.383412 67.8688525,186.632004 67.8688525,186.632004 C67.8688525,186.632004 63.9114394,179.58701 61.9226886,178.50116 C59.9312237,177.415706 57.5028763,178.281056 56.4988229,180.433973 C55.4947696,182.58689 56.2952248,185.212108 58.2866898,186.297562 Z" id="Shape" fill="#FFFFFF" fill-rule="nonzero" opacity="0.5"></path>
                <path d="M55.7175858,202.745319 C57.4726754,204.016298 64.9180328,204.590164 64.9180328,204.590164 C64.9180328,204.590164 62.163408,197.792355 60.4201239,196.502119 C58.6640661,195.225861 56.1833962,195.584526 54.8793929,197.303221 C53.5753895,199.021915 53.941852,201.449804 55.6979099,202.726062 L55.7175858,202.745319 Z" id="Shape" fill="#FFFFFF" fill-rule="nonzero" opacity="0.5"></path>
                <path d="M38.1281662,213.442623 C38.1281662,213.442623 33.7205399,199.901583 38.9567652,189.903919 C41.1828792,185.730969 41.8541876,181.016755 40.8699179,176.468944 C40.3841046,174.313625 39.6812692,172.203136 38.7702219,170.163934" id="Shape" stroke="#535461" stroke-width="2"></path>
                <path d="M40.3278689,163.446423 C40.3278689,165.168548 37.3770492,170.163934 37.3770492,170.163934 C37.3770492,170.163934 34.4262295,165.168548 34.4262295,163.446423 C34.4262296,161.724093 35.7473565,160.327869 37.3770492,160.327869 C39.0067418,160.327869 40.3278688,161.724093 40.3278689,163.446423 Z" id="Shape" fill="#6B7B95" fill-rule="nonzero"></path>
                <path d="M45.7198387,174.042283 C44.7676422,175.504232 39.3442623,178.032787 39.3442623,178.032787 C39.3442623,178.032787 39.4436219,172.077917 40.3958184,170.620085 C41.0118527,169.674053 42.0884682,169.126801 43.2201142,169.184474 C44.3517602,169.242148 45.3665127,169.895985 45.8821243,170.899691 C46.3977359,171.903397 46.335873,173.104486 45.7198387,174.050519 L45.7198387,174.042283 Z" id="Shape" fill="#6B7B95" fill-rule="nonzero"></path>
                <path d="M45.5477898,189.44466 C44.0534352,190.166568 38.3606557,189.668831 38.3606557,189.668831 C38.3606557,189.668831 41.325645,184.972633 42.8199996,184.246926 C44.3134164,183.522973 46.1347065,184.099646 46.8879649,185.534961 C47.6412234,186.970276 47.0412065,188.720708 45.5477898,189.44466 Z" id="Shape" fill="#6B7B95" fill-rule="nonzero"></path>
                <path d="M43.9317102,200.203416 C42.4934324,201.194796 36.3934426,201.639344 36.3934426,201.639344 C36.3934426,201.639344 38.6396941,196.348045 40.0779718,195.344862 C41.517127,194.35519 43.5464813,194.637884 44.6106617,195.976277 C45.6748421,197.314671 45.3708652,199.201941 43.9317102,200.191613 L43.9317102,200.203416 Z" id="Shape" fill="#6B7B95" fill-rule="nonzero"></path>
                <path d="M33.39838,178.519785 C34.6091235,179.731164 40.3278689,180.983607 40.3278689,180.983607 C40.3278689,180.983607 38.931478,175.234691 37.7045912,174.00278 C36.91157,173.220101 35.7684086,172.927344 34.7057248,173.234788 C33.6430409,173.542232 32.8222817,174.403168 32.5526191,175.493291 C32.2829565,176.583413 32.6053587,177.737107 33.39838,178.519785 Z" id="Shape" fill="#6B7B95" fill-rule="nonzero"></path>
                <path d="M30.1899151,192.39548 C31.6842697,193.117387 37.3770492,192.619651 37.3770492,192.619651 C37.3770492,192.619651 34.4120599,187.923453 32.9177053,187.197746 C31.4242885,186.473793 29.6029984,187.050466 28.84974,188.485781 C28.0964815,189.921095 28.6964984,191.671527 30.1899151,192.39548 Z" id="Shape" fill="#6B7B95" fill-rule="nonzero"></path>
                <path d="M28.8550381,206.105019 C30.293342,207.096425 36.3934426,207.540984 36.3934426,207.540984 C36.3934426,207.540984 34.1471504,202.249552 32.7088465,201.246344 C31.7778594,200.606122 30.550326,200.476437 29.4886462,200.90614 C28.4269664,201.335843 27.6924346,202.259652 27.561742,203.329576 C27.4310493,204.399501 27.924051,205.452995 28.8550381,206.093217 L28.8550381,206.105019 Z" id="Shape" fill="#6B7B95" fill-rule="nonzero"></path>
                <path d="M40.3278689,163.446423 C40.3278689,165.168548 37.3770492,170.163934 37.3770492,170.163934 C37.3770492,170.163934 34.4262295,165.168548 34.4262295,163.446423 C34.4262296,161.724093 35.7473565,160.327869 37.3770492,160.327869 C39.0067418,160.327869 40.3278688,161.724093 40.3278689,163.446423 Z" id="Shape" fill="#000000" fill-rule="nonzero" opacity="0.25"></path>
                <path d="M45.7198387,174.042283 C44.7676422,175.504232 39.3442623,178.032787 39.3442623,178.032787 C39.3442623,178.032787 39.4436219,172.077917 40.3958184,170.620085 C41.0118527,169.674053 42.0884682,169.126801 43.2201142,169.184474 C44.3517602,169.242148 45.3665127,169.895985 45.8821243,170.899691 C46.3977359,171.903397 46.335873,173.104486 45.7198387,174.050519 L45.7198387,174.042283 Z" id="Shape" fill="#000000" fill-rule="nonzero" opacity="0.25"></path>
                <path d="M45.5477898,189.44466 C44.0534352,190.166568 38.3606557,189.668831 38.3606557,189.668831 C38.3606557,189.668831 41.325645,184.972633 42.8199996,184.246926 C44.3134164,183.522973 46.1347065,184.099646 46.8879649,185.534961 C47.6412234,186.970276 47.0412065,188.720708 45.5477898,189.44466 Z" id="Shape" fill="#000000" fill-rule="nonzero" opacity="0.25"></path>
                <path d="M43.9317102,200.203416 C42.4934324,201.194796 36.3934426,201.639344 36.3934426,201.639344 C36.3934426,201.639344 38.6396941,196.348045 40.0779718,195.344862 C41.517127,194.35519 43.5464813,194.637884 44.6106617,195.976277 C45.6748421,197.314671 45.3708652,199.201941 43.9317102,200.191613 L43.9317102,200.203416 Z" id="Shape" fill="#000000" fill-rule="nonzero" opacity="0.25"></path>
                <path d="M33.39838,178.519785 C34.6091235,179.731164 40.3278689,180.983607 40.3278689,180.983607 C40.3278689,180.983607 38.931478,175.234691 37.7045912,174.00278 C36.91157,173.220101 35.7684086,172.927344 34.7057248,173.234788 C33.6430409,173.542232 32.8222817,174.403168 32.5526191,175.493291 C32.2829565,176.583413 32.6053587,177.737107 33.39838,178.519785 Z" id="Shape" fill="#000000" fill-rule="nonzero" opacity="0.25"></path>
                <path d="M30.1899151,192.39548 C31.6842697,193.117387 37.3770492,192.619651 37.3770492,192.619651 C37.3770492,192.619651 34.4120599,187.923453 32.9177053,187.197746 C31.4242885,186.473793 29.6029984,187.050466 28.84974,188.485781 C28.0964815,189.921095 28.6964984,191.671527 30.1899151,192.39548 Z" id="Shape" fill="#000000" fill-rule="nonzero" opacity="0.25"></path>
                <path d="M28.8550381,206.105019 C30.293342,207.096425 36.3934426,207.540984 36.3934426,207.540984 C36.3934426,207.540984 34.1471504,202.249552 32.7088465,201.246344 C31.7778594,200.606122 30.550326,200.476437 29.4886462,200.90614 C28.4269664,201.335843 27.6924346,202.259652 27.561742,203.329576 C27.4310493,204.399501 27.924051,205.452995 28.8550381,206.093217 L28.8550381,206.105019 Z" id="Shape" fill="#000000" fill-rule="nonzero" opacity="0.25"></path>
                <g id="Group" opacity="0.7" transform="translate(0.000000, 32.459016)" fill-rule="nonzero">
                    <rect id="Rectangle-path" fill="#D8DEE5" opacity="0.6" x="0" y="0" width="392.459016" height="200.259185"></rect>
                    <path d="M0,-1.42108547e-14 L0,200.655738 L392.459016,200.655738 L392.459016,-1.42108547e-14 L0,-1.42108547e-14 Z M17.442623,17.448325 L187.508197,17.448325 L187.508197,91.6037063 L17.442623,91.6037063 L17.442623,17.448325 Z M17.442623,109.052031 L187.508197,109.052031 L187.508197,183.207413 L17.442623,183.207413 L17.442623,109.052031 Z M375.016393,183.207413 L204.95082,183.207413 L204.95082,109.052031 L375.016393,109.052031 L375.016393,183.207413 Z M375.016393,91.6037063 L204.95082,91.6037063 L204.95082,17.448325 L375.016393,17.448325 L375.016393,91.6037063 Z" id="Shape" fill="#5F708A" opacity="0.25"></path>
                </g>
                <g id="Group" opacity="0.7" transform="translate(86.557377, 64.918033)" fill-rule="nonzero">
                    <path d="M56.4692528,174.878821 C56.4692528,174.878821 22.2822913,162.341116 17.6024971,179.988094 L30.7146016,213.418016 L32.119329,234.789104 L60.683435,234.789104 L60.683435,216.667213 C60.683435,216.667213 56.4692528,198.557195 67.2414602,187.416526 L56.4692528,174.878821 Z" id="Shape" fill="url(#linearGradient-1)"></path>
                    <g opacity="0.1" transform="translate(31.961494, 74.798808)" fill="url(#linearGradient-2)" id="Shape">
                        <path d="M30.2332063,0.593641331 C28.7811285,0.110813049 27.0331109,-0.320566319 25.8493519,0.641132638 C25.1627716,1.19915549 24.8668319,2.0975327 24.3341403,2.80198708 C22.5624476,5.13301871 18.9914411,4.69768174 16.1701487,5.53273721 C12.0230461,6.75959596 9.46218071,10.8794668 7.99431948,14.9162279 C1.49942814,32.7254678 8.74008769,53.0952807 3.08566527,71.1815532 C1.42051087,76.5045372 -1.30213496,82.4132472 1.38894396,87.3088094 C2.28465498,88.9433019 3.75646207,90.3047193 4.19050705,92.109389 C4.79817003,94.5591489 3.62624857,97.7727273 5.67415173,99.2647458 C6.31338162,99.7277861 7.12228364,99.8742176 7.88778117,100.056268 C12.4965498,101.275211 15.988639,104.872678 19.5004575,108.070426 C23.012276,111.268174 27.23435,114.363024 31.9970072,114.15327 C33.536206,114.025881 35.0559417,113.723154 36.5268586,113.250936 L60.162581,106.649644 C62.5300991,105.988723 65.1028021,105.189286 66.4759626,103.162991 C67.3164316,101.924259 67.5808044,100.392664 67.7938811,98.9204338 C68.6094818,93.2948249 68.9959827,87.6150052 68.9500191,81.9304189 C68.9500191,80.0545123 68.8632101,78.135072 68.1608464,76.3897665 C67.3716737,74.3753436 65.7933283,72.7645968 64.645082,70.9243087 C62.4275067,67.3624607 61.8316813,63.0842855 61.2832063,58.940669 C60.4111704,52.343335 59.5391346,45.6153999 60.7465688,39.0695148 C61.2634769,36.2596125 62.1552421,33.5288624 62.7471216,30.7387481 C63.7060964,26.1931187 63.8583708,21.5134916 63.1969501,16.9148203 C62.6445292,13.0957278 61.4607701,9.22122868 58.8565002,6.34800464 C57.1520418,4.43349122 54.8360344,3.17408691 52.3063668,2.78615665 C49.1102173,2.39039576 47.5200343,4.2346415 44.6711209,4.92326544 C40.4569386,5.97994701 34.2856081,1.93527074 30.2332063,0.593641331 Z"></path>
                    </g>
                    <path d="M62.1947007,74.4465806 C60.742623,73.9637523 58.9946054,73.5323729 57.8108464,74.4940719 C57.1242661,75.0520947 56.8283263,75.9504719 56.2956348,76.6549263 C54.5239421,78.9859579 50.9529356,78.550621 48.1316432,79.3856764 C43.9845406,80.6125352 41.4236752,84.732406 39.955814,88.7691671 C33.4609226,106.578407 40.7015822,126.94822 35.0471597,145.034492 C33.3820053,150.357476 30.6593595,156.266186 33.3504384,161.161749 C34.2461494,162.796241 35.7179565,164.157659 36.1520015,165.962328 C36.7596645,168.412088 35.587743,171.625667 37.6356462,173.117685 C38.2748761,173.580725 39.0837781,173.727157 39.8492756,173.909207 C44.4580442,175.12815 47.9501334,178.725617 51.461952,181.923365 C54.9737705,185.121113 59.1879527,188.251581 63.9585017,188.029955 C65.4977005,187.902566 67.0174362,187.599839 68.488353,187.12762 L92.1240755,180.526329 C94.4915936,179.865408 97.0642966,179.065971 98.4374571,177.039675 C99.277926,175.800944 99.5422989,174.269349 99.7553755,172.797119 C100.570976,167.17151 100.957477,161.49169 100.911514,155.807104 C100.911514,153.931197 100.824705,152.011757 100.122341,150.266451 C99.3331681,148.252028 97.7548227,146.641282 96.6065764,144.800994 C94.3890011,141.239146 93.7931758,136.96097 93.2447007,132.817354 C92.3726649,126.22002 91.5006291,119.492085 92.7080633,112.9462 C93.2249714,110.136297 94.1167366,107.405547 94.7086161,104.615433 C95.6675909,100.069804 95.8198652,95.3901764 95.1584445,90.7915052 C94.6060236,86.9724127 93.4222646,83.0979136 90.8179947,80.2246895 C89.1135363,78.3101761 86.7975289,77.0507718 84.2678612,76.6628415 C81.0717118,76.2670806 79.4815288,78.1113264 76.6326153,78.7999503 C72.4184331,79.8289286 66.2471026,75.807998 62.1947007,74.4465806 Z" id="Shape" fill="url(#linearGradient-3)"></path>
                    <path d="M55.5340831,39.2990561 C55.5340831,39.2990561 56.0036409,56.9420765 50.3847312,56.4790363 C44.7658216,56.015996 66.2905071,85.7297235 66.2905071,85.7297235 L84.5519634,75.9781752 C84.5519634,75.9781752 73.7876477,58.8021527 81.2847884,48.1205663 C88.7819291,37.43898 55.5340831,39.2990561 55.5340831,39.2990561 Z" id="Shape" fill="url(#linearGradient-4)"></path>
                    <g opacity="0.1" transform="translate(2.762104, 67.279351)" fill="url(#linearGradient-5)" id="Shape">
                        <path d="M21.394472,121.993294 C21.394472,121.993294 17.6498475,147.531744 8.28236752,140.566352 C-1.08511247,133.60096 0.319614945,121.993294 0.319614945,121.993294 C0.319614945,121.993294 18.5850172,72.7764696 17.6498475,65.3440801 C16.7146778,57.9116907 48.8221693,0.162261964 48.8221693,0.162261964 L60.7150019,95.0617652 C60.7150019,95.0617652 25.1390965,108.06251 21.394472,121.993294 Z"></path>
                    </g>
                    <path d="M23.2214068,189.272644 C23.2214068,189.272644 19.4767823,214.811095 10.1093023,207.845703 C0.741822341,200.880311 2.14654975,189.272644 2.14654975,189.272644 C2.14654975,189.272644 20.411952,140.055821 19.4728364,132.623431 C18.5337209,125.191042 50.6451582,67.4416128 50.6451582,67.4416128 L62.5379909,162.341116 C62.5379909,162.341116 26.9660313,175.341861 23.2214068,189.272644 Z" id="Shape" fill="url(#linearGradient-6)"></path>
                    <path d="M56.4692528,50.4436827 C56.4692528,50.4436827 38.2038506,62.9695148 31.1723218,62.5143898 L25.7151925,64.0024507 C14.7076471,66.9633645 6.32906485,75.9329509 4.09975219,87.1425898 L4.01294319,87.585842 C1.2113801,102.446663 0.272264583,143.308975 0.272264583,143.308975 C0.272264583,143.308975 0.741822341,153.994519 5.42161647,156.764845 L35.4101792,177.194022 C35.4101792,177.194022 34.4750095,154.908727 45.7128288,152.58561 C56.9506481,150.262494 42.903374,151.655572 42.903374,151.655572 L22.2980747,139.584865 C22.2980747,139.584865 22.7676325,121.474847 28.3865421,115.443451 C34.0054518,109.412055 53.6755814,77.8461666 53.6755814,77.8461666 L48.0566717,58.3470277 L56.4692528,50.4436827 Z" id="Shape" fill="url(#linearGradient-7)"></path>
                    <g opacity="0.1" transform="translate(73.787648, 62.134459)" fill="url(#linearGradient-8)" id="Shape">
                        <path d="M2.81734655,0.379930452 C2.81734655,0.379930452 14.3195387,3.39958602 22.3730461,4.87577413 C24.9180822,5.33197992 27.0934115,6.97862478 28.2287076,9.30829608 C30.6593595,14.338417 34.3645254,23.4369598 33.7252955,31.023696 L40.7489325,58.4182646 L60.8728364,82.5596788 L42.615326,90.9221063 L22.0179184,68.1698129 L38.8746474,111.351283 L7.49714068,112.744362 C7.49714068,112.744362 -1.87033931,43.0904454 0.473503622,31.4906938 L2.81734655,0.379930452 Z"></path>
                    </g>
                    <path d="M77.5401639,62.5143898 C77.5401639,62.5143898 89.0423561,65.5340454 97.0958635,67.0102335 C99.6408996,67.4664393 101.816229,69.1130841 102.951525,71.4427554 C105.382177,76.4728763 109.087343,85.5714191 108.448113,93.1581553 L115.47175,120.552724 L135.595654,144.694138 L117.334197,153.052608 L96.7288982,130.300315 L113.601411,173.485743 L82.2239039,174.878821 C82.2239039,174.878821 72.8564239,105.224905 75.2002669,93.6251532 L77.5401639,62.5143898 Z" id="Shape" fill="url(#linearGradient-9)"></path>
                    <polygon id="Shape" fill="url(#linearGradient-10)" points="54.930366 48.963537 61.3857987 80.3909091 50.8503431 85.7297235 45.0775448 57.4209472"></polygon>
                    <polygon id="Shape" fill="url(#linearGradient-10)" points="72.623618 82.7140255 77.5401639 62.5143898 83.8653831 74.3555556 80.5863706 84.1071038"></polygon>
                    <path d="M90.4194624,88.749379 C90.4194624,88.749379 90.4194624,120.323183 94.6336447,122.642341" id="Shape" fill="url(#linearGradient-10)" opacity="0.1"></path>
                    <path d="M30.008292,96.6408511 C30.008292,96.6408511 20.2896302,127.735784 23.0398971,130.992896" id="Shape" fill="url(#linearGradient-11)" opacity="0.1"></path>
                    <path d="M28.1379527,139.351366 C28.1379527,139.351366 46.8729127,151.497268 49.4456157,151.691191" id="Shape" fill="url(#linearGradient-12)" opacity="0.1"></path>
                    <g opacity="0.1" transform="translate(55.636676, 40.763371)" fill="url(#linearGradient-13)" id="Shape">
                        <path d="M0.363019443,0.391803279 C0.363019443,0.391803279 0.434044987,3.11068058 0.181509722,6.38362312 C3.59568317,14.328249 11.4037128,19.4660611 20.0292032,19.4437324 C21.1855628,19.4428433 22.3400405,19.3502102 23.4818338,19.1666998 C23.359512,15.6919192 24.0263629,12.2052658 26.1176706,9.2291439 C33.6108654,-1.46431528 0.363019443,0.391803279 0.363019443,0.391803279 Z"></path>
                    </g>
                    <ellipse id="Oval" fill="url(#linearGradient-10)" cx="75.2002669" cy="36.9798973" rx="21.5404689" ry="21.3592151"></ellipse>
                    <g opacity="0.1" transform="translate(43.799085, 0.395761)" fill="url(#linearGradient-14)" id="Shape">
                        <path d="M45.0696531,27.6043219 C47.6778689,27.9525915 50.9884483,27.0898328 51.5053565,24.5253022 C52.1406405,21.2879781 47.7725696,19.1825302 47.0978269,15.9491638 C46.8452917,14.7381355 47.1451773,13.4717006 46.9991803,12.2408843 C46.7071864,9.7634211 44.6869043,7.85585362 42.6311094,6.41528399 C36.1036591,1.88259062 28.1965274,-0.207228721 20.2896302,0.510531545 C19.311056,0.601556549 18.2811857,0.759860904 17.5275257,1.3812055 C16.6673275,2.08170227 16.3437667,3.22149362 15.7479413,4.15153171 C13.7276592,7.38885577 9.18991613,7.76878622 5.93457873,9.78716675 C2.12682043,12.1617321 0.240697674,16.7802616 0.0710255433,21.228614 C-0.0986465879,25.6769664 1.17981319,30.042209 2.43854365,34.3164266 C3.51576439,37.9495115 4.64428136,41.6815367 7.0078536,44.6576586 C9.37142585,47.6337804 13.2936142,49.7115251 17.0066717,48.8171055 C15.3060046,47.6021196 16.5410599,44.7803444 18.3837781,43.7909422 C20.2264964,42.80154 22.5150972,42.6313628 24.0894968,41.2659877 C25.6638963,39.9006127 26.1373999,37.6645637 26.6503622,35.6303527 C27.2974838,33.0658222 28.2287076,30.4617155 30.1227221,28.5897665 C33.8357796,24.9250207 40.5240183,26.9988077 45.0696531,27.6043219 Z"></path>
                    </g>
                    <path d="M88.3873427,27.5370426 C90.9955585,27.8853121 94.306138,27.0225534 94.8230461,24.4580229 C95.4583302,21.2206988 91.0902592,19.1152509 90.4155166,15.8818844 C90.1629813,14.6708561 90.4628669,13.4044213 90.31687,12.1736049 C90.0248761,9.69614175 88.004594,7.78857427 85.9487991,6.34800464 C79.4261552,1.81752935 71.5252127,-0.273531051 63.6231033,0.439294585 C62.6445292,0.530319589 61.6146588,0.688623944 60.8609989,1.30996854 C60.0008006,2.01046531 59.6772398,3.15025667 59.0814144,4.08029475 C57.0611323,7.31761881 52.5233892,7.69754926 49.2680518,9.71592979 C45.4602936,12.0904951 43.5741708,16.7090247 43.4044987,21.157377 C43.2348265,25.6057294 44.5132863,29.970972 45.7720168,34.2451896 C46.8492375,37.8782745 47.9777545,41.6102997 50.3413267,44.5864216 C52.704899,47.5625435 56.6270873,49.6402881 60.3401449,48.7458685 C58.6394777,47.5308826 59.874533,44.7091075 61.7172512,43.7197052 C63.5599695,42.730303 65.8485703,42.5601258 67.4229699,41.1947508 C68.9973694,39.8293757 69.470873,37.5933267 69.9838353,35.5591157 C70.6309569,32.9945852 71.5621807,30.3904786 73.4561952,28.5185296 C77.1653069,24.8577413 83.8535456,26.9275708 88.3873427,27.5370426 Z" id="Shape" fill="url(#linearGradient-15)"></path>
                    <g opacity="0.1" transform="translate(64.317575, 37.993045)" fill="url(#linearGradient-16)" id="Shape">
                        <path d="M7.15779642,1.86799139 C6.84212734,4.07633714 6.13976363,7.89938732 4.81789935,10.3135287 C3.06983939,13.4552336 1.57486107,16.7320072 0.347235989,20.1125683 C0.347235989,20.1125683 8.97289363,26.733648 13.3685856,31.2571949 C16.1320862,34.1586472 20.3285764,35.1776475 24.1092261,33.8652591 C26.3938811,33.0420765 28.3944339,31.4511177 28.9271254,28.4670806 C29.7636485,23.7614837 28.7692909,20.2115085 27.8301754,18.1100182 C26.914462,16.1015676 26.9029653,13.7953784 27.7986085,11.777844 C28.1221693,11.0654744 28.5009722,10.5074516 28.9231796,10.3689353 C28.9231796,10.3689353 20.4948151,8.51281669 20.0252573,10.8319755 C19.5556996,13.1511343 13.0016203,15.4742507 11.5968929,11.2950157 L11.2023065,2.08170227 C11.1515603,0.996797615 10.2569937,0.144953327 9.17413267,0.150389137 C8.16976961,0.140605228 7.3107647,0.872342684 7.15779642,1.86799139 Z"></path>
                    </g>
                    <path d="M71.4753717,40.3280344 C71.1597026,42.5363802 70.4573389,46.3594304 69.1354746,48.7735718 C67.3874147,51.9152767 65.8924364,55.1920503 64.6648113,58.5726114 C64.6648113,58.5726114 73.2904689,65.193691 77.6861609,69.717238 C80.4496615,72.6186903 84.6461517,73.6376906 88.4268014,72.3253022 C90.7114563,71.5021196 92.7120091,69.9111608 93.2447007,66.9271237 C94.0812238,62.2215267 93.0868662,58.6715516 92.1477507,56.5700613 C91.2320373,54.5616107 91.2205406,52.2554214 92.1161838,50.2378871 C92.4397446,49.5255175 92.8185475,48.9674946 93.2407549,48.8289783 C93.2407549,48.8289783 84.8123904,46.9728597 84.3428326,49.2920185 C83.8732749,51.6111773 77.3191956,53.9342938 75.9144682,49.7550588 L75.5198818,40.5417453 C75.4691356,39.4568407 74.574569,38.6049964 73.491708,38.6104322 C72.4873449,38.6006483 71.62834,39.3323857 71.4753717,40.3280344 Z" id="Shape" fill="url(#linearGradient-17)"></path>
                </g>
                <path d="M144.173725,239.248986 C144.173725,239.248986 111.665117,227.154198 107.213115,244.175765 L119.681849,276.41805 L121.006896,297.04918 L148.172319,297.04918 L148.172319,279.571503 C148.172319,279.571503 144.165908,262.101689 154.42623,251.347707 L144.173725,239.248986 Z" id="Shape" fill="#535461" fill-rule="nonzero"></path>
                <path d="M148.327354,143.135021 C146.956016,142.666621 145.301086,142.245855 144.186145,143.182655 C143.537382,143.726476 143.257675,144.599764 142.75265,145.286487 C141.078296,147.557037 137.702395,147.132301 135.037415,147.946047 C131.11764,149.136895 128.701288,153.154023 127.310525,157.075882 C121.172524,174.418599 128.013676,194.266066 122.672061,211.878708 C121.118136,217.062866 118.526967,222.818632 121.067634,227.585993 C121.914523,229.173791 123.293631,230.503571 123.717075,232.262056 C124.292027,234.643752 123.184856,237.779652 125.119492,239.232487 C125.721638,239.685009 126.486945,239.823941 127.20952,240.026385 C131.564394,241.217233 134.866483,244.718327 138.184112,247.834379 C141.501741,250.950431 145.495327,253.963277 149.993938,253.760833 C151.446543,253.636562 152.88037,253.342214 154.26723,252.883575 L176.604895,246.452995 C178.846431,245.805968 181.266668,245.027947 182.575849,243.055109 C183.352812,241.864261 183.620864,240.363792 183.822874,238.922866 C184.593434,233.442484 184.958347,227.91052 184.914506,222.374048 C184.914506,220.548081 184.832925,218.67845 184.176392,216.979507 C183.399429,215.018577 181.93874,213.450627 180.850993,211.652447 C178.75708,208.191048 178.189897,204.015141 177.673218,199.978167 C176.849638,193.551557 176.026058,186.997923 177.164307,180.622917 C177.653794,177.887936 178.496798,175.228375 179.05621,172.509272 C179.963283,168.080569 180.10789,163.524199 179.48354,159.044751 C178.962975,155.325336 177.840264,151.550347 175.385064,148.751855 C173.781417,146.891167 171.590303,145.663577 169.192675,145.282517 C166.170292,144.885568 164.66687,146.695657 161.974696,147.366501 C157.992764,148.362844 152.157778,144.444954 148.327354,143.135021 Z" id="Shape" fill="#000000" fill-rule="nonzero" opacity="0.1"></path>
                <path d="M148.325659,142.151415 C146.954403,141.683015 145.299572,141.262248 144.184698,142.199049 C143.535973,142.742869 143.256284,143.616158 142.751288,144.30288 C141.077035,146.57343 137.701336,146.148695 135.036515,146.962441 C131.116975,148.153289 128.700767,152.170416 127.310088,156.092276 C121.172454,173.434992 128.013197,193.282459 122.671901,210.895101 C121.11807,216.07926 118.527056,221.835025 121.06757,226.602387 C121.914408,228.190184 123.293434,229.519964 123.716853,231.27845 C124.29177,233.660146 123.184665,236.796046 125.119186,238.24888 C125.721295,238.701402 126.486557,238.840335 127.209089,239.042779 C131.563702,240.233627 134.865594,243.73472 138.183024,246.850772 C141.500454,249.966825 145.493801,252.97967 149.992143,252.777226 C151.444661,252.652956 152.878403,252.358607 154.26518,251.899968 L176.605392,245.473358 C178.846794,244.826331 181.266886,244.04831 182.575989,242.075472 C183.352905,240.884624 183.620941,239.384155 183.822939,237.943229 C184.593454,232.462847 184.958344,226.930883 184.914506,221.394411 C184.914506,219.568444 184.83293,217.698813 184.176436,215.99987 C183.39952,214.03894 181.938919,212.47099 180.851237,210.67281 C178.757449,207.211411 178.1903,203.035504 177.673651,198.99853 C176.85012,192.57192 176.02659,186.018286 177.164771,179.64328 C177.654228,176.908299 178.497182,174.248738 179.056561,171.529635 C179.963579,167.100932 180.108178,162.544562 179.483865,158.065114 C178.963331,154.345699 177.840688,150.57071 175.385634,147.772217 C173.786847,145.909537 171.600164,144.677832 169.20527,144.290972 C166.183067,143.894022 164.679735,145.704111 161.987722,146.374956 C157.990491,147.383207 152.155854,143.461348 148.325659,142.151415 Z" id="Shape" fill="#E0E0E0" fill-rule="nonzero"></path>
                <path d="M142.686207,108.317728 C142.686207,108.317728 143.145521,125.463841 137.637786,125.012315 C132.13005,124.560789 153.246394,153.442623 153.246394,153.442623 L171.147541,143.964533 C171.147541,143.964533 160.591384,127.269946 167.924287,116.888804 C175.25719,106.507662 142.686207,108.317728 142.686207,108.317728 Z" id="Shape" fill="#FFC781" fill-rule="nonzero"></path>
                <path d="M113.73535,252.382814 C113.73535,252.382814 110.142374,277.037824 101.154016,270.313373 C92.1656582,263.588921 93.5145034,252.382814 93.5145034,252.382814 C93.5145034,252.382814 111.03766,204.863095 110.13843,197.690084 C109.2392,190.517074 140.065441,134.754098 140.065441,134.754098 L151.47541,226.378192 C151.47541,226.378192 117.328327,238.933911 113.73535,252.382814 Z" id="Shape" fill="#000000" fill-rule="nonzero" opacity="0.1"></path>
                <path d="M112.751744,252.382814 C112.751744,252.382814 109.158767,277.037824 100.170409,270.313373 C91.1820516,263.588921 92.5308969,252.382814 92.5308969,252.382814 C92.5308969,252.382814 110.054053,204.863095 109.154823,197.690084 C108.255593,190.517074 139.081834,134.754098 139.081834,134.754098 L150.491803,226.378192 C150.491803,226.378192 116.344721,238.933911 112.751744,252.382814 Z" id="Shape" fill="#3B9CCB" fill-rule="nonzero"></path>
                <path d="M144.590164,119.016393 C144.590164,119.016393 127.008494,131.175496 120.245704,130.724866 L114.990593,132.167672 C104.346921,135.089833 96.2822901,143.787607 94.1798782,154.612205 L94.0967778,155.043071 C91.390079,169.455323 90.4918033,209.08704 90.4918033,209.08704 C90.4918033,209.08704 90.9429197,219.443622 95.4501272,222.13159 L124.301795,241.967213 C124.301795,241.967213 123.399562,220.348835 134.2224,218.099638 C145.045238,215.850441 131.515701,217.198378 131.515701,217.198378 L111.678448,205.485953 C111.678448,205.485953 112.129565,187.923244 117.539005,182.069008 C122.948445,176.214772 141.883465,145.591701 141.883465,145.591701 L136.474025,126.657338 L144.590164,119.016393 Z" id="Shape" fill="#3B9CCB" fill-rule="nonzero"></path>
                <path d="M163.903458,129.836066 C163.903458,129.836066 174.89116,132.796946 182.574703,134.231435 C185.013281,134.686541 187.090604,136.302672 188.162734,138.578854 C190.481924,143.513655 194.017609,152.428263 193.409362,159.868424 L200.115784,186.728126 L219.344262,210.399187 L201.90521,218.60654 L182.245072,196.302039 L198.334207,238.657415 L168.377022,240 C168.377022,240 159.433818,171.711946 161.6706,160.331936 L163.903458,129.836066 Z" id="Shape" fill="#000000" fill-rule="nonzero" opacity="0.1"></path>
                <path d="M164.890813,129.836066 C164.890813,129.836066 175.877772,132.796946 183.560795,134.231435 C185.999209,134.686541 188.076391,136.302672 189.148449,138.578854 C191.467482,143.513655 195.002928,152.428263 194.394722,159.868424 L201.100691,186.728126 L220.327869,210.399187 L202.893919,218.594552 L183.223339,196.286056 L199.311386,238.641431 L169.360151,240 C169.360151,240 160.417551,171.711946 162.654182,160.331936 L164.890813,129.836066 Z" id="Shape" fill="#3B9CCB" fill-rule="nonzero"></path>
                <polygon id="Shape" fill="#E0E0E0" fill-rule="nonzero" points="143.277366 117.04918 149.508197 148.157687 139.338974 153.442623 133.770492 125.420358"></polygon>
                <polygon id="Shape" fill="#E0E0E0" fill-rule="nonzero" points="160.327869 150.078533 165.060981 129.836066 171.147541 141.701353 167.993452 151.47541"></polygon>
                <path d="M177.04918,156.393443 C177.04918,156.393443 177.04918,186.627902 180.983607,188.852459" id="Shape" fill="#000000" fill-rule="nonzero" opacity="0.1"></path>
                <path d="M120,163.278689 C120,163.278689 109.763016,193.551225 112.641492,196.721311" id="Shape" fill="#000000" fill-rule="nonzero" opacity="0.1"></path>
                <path d="M117.04918,204.590164 C117.04918,204.590164 135.21061,216.206336 137.704918,216.393443" id="Shape" fill="#000000" fill-rule="nonzero" opacity="0.1"></path>
                <path d="M143.777643,110.284783 C143.777643,110.284783 143.847633,112.936047 143.606557,116.1279 C147.266448,124.978109 156.371847,130.122324 165.649393,128.581292 C165.532743,125.190694 166.166538,121.792146 168.1418,118.886487 C175.222415,108.472224 143.777643,110.284783 143.777643,110.284783 Z" id="Shape" fill="#000000" fill-rule="nonzero" opacity="0.1"></path>
                <circle id="Oval" fill="#FFC781" fill-rule="nonzero" cx="161.311475" cy="106.229508" r="20.6557377"></circle>
                <path d="M174.778228,97.2143438 C177.26997,97.5504679 180.444488,96.7121348 180.923216,94.2287705 C181.531436,91.0850212 177.360222,89.0445499 176.716685,85.924527 C176.473397,84.7382065 176.763773,83.5202508 176.622509,82.3299759 C176.343905,79.9256997 174.413296,78.0750397 172.451295,76.6791359 C166.238439,72.2878338 158.681671,70.2589524 151.124342,70.9531623 C150.19043,71.0441135 149.205505,71.1943808 148.483489,71.7954498 C147.663372,72.4756069 147.345528,73.578885 146.784396,74.4923518 C144.853787,77.6321467 140.505992,78.0038604 137.417802,79.9612893 C133.780252,82.2508878 131.983059,86.7470425 131.818251,91.0652492 C131.653443,95.3834558 132.877732,99.61862 134.086324,103.762833 C135.114413,107.290159 136.193514,110.908437 138.449815,113.79515 C140.706116,116.681863 144.453539,118.698608 147.992989,117.82864 C146.368452,116.642319 147.549576,113.909828 149.307529,112.952862 C151.065482,111.995897 153.231532,111.829812 154.757969,110.501133 C156.284405,109.172454 156.71997,107.005442 157.202622,105.032196 C157.822614,102.540923 158.717287,100.018015 160.518404,98.1989898 C164.057854,94.6004843 170.42651,96.6251379 174.778228,97.2143438 Z" id="Shape" fill="#000000" fill-rule="nonzero" opacity="0.1"></path>
                <path d="M174.780208,97.2374496 C177.271155,97.5735838 180.44466,96.7352256 180.923235,94.2517873 C181.531261,91.1079441 177.361378,89.067412 176.718047,85.947296 C176.474836,84.7609401 176.76512,83.542948 176.623901,82.3526376 C176.325772,79.928517 174.387933,78.0698928 172.426558,76.6818564 C166.219388,72.2917609 158.669648,70.2615381 151.118178,70.9517573 C150.184563,71.0427113 149.199953,71.192983 148.478167,71.79407 C147.658312,72.4742474 147.340569,73.5775584 146.779616,74.4910525 C144.849623,77.6309411 140.503216,78.0026659 137.416011,79.9601532 C133.779622,82.2498201 131.983002,86.7461089 131.818246,91.0644444 C131.653491,95.3827799 132.877389,99.6180705 134.085596,103.762407 C135.113357,107.289839 136.192113,110.908224 138.447694,113.795024 C140.703276,116.681823 144.449502,118.698628 147.987823,117.828634 C146.363805,116.642278 147.544552,113.909705 149.301945,112.952711 C151.059337,111.995717 153.224695,111.829627 154.750645,110.500909 C156.276595,109.17219 156.71202,107.005113 157.194518,105.031808 C157.814313,102.540461 158.7087,100.017477 160.509242,98.1983979 C164.04364,94.6353757 170.425955,96.6561353 174.780208,97.2374496 Z" id="Shape" fill="#72351C" fill-rule="nonzero"></path>
                <path d="M159.191166,108.899368 C158.878515,111.054831 158.184186,114.785134 156.876736,117.13944 C155.149268,120.201749 153.672079,123.393218 152.459016,126.683926 C152.459016,126.683926 160.985864,133.146338 165.310194,137.560663 C168.022368,140.388303 172.180647,141.385834 175.920029,140.105859 C178.177614,139.310485 180.15503,137.747576 180.678822,134.840484 C181.490903,130.247201 180.524527,126.783348 179.598755,124.731283 C178.701176,122.769002 178.695274,120.52597 179.582513,118.559183 C179.903285,117.863231 180.276842,117.322376 180.695064,117.183186 C180.695064,117.183186 172.367176,115.369734 171.90429,117.636549 C171.441404,119.903364 164.96506,122.166203 163.576402,118.089912 L163.194724,109.098211 C163.151127,108.044389 162.265725,107.212311 161.188884,107.213175 C160.185639,107.205501 159.331553,107.9264 159.191166,108.899368 Z" id="Shape" fill="#000000" fill-rule="nonzero" opacity="0.1"></path>
                <path d="M159.191166,108.884206 C158.878515,111.040698 158.184186,114.772782 156.876736,117.128212 C155.149268,120.191984 153.672079,123.384976 152.459016,126.677255 C152.459016,126.677255 160.985864,133.142753 165.310194,137.559185 C168.022368,140.388175 172.180647,141.386182 175.920029,140.105596 C178.177614,139.309843 180.15503,137.746187 180.678822,134.837708 C181.490903,130.242231 180.524527,126.776724 179.598755,124.72368 C178.69247,122.757625 178.682136,120.506683 179.570332,118.532717 C179.891104,117.836433 180.264661,117.295321 180.682883,117.156064 C180.682883,117.156064 172.354995,115.341746 171.892109,117.609643 C171.429223,119.877541 164.96506,122.161354 163.564221,118.095053 L163.182543,109.099059 C163.138946,108.044734 162.253544,107.212258 161.176703,107.213123 C160.183416,107.210291 159.338241,107.921613 159.191166,108.884206 Z" id="Shape" fill="#72351C" fill-rule="nonzero"></path>
                <path d="M319.672131,237.324197 C319.672131,237.324197 311.495704,229.177093 308.489607,218.349865 L309.192486,218.349865 L308.854945,217.409055 L309.192486,217.409055 L308.12824,214.396879 C311.14228,211.447952 313.370048,208.589943 313.731415,206.965266 C314.342959,204.2298 314.950533,189.429821 315.319842,179.144152 L315.645469,179.223212 C316.439683,177.871291 316.606468,176.167554 316.550873,174.621936 C316.580914,172.885784 316.356164,171.154567 315.883733,169.483055 L314.410468,154.797712 C314.123926,152.067407 312.724281,149.573808 310.538677,147.899752 L295.607466,136.368893 C296.393286,135.313801 297.391391,134.433329 298.538113,133.78364 C299.391893,133.333 300.384659,133.024667 300.960464,132.253834 C302.000884,130.85843 301.115336,128.77916 301.826157,127.19006 C302.35828,126.004164 303.668732,125.340062 304.435148,124.276709 C306.003719,122.098614 304.867994,119.090392 303.696529,116.67907 L296.890121,102.673642 C295.003864,98.7957626 293.101723,94.8862596 290.464934,91.4708799 C282.391755,81.0033735 266.856942,75.7972912 254.19321,80.3353189 C250.58351,81.6279452 247.259727,84.1104203 245.718953,87.6048598 C245.182859,88.8223794 244.861202,90.1505826 244.082873,91.2297477 C242.347517,93.6371161 238.960197,94.0917095 236.537846,95.8231172 C233.444385,98.0486482 232.296747,102.238813 232.729593,106.013915 C233.162439,109.789016 234.901767,113.27555 236.617268,116.686976 C238.420132,120.244664 240.282562,123.909081 243.241007,126.605018 C244.622938,127.86602 246.314613,129.036104 246.755401,130.850524 C247.132653,132.408001 246.465513,134.012913 246.604501,135.625731 C246.662481,136.296583 246.859916,136.948113 247.184277,137.538976 C240.500971,138.373056 235.759517,143.899331 233.634996,152.121541 C233.503951,152.631476 233.452327,152.912138 233.452327,152.912138 L232.511185,161.42687 C232.491329,161.794497 232.511185,162.150266 232.511185,162.502082 C232.425727,164.417918 232.835934,166.323502 233.702505,168.036262 L233.702505,197.932693 L205.110823,215.950403 C200.822071,217.847836 201.775127,233.023348 210.352631,235.865545 C218.930136,238.707742 226.558555,220.721657 226.558555,220.721657 C231.780508,220.373794 240.564508,213.440257 245.286107,208.072102 C245.924241,209.097435 246.772706,209.97706 247.775966,210.653402 C244.36879,218.298476 237.62989,234.114373 238.706049,237.324197 C239.353333,239.26116 256.087408,239.439044 274.175618,239.059558 C274.638169,239.315433 275.123354,239.528472 275.625057,239.695988 C277.554996,240.336372 279.437282,239.917356 281.184551,238.885626 C300.753969,238.328255 319.672131,237.324197 319.672131,237.324197 Z M295.524074,179.35366 C295.92118,178.258683 297.22369,177.661782 298.966989,177.377167 L298.966989,188.908027 L295.524074,179.35366 Z M293.860197,138.835556 L293.915791,138.752543 L293.860197,138.835556 Z" id="Shape" fill="url(#linearGradient-18)" fill-rule="nonzero"></path>
                <path d="M250.819672,164.478049 C250.819672,164.478049 249.916278,196.576308 249.012884,200.647616 C248.109489,204.718924 235.026121,216.901104 228.246702,217.373313 C228.246702,217.373313 221.02351,234.551377 212.896923,231.84114 C204.770337,229.130902 203.866943,214.663075 207.932217,212.853605 L235.026121,195.671572 L235.026121,161.311475 L250.819672,164.478049 Z" id="Shape" fill="#FDB797" fill-rule="nonzero"></path>
                <path d="M251.456089,203.606557 C251.456089,203.606557 239.739524,229.1488 241.092348,233.256377 C242.445172,237.363954 317.704918,233.256377 317.704918,233.256377 C317.704918,233.256377 303.733646,219.116064 306.439294,203.606557 L251.456089,203.606557 Z" id="Shape" fill="#55BC8A" fill-rule="nonzero"></path>
                <path d="M260.48317,128.660003 C260.48317,128.660003 262.312674,146.709209 259.111042,150.877223 C255.909409,155.045236 271.909547,157.377049 273.281675,157.377049 C274.653803,157.377049 289.281812,152.286873 292.022056,150.877223 C294.7623,149.467573 297.04918,139.307532 297.04918,139.307532 C297.04918,139.307532 283.335923,142.086207 279.223551,125.901639 L260.48317,128.660003 Z" id="Shape" fill="#FFD8AA" fill-rule="nonzero"></path>
                <path d="M255.517163,84.1868257 C252.092702,85.4163901 248.934104,87.7727257 247.473847,91.0937356 C246.965932,92.2481819 246.660389,93.509375 245.922325,94.5373066 C244.275568,96.8224777 241.061416,97.2534183 238.779765,98.8862482 C235.843379,101.001415 234.756123,104.97872 235.164836,108.568574 C235.573549,112.158427 237.224274,115.467576 238.851191,118.6937 C240.561437,122.081921 242.331204,125.553167 245.136643,128.115089 C246.446112,129.301164 248.053188,130.423982 248.469838,132.147744 C248.826966,133.626384 248.196039,135.172235 248.326986,136.686457 C248.65237,140.430501 253.144246,142.174031 256.89409,142.589157 C258.524974,142.771022 260.389976,142.778929 261.540722,141.612622 C262.127999,141.011678 262.425605,140.197239 262.794638,139.446059 C264.534557,135.937735 268.105969,133.701615 272.033375,133.661533 C275.96078,133.62145 279.577417,135.78421 281.389101,139.256287 C282.270017,140.940513 282.7819,142.988469 284.38104,144.000586 C286.82935,145.58202 290.106992,143.727789 291.920408,141.442618 C293.733825,139.157447 295.035358,136.30296 297.610647,134.931067 C298.404265,134.500126 299.364542,134.211514 299.912139,133.476148 C300.900193,132.151698 300.058958,130.174906 300.733533,128.668591 C301.241448,127.533912 302.48346,126.9132 303.20962,125.901082 C304.697654,123.833358 303.606429,120.974918 302.507269,118.685793 L296.04722,105.381985 C294.257612,101.697246 292.452132,97.9848312 289.952236,94.7389394 C282.273985,84.8233526 267.532535,79.87742 255.517163,84.1868257 Z" id="Shape" fill="#6B7B95" fill-rule="nonzero"></path>
                <path d="M272.120665,153.957409 C272.120665,153.957409 289.728026,153.957409 294.245782,137.704918 L309.067193,149.200582 C311.135396,150.804401 312.453688,153.188006 312.713102,155.792751 L314.112021,169.777821 C314.112021,169.777821 315.697199,174.97069 313.886133,178.13398 C313.886133,178.13398 295.149333,173.377153 294.697558,178.811827 L307.775273,215.391823 C307.775273,215.391823 287.457259,215.843722 282.039914,212.220606 C282.039914,212.220606 259.914797,216.735627 254.497453,211.768707 C249.080108,206.801787 243.662763,207.253686 248.156742,195.960187 C248.156742,195.960187 239.125192,186.926181 243.191173,174.28095 C247.257154,161.63572 243.417061,174.506899 243.417061,174.506899 C243.417061,174.506899 234.647065,170.217827 235.098841,162.067798 L236.002392,153.937589 C236.002392,153.937589 236.049948,153.668035 236.176762,153.184424 C238.931008,142.481565 246.325862,136.535532 256.724627,140.325137 C259.764205,141.427135 262.871153,140.162612 262.871153,140.162612 C262.871153,140.162612 259.478873,154.861206 272.120665,153.957409 Z" id="Shape" fill="#000000" fill-rule="nonzero" opacity="0.1"></path>
                <path d="M272.120665,152.973802 C272.120665,152.973802 289.728026,152.973802 294.245782,136.721311 L309.067193,148.216976 C311.135396,149.820795 312.453688,152.2044 312.713102,154.809144 L314.112021,168.794214 C314.112021,168.794214 315.697199,173.987083 313.886133,177.150373 C313.886133,177.150373 295.149333,172.393546 294.697558,177.828221 L307.775273,214.408217 C307.775273,214.408217 287.457259,214.860115 282.039914,211.236999 C282.039914,211.236999 259.914797,215.75202 254.497453,210.785101 C249.080108,205.818181 243.662763,206.270079 248.156742,194.97658 C248.156742,194.97658 239.125192,185.942574 243.191173,173.297344 C247.257154,160.652113 243.417061,173.523293 243.417061,173.523293 C243.417061,173.523293 234.647065,169.234221 235.098841,161.104011 L236.002392,152.973802 C236.002392,152.973802 236.049948,152.704249 236.176762,152.220638 C238.931008,141.517778 246.325862,135.571745 256.724627,139.36135 C259.764205,140.463348 262.871153,139.198825 262.871153,139.198825 C262.871153,139.198825 259.478873,153.877599 272.120665,152.973802 Z" id="Shape" fill="#252A62" fill-rule="nonzero"></path>
                <path d="M313.770492,168.420055 C313.770492,168.420055 312.867098,200.514718 311.963703,204.58557 C311.060309,208.656422 297.969016,220.853108 291.197521,221.309393 C291.197521,221.309393 283.974329,238.485532 275.847743,235.775598 C267.721157,233.065665 266.817762,218.599459 270.883037,216.790191 L297.969016,199.614052 L297.969016,165.245902 L313.770492,168.420055 Z" id="Shape" fill="#FFD8AA" fill-rule="nonzero"></path>
                <path d="M293.114754,169.69015 C293.114754,169.69015 303.555591,176.607305 312.641511,176.031524 C312.641511,176.031524 313.550102,164.150201 310.824327,163.48494 C308.098551,162.819679 296.274901,163.48494 293.114754,169.69015 Z" id="Shape" fill="#000000" fill-rule="nonzero" opacity="0.1"></path>
                <path d="M293.114754,169.69015 C293.114754,169.69015 303.555591,176.607305 312.641511,176.031524 C312.641511,176.031524 313.550102,164.150201 310.824327,163.48494 C308.098551,162.819679 296.274901,163.48494 293.114754,169.69015 Z" id="Shape" fill="#252A62" fill-rule="nonzero"></path>
                <path d="M280.422103,126.885246 L261.639344,129.531491 C261.639344,129.531491 262.061564,133.508596 262.146008,138.077625 C269.597433,141.101128 278.189809,139.757396 284.262295,134.618936 C282.677965,132.758053 281.32284,130.243347 280.422103,126.885246 Z" id="Shape" fill="#000000" fill-rule="nonzero" opacity="0.1"></path>
                <circle id="Oval" fill="#FFD8AA" fill-rule="nonzero" cx="268.52459" cy="120" r="20.6557377"></circle>
                <path d="M274.167254,115.83044 C273.28347,116.17168 272.337757,116.31044 271.396296,116.237009 C267.728075,116.212615 264.061173,116.077092 260.395592,115.83044 C257.624633,115.639352 254.65575,115.301899 252.514195,113.476402 C249.632398,111.036985 249.177169,106.41429 250.66557,102.885267 C252.15397,99.3562436 255.190149,96.7541989 258.396543,94.7538769 C260.207472,93.5806488 262.168602,92.6720552 264.223472,92.0542554 C270.16124,90.3954519 276.748204,92.4323651 281.470708,96.4980601 C286.193213,100.563755 289.20564,106.434619 290.80092,112.549424 C291.351153,114.663585 292.059727,117.184316 294.098361,117.834827 C292.740591,120.152274 289.427317,120.522252 287.05221,119.359463 C283.544968,117.647805 281.747804,111.093905 278.600787,110.061219 C275.089587,108.902495 277.132179,114.431841 274.167254,115.83044 Z" id="Shape" fill="#000000" fill-rule="nonzero" opacity="0.1"></path>
                <path d="M274.16943,115.822308 C273.285567,116.163548 272.33977,116.302308 271.398224,116.228878 C267.729675,116.204484 264.062446,116.068961 260.396536,115.822308 C257.62533,115.631221 254.656181,115.293768 252.514434,113.468271 C249.63238,111.028854 249.17711,106.406159 250.665644,102.877136 C252.154177,99.3481123 255.190628,96.7460675 258.397309,94.7457455 C260.207606,93.5756948 262.167539,92.6698568 264.2208,92.0542554 C270.159099,90.3954519 276.746652,92.4323651 281.469579,96.4980601 C286.192506,100.563755 289.205203,106.434619 290.800625,112.549424 C291.350908,114.663585 292.059545,117.184316 294.098361,117.834827 C292.74047,120.152274 289.426899,120.522252 287.05158,119.359463 C283.544024,117.647805 281.746699,111.093905 278.599401,110.061219 C275.091846,108.894364 277.134621,114.415578 274.16943,115.822308 Z" id="Shape" fill="#6B7B95" fill-rule="nonzero"></path>
                <path d="M247.868852,194.754098 C254.92701,192.784451 262.202447,191.792377 269.508197,191.803369" id="Shape" fill="#000000" fill-rule="nonzero" opacity="0.1"></path>
                <path d="M294.098361,170.163934 C294.098361,170.163934 287.780551,175.254111 289.466286,178.032787" id="Shape" fill="#000000" fill-rule="nonzero" opacity="0.1"></path>
                <g id="Group" opacity="0.7" transform="translate(118.032787, 219.344262)" fill="url(#linearGradient-19)" fill-rule="nonzero">
                    <polygon id="Shape" points="222.021671 0.166055931 0.356623126 0.166055931 0.356623126 19.5076181 13.2584553 19.5076181 13.2584553 23.27946 13.2584553 80.3473481 209.579486 80.3473481 209.579486 23.27946 209.579486 19.5076181 222.021671 19.5076181"></polygon>
                </g>
                <rect id="Rectangle-path" fill="#E3E9EF" fill-rule="nonzero" x="133.770492" y="231.147541" width="192.786885" height="68.852459"></rect>
                <rect id="Rectangle-path" fill="#404E68" fill-rule="nonzero" opacity="0.1" x="133.770492" y="235.081967" width="192.786885" height="10.8196721"></rect>
                <rect id="Rectangle-path" fill="#E3E9EF" fill-rule="nonzero" x="120" y="223.278689" width="216.393443" height="18.6885246"></rect>
                <rect id="Rectangle-path" fill="#36435C" fill-rule="nonzero" x="152.459016" y="218.360656" width="41.3114754" height="5.90163934" rx="2.95081967"></rect>
                <g id="Group" opacity="0.7" transform="translate(178.032787, 153.442623)" fill="url(#linearGradient-20)" fill-rule="nonzero">
                    <rect id="Rectangle-path" x="0.37407083" y="0.359016393" width="103.673332" height="71.0655197" rx="28.22"></rect>
                </g>
                <rect id="Rectangle-path" fill="#36435C" fill-rule="nonzero" x="180" y="154.42623" width="98.3606557" height="69.8360656" rx="26.84"></rect>
                <rect id="Rectangle-path" fill="#404E68" fill-rule="nonzero" x="181.967213" y="154.42623" width="98.3606557" height="69.8360656" rx="26.84"></rect>
                <circle id="Oval" fill="#E0E0E0" fill-rule="nonzero" cx="234.098361" cy="189.836066" r="2.95081967"></circle>
                <path d="M105.245902,232.131148 C105.245902,232.131148 107.974094,235.895803 116.065574,237.04918" id="Shape" fill="#000000" fill-rule="nonzero" opacity="0.1"></path>
                <path d="M176.065574,31.4754098 L147.540984,31.4754098 L147.540984,15.7377049 L176.065574,15.7377049 L176.065574,31.4754098 Z M148.746248,30.295082 L174.860309,30.295082 L174.860309,16.9180328 L148.746248,16.9180328 L148.746248,30.295082 Z" id="Shape" fill="#6B7B95" fill-rule="nonzero" opacity="0.2"></path>
                <path d="M204.590164,31.4754098 L176.065574,31.4754098 L176.065574,15.7377049 L204.590164,15.7377049 L204.590164,31.4754098 Z M177.270838,30.295082 L203.3849,30.295082 L203.3849,16.9180328 L177.270838,16.9180328 L177.270838,30.295082 Z" id="Shape" fill="#6B7B95" fill-rule="nonzero" opacity="0.2"></path>
                <path d="M232.131148,31.4754098 L203.606557,31.4754098 L203.606557,15.7377049 L232.131148,15.7377049 L232.131148,31.4754098 Z M204.811822,30.295082 L230.925883,30.295082 L230.925883,16.9180328 L204.811822,16.9180328 L204.811822,30.295082 Z" id="Shape" fill="#6B7B95" fill-rule="nonzero" opacity="0.2"></path>
                <path d="M259.672131,31.4754098 L231.147541,31.4754098 L231.147541,15.7377049 L259.672131,15.7377049 L259.672131,31.4754098 Z M232.352805,30.295082 L258.466867,30.295082 L258.466867,16.9180328 L232.352805,16.9180328 L232.352805,30.295082 Z" id="Shape" fill="#6B7B95" fill-rule="nonzero" opacity="0.2"></path>
                <path d="M232.131148,15.7377049 L203.606557,15.7377049 L203.606557,0 L232.131148,0 L232.131148,15.7377049 Z M204.811822,14.557377 L230.925883,14.557377 L230.925883,1.18032787 L204.811822,1.18032787 L204.811822,14.557377 Z" id="Shape" fill="#6B7B95" fill-rule="nonzero" opacity="0.2"></path>
                <path d="M204.590164,15.7377049 L176.065574,15.7377049 L176.065574,0 L204.590164,0 L204.590164,15.7377049 Z M177.270838,14.557377 L203.3849,14.557377 L203.3849,1.18032787 L177.270838,1.18032787 L177.270838,14.557377 Z" id="Shape" fill="#6B7B95" fill-rule="nonzero" opacity="0.2"></path>
                <path d="M71.8032787,31.4754098 L43.2786885,31.4754098 L43.2786885,15.7377049 L71.8032787,15.7377049 L71.8032787,31.4754098 Z M44.4839529,30.295082 L70.5980143,30.295082 L70.5980143,16.9180328 L44.4839529,16.9180328 L44.4839529,30.295082 Z" id="Shape" fill="#6B7B95" fill-rule="nonzero" opacity="0.2"></path>
                <path d="M100.327869,31.4754098 L71.8032787,31.4754098 L71.8032787,15.7377049 L100.327869,15.7377049 L100.327869,31.4754098 Z M73.0085431,30.295082 L99.1226045,30.295082 L99.1226045,16.9180328 L73.0085431,16.9180328 L73.0085431,30.295082 Z" id="Shape" fill="#6B7B95" fill-rule="nonzero" opacity="0.2"></path>
                <path d="M100.327869,15.7377049 L71.8032787,15.7377049 L71.8032787,0 L100.327869,0 L100.327869,15.7377049 Z M73.0085431,14.557377 L99.1226045,14.557377 L99.1226045,1.18032787 L73.0085431,1.18032787 L73.0085431,14.557377 Z" id="Shape" fill="#6B7B95" fill-rule="nonzero" opacity="0.2"></path>
                <path d="M317.704918,31.4754098 L289.180328,31.4754098 L289.180328,15.7377049 L317.704918,15.7377049 L317.704918,31.4754098 Z M290.385592,30.295082 L316.499654,30.295082 L316.499654,16.9180328 L290.385592,16.9180328 L290.385592,30.295082 Z" id="Shape" fill="#6B7B95" fill-rule="nonzero" opacity="0.2"></path>
                <path d="M345.245902,31.4754098 L316.721311,31.4754098 L316.721311,15.7377049 L345.245902,15.7377049 L345.245902,31.4754098 Z M317.926576,30.295082 L344.040637,30.295082 L344.040637,16.9180328 L317.926576,16.9180328 L317.926576,30.295082 Z" id="Shape" fill="#6B7B95" fill-rule="nonzero" opacity="0.2"></path>
                <path d="M345.245902,15.7377049 L316.721311,15.7377049 L316.721311,0 L345.245902,0 L345.245902,15.7377049 Z M317.926576,14.557377 L344.040637,14.557377 L344.040637,1.18032787 L317.926576,1.18032787 L317.926576,14.557377 Z" id="Shape" fill="#6B7B95" fill-rule="nonzero" opacity="0.2"></path>
            </g>
        </g>
    </g>
</svg>