<?xml version="1.0" encoding="UTF-8"?>
<svg width="71px" height="71px" viewBox="0 0 71 71" version="1.1" xmlns="http://www.w3.org/2000/svg" xmlns:xlink="http://www.w3.org/1999/xlink">
    <!-- Generator: Sketch 49.3 (51167) - http://www.bohemiancoding.com/sketch -->
    <title>enterprise_feature_06</title>
    <desc>Created with Sketch.</desc>
    <defs>
        <polygon id="path-1" points="35.2229708 50.8023618 0.0260621351 30.4814171 0.0260621351 20.3209447 35.2229708 40.6418894"></polygon>
        <polygon id="path-2" points="12.2207833 3.52653061 6.11265306 0 0.00452286637 3.52653061 6.11265306 7.05306122 12.2207833 3.52653061"></polygon>
    </defs>
    <g id="home" stroke="none" stroke-width="1" fill="none" fill-rule="evenodd">
        <g id="Artboard" transform="translate(-1125.000000, -1176.000000)">
            <g id="Group-26" transform="translate(0.000000, 752.000000)">
                <g id="Group-15" transform="translate(140.000000, 0.000000)">
                    <g id="Group-4" transform="translate(0.000000, 145.000000)">
                        <g id="Group-34">
                            <g id="Group">
                                <g id="item" transform="translate(880.000000, 279.000000)">
                                    <g id="enterprise_feature_06" transform="translate(105.000000, 0.000000)">
                                        <rect id="bound" stroke="#F5F9FA" stroke-width="0.01" x="0.005" y="0.005" width="70.5206122" height="70.5206122"></rect>
                                        <g id="cube" transform="translate(0.000000, 19.983673)">
                                            <g id="Combined-Shape" opacity="0.5">
                                                <use fill="#6DC99F" xlink:href="#path-1"></use>
                                                <use fill="#86DBA2" xlink:href="#path-1"></use>
                                            </g>
                                            <polygon id="Combined-Shape" fill="#00A971" opacity="0.5" transform="translate(52.821425, 35.561653) scale(-1, 1) translate(-52.821425, -35.561653) " points="70.4198795 50.8023618 35.2229708 30.4814171 35.2229708 20.3209447 70.4198795 40.6418894"></polygon>
                                            <polygon id="Combined-Shape" fill="#00AA72" opacity="0.400000006" points="70.3938174 20.3209447 35.1969087 0 0 20.3209447 35.1969087 40.6418894 70.3938174 20.3209447"></polygon>
                                            <polygon id="Combined-Shape" fill="#3D3E49" points="43.4938776 20.0324006 35.2653061 15.2816327 27.0367347 20.0324006 35.2653061 24.7831685 43.4938776 20.0324006"></polygon>
                                            <polygon id="Combined-Shape" fill="#00AA72" points="35.2653061 15.2816327 27.0367347 20.0324006 30.3657353 21.9694907 35.2653061 19.0127354 40.0797999 21.9694907 43.4938776 20.0324006"></polygon>
                                        </g>
                                        <g id="cube" transform="translate(29.387755, 0.000000)">
                                            <polygon id="Combined-Shape" fill="#00AA72" points="6.11265306 14.1061224 0.00452286637 10.5795918 0.00452286637 3.52653061 6.11265306 7.05306122"></polygon>
                                            <polygon id="Combined-Shape" fill="#3D3E49" transform="translate(9.166718, 8.816327) scale(-1, 1) translate(-9.166718, -8.816327) " points="12.2207833 14.1061224 6.11265306 10.5795918 6.11265306 3.52653061 12.2207833 7.05306122"></polygon>
                                            <g id="Combined-Shape">
                                                <use fill="#6DC99F" xlink:href="#path-2"></use>
                                                <use fill="#86DBA2" xlink:href="#path-2"></use>
                                            </g>
                                        </g>
                                    </g>
                                </g>
                            </g>
                        </g>
                    </g>
                </g>
            </g>
        </g>
    </g>
</svg>