<?xml version="1.0" encoding="UTF-8"?>
<svg width="24px" height="24px" viewBox="0 0 24 24" version="1.1" xmlns="http://www.w3.org/2000/svg" xmlns:xlink="http://www.w3.org/1999/xlink">
    <!-- Generator: Sketch 49.3 (51167) - http://www.bohemiancoding.com/sketch -->
    <title>Glyph/004.Company/005.Github/White</title>
    <desc>Created with Sketch.</desc>
    <defs></defs>
    <g id="Glyph/004.Company/005.Github/White" stroke="none" stroke-width="1" fill="none" fill-rule="evenodd" opacity="0.900000036">
        <path d="M11.999408,3.00226194 C7.02950338,3.00226194 3,7.03172998 3,12.0016699 C3,15.9783005 5.57834566,19.3508342 9.15448927,20.5410207 C9.60445614,20.624253 9.7698251,20.3452923 9.7698251,20.10793 C9.7698251,19.8930458 9.76081269,19.184352 9.75745512,18.432911 C7.25336468,18.9773669 6.72576736,17.3709659 6.72576736,17.3709659 C6.31628567,16.3304032 5.72683844,16.053669 5.72683844,16.053669 C4.910137,15.4945813 5.78868834,15.5069689 5.78868834,15.5069689 C6.69201498,15.5699675 7.16785278,16.4339045 7.16785278,16.4339045 C7.97105326,17.8097114 9.27371821,17.4114864 9.78668362,17.1820056 C9.86767165,16.6004045 10.1005277,16.2033104 10.358159,15.9783182 C8.35917023,15.7510816 6.25779333,14.9793893 6.25779333,11.530356 C6.25779333,10.5482856 6.60989598,9.74508514 7.18474664,9.11513506 C7.09137096,8.88788086 6.78314639,7.97333288 7.27135417,6.7336488 C7.27135417,6.7336488 8.027319,6.49179802 9.74732941,7.6560959 C10.4650357,7.45699223 11.2344838,7.35688375 11.9994434,7.35349084 C12.7644029,7.35688375 13.5349643,7.45699223 14.2538016,7.6560959 C15.9715677,6.49179802 16.7264016,6.7336488 16.7264016,6.7336488 C17.215758,7.97333288 16.9086467,8.8890295 16.815271,9.11513506 C17.3923483,9.74510281 17.7410757,10.5482856 17.7410757,11.530356 C17.7410757,14.9872354 15.6352103,15.7477064 13.6317153,15.9704367 C13.9545717,16.2494328 14.2425449,16.7972639 14.2425449,17.636461 C14.2425449,18.8401484 14.2324192,19.8098312 14.2324192,20.1056858 C14.2324192,20.3452923 14.3944129,20.6254017 14.8511302,20.5376455 C18.4250296,19.3463457 21,15.9738296 21,11.9994434 C21,7.02950338 16.9705143,3 12.0005566,3 L11.9994434,3.0022266 L11.999408,3.00226194 Z" id="Shape" fill="#FFFFFF" fill-rule="nonzero"></path>
    </g>
</svg>