<?xml version="1.0" encoding="UTF-8"?>
<svg width="21px" height="20px" viewBox="0 0 21 20" version="1.1" xmlns="http://www.w3.org/2000/svg" xmlns:xlink="http://www.w3.org/1999/xlink">
    <!-- Generator: Sketch 50.2 (55047) - http://www.bohemiancoding.com/sketch -->
    <title>Shape</title>
    <desc>Created with Sketch.</desc>
    <defs></defs>
    <g id="Page-1" stroke="none" stroke-width="1" fill="none" fill-rule="evenodd">
        <g id="安装" transform="translate(-1194.000000, -42.000000)" fill="#242e42" fill-rule="nonzero">
            <g id="Group" transform="translate(1172.000000, 32.000000)">
                <path d="M32.2522037,10.0025768 C26.5904452,10.0025768 22,14.5929818 22,20.2547805 C22,24.7849925 24.9372737,28.6270122 29.0112476,29.9828829 C29.5238537,30.0777019 29.7122435,29.7599074 29.7122435,29.4895023 C29.7122435,29.2447043 29.7019764,28.4373541 29.6981515,27.5813061 C26.8454699,28.2015549 26.2444265,26.371529 26.2444265,26.371529 C25.7779414,25.1861109 25.106438,24.870853 25.106438,24.870853 C24.1760446,24.2339353 25.1768979,24.2480475 25.1768979,24.2480475 C26.2059755,24.3198159 26.748054,25.3040206 26.748054,25.3040206 C27.663067,26.8713517 29.1470742,26.4176903 29.7314488,26.1562638 C29.8237111,25.4936987 30.0889827,25.0413258 30.3824786,24.7850126 C28.1052132,24.5261428 25.7113064,23.6470241 25.7113064,19.7178556 C25.7113064,18.5990725 26.1124248,17.6840595 26.7672997,16.9664149 C26.6609253,16.7075249 26.3097932,15.6656639 26.8659637,14.2534051 C26.8659637,14.2534051 27.7271654,13.9778866 29.6866162,15.3042648 C30.5042334,15.0774442 31.3807953,14.9633997 32.2522439,14.9595345 C33.1236925,14.9633997 34.0015227,15.0774442 34.8204283,15.3042648 C36.7773224,13.9778866 37.6372357,14.2534051 37.6372357,14.2534051 C38.1947148,15.6656639 37.844851,16.7088335 37.7384766,16.9664149 C38.395888,17.6840796 38.7931613,18.5990725 38.7931613,19.7178556 C38.7931613,23.6559625 36.3941411,24.5222977 34.1117422,24.776034 C34.4795431,25.0938687 34.8076046,25.7179627 34.8076046,26.6739833 C34.8076046,28.0452345 34.7960693,29.1499055 34.7960693,29.4869456 C34.7960693,29.7599074 34.980614,30.0790104 35.5009103,29.9790378 C39.5723275,28.6218988 42.5057561,24.7798992 42.5057561,20.2522439 C42.5057561,14.5904452 37.915331,10 32.2535122,10 L32.2522439,10.0025366 L32.2522037,10.0025768 Z" id="Shape"></path>
            </g>
        </g>
    </g>
</svg>