<?xml version="1.0" encoding="UTF-8"?>
<svg width="24px" height="24px" viewBox="0 0 24 24" version="1.1" xmlns="http://www.w3.org/2000/svg" xmlns:xlink="http://www.w3.org/1999/xlink">
    <!-- Generator: sketchtool 51.1 (57501) - http://www.bohemiancoding.com/sketch -->
    <title>8C75F48C-AF7D-464A-9272-2780CF7474AC</title>
    <desc>Created with sketchtool.</desc>
    <defs></defs>
    <g id="002.Object" stroke="none" stroke-width="1" fill="none" fill-rule="evenodd">
        <g id="Glyph/002.Object/083.Nodes/Green" fill="currentColor">
            <g id="Group-2" transform="translate(3.000000, 3.000000)">
                <path d="M9.08364293e-17,2.74775 C9.08364293e-17,2.33525 0.36,2 0.819818182,2 L17.1801818,2 C17.6318182,2 18,2.33975 18,2.74775 L18,7.25225 C18,7.66475 17.64,8 17.1801818,8 L0.819818182,8 C0.369006873,7.99918684 0.00314224004,7.66548446 0,7.25225 L9.08364293e-17,2.74775 Z M4,3 L4,5 L6,5 L6,3 L4,3 Z M1,3 L1,5 L3,5 L3,3 L1,3 Z" id="Combined-Shape" fill-rule="nonzero"></path>
                <path d="M9.08364293e-17,10.74775 C9.08364293e-17,10.33525 0.36,10 0.819818182,10 L17.1801818,10 C17.6318182,10 18,10.33975 18,10.74775 L18,15.25225 C18,15.66475 17.64,16 17.1801818,16 L0.819818182,16 C0.369006873,15.9991868 0.00314224004,15.6654845 0,15.25225 L9.08364293e-17,10.74775 Z M4,11 L4,13 L6,13 L6,11 L4,11 Z M1,11 L1,13 L3,13 L3,11 L1,11 Z" id="Combined-Shape-Copy" fill-rule="nonzero"></path>
                <rect id="Rectangle-43" fill-opacity="0.4" x="8" y="0" width="2" height="2"></rect>
                <rect id="Rectangle-43-Copy" fill-opacity="0.4" x="8" y="8" width="2" height="2"></rect>
                <rect id="Rectangle-43-Copy-4" fill-opacity="0.4" x="8" y="16" width="2" height="2"></rect>
            </g>
        </g>
    </g>
</svg>