<?xml version="1.0" encoding="UTF-8"?>
<svg width="30px" height="34px" viewBox="0 0 30 34" version="1.1" xmlns="http://www.w3.org/2000/svg" xmlns:xlink="http://www.w3.org/1999/xlink">
    <!-- Generator: Sketch 51.1 (57501) - http://www.bohemiancoding.com/sketch -->
    <title>Glyph/002.Object/076.Cluster/Black Copy</title>
    <desc>Created with Sketch.</desc>
    <defs></defs>
    <g id="Page-1" stroke="none" stroke-width="1" fill="none" fill-rule="evenodd">
        <g id="安装" transform="translate(-771.000000, -970.000000)">
            <g id="Glyph/002.Object/069.Paper/Black" transform="translate(766.000000, 967.000000)">
                <path d="M31.6666667,31.6666667 L12.5,31.6666667 C13.8807119,31.6666667 15,32.7859548 15,34.1666667 C15,35.5473785 13.8807119,36.6666667 12.5,36.6666667 C11.1192881,36.6666667 10,35.5473785 10,34.1666667 L10,5.83333333 C10,4.45262146 8.88071187,3.33333333 7.5,3.33333333 L29.1666667,3.33333333 C30.5473785,3.33333333 31.6666667,4.45262146 31.6666667,5.83333333 L31.6666667,31.6666667 Z" id="Combined-Shape" fill="currentColor" fill-opacity="0.4"></path>
                <path d="M12.5,31.6666667 L32.5032895,31.6666667 C33.8840014,31.6666667 35.0032895,32.7859548 35.0032895,34.1666667 C35.0032895,35.5473785 33.8840014,36.6666667 32.5032895,36.6666667 L12.5,36.6666667 C13.8807119,36.6666667 15,35.5473785 15,34.1666667 C15,32.7859548 13.8807119,31.6666667 12.5,31.6666667 Z" id="Combined-Shape" fill="currentColor"></path>
                <path d="M7.5,3.33333333 C8.88071187,3.33333333 10,4.45262146 10,5.83333333 L10,8.33333333 L5,8.33333333 L5,5.83333333 C5,4.45262146 6.11928813,3.33333333 7.5,3.33333333 Z" id="Rectangle-25" fill="currentColor"></path>
            </g>
        </g>
    </g>
</svg>