<?xml version="1.0" encoding="UTF-8"?>
<svg width="24px" height="24px" viewBox="0 0 24 24" version="1.1" xmlns="http://www.w3.org/2000/svg" xmlns:xlink="http://www.w3.org/1999/xlink">
    <!-- Generator: Sketch 50.2 (55047) - http://www.bohemiancoding.com/sketch -->
    <title>Glyph/004.Company/004.Kubernets/White</title>
    <desc>Created with Sketch.</desc>
    <defs></defs>
    <g id="Glyph/004.Company/004.Kubernets/White" stroke="none" stroke-width="1" fill="none" fill-rule="evenodd">
        <g id="kubernetes-UI" transform="translate(2.000000, 2.000000)" fill="#FFFFFF" fill-rule="nonzero">
            <path d="M17.1713456,16.9712811 L10.1406905,20 L3.02871894,17.1713456 L0,10.1406905 L2.8286544,3.02871894 L9.85930945,0 L16.9712811,2.8286544 L20,9.85930945 L17.1713456,16.9712811 Z M16.803485,9.5624395 C16.7034527,9.5624395 15.5372701,9.59664408 14.2284608,9.65408196 C14.1549094,8.76158795 13.800669,7.9152967 13.2165215,7.23652791 C13.8519965,6.65724099 14.4816931,6.07164678 15.1055179,5.4798322 C15.1854029,5.40026699 15.2303088,5.29216127 15.2303088,5.17941271 C15.2303088,5.06666414 15.1854029,4.95855843 15.1055179,4.87899322 C15.0259527,4.7991082 14.917847,4.75420228 14.8050984,4.75420228 C14.6923498,4.75420228 14.5842441,4.7991082 14.5046789,4.87899322 L12.7505647,6.76928042 C12.06856,6.18808236 11.2199607,5.83788829 10.326557,5.76895772 C10.3839948,4.46014843 10.4188448,3.29396578 10.4188448,3.19393352 C10.4188448,2.9583348 10.2278543,2.7673443 9.99225556,2.7673443 C9.75665684,2.7673443 9.56566634,2.9583348 9.56566634,3.19393352 C9.56566634,3.29396578 9.60051628,4.46014843 9.65537271,5.76895772 C8.76104251,5.83896942 7.91214049,6.19154853 7.23136495,6.77573411 C6.65298566,6.14358411 6.06911933,5.51647639 5.4798322,4.8944821 C5.40026699,4.81459708 5.29216127,4.76969116 5.17941271,4.76969116 C5.06666414,4.76969116 4.95855843,4.81459708 4.87899322,4.8944821 C4.7991082,4.97404731 4.75420228,5.08215302 4.75420228,5.19490159 C4.75420228,5.30765015 4.7991082,5.41575587 4.87899322,5.49532108 C4.95062922,5.56437562 5.79735398,6.36334301 6.76282671,7.2429816 C6.17767231,7.92517584 5.82503367,8.77602958 5.75605034,9.67215231 C4.90232992,9.63343249 4.04824978,9.60309866 3.19393352,9.58115522 C2.9583348,9.58115522 2.7673443,9.77214572 2.7673443,10.0077444 C2.7673443,10.2433432 2.9583348,10.4343337 3.19393352,10.4343337 C3.29332041,10.4343337 4.452404,10.3994837 5.75605034,10.3433366 C5.82635198,11.2391433 6.17882762,12.0896038 6.76282671,12.7725073 C6.13222605,13.3482986 5.50726348,13.9302345 4.88802841,14.5182317 C4.80802261,14.5976013 4.76302196,14.7056322 4.76302196,14.8183285 C4.76302196,14.9310248 4.80802261,15.0390557 4.88802841,15.1184253 C4.96739803,15.1984311 5.07542887,15.2434317 5.1881252,15.2434317 C5.30082154,15.2434317 5.40885238,15.1984311 5.488222,15.1184253 C5.55921263,15.04808 6.3530171,14.2039368 7.23394643,13.2423362 C7.91860385,13.8257783 8.77120998,14.1761334 9.66828008,14.2426589 C9.62959497,15.0959503 9.59926116,15.9495999 9.57728299,16.803485 C9.57728299,17.0390837 9.76827349,17.2300742 10.0038722,17.2300742 C10.2394709,17.2300742 10.4304614,17.0390837 10.4304614,16.803485 C10.4304614,16.7040981 10.3969022,15.5437238 10.3394643,14.2413682 C11.2353939,14.1684864 12.0848518,13.8122475 12.7647628,13.2242659 C13.342957,13.8565867 13.9268249,14.4836961 14.5162956,15.1055179 C14.5958608,15.1854029 14.7039665,15.2303088 14.8167151,15.2303088 C14.9294636,15.2303088 15.0375693,15.1854029 15.1171346,15.1055179 C15.1971404,15.0261483 15.242141,14.9181174 15.242141,14.8054211 C15.242141,14.6927248 15.1971404,14.5846939 15.1171346,14.5053243 C15.0467893,14.434979 14.1987738,13.6340755 13.2345918,12.7518554 C13.8156225,12.0682141 14.1641434,11.2174796 14.2297515,10.3226847 C15.5372701,10.3801226 16.7034527,10.4149726 16.803485,10.4149726 C17.0324561,10.4060617 17.2134852,10.2178505 17.2134852,9.98870604 C17.2134852,9.75956158 17.0324561,9.57135038 16.803485,9.5624395 Z M11.006131,10.7763795 C11.1475354,10.5935585 11.236147,10.3754891 11.2623427,10.1458535 C11.8696354,10.2039367 12.7324943,10.2536302 13.5972894,10.2962246 C13.5377625,11.0420822 13.2477167,11.7509577 12.7673443,12.3246208 C12.190566,11.7969482 11.6033794,11.2807662 11.006131,10.7763795 Z M10.9951597,9.20877702 C11.5908151,8.70788285 12.1756544,8.19426567 12.749274,7.66828009 C13.2340966,8.23730698 13.5299966,8.94300149 13.5959987,9.68764117 C12.8167348,9.72145897 12.038253,9.7713782 11.261052,9.83736689 C11.2308321,9.60766476 11.1389467,9.39044051 10.9951597,9.20877702 Z M10.1445628,8.73765731 C10.2020007,8.13294613 10.2523395,7.27008714 10.2942885,6.40529202 C11.0394717,6.46669516 11.7470538,6.75856999 12.3188125,7.24040012 C11.7927571,7.81487023 11.2778709,8.39946936 10.7744434,8.99386898 C10.5925185,8.85133809 10.3743242,8.76258491 10.1445628,8.73765731 Z M10.8602775,9.32042593 L11.0880929,9.85414651 C11.0997096,9.9451436 11.1010003,10.0361407 11.0893837,10.1284285 L10.8706034,10.6660213 L10.6795741,10.8622136 L10.1458535,11.0887383 C10.0548564,11.100355 9.96385931,11.1016457 9.87157148,11.090029 L9.3339787,10.8706034 L9.13907712,10.6802194 L8.91255244,10.1458535 C8.90049774,10.0550666 8.900064,9.96311343 8.91126169,9.87221685 L9.12939658,9.3339787 L9.31978058,9.1397225 L9.85414651,8.91319781 C9.94449823,8.90158115 10.0354953,8.90029041 10.1277831,8.91190706 L10.6660213,9.12939658 L10.8602775,9.32042593 Z M7.66311713,7.24556309 C8.23420358,6.76183062 8.94186009,6.46812046 9.68764117,6.40529202 C9.72959019,7.27137786 9.779929,8.13423685 9.83736689,8.73894804 C9.6079621,8.76882519 9.39106575,8.86076068 9.21006776,9.00484027 C8.70625941,8.40810694 8.19050499,7.8215627 7.66311713,7.24556309 Z M8.73701194,9.85543723 C7.95659579,9.78891854 7.17488577,9.73856892 6.39238464,9.70442077 C6.45438359,8.9572768 6.74814561,8.24814161 7.23265569,7.67602452 C7.80953858,8.20333649 8.39650295,8.71951226 8.99322361,9.2242659 C8.85211188,9.40749995 8.76354157,9.62569081 8.73701194,9.85543723 Z M9.00613101,10.7899322 C8.53501129,11.1810261 7.88318813,11.7586318 7.2391094,12.3433366 C6.75145868,11.7720289 6.45531358,11.0621384 6.39238464,10.3136496 C7.17531523,10.2794967 7.95745532,10.2291471 8.73830269,10.1626331 C8.76798968,10.3865763 8.85640529,10.6021297 9.00613101,10.7899322 Z M9.85672797,11.2616973 C9.79864471,11.8709261 9.74766054,12.7402388 9.70506616,13.6089061 C8.95660506,13.5490487 8.24548103,13.2571089 7.67086158,12.773798 C8.25556633,12.1284285 8.833172,11.4766053 9.22620201,11.0054856 C9.41335916,11.1513391 9.63084867,11.2358825 9.85672797,11.2616973 Z M12.3381736,12.7570184 C11.7686929,13.2451736 11.0608208,13.543035 10.3136496,13.6089061 C10.2795348,12.8255437 10.2291852,12.0429727 10.1626331,11.2616973 C10.3865763,11.2320103 10.6014844,11.1435947 10.7899322,10.9951597 C11.294045,11.5928555 11.8102317,12.1802626 12.3381736,12.7570184 Z" id="Shape"></path>
        </g>
    </g>
</svg>