
<svg width="175px" height="40px" viewBox="0 0 175 40" version="1.1" xmlns="http://www.w3.org/2000/svg" xmlns:xlink="http://www.w3.org/1999/xlink">
    <!-- Generator: Sketch 49.3 (51167) - http://www.bohemiancoding.com/sketch -->
    <desc>Created with Sketch.</desc>
    <defs>
        <path d="M84.3772472,0.253155556 L82.9504261,0.253155556 C82.638608,0.253155556 82.3791348,0.487314286 82.3791348,0.768203175 L82.3791348,6.76210794 L77.7862905,6.76210794 L77.7862905,0.768203175 C77.7862905,0.487314286 77.5529898,0.253155556 77.2158435,0.253155556 L75.7884595,0.253155556 C75.4769229,0.253155556 75.2174497,0.487314286 75.2174497,0.768203175 L75.2174497,15.1466159 C75.2174497,15.4272508 75.4769229,15.6616635 75.7884595,15.6616635 L77.2158435,15.6616635 C77.5529898,15.6616635 77.7862905,15.4272508 77.7862905,15.1466159 L77.7862905,9.08033016 L82.3791348,9.08033016 L82.3791348,15.1466159 C82.3791348,15.4272508 82.638608,15.6616635 82.9504261,15.6616635 L84.3772472,15.6616635 C84.7146749,15.6616635 84.9479756,15.4272508 84.9479756,15.1466159 L84.9479756,0.768203175 C84.9479756,0.487314286 84.7146749,0.253155556 84.3772472,0.253155556" id="path-1"></path>
        <filter x="-71.9%" y="-32.4%" width="243.9%" height="190.9%" filterUnits="objectBoundingBox" id="filter-2">
            <feOffset dx="0" dy="2" in="SourceAlpha" result="shadowOffsetOuter1"></feOffset>
            <feGaussianBlur stdDeviation="2" in="shadowOffsetOuter1" result="shadowBlurOuter1"></feGaussianBlur>
            <feColorMatrix values="0 0 0 0 0.141176471   0 0 0 0 0.180392157   0 0 0 0 0.258823529  0 0 0 0.36 0" type="matrix" in="shadowBlurOuter1"></feColorMatrix>
        </filter>
        <path d="M47.2737634,13.8585651 C47.2737634,13.5774222 47.0142902,13.3432635 46.7030349,13.3432635 L40.2589817,13.3432635 L40.2589817,9.11646984 L46.7030349,9.11646984 C47.0140088,9.11646984 47.2734819,8.90567619 47.2734819,8.60142222 L47.2734819,7.31354921 C47.2734819,7.03240635 47.0140088,6.79799365 46.7027535,6.79799365 L40.2589817,6.79824762 L40.2589817,2.57145397 L46.7027535,2.57145397 C47.0137273,2.57145397 47.2734819,2.36091429 47.2734819,2.05615238 L47.2734819,0.768533333 C47.2732005,0.487136508 47.0137273,0.252977778 46.7027535,0.252977778 L39.6890976,0.253231746 C39.6885347,0.253231746 39.6885347,0.252977778 39.6879719,0.252977778 L38.2611508,0.252977778 C37.9496141,0.252977778 37.6898595,0.487390476 37.6898595,0.768279365 L37.6898595,15.1464381 C37.6898595,15.427327 37.9496141,15.6617397 38.2611508,15.6617397 L38.8794399,15.6617397 L38.8805656,15.6617397 L46.7030349,15.6614857 C47.0142902,15.6614857 47.2737634,15.450946 47.2737634,15.1461841 L47.2737634,13.8585651 Z" id="path-3"></path>
        <filter x="-73.0%" y="-32.4%" width="246.1%" height="190.9%" filterUnits="objectBoundingBox" id="filter-4">
            <feOffset dx="0" dy="2" in="SourceAlpha" result="shadowOffsetOuter1"></feOffset>
            <feGaussianBlur stdDeviation="2" in="shadowOffsetOuter1" result="shadowBlurOuter1"></feGaussianBlur>
            <feColorMatrix values="0 0 0 0 0.141176471   0 0 0 0 0.180392157   0 0 0 0 0.258823529  0 0 0 0.36 0" type="matrix" in="shadowBlurOuter1"></feColorMatrix>
        </filter>
        <path d="M97.4082327,13.8585651 C97.4082327,13.5774222 97.1487595,13.3432635 96.8375042,13.3432635 L90.3934511,13.3432635 L90.3934511,9.11646984 L96.8375042,9.11646984 C97.1484781,9.11646984 97.4082327,8.90567619 97.4082327,8.60142222 L97.4079513,7.31354921 C97.4079513,7.03240635 97.1484781,6.79799365 96.8372228,6.79799365 L90.3934511,6.79824762 L90.3934511,2.57145397 L96.8372228,2.57145397 C97.1481967,2.57145397 97.4079513,2.36091429 97.4079513,2.05615238 L97.4079513,0.768533333 C97.4079513,0.487136508 97.1481967,0.252977778 96.8372228,0.252977778 L89.8235669,0.253231746 C89.8232855,0.253231746 89.823004,0.252977778 89.8227226,0.252977778 L88.3956201,0.252977778 C88.0840834,0.252977778 87.8243288,0.487390476 87.8243288,0.768279365 L87.8243288,15.1464381 C87.8243288,15.427327 88.0840834,15.6617397 88.3956201,15.6617397 L89.0139092,15.6617397 L89.0150349,15.6617397 L96.8375042,15.6614857 C97.1487595,15.6614857 97.4082327,15.450946 97.4082327,15.1461841 L97.4082327,13.8585651 Z" id="path-5"></path>
        <filter x="-73.0%" y="-32.4%" width="246.1%" height="190.9%" filterUnits="objectBoundingBox" id="filter-6">
            <feOffset dx="0" dy="2" in="SourceAlpha" result="shadowOffsetOuter1"></feOffset>
            <feGaussianBlur stdDeviation="2" in="shadowOffsetOuter1" result="shadowBlurOuter1"></feGaussianBlur>
            <feColorMatrix values="0 0 0 0 0.141176471   0 0 0 0 0.180392157   0 0 0 0 0.258823529  0 0 0 0.36 0" type="matrix" in="shadowBlurOuter1"></feColorMatrix>
        </filter>
        <path d="M122.475594,13.8585651 C122.475594,13.5774222 122.215839,13.3432635 121.904866,13.3432635 L115.460531,13.3432635 L115.460531,9.11646984 L121.904584,9.11646984 C122.215839,9.11646984 122.475313,8.90567619 122.475313,8.60142222 L122.475313,7.31354921 C122.475313,7.03240635 122.215839,6.79799365 121.904584,6.79799365 L115.460531,6.79824762 L115.460531,2.57145397 L121.904584,2.57145397 C122.215558,2.57145397 122.475031,2.36091429 122.475031,2.05615238 L122.475031,0.768533333 C122.475031,0.487136508 122.215558,0.252977778 121.904303,0.252977778 L114.890928,0.253231746 C114.890365,0.253231746 114.890365,0.252977778 114.889802,0.252977778 L113.462981,0.252977778 C113.151163,0.252977778 112.89169,0.487390476 112.89169,0.768279365 L112.89169,15.1464381 C112.89169,15.427327 113.151163,15.6617397 113.462981,15.6617397 L114.081271,15.6617397 L114.082396,15.6617397 L121.904866,15.6614857 C122.216121,15.6614857 122.475594,15.450946 122.475594,15.1461841 L122.475594,13.8585651 Z" id="path-7"></path>
        <filter x="-73.0%" y="-32.4%" width="246.1%" height="190.9%" filterUnits="objectBoundingBox" id="filter-8">
            <feOffset dx="0" dy="2" in="SourceAlpha" result="shadowOffsetOuter1"></feOffset>
            <feGaussianBlur stdDeviation="2" in="shadowOffsetOuter1" result="shadowBlurOuter1"></feGaussianBlur>
            <feColorMatrix values="0 0 0 0 0.141176471   0 0 0 0 0.180392157   0 0 0 0 0.258823529  0 0 0 0.36 0" type="matrix" in="shadowBlurOuter1"></feColorMatrix>
        </filter>
        <path d="M52.6947549,4.12977778 L52.6947549,5.00926984 C52.6947549,5.68025397 53.4129496,6.07390476 54.2335828,6.37485714 L57.6441637,7.67060317 C58.9266142,8.18006349 59.8240762,9.08215873 59.8240762,10.4708571 L59.8240762,12.1140317 C59.8240762,13.479619 56.6439818,15.7709206 54.9514962,15.7709206 C53.7973752,15.7709206 52.0536704,15.0303492 50.6946725,14.3593651 C50.3865129,14.2201905 50.1813546,13.896381 50.3609033,13.5258413 L50.7971109,12.7390476 C50.9766596,12.4152381 51.3610852,12.3456508 51.694573,12.5076825 C52.7971933,13.0168889 54.2591924,13.6419048 54.9514962,13.6419048 C55.7209102,13.6419048 57.336567,12.4614603 57.336567,11.7902222 L57.336567,10.7720635 C57.336567,9.9847619 56.6695914,9.54539683 55.7465198,9.22133333 L52.5664254,8.01803175 C51.3354756,7.55504762 50.2069642,6.60596825 50.2069642,5.31022222 L50.2069642,3.80571429 C50.2069642,2.30146032 53.5666073,0.126222222 55.1822641,0.126222222 C56.2595562,0.126222222 58.0032611,0.843428571 59.1573821,1.39911111 C59.5164795,1.56088889 59.6189179,1.93142857 59.4649788,2.20901587 L59.0546622,2.99606349 C58.9266142,3.27365079 58.5162976,3.36609524 58.1572002,3.2271746 C57.2853477,2.85714286 55.8233486,2.25549206 55.1822641,2.25549206 C54.4384597,2.25549206 52.6947549,3.36609524 52.6947549,4.12977778" id="path-9"></path>
        <filter x="-72.8%" y="-32.0%" width="245.6%" height="189.5%" filterUnits="objectBoundingBox" id="filter-10">
            <feOffset dx="0" dy="2" in="SourceAlpha" result="shadowOffsetOuter1"></feOffset>
            <feGaussianBlur stdDeviation="2" in="shadowOffsetOuter1" result="shadowBlurOuter1"></feGaussianBlur>
            <feColorMatrix values="0 0 0 0 0.141176471   0 0 0 0 0.180392157   0 0 0 0 0.258823529  0 0 0 0.36 0" type="matrix" in="shadowBlurOuter1"></feColorMatrix>
        </filter>
        <path d="M105.321095,2.26704762 L102.804318,2.26704762 L102.804318,7.41879365 L105.346987,7.41879365 C106.41077,7.41879365 107.656636,5.7095873 107.656636,4.79606349 C107.656636,3.9064127 106.358988,2.26704762 105.321095,2.26704762 M105.21725,9.4327619 L102.804318,9.4327619 L102.804318,15.1465397 C102.804318,15.4510476 102.570455,15.6615873 102.207136,15.6615873 L100.832097,15.6615873 C100.520279,15.6615873 100.235196,15.4510476 100.235196,15.1465397 L100.235196,1.3304127 C100.235196,0.792 100.935942,0.253079365 101.506671,0.253079365 L105.658523,0.253079365 C107.552509,0.253079365 110.064783,2.91873016 110.064783,4.67492063 C110.064783,5.84571429 108.927829,7.60596825 107.708136,8.28533333 C108.694528,8.75365079 110.043395,9.99479365 110.043395,11.1422222 L110.043395,15.1465397 C110.043395,15.4274286 109.784203,15.6615873 109.472948,15.6615873 L108.045845,15.6615873 C107.734027,15.6615873 107.474836,15.4274286 107.474836,15.1465397 L107.474836,11.4934603 C107.474836,10.6739048 106.203361,9.4327619 105.21725,9.4327619" id="path-11"></path>
        <filter x="-71.2%" y="-32.4%" width="242.4%" height="190.9%" filterUnits="objectBoundingBox" id="filter-12">
            <feOffset dx="0" dy="2" in="SourceAlpha" result="shadowOffsetOuter1"></feOffset>
            <feGaussianBlur stdDeviation="2" in="shadowOffsetOuter1" result="shadowBlurOuter1"></feGaussianBlur>
            <feColorMatrix values="0 0 0 0 0.141176471   0 0 0 0 0.180392157   0 0 0 0 0.258823529  0 0 0 0.36 0" type="matrix" in="shadowBlurOuter1"></feColorMatrix>
        </filter>
        <path d="M67.7773234,2.26704762 L65.260546,2.26704762 L65.260546,7.41879365 L67.8034958,7.41879365 C68.8672796,7.41879365 69.9642715,5.7095873 69.9642715,4.79606349 C69.9642715,3.9064127 68.8152161,2.26704762 67.7773234,2.26704762 M67.6737592,9.4327619 L65.260546,9.4327619 L65.260546,15.1465397 C65.260546,15.4510476 65.0269639,15.6615873 64.6636451,15.6615873 L63.2886061,15.6615873 C62.976788,15.6615873 62.6917052,15.4510476 62.6917052,15.1465397 L62.6917052,1.3304127 C62.6917052,0.792 63.3924517,0.253079365 63.9631801,0.253079365 L68.1147511,0.253079365 C70.0090179,0.253079365 72.4067528,3.00177778 72.4067528,4.75796825 C72.4067528,5.9287619 71.4454075,7.50387302 70.3351887,8.41460317 C69.7889441,8.86285714 68.9221574,9.4327619 67.6737592,9.4327619" id="path-13"></path>
        <filter x="-72.1%" y="-32.4%" width="244.1%" height="190.9%" filterUnits="objectBoundingBox" id="filter-14">
            <feOffset dx="0" dy="2" in="SourceAlpha" result="shadowOffsetOuter1"></feOffset>
            <feGaussianBlur stdDeviation="2" in="shadowOffsetOuter1" result="shadowBlurOuter1"></feGaussianBlur>
            <feColorMatrix values="0 0 0 0 0.141176471   0 0 0 0 0.180392157   0 0 0 0 0.258823529  0 0 0 0.36 0" type="matrix" in="shadowBlurOuter1"></feColorMatrix>
        </filter>
        <path d="M17.4084276,15.7982984 C15.6999008,15.7982984 12.5032024,13.8475683 12.5032024,12.1642667 L12.5032024,0.867250794 C12.5032024,0.586869841 12.7865967,0.354996825 13.0989776,0.354996825 L14.4686696,0.354996825 C14.8032831,0.354996825 15.061912,0.586869841 15.061912,0.867250794 L15.061912,11.8615365 C15.061912,12.6800762 16.6058056,13.6720762 17.4084276,13.6720762 C18.2110497,13.6720762 19.7656374,12.5546159 19.7656374,11.7363302 L19.7656374,0.742044444 C19.7656374,0.461663492 19.9978124,0.229790476 20.3104748,0.229790476 L21.7299789,0.229790476 C22.0426413,0.229790476 22.3260355,0.461663492 22.3260355,0.742044444 L22.3260355,12.0390603 C22.3260355,13.6720762 19.1149845,15.7982984 17.4084276,15.7982984" id="path-15"></path>
        <filter x="-71.3%" y="-32.1%" width="242.5%" height="189.9%" filterUnits="objectBoundingBox" id="filter-16">
            <feOffset dx="0" dy="2" in="SourceAlpha" result="shadowOffsetOuter1"></feOffset>
            <feGaussianBlur stdDeviation="2" in="shadowOffsetOuter1" result="shadowBlurOuter1"></feGaussianBlur>
            <feColorMatrix values="0 0 0 0 0.141176471   0 0 0 0 0.180392157   0 0 0 0 0.258823529  0 0 0 0.36 0" type="matrix" in="shadowBlurOuter1"></feColorMatrix>
        </filter>
        <path d="M30.0080741,13.6477714 L27.5791012,13.6477714 L27.5791012,8.4960254 L30.0339652,8.4960254 C31.0980304,8.4960254 32.3436142,10.115581 32.3436142,11.0285968 C32.3436142,11.9185016 31.0459669,13.6477714 30.0080741,13.6477714 Z M27.5791012,2.26694603 L30.0080741,2.26694603 C31.0459669,2.26694603 32.3436142,3.60840635 32.3436142,4.49831111 C32.3436142,5.41158095 31.0980304,6.90288254 30.0339652,6.90288254 L27.5791012,6.90288254 L27.5791012,2.26694603 Z M32.5127502,7.69983492 C33.6952951,6.99710476 34.886564,5.63177143 34.886564,4.49831111 C34.886564,2.74212063 32.2394873,0.253231746 30.3455018,0.253231746 L26.2814538,0.253231746 C25.7107254,0.253231746 25.0099789,0.791898413 25.0099789,1.33031111 L25.0099789,6.97577143 L25.0099789,14.5844063 L25.0099789,15.1464381 C25.0099789,15.4512 25.2953431,15.6617397 25.6068798,15.6617397 L26.2814538,15.6617397 L26.9819188,15.6617397 L30.4333062,15.6617397 C32.3272916,15.6617397 34.886564,12.7850413 34.886564,11.0285968 C34.886564,9.89539048 33.6952951,8.41018413 32.5127502,7.69983492 Z" id="path-17"></path>
        <filter x="-70.9%" y="-32.4%" width="241.7%" height="190.9%" filterUnits="objectBoundingBox" id="filter-18">
            <feOffset dx="0" dy="2" in="SourceAlpha" result="shadowOffsetOuter1"></feOffset>
            <feGaussianBlur stdDeviation="2" in="shadowOffsetOuter1" result="shadowBlurOuter1"></feGaussianBlur>
            <feColorMatrix values="0 0 0 0 0.141176471   0 0 0 0 0.180392157   0 0 0 0 0.258823529  0 0 0 0.36 0" type="matrix" in="shadowBlurOuter1"></feColorMatrix>
        </filter>
        <path d="M3.88646933,8.04259048 L9.53606178,2.13808254 C9.73953153,1.92551111 9.73249592,1.61059048 9.4772441,1.41147937 L8.39713771,0.569828571 C8.16102274,0.386209524 7.79517117,0.410336508 7.59170142,0.622907937 L2.65129816,5.78608254 L2.65129816,0.768177778 C2.65129816,0.487288889 2.41799743,0.253130159 2.08056971,0.253130159 L0.653467181,0.253130159 C0.341930502,0.253130159 0.0824573145,0.487288889 0.0824573145,0.768177778 L0.0824573145,15.1465905 C0.0824573145,15.4274794 0.341930502,15.6616381 0.653467181,15.6616381 L2.08056971,15.6616381 C2.41799743,15.6616381 2.65129816,15.4274794 2.65129816,15.1465905 L2.65129816,10.2990984 L7.59170142,15.462273 C7.79517117,15.6748444 8.16102274,15.6989714 8.39713771,15.5153524 L9.4772441,14.6734476 C9.73249592,14.4745905 9.73953153,14.1596698 9.53606178,13.9470984 L3.88646933,8.04259048 Z" id="path-19"></path>
        <filter x="-72.9%" y="-32.4%" width="245.9%" height="190.9%" filterUnits="objectBoundingBox" id="filter-20">
            <feOffset dx="0" dy="2" in="SourceAlpha" result="shadowOffsetOuter1"></feOffset>
            <feGaussianBlur stdDeviation="2" in="shadowOffsetOuter1" result="shadowBlurOuter1"></feGaussianBlur>
            <feColorMatrix values="0 0 0 0 0.141176471   0 0 0 0 0.180392157   0 0 0 0 0.258823529  0 0 0 0.36 0" type="matrix" in="shadowBlurOuter1"></feColorMatrix>
        </filter>
    </defs>
    <g id="Login" stroke="none" stroke-width="1" fill="none" fill-rule="evenodd">
        <g transform="translate(-24.000000, -25.000000)" id="Group-7">
            <g transform="translate(24.000000, 25.000000)">
                <g id="Group-6" transform="translate(49.000000, 12.000000)">
                    <g id="Group-26">
                        <g id="Fill-5">
                            <use fill="black" fill-opacity="1" filter="url(#filter-2)" xlink:href="#path-1"></use>
                            <use fill="#FFFFFF" fill-rule="evenodd" xlink:href="#path-1"></use>
                        </g>
                        <g id="Fill-7">
                            <use fill="black" fill-opacity="1" filter="url(#filter-4)" xlink:href="#path-3"></use>
                            <use fill="#FFFFFF" fill-rule="evenodd" xlink:href="#path-3"></use>
                        </g>
                        <g id="Fill-9">
                            <use fill="black" fill-opacity="1" filter="url(#filter-6)" xlink:href="#path-5"></use>
                            <use fill="#FFFFFF" fill-rule="evenodd" xlink:href="#path-5"></use>
                        </g>
                        <g id="Fill-11">
                            <use fill="black" fill-opacity="1" filter="url(#filter-8)" xlink:href="#path-7"></use>
                            <use fill="#FFFFFF" fill-rule="evenodd" xlink:href="#path-7"></use>
                        </g>
                        <g id="Fill-14">
                            <use fill="black" fill-opacity="1" filter="url(#filter-10)" xlink:href="#path-9"></use>
                            <use fill="#FFFFFF" fill-rule="evenodd" xlink:href="#path-9"></use>
                        </g>
                        <g id="Fill-16">
                            <use fill="black" fill-opacity="1" filter="url(#filter-12)" xlink:href="#path-11"></use>
                            <use fill="#FFFFFF" fill-rule="evenodd" xlink:href="#path-11"></use>
                        </g>
                        <g id="Fill-18">
                            <use fill="black" fill-opacity="1" filter="url(#filter-14)" xlink:href="#path-13"></use>
                            <use fill="#FFFFFF" fill-rule="evenodd" xlink:href="#path-13"></use>
                        </g>
                        <g id="Fill-20">
                            <use fill="black" fill-opacity="1" filter="url(#filter-16)" xlink:href="#path-15"></use>
                            <use fill="#FFFFFF" fill-rule="evenodd" xlink:href="#path-15"></use>
                        </g>
                        <g id="Fill-22">
                            <use fill="black" fill-opacity="1" filter="url(#filter-18)" xlink:href="#path-17"></use>
                            <use fill="#FFFFFF" fill-rule="evenodd" xlink:href="#path-17"></use>
                        </g>
                        <g id="Fill-24">
                            <use fill="black" fill-opacity="1" filter="url(#filter-20)" xlink:href="#path-19"></use>
                            <use fill="#FFFFFF" fill-rule="evenodd" xlink:href="#path-19"></use>
                        </g>
                    </g>
                </g>
                <g id="Page-1" fill="#55BC8A">
                    <g id="Group-10">
                        <polygon id="Fill-1" points="30.2992075 32.2129057 21.5169434 27.1423396 21.5169434 37.2838491"></polygon>
                        <polygon id="Fill-2" points="30.2992075 7.52132075 21.5169434 2.45075472 21.5169434 12.5918868"></polygon>
                        <polygon id="Fill-3" points="17.1838868 -0.000113207547 0.000113207547 9.92101887 0.000113207547 29.8138491 17.1838868 39.7346038 17.1838868 24.6410189 8.91558491 19.8670566 17.1838868 15.0934717"></polygon>
                        <polygon id="Fill-4" points="17.2434717 19.867283 34.4008302 29.7729434 34.4008302 9.96162264"></polygon>
                    </g>
                </g>
            </g>
        </g>
    </g>
</svg>