<?xml version="1.0" encoding="UTF-8"?>
<svg width="359px" height="317px" viewBox="0 0 359 317" version="1.1" xmlns="http://www.w3.org/2000/svg" xmlns:xlink="http://www.w3.org/1999/xlink">
    <!-- Generator: Sketch 49.3 (51167) - http://www.bohemiancoding.com/sketch -->
    <title>Group 38</title>
    <desc>Created with Sketch.</desc>
    <defs></defs>
    <g id="home" stroke="none" stroke-width="1" fill="none" fill-rule="evenodd">
        <g id="Artboard" transform="translate(-841.000000, -2542.000000)">
            <g id="Group-38" transform="translate(841.000000, 2542.000000)">
                <g id="Page-1" transform="translate(0.000000, 86.000000)">
                    <polygon id="Fill-4" stroke="#CFD9DF" points="0 126.165936 179.94454 229.967913 358.708355 126.170647 178.763141 22.3693428"></polygon>
                    <polygon id="Fill-5" fill-opacity="0.2" fill="#55BC8A" points="337.082006 123.179223 180.544535 214.070305 22.9731711 123.174512 179.510642 32.2834295"></polygon>
                    <path d="M13.8076923,96.2374205 L180.64745,192.479833 L346.392469,96.2417882 L179.552088,0 L13.8076923,96.2374205 Z" id="Fill-4-Copy" stroke="#55BC8A" stroke-dasharray="2"></path>
                    <path d="M13.8076923,99.4883039 L180.64745,195.730716 L346.392469,99.4926716 L179.552088,3.25088339 L13.8076923,99.4883039 Z" id="Fill-4-Copy-2" stroke="#55BC8A" stroke-dasharray="2"></path>
                    <path d="M13.8076923,101.926466 L180.64745,198.168879 L346.392469,101.930834 L179.552088,5.68904594 L13.8076923,101.926466 Z" id="Fill-4-Copy-2" stroke="#55BC8A" stroke-dasharray="2"></path>
                    <g transform="translate(66.601810, 5.689046)">
                        <polygon id="Fill-1" fill="#6DC59A" points="112.011168 53.6650141 159.839389 81.2950848 159.98965 28.2951201 112.160616 0.66504947"></polygon>
                        <polygon id="Fill-2" fill="#AEDFC7" points="64.6492398 28.2932509 64.4989796 81.2932155 112.011249 53.6647703 112.160697 0.664805654"></polygon>
                        <polygon id="Fill-3" fill="#6DC59A" points="112.477055 55.9237279 112.326795 108.923693 64.4993857 81.2928092 64.6488337 28.2928445"></polygon>
                        <polygon id="Fill-4" fill="#C7E9D9" points="64.6492398 28.2932509 112.476649 55.9233216 159.988919 28.295689 112.160697 0.664805654"></polygon>
                        <polygon id="Fill-5" fill="#AEDFC7" points="159.989406 28.2955265 159.839146 81.2954912 112.326876 108.923936 112.477137 55.9239717"></polygon>
                        <polygon id="Fill-6" fill="#6DC59A" points="112.481035 56.5887774 112.330775 109.588742 63.3516416 81.293053 63.5019018 28.2930883"></polygon>
                        <polygon id="Fill-7" fill="#AEDFC7" points="161.13715 28.2955265 160.986078 81.2954912 112.331019 109.588742 112.481279 56.5887774"></polygon>
                        <path d="M112.157367,8.12720848e-05 L63.5023079,28.2933322 L112.481441,56.5882085 L161.137312,28.2957703 L112.157367,8.12720848e-05 Z M64.6491586,28.2933322 L112.161428,0.664886926 L159.98965,28.2957703 L112.476568,55.9234028 L64.6491586,28.2933322 Z" id="Fill-8" fill="#C7E9D9"></path>
                        <polygon id="Fill-9" fill="#6DC59A" points="96.6372769 67.3041767 96.4870167 120.304141 48.6652928 92.6765088 48.8147407 39.6765442"></polygon>
                        <polygon id="Fill-10" fill="#AEDFC7" points="48.8148219 39.676788 48.6645618 92.6767527 1.14741923 120.307636 1.29767941 67.3076714"></polygon>
                        <polygon id="Fill-11" fill="#6DC59A" points="49.1201344 94.9354664 48.9698742 147.935431 1.14733801 120.307799 1.29759819 67.3078339"></polygon>
                        <polygon id="Fill-12" fill="#C7E9D9" points="96.6372769 67.304583 49.1201344 94.9354664 1.29759819 67.3078339 48.8147407 39.6769505"></polygon>
                        <polygon id="Fill-13" fill="#AEDFC7" points="96.6372769 67.304583 96.4870167 120.304548 48.9698742 147.935431 49.1201344 94.9354664"></polygon>
                        <polygon id="Fill-14" fill="#6DC59A" points="0 120.307311 48.9742602 148.600562 49.1245204 95.6005972 0.149447964 67.308159"></polygon>
                        <polygon id="Fill-15" fill="#AEDFC7" points="97.785021 67.3041767 97.6347609 120.304141 48.9740165 148.600643 49.1242767 95.6006784"></polygon>
                        <path d="M0.149854072,67.3079965 L49.1241143,95.6004346 L97.7856708,67.3039329 L48.8105984,39.0123074 L0.149854072,67.3079965 Z M1.29751697,67.3079965 L48.8154717,39.6771131 L96.6380079,67.3039329 L49.1200532,94.935629 L1.29751697,67.3079965 Z" id="Fill-16" fill="#C7E9D9"></path>
                        <polygon id="Fill-17" fill="#6DC59A" points="224.153752 67.3029576 224.00268 120.302922 176.180956 92.6752898 176.330404 39.6753251"></polygon>
                        <polygon id="Fill-18" fill="#AEDFC7" points="176.330485 39.6752438 176.180225 92.6752085 128.663082 120.306092 128.813342 67.3061272"></polygon>
                        <polygon id="Fill-19" fill="#6DC59A" points="176.636691 94.9339223 176.485618 147.933887 128.663894 120.306254 128.813342 67.3062898"></polygon>
                        <polygon id="Fill-20" fill="#C7E9D9" points="224.153752 67.3029576 176.63661 94.933841 128.813261 67.3062085 176.330404 39.6753251"></polygon>
                        <polygon id="Fill-21" fill="#AEDFC7" points="224.153752 67.3029576 224.00268 120.302922 176.486349 147.933806 176.63661 94.933841"></polygon>
                        <polygon id="Fill-22" fill="#6DC59A" points="176.645381 95.601735 176.494309 148.6017 127.515988 120.306011 127.665436 67.3060459"></polygon>
                        <polygon id="Fill-23" fill="#AEDFC7" points="176.645057 95.6018975 176.494796 148.601862 225.155541 120.306173 225.305801 67.3062085"></polygon>
                        <path d="M127.665436,67.3058021 L176.645381,95.6014912 L225.306126,67.3058021 L176.326992,39.0101131 L127.665436,67.3058021 Z M128.813099,67.3058021 L176.331053,39.6757314 L224.15359,67.3025512 L176.637259,94.9342473 L128.813099,67.3058021 Z" id="Fill-24" fill="#C7E9D9"></path>
                        <polygon id="Fill-25" fill="#6DC59A" points="159.991761 103.878159 159.841501 156.878124 112.014092 129.24724 112.16354 76.2472756"></polygon>
                        <polygon id="Fill-26" fill="#AEDFC7" points="112.163783 76.247682 112.013523 129.247647 64.4963805 156.87853 64.6466407 103.878565"></polygon>
                        <polygon id="Fill-27" fill="#6DC59A" points="64.4964618 156.879018 112.324683 184.509088 112.474944 131.509124 64.6467219 103.87824"></polygon>
                        <polygon id="Fill-28" fill="#C7E9D9" points="159.991761 103.878159 112.474619 131.509855 64.6463971 103.878159 112.16354 76.2472756"></polygon>
                        <polygon id="Fill-29" fill="#AEDFC7" points="112.474619 131.509449 112.324359 184.509413 159.841501 156.87853 159.991761 103.878565"></polygon>
                        <polygon id="Fill-30" fill="#6DC59A" points="63.3487989 156.879018 112.327932 185.174707 112.479005 132.173929 63.4982468 103.87824"></polygon>
                        <polygon id="Fill-31" fill="#AEDFC7" points="112.479005 132.174336 112.327932 185.1743 160.988677 156.878611 161.138937 103.878647"></polygon>
                        <path d="M112.4747,131.50953 L159.991843,103.877834 L112.163621,76.2477633 L64.6464783,103.878647 L112.4747,131.50953 Z M112.15956,75.5829576 L161.139505,103.877834 L112.478761,132.174336 L63.4988154,103.878647 L112.15956,75.5829576 Z" id="Fill-32" fill="#C7E9D9"></path>
                    </g>
                </g>
                <polygon id="Fill-2" fill="#55BC8A" opacity="0.04" points="334 90 333.271642 208.045162 180 297 180.728358 178.954167"></polygon>
                <polygon id="Fill-2-Copy" fill-opacity="0.1" fill="#55BC8A" points="181 0 180.271642 118.045162 27 207 27.7283579 88.9541668"></polygon>
                <polygon id="Fill-3" fill-opacity="0.2" fill="#55BC8A" points="181 178.957637 180.271701 297 26 208.042363 26.7282988 90"></polygon>
                <polygon id="Fill-3-Copy" fill-opacity="0.06" fill="#55BC8A" points="335 88.9576368 334.271701 207 180 118.042363 180.728299 0"></polygon>
            </g>
        </g>
    </g>
</svg>