<?xml version="1.0" encoding="UTF-8"?>
<svg width="24px" height="24px" viewBox="0 0 24 24" version="1.1" xmlns="http://www.w3.org/2000/svg" xmlns:xlink="http://www.w3.org/1999/xlink">
    <!-- Generator: Sketch 50.2 (55047) - http://www.bohemiancoding.com/sketch -->
    <title>Glyph/002.Object/018.Earth/White</title>
    <desc>Created with Sketch.</desc>
    <defs></defs>
    <g id="Glyph/002.Object/018.Earth/White" stroke="none" stroke-width="1" fill="none" fill-rule="evenodd">
        <path d="M3.35176667,9.5 L7.91054182,9.5 C7.83888072,10.3015227 7.80170933,11.138889 7.80170933,12 C7.80170933,12.861111 7.83888072,13.6984773 7.91054182,14.5 L3.35176667,14.5 C3.12272756,13.7062752 3,12.8674699 3,12 C3,11.1325301 3.12272756,10.2937248 3.35176667,9.5 Z" id="Path" fill="#FFFFFF" opacity="0.900000036"></path>
        <path d="M3.93551965,8 C5.05425539,5.7488307 7.08784379,4.03252814 9.54983427,3.33754289 C8.88272508,4.48152603 8.38198483,6.10104443 8.09107789,8 L3.93551965,8 Z" id="Path" fill="#FFFFFF" opacity="0.400000006"></path>
        <path d="M20.6482333,9.5 C20.8772724,10.2937248 21,11.1325301 21,12 C21,12.8674699 20.8772724,13.7062752 20.6482333,14.5 L16.0894582,14.5 C16.1611193,13.6984773 16.1982907,12.861111 16.1982907,12 C16.1982907,11.138889 16.1611193,10.3015227 16.0894582,9.5 L20.6482333,9.5 Z" id="Path" fill="#FFFFFF" opacity="0.900000036"></path>
        <path d="M20.0644804,8 L15.9089221,8 C15.6180152,6.10104443 15.1172749,4.48152603 14.4501657,3.33754289 C16.9121562,4.03252814 18.9457446,5.7488307 20.0644804,8 Z" id="Path" fill="#FFFFFF" opacity="0.400000006"></path>
        <path d="M9.42338053,9.5 L14.5766195,9.5 C14.6549599,10.2930095 14.6982907,11.1317372 14.6982907,12 C14.6982907,12.8682628 14.6549599,13.7069905 14.5766195,14.5 L9.42338053,14.5 C9.34504014,13.7069905 9.30170933,12.8682628 9.30170933,12 C9.30170933,11.1317372 9.34504014,10.2930095 9.42338053,9.5 Z" id="Path" fill="#FFFFFF" opacity="0.900000036"></path>
        <path d="M9.6208933,8 C10.1119902,5.04822073 11.0915212,3.028286 12,3.028286 C12.9084788,3.028286 13.8880098,5.04822073 14.3791067,8 L9.6208933,8 Z" id="Path" fill="#FFFFFF" opacity="0.400000006"></path>
        <path d="M3.93551965,16 L8.09107789,16 C8.38198483,17.8989556 8.88272508,19.518474 9.54983427,20.6624571 C7.08784379,19.9674719 5.05425539,18.2511693 3.93551965,16 Z" id="Path" fill="#FFFFFF" opacity="0.400000006"></path>
        <path d="M20.0644804,16 C18.9457446,18.2511693 16.9121562,19.9674719 14.4501657,20.6624571 C15.1172749,19.518474 15.6180152,17.8989556 15.9089221,16 L20.0644804,16 Z" id="Path" fill="#FFFFFF" opacity="0.400000006"></path>
        <path d="M9.6208933,16 L14.3791067,16 C13.8880098,18.9517793 12.9084788,20.971714 12,20.971714 C11.0915212,20.971714 10.1119902,18.9517793 9.6208933,16 Z" id="Path" fill="#FFFFFF" opacity="0.400000006"></path>
    </g>
</svg>