<?xml version="1.0" encoding="UTF-8"?>
<svg width="287px" height="287px" viewBox="0 0 287 287" version="1.1" xmlns="http://www.w3.org/2000/svg" xmlns:xlink="http://www.w3.org/1999/xlink">
    <!-- Generator: Sketch 49.3 (51167) - http://www.bohemiancoding.com/sketch -->
    <title>Group 29</title>
    <desc>Created with Sketch.</desc>
    <defs>
        <linearGradient x1="122.839741%" y1="164.496385%" x2="25.1146658%" y2="9.46713721%" id="linearGradient-1">
            <stop stop-color="#303E5A" stop-opacity="0.9921875" offset="0%"></stop>
            <stop stop-color="#55BC8A" offset="100%"></stop>
        </linearGradient>
    </defs>
    <g id="home" stroke="none" stroke-width="1" fill="none" fill-rule="evenodd">
        <g id="Artboard" transform="translate(-872.000000, -1636.000000)">
            <g id="Group-26" transform="translate(0.000000, 752.000000)">
                <g id="Group-22" transform="translate(0.000000, 799.000000)">
                    <g id="Group-29" transform="translate(872.000000, 85.000000)">
                        <path d="M150.134553,12.545384 L254.904905,72.8768715 C258.495298,74.9443818 260.708087,78.7720492 260.708087,82.915179 L260.708087,203.525829 C260.708087,207.668958 258.495298,211.496626 254.904905,213.564136 L150.134553,273.895624 C146.556313,275.956136 142.151774,275.956136 138.573534,273.895624 L33.8031819,213.564136 C30.2127884,211.496626 28,207.668958 28,203.525829 L28,82.915179 C28,78.7720492 30.2127884,74.9443818 33.8031819,72.8768715 L138.573534,12.545384 C142.151774,10.484872 146.556313,10.484872 150.134553,12.545384 Z" id="第四层" fill="#55BC8A" opacity="0.0199999996"></path>
                        <path d="M151.4064,38.553906 L234.433824,86.5277614 C238.015893,88.5975072 240.222232,92.4205108 240.222232,96.5575468 L240.222232,192.52114 C240.222232,196.658175 238.015893,200.481179 234.433824,202.550925 L151.4064,250.52478 C147.820646,252.596655 143.401586,252.596655 139.815832,250.52478 L56.7884078,202.550925 C53.2063387,200.481179 51,196.658175 51,192.52114 L51,96.5575468 C51,92.4205108 53.2063387,88.5975072 56.7884078,86.5277614 L139.815832,38.553906 C143.401586,36.4820313 147.820646,36.4820313 151.4064,38.553906 Z" id="第三层" fill="#55BC8A" opacity="0.100000001"></path>
                        <path d="M149.656568,51.555699 L220.931059,92.7680336 C224.51138,94.8382465 226.716365,98.6602699 226.716365,102.796026 L226.716365,185.250913 C226.716365,189.386669 224.51138,193.208692 220.931059,195.278905 L149.656568,236.49124 C146.069239,238.565505 141.647126,238.565505 138.059797,236.49124 L66.7853059,195.278905 C63.2049852,193.208692 61,189.386669 61,185.250913 L61,102.796026 C61,98.6602699 63.2049852,94.8382465 66.7853059,92.7680336 L138.059797,51.555699 C141.647126,49.4814337 146.069239,49.4814337 149.656568,51.555699 Z" id="第二层" fill="#55BC8A" opacity="0.300000012"></path>
                        <g id="第一层" transform="translate(69.000000, 59.000000)">
                            <path d="M79.8444131,1.19301724 L144.650628,38.8070876 C147.68907,40.5706246 149.55909,43.8181784 149.55909,47.3313238 L149.55909,122.649827 C149.55909,126.162972 147.68907,129.410526 144.650628,131.174063 L79.8444131,168.788133 C76.7850412,170.563819 73.0087088,170.563819 69.9493369,168.788133 L5.14312176,131.174063 C2.10468009,129.410526 0.234659876,126.162972 0.234659876,122.649827 L0.234659876,47.3313238 C0.234659876,43.8181784 2.10468009,40.5706246 5.14312176,38.8070876 L69.9493369,1.19301724 C73.0087088,-0.582667841 76.7850412,-0.582667841 79.8444131,1.19301724 Z" id="Polygon-2" fill="url(#linearGradient-1)" transform="translate(74.896875, 84.990575) rotate(-360.000000) translate(-74.896875, -84.990575) "></path>
                            <g id="logo-new-w" transform="translate(12.890625, 79.109589)">
                                <path d="M65.0101989,7.53045469 L68.7886176,7.53045469 C69.1404472,7.53045469 69.4475552,7.46606196 69.7113567,7.33810204 C69.9751582,7.21014213 70.1911244,7.03567635 70.3592554,6.8149799 C70.5276695,6.59428345 70.652211,6.34194099 70.7328799,6.05657663 C70.8132657,5.77203781 70.8537417,5.48006906 70.8537417,5.18094556 C70.8537417,4.86806293 70.8132657,4.56893943 70.7328799,4.28412543 C70.652211,3.99931143 70.5276695,3.75027117 70.3592554,3.53672946 C70.1911244,3.32318776 69.9751582,3.15202417 69.7113567,3.02406426 C69.4475552,2.89555398 69.1404472,2.83171161 68.7886176,2.83171161 L65.0101989,2.83171161 L65.0101989,7.53045469 Z M68.7886176,0.0339300159 C69.5650205,0.0339300159 70.2494325,0.16188993 70.8427028,0.418360122 C71.4356901,0.674830315 71.9301764,1.03064143 72.3255955,1.48606865 C72.7210147,1.94204624 73.0207634,2.4759005 73.2259738,3.08790663 C73.4314673,3.70018793 73.5339309,4.35539773 73.5339309,5.05298565 C73.5339309,5.73626407 73.4382604,6.38789649 73.2483347,7.00705736 C73.0578428,7.62649342 72.7648873,8.16750243 72.3694681,8.63035958 C71.974332,9.09294155 71.4798457,9.46333734 70.8865754,9.74099659 C70.2933051,10.0183807 69.5941745,10.1573479 68.7886176,10.1573479 L65.0101989,10.1573479 L65.0101989,16.3866566 L62.1327247,16.3866566 L62.1327247,0.0339300159 L68.7886176,0.0339300159 Z" id="Fill-1" fill="#FFFFFF"></path>
                                <polygon id="Fill-37" fill="#FFFFFF" points="75.0933035 9.60098368 75.0933035 0.0339850524 77.9707777 0.0339850524 77.9707777 10.9763464"></polygon>
                                <polygon id="Fill-64" fill="#FFFFFF" points="91.502917 0.0340125706 91.502917 2.83151899 86.8677096 2.83151899 86.8677096 16.3859136 83.9678745 16.3859136 83.9678745 2.83151899 79.3547449 2.83151899 79.3547449 0.0340125706"></polygon>
                                <path d="M95.7643584,7.31688546 L99.235386,7.31688546 C99.9820688,7.31688546 100.523824,7.09618901 100.860935,6.65452092 C101.197763,6.21340319 101.366461,5.69358324 101.366461,5.09561143 C101.366461,4.78245362 101.325702,4.49048487 101.245316,4.21970518 C101.16493,3.94975104 101.036992,3.71116772 100.860935,3.5042304 C100.685162,3.2983938 100.461837,3.13438497 100.190959,3.01330462 C99.919515,2.89249945 99.6013682,2.8316841 99.235386,2.8316841 L95.7643584,2.8316841 L95.7643584,7.31688546 Z M99.6749608,0.0339024976 C100.465516,0.0339024976 101.146815,0.162137594 101.717724,0.418332604 C102.288634,0.674802797 102.764722,1.01988179 103.145705,1.45411995 C103.526123,1.88863329 103.80804,2.39056637 103.991455,2.95991919 C104.174305,3.5295472 104.266013,4.12063944 104.266013,4.73237039 C104.266013,5.64405037 104.068162,6.48748507 103.673025,7.26322485 C103.277606,8.039515 102.64754,8.61959994 101.783675,9.00375486 L105.766737,16.3844277 L102.538283,16.3866291 L98.9936624,9.40964921 L95.7643584,9.40964921 L95.7643584,16.3866291 L92.8868842,16.3866291 L92.8868842,0.0339024976 L99.6749608,0.0339024976 Z" id="Fill-87" fill="#FFFFFF"></path>
                                <polygon id="Fill-116" fill="#FFFFFF" points="125.091386 0.0340125706 119.753368 8.02146302 125.253007 16.3861888 122.003606 16.3861888 117.886095 10.114502 113.76915 16.3856385 110.847803 16.3856385 116.392164 7.82911037 111.295587 0.0340125706 114.52489 0.0340125706 118.259437 5.73634662 122.191551 0.0340125706"></polygon>
                                <polygon id="Combined-Shape" fill="#FFFFFF" points="109.736893 0.0338199428 109.736893 16.3843451 106.859419 16.3868217 106.859136 0.0340951254"></polygon>
                                <polygon id="Fill-162" fill="#F7B236" points="77.9708626 13.8461983 77.9708626 16.3866842 75.0933884 16.3861338 75.0933884 12.471386"></polygon>
                                <path d="M7.5379579,1.5960041 C6.63078645,1.5960041 5.81362452,1.77129543 5.08647212,2.12105252 C4.35960276,2.47080962 3.74736818,2.94715072 3.2506175,3.54897509 C2.75386683,4.15079946 2.37203398,4.85416621 2.10568505,5.65907534 C1.83933611,6.46453485 1.70630317,7.32145349 1.70630317,8.2312072 C1.70630317,9.14178646 1.83933611,10.0025577 2.10568505,10.813796 C2.37203398,11.6264102 2.75726342,12.3333544 3.26137336,12.9349036 C3.76520025,13.5372783 4.37686874,14.013069 5.09722797,14.3628261 C5.81702111,14.7128584 6.63814572,14.8878745 7.55946961,14.8878745 C8.46664107,14.8878745 9.27984031,14.7128584 10.0001995,14.3628261 C10.7197096,14.013069 11.3353408,13.5405805 11.84681,12.9453605 C12.3574301,12.3506909 12.7466222,11.6511767 13.0129711,10.8457172 C13.2793201,10.040808 13.4129191,9.17618429 13.4129191,8.25267145 C13.4129191,7.32833306 13.2793201,6.46453485 13.0129711,5.65907534 C12.7466222,4.85416621 12.3574301,4.15079946 11.84681,3.54897509 C11.3353408,2.94715072 10.7165961,2.47080962 9.98944369,2.12105252 C9.26172519,1.77129543 8.44512936,1.5960041 7.5379579,1.5960041 M7.5379579,-5.50360119e-05 C8.76157793,-5.50360119e-05 9.84537184,0.231098357 10.7884905,0.693129959 C11.7313261,1.15516156 12.5235797,1.77129543 13.1644022,2.54098119 C13.8049417,3.31094213 14.2909365,4.1929024 14.6221036,5.1865868 C14.9532708,6.18082157 15.1185713,7.20257461 15.1185713,8.25267145 C15.1185713,9.30221792 14.9532708,10.3206688 14.6221036,11.3077488 C14.2909365,12.2942784 13.8049417,13.1732117 13.1644022,13.9428975 C12.5235797,14.7128584 11.7313261,15.3287171 10.7884905,15.7907487 C9.84537184,16.2530555 8.76157793,16.4839337 7.5379579,16.4839337 C6.29961934,16.4839337 5.21214579,16.2497533 4.27666946,15.7802918 C3.34006093,15.3111054 2.55573266,14.6919445 1.92198637,13.9222588 C1.28852312,13.1522978 0.809887574,12.2703376 0.48607973,11.2761028 C0.162271886,10.2824184 8.49146445e-05,9.2678201 8.49146445e-05,8.2312072 C8.49146445e-05,7.18166073 0.165668471,6.16018288 0.496835585,5.16567292 C0.828002698,4.17198852 1.31399751,3.29333044 1.95482003,2.53052425 C2.59507645,1.76744287 3.3833674,1.15516156 4.31940983,0.693129959 C5.25545226,0.231098357 6.32820727,-5.50360119e-05 7.5379579,-5.50360119e-05" id="Fill-164" fill="#FFFFFF"></path>
                                <path d="M19.7191901,8.31560571 L24.6433903,8.31560571 C25.1327817,8.31560571 25.5542414,8.22094289 25.9072033,8.03189244 C26.2598821,7.84311717 26.5514224,7.59847983 26.7818241,7.29715487 C27.0122259,6.99610509 27.1851687,6.64965019 27.3003696,6.25751497 C27.4152874,5.86593011 27.4727463,5.45976058 27.4727463,5.03983192 C27.4727463,4.63366238 27.4152874,4.23492278 27.3003696,3.84306274 C27.1851687,3.45092752 27.0122259,3.10447262 26.7818241,2.80314766 C26.5514224,2.50264825 26.2559194,2.2613131 25.8964474,2.07886703 C25.5361263,1.89724651 25.1115531,1.8056107 24.6221617,1.8056107 L19.7191901,1.8056107 L19.7191901,8.31560571 Z M24.6433903,0.210101923 C25.377902,0.210101923 26.0221211,0.33943775 26.5768968,0.598384586 C27.1311064,0.857881788 27.5916268,1.2073637 27.9587411,1.64848143 C28.3261385,2.08932397 28.6029602,2.5967607 28.7906216,3.17051644 C28.9777168,3.74509774 29.0711229,4.35380167 29.0711229,4.99772898 C29.0711229,5.61358766 28.9811134,6.21210984 28.8013774,6.79302033 C28.6210753,7.37393082 28.3513298,7.8885223 27.9915748,8.33651959 C27.6309706,8.78479206 27.1704501,9.14170391 26.6088813,9.40725512 C26.0475955,9.67335671 25.3920544,9.80654509 24.6433903,9.80654509 L19.7191901,9.80654509 L19.7191901,16.2736116 L17.9914601,16.2736116 L17.9914601,0.210101923 L24.6433903,0.210101923 Z" id="Fill-167" fill="#FFFFFF"></path>
                                <polygon id="Fill-169" fill="#FFFFFF" points="42.202918 0.210239514 42.202918 1.80574829 33.3262241 1.80574829 33.3262241 7.26537128 42.1168711 7.26537128 42.1168711 8.7984136 33.3262241 8.7984136 33.3262241 14.6776901 42.2462244 14.6776901 42.2462244 16.2737492 31.6200058 16.2737492 31.6200058 0.210239514"></polygon>
                                <polygon id="Fill-171" fill="#FFFFFF" points="56.846873 5.36264864 56.846873 5.36264864 56.846873 0.210129442 58.5097848 0.210129442 58.5097848 16.4838787 56.8230969 16.4822276 56.846873 6.93229025 46.954883 2.40030784 46.954883 16.2736391 45.2919712 16.2736391 45.2919712 -0.000110072024"></polygon>
                            </g>
                        </g>
                        <circle id="Oval-2" stroke="#CFD9DF" cx="143.5" cy="143.5" r="142.5"></circle>
                        <g id="Group-28" transform="translate(200.000000, 8.000000)" fill="#55BC8A">
                            <circle id="Oval-2" fill-opacity="0.1" cx="10" cy="10" r="10"></circle>
                            <circle id="Oval-2" cx="10" cy="10" r="7"></circle>
                        </g>
                        <g id="Group-28-Copy" transform="translate(228.000000, 242.000000)" fill="#55BC8A">
                            <circle id="Oval-2" fill-opacity="0.1" cx="10" cy="10" r="10"></circle>
                            <circle id="Oval-2" cx="10" cy="10" r="7"></circle>
                        </g>
                        <g id="Group-28-Copy-2" transform="translate(0.000000, 86.000000)" fill="#55BC8A">
                            <circle id="Oval-2" fill-opacity="0.1" cx="10" cy="10" r="10"></circle>
                            <circle id="Oval-2" cx="10" cy="10" r="7"></circle>
                        </g>
                    </g>
                </g>
            </g>
        </g>
    </g>
</svg>