<svg xmlns="http://www.w3.org/2000/svg" width="16" height="16" viewBox="0 0 16 16">
    <g fill="#36435C" fill-rule="nonzero">
        <path d="M8 2.199a3.575 3.575 0 0 0-3.57 3.57A3.574 3.574 0 0 0 8 9.339a3.575 3.575 0 0 0 3.57-3.57A3.575 3.575 0 0 0 8 2.199z"/>
        <path d="M10.752 9.257A4.417 4.417 0 0 1 8 10.23a4.431 4.431 0 0 1-2.752-.974c-1.444.919-2.449 2.533-2.587 4.402.506.068 1.405.142 2.688.142h5.3c1.284 0 2.184-.074 2.69-.142-.137-1.87-1.142-3.483-2.587-4.402z"/>
    </g>
</svg>
