<?xml version="1.0" encoding="utf-8"?>
<!-- Generator: Adobe Illustrator 22.0.1, SVG Export Plug-In . SVG Version: 6.00 Build 0)  -->
<svg version="1.1" id="图层_1" xmlns="http://www.w3.org/2000/svg" xmlns:xlink="http://www.w3.org/1999/xlink" x="0px" y="0px"
	 viewBox="0 0 16 12" style="enable-background:new 0 0 16 12;" xml:space="preserve">
<style type="text/css">
	.st0{opacity:0.4;fill:#FFFFFF;}
	.st1{opacity:0.9;fill:#FFFFFF;enable-background:new    ;}
</style>
<title>Glyph/003.Direction/017.Return/Black</title>
<desc>Created with Sketch.</desc>
<g id="UX">
	<g id="Creat-yaml-Step3" transform="translate(-155.000000, -158.000000)">
		<g id="Glyph_x2F_003.Direction_x2F_017.Return_x2F_White" transform="translate(153.000000, 154.000000)">
			<g id="返回-_x28_2_x29_" transform="translate(2.500000, 4.166667)">
				<path id="Shape" class="st0" d="M12.2,4.5c0.9,0.5,2,2,2.4,3.8c0.5,1.8,0.4,3.4,0.4,3.4s-0.6-1-0.8-1.3S12.9,8.7,11.4,8
					S7.2,7.4,7.2,7.4l0.3,3.1L0,5.2L7.5,0L7.2,3.1c0,0,1.7,0.1,2.6,0.3C11.3,3.8,12.2,4.5,12.2,4.5z"/>
				<polygon id="Shape_1_" class="st1" points="7.5,10.5 0,5.2 7.5,0 				"/>
			</g>
		</g>
	</g>
</g>
</svg>
