<svg xmlns="http://www.w3.org/2000/svg" width="28" height="28" viewBox="0 0 28 28">
    <g fill="none" fill-rule="evenodd" transform="translate(1 1)">
        <circle cx="13" cy="13" r="13" stroke="#B6C2CD"/>
        <g transform="scale(0.8);translate(8px, 8.5px);rotate(-1deg);">
            <path fill="#E9A823" d="M10.373.985A1.437 1.437 0 0 0 8.576.067a1.437 1.437 0 0 0-.918 1.797l3.685 11.33a1.422 1.422 0 0 0 1.731.878c.76-.223 1.22-1.023.97-1.757 0-.026-3.671-11.33-3.671-11.33z"/>
            <path fill="#3FB991" d="M4.668 2.847a1.437 1.437 0 0 0-1.796-.918c-.748.236-1.154 1.05-.918 1.797l3.685 11.33a1.422 1.422 0 0 0 1.73.878c.761-.222 1.22-1.022.971-1.757 0-.026-3.672-11.33-3.672-11.33z"/>
            <path fill="#E11765" d="M15.015 10.374a1.437 1.437 0 0 0 .918-1.796 1.437 1.437 0 0 0-1.797-.918L2.793 11.345a1.422 1.422 0 0 0-.878 1.73c.223.761 1.022 1.22 1.757.971.026 0 11.343-3.672 11.343-3.672z"/>
            <path fill="#472A49" d="M5.154 13.574c.734-.236 1.691-.55 2.714-.879-.236-.734-.55-1.691-.878-2.714l-2.715.878.879 2.715z"/>
            <path fill="#CD2027" d="M10.858 11.725c1.023-.328 1.98-.643 2.715-.879-.237-.734-.551-1.691-.88-2.714L9.98 9.01l.879 2.715z"/>
            <path fill="#71CBDC" d="M13.153 4.67a1.437 1.437 0 0 0 .918-1.797c-.236-.747-1.05-1.154-1.797-.918L.944 5.64a1.422 1.422 0 0 0-.878 1.731c.222.76 1.022 1.22 1.757.97.026 0 11.33-3.671 11.33-3.671z"/>
            <path fill="#1D947E" d="M3.305 7.87c.734-.236 1.691-.551 2.714-.879-.328-1.023-.642-1.98-.878-2.715l-2.715.88.879 2.714z"/>
            <path fill="#66873A" d="M9.009 6.007c1.023-.327 1.98-.642 2.715-.878-.328-1.023-.643-1.98-.88-2.715l-2.714.892.879 2.701z"/>
        </g>
    </g>
</svg>
