<svg xmlns="http://www.w3.org/2000/svg" width="28" height="28" viewBox="0 0 28 28">
    <g fill="none" fill-rule="evenodd" transform="translate(1 1)">
        <circle cx="13" cy="13" r="13" stroke="#B6C2CD"/>
        <path fill="currentColor" fill-rule="nonzero" d="M18.305 12.53c.321 0 .59.105.805.314.216.21.323.473.323.79 0 .502-.241.84-.724 1.01l-1.337.459.436 1.298c.036.109.055.23.055.365 0 .306-.109.57-.327.793-.217.223-.479.335-.785.335-.243 0-.465-.07-.664-.21-.2-.14-.338-.327-.416-.56l-.428-1.283-2.41.824.428 1.274c.041.124.062.246.062.365 0 .306-.109.57-.326.793a1.067 1.067 0 0 1-.793.335c-.244 0-.464-.07-.66-.21a1.091 1.091 0 0 1-.413-.56l-.428-1.267-1.188.412c-.151.046-.28.07-.39.07-.316 0-.579-.104-.788-.31a1.057 1.057 0 0 1-.315-.786 1.1 1.1 0 0 1 .214-.66c.143-.197.328-.335.556-.412l1.213-.412-.816-2.433-1.213.42a1.284 1.284 0 0 1-.373.062c-.31 0-.572-.105-.785-.314a1.053 1.053 0 0 1-.318-.781 1.1 1.1 0 0 1 .214-.661c.143-.197.328-.334.556-.412l1.22-.412L8.08 9.53a1.156 1.156 0 0 1-.062-.365c0-.31.109-.576.327-.797.217-.22.481-.33.792-.33.244 0 .464.07.661.21.197.14.334.327.412.56l.42 1.244 2.41-.816-.42-1.244a1.156 1.156 0 0 1-.062-.365c0-.306.11-.57.33-.793a1.07 1.07 0 0 1 .79-.334c.243 0 .464.071.664.214.2.143.338.328.416.556l.412 1.252 1.26-.428c.108-.031.22-.047.333-.047.311 0 .577.103.797.307.22.205.33.46.33.767a.974.974 0 0 1-.232.633 1.253 1.253 0 0 1-.575.4l-1.221.42.816 2.457 1.274-.436c.124-.041.243-.062.357-.062l-.003-.003zm-6.17 2.036l2.409-.816-.816-2.449-2.41.832.816 2.433z"/>
    </g>
</svg>
