<?xml version="1.0" encoding="UTF-8"?>
<svg width="1032px" height="492px" viewBox="0 0 1032 492" version="1.1" xmlns="http://www.w3.org/2000/svg" xmlns:xlink="http://www.w3.org/1999/xlink">
    <!-- Generator: Sketch 50.2 (55047) - http://www.bohemiancoding.com/sketch -->
    <title>Group 12</title>
    <desc>Created with Sketch.</desc>
    <defs>
        <rect id="path-1" x="0" y="0" width="660" height="440" rx="10"></rect>
        <filter x="-6.5%" y="-8.0%" width="113.0%" height="119.5%" filterUnits="objectBoundingBox" id="filter-3">
            <feOffset dx="0" dy="8" in="SourceAlpha" result="shadowOffsetOuter1"></feOffset>
            <feGaussianBlur stdDeviation="13" in="shadowOffsetOuter1" result="shadowBlurOuter1"></feGaussianBlur>
            <feColorMatrix values="0 0 0 0 0.137254902   0 0 0 0 0.176470588   0 0 0 0 0.254901961  0 0 0 0.1 0" type="matrix" in="shadowBlurOuter1"></feColorMatrix>
        </filter>
        <path d="M0,0 L650,0 L650,401 C650,403.761424 647.761424,406 645,406 L5,406 C2.23857625,406 3.38176876e-16,403.761424 0,401 L0,0 Z" id="path-4"></path>
    </defs>
    <g id="Page-1" stroke="none" stroke-width="1" fill="none" fill-rule="evenodd">
        <g id="首页" transform="translate(-194.000000, -2042.000000)">
            <g id="Group-12" transform="translate(78.000000, 1839.000000)">
                <g id="Group-16" opacity="0.9">
                    <g id="Group-6" transform="translate(343.272801, 435.350809) rotate(-113.000000) translate(-343.272801, -435.350809) translate(44.272801, 189.350809)">
                        <path d="M311.380594,13.5743098 L159.621357,101.005856 C147.227292,108.146326 139.589371,121.361504 139.589371,135.66532 L139.589371,357.146034 C139.589371,371.450405 147.227879,384.666006 159.622702,391.806272 L311.381939,479.229976 C330.52426,490.257262 354.98156,483.678727 366.008846,464.536406 C369.507216,458.463569 371.348608,451.578156 371.348608,444.569737 L371.348608,345.326927 C371.348608,323.870989 359.8915,304.04806 341.300111,293.337433 L315.590394,278.525889 C297.849523,268.305252 291.753169,245.63797 301.973806,227.897099 C305.234017,222.23806 309.931355,217.540722 315.590394,214.280511 L351.316277,193.698586 C363.710536,186.558168 371.348608,173.342882 371.348608,159.038923 L371.348608,48.2337736 C371.348608,26.1423836 353.439998,8.23377363 331.348608,8.23377363 C324.339662,8.23377363 317.453751,10.0754419 311.380594,13.5743098 Z" id="Combined-Shape-Copy" fill="#55BC8A" transform="translate(255.468989, 246.405113) rotate(-48.000000) translate(-255.468989, -246.405113) "></path>
                        <path d="M555.389917,135.280177 L463.766841,83.1118794 C454.168031,77.646514 441.956104,80.997333 436.490739,90.5961433 C434.773768,93.6116543 433.870922,97.0220063 433.870922,100.492063 L433.870922,204.833237 C433.870922,215.878932 442.825227,224.833237 453.870922,224.833237 C457.341234,224.833237 460.751829,223.930257 463.767497,222.213047 L555.390573,170.040171 C564.989177,164.574443 568.339535,152.36239 562.873808,142.763785 C561.096443,139.642477 558.511293,137.057425 555.389917,135.280177 Z" id="Fill-1-Copy" fill="#232D41" fill-rule="nonzero" transform="translate(499.684185, 152.660924) rotate(-46.000000) translate(-499.684185, -152.660924) "></path>
                    </g>
                    <g id="Group-6-Copy" transform="translate(903.019506, 450.800998) rotate(27.000000) translate(-903.019506, -450.800998) translate(567.519506, 115.800998)">
                        <path d="M483.219536,149.447564 C486.300763,151.214123 488.855981,153.769341 490.62254,156.850568 C496.116466,166.43306 492.802028,178.654912 483.219536,184.148838 L423.835772,218.195306 C420.807871,219.931291 417.378387,220.844669 413.888139,220.844669 C402.842444,220.844669 393.888139,211.890364 393.888139,200.844669 L393.888139,132.751733 C393.888139,129.261486 394.801517,125.832001 396.537502,122.8041 C402.031428,113.221608 414.25328,109.90717 423.835772,115.401097 L483.219536,149.447564 Z M275.532319,99.8035217 C281.605476,96.3046538 288.491387,94.4629855 295.500332,94.4629855 C317.591722,94.4629855 335.500332,112.371596 335.500332,134.462986 L335.500332,246.838777 C335.500332,261.142735 327.862261,274.358022 315.468001,281.498439 L279.31099,302.328741 C273.608194,305.614161 268.874536,310.347819 265.589117,316.050614 C255.289452,333.92866 261.432944,356.771207 279.31099,367.070872 L305.451836,382.130792 C324.043225,392.841419 335.500332,412.664348 335.500332,434.120286 L335.500332,534.933692 C335.500332,541.942111 333.65894,548.827524 330.160571,554.90036 C319.133284,574.042682 294.675985,580.621217 275.533664,569.59393 L121.982438,481.137919 C109.587615,473.997653 101.949107,460.782051 101.949107,446.47768 L101.949107,222.926933 C101.949107,208.623116 109.587028,195.407939 121.981093,188.267469 L275.532319,99.8035217 Z M396.194445,369.371314 C390.068331,365.848093 384.984989,360.764751 381.461768,354.638637 C370.448189,335.488426 377.044234,311.035842 396.194445,300.022264 L509.512384,234.851389 C515.579306,231.36221 522.455524,229.525915 529.454232,229.525915 C551.545622,229.525915 569.454232,247.434525 569.454232,269.525915 L569.454232,399.867664 C569.454232,406.866372 567.617937,413.742589 564.128758,419.809512 C553.115179,438.959723 528.662596,445.555767 509.512384,434.542189 L396.194445,369.371314 Z" id="Combined-Shape-Copy" fill="#55BC8A" transform="translate(335.701670, 334.701696) rotate(-48.000000) translate(-335.701670, -334.701696) "></path>
                        <path d="M530.883695,340.388276 L487.887079,315.906886 C478.288269,310.441521 466.076341,313.79234 460.610976,323.39115 C458.894006,326.406661 457.991159,329.817013 457.991159,333.287069 L457.991159,382.251998 C457.991159,393.297693 466.945464,402.251998 477.991159,402.251998 C481.461472,402.251998 484.872066,401.349018 487.887735,399.631808 L530.88435,375.14827 C540.482954,369.682542 543.833313,357.470488 538.367585,347.871884 C536.59022,344.750575 534.00507,342.165523 530.883695,340.388276 Z" id="Fill-1-Copy" fill="#232D41" fill-rule="nonzero" transform="translate(499.491192, 357.767808) rotate(-46.000000) translate(-499.491192, -357.767808) "></path>
                    </g>
                </g>
                <g id="Group-23" transform="translate(313.000000, 221.000000)">
                    <g id="应用模板列表页面">
                        <mask id="mask-2" fill="white">
                            <use xlink:href="#path-1"></use>
                        </mask>
                        <g id="Mask">
                            <use fill="black" fill-opacity="1" filter="url(#filter-3)" xlink:href="#path-1"></use>
                            <use fill="#FFFFFF" fill-rule="evenodd" xlink:href="#path-1"></use>
                        </g>
                        <g id="Group-8" mask="url(#mask-2)">
                            <g transform="translate(15.000000, 11.000000)" id="Oval">
                                <ellipse fill="#34C749" cx="36.7706633" cy="4.8272741" rx="4.83824518" ry="4.8272741"></ellipse>
                                <ellipse fill="#FDBC40" cx="20.8044543" cy="4.8272741" rx="4.83824518" ry="4.8272741"></ellipse>
                                <ellipse fill="#FC605C" cx="4.83824518" cy="4.8272741" rx="4.83824518" ry="4.8272741"></ellipse>
                            </g>
                        </g>
                        <g mask="url(#mask-2)">
                            <g transform="translate(5.000000, 28.000000)">
                                <mask id="mask-5" fill="white">
                                    <use xlink:href="#path-4"></use>
                                </mask>
                                <use id="Mask" stroke="none" fill="#ECF0F2" fill-rule="nonzero" xlink:href="#path-4"></use>
                            </g>
                        </g>
                    </g>
                </g>
            </g>
        </g>
    </g>
</svg>