<svg xmlns="http://www.w3.org/2000/svg" width="121" height="86" viewBox="0 0 121 86">
    <path fill="#FFF" fill-opacity=".05" fill-rule="nonzero" d="M55.358.016C19.264.016-10 29.28-10 65.374c0 28.88 18.725 53.373 44.697 62.017 3.268.604 4.469-1.422 4.469-3.145 0-1.561-.066-6.708-.09-12.165-18.186 3.954-22.018-7.713-22.018-7.713-2.974-7.557-7.254-9.566-7.254-9.566-5.932-4.06.449-3.97.449-3.97 6.56.457 10.016 6.731 10.016 6.731 5.833 9.992 15.294 7.1 19.019 5.433.588-4.224 2.28-7.108 4.15-8.742C28.921 92.604 13.66 87 13.66 61.951c0-7.132 2.557-12.965 6.732-17.54-.679-1.65-2.917-8.292.629-17.296 0 0 5.49-1.756 17.981 6.7 5.212-1.446 10.8-2.173 16.356-2.198 5.556.025 11.152.752 16.372 2.198 12.475-8.456 17.957-6.7 17.957-6.7 3.554 9.004 1.324 15.654.646 17.296 4.19 4.575 6.723 10.408 6.723 17.54 0 25.106-15.293 30.629-29.844 32.246 2.345 2.026 4.436 6.005 4.436 12.1 0 8.741-.073 15.784-.073 17.932 0 1.74 1.176 3.775 4.493 3.137 25.956-8.651 44.656-33.144 44.656-62.008C120.724 29.264 91.46 0 55.366 0l-.008.016z" opacity=".9"/>
</svg>
