<?xml version="1.0" encoding="UTF-8"?>
<svg width="24px" height="24px" viewBox="0 0 24 24" version="1.1" xmlns="http://www.w3.org/2000/svg" xmlns:xlink="http://www.w3.org/1999/xlink">
    <!-- Generator: Sketch 49.3 (51167) - http://www.bohemiancoding.com/sketch -->
    <title>Icon-Standard</title>
    <desc>Created with Sketch.</desc>
    <defs></defs>
    <g id="home" stroke="none" stroke-width="1" fill="none" fill-rule="evenodd">
        <g id="Artboard" transform="translate(-764.000000, -3596.000000)">
            <g id="Group-26" transform="translate(0.000000, 752.000000)">
                <g id="Group-31" transform="translate(140.000000, 2684.000000)">
                    <g id="Group-11-Copy" transform="translate(600.000000, 125.000000)">
                        <g id="Icon-Standard" transform="translate(20.000000, 31.000000)">
                            <polygon id="Bound" points="0 0 32 0 32 32 0 32"></polygon>
                            <path d="M20.1944345,6.01476265 L10.0649916,11.5872164 C9.63898965,11.8215705 9.37432822,12.2692336 9.37432822,12.7554429 L9.37432822,17.2811616 L12.0295892,18.6334429 L12.0295892,14.0443659 C12.0295892,13.5512295 12.3017741,13.098361 12.7372433,12.8669521 L22.9389529,7.4457499 L26.5973149,9.35321368 C27.2582065,9.69780149 27.672658,10.3813 27.672658,11.1266312 L27.672658,20.8733688 C27.672658,21.6187 27.2582065,22.3021985 26.5973149,22.6467863 L16.9246569,27.6900939 C16.3452342,27.9922039 15.6547658,27.9922039 15.0753431,27.6900939 L5.40268514,22.6467863 C4.74179346,22.3021985 4.32734204,21.6187 4.32734204,20.8733688 L4.32734204,11.1266312 C4.32734204,10.3813 4.74179346,9.69780149 5.40268514,9.35321368 L15.0753431,4.30990608 C15.6547658,4.00779608 16.3452342,4.00779608 16.9246569,4.30990608 L20.1944345,6.01476265 Z" id="Combined-Shape" fill="#55BC8A"></path>
                            <path d="M27.672658,20.8733688 C27.672658,21.6187 27.2582065,22.3021985 26.5973149,22.6467863 L17.2925074,27.4982973 C16.7547941,27.4815239 16.3241114,27.0402742 16.3242578,26.4985217 L16.3268305,16.9765196 C16.3270316,16.2323273 16.7404143,15.5497879 17.3998433,15.2048595 L26.2091644,10.5969569 C26.3522044,10.5221368 26.5112315,10.4830572 26.672658,10.4830572 C27.2249427,10.4830572 27.672658,10.9307724 27.672658,11.4830572 L27.672658,20.8733688 Z" id="Combined-Shape" fill="#303E5A"></path>
                        </g>
                    </g>
                </g>
            </g>
        </g>
    </g>
</svg>