<?xml version="1.0" encoding="UTF-8"?>
<svg width="32px" height="20px" viewBox="0 0 32 20" version="1.1" xmlns="http://www.w3.org/2000/svg" xmlns:xlink="http://www.w3.org/1999/xlink">
    <!-- Generator: Sketch 49.3 (51167) - http://www.bohemiancoding.com/sketch -->
    <title>Group</title>
    <desc>Created with Sketch.</desc>
    <defs></defs>
    <g id="home" stroke="none" stroke-width="1" fill="none" fill-rule="evenodd">
        <g id="Artboard" transform="translate(-460.000000, -3599.000000)">
            <g id="Group-26" transform="translate(0.000000, 752.000000)">
                <g id="Group-31" transform="translate(140.000000, 2684.000000)">
                    <g id="Group-11" transform="translate(300.000000, 125.000000)">
                        <g id="Group-10" transform="translate(20.000000, 20.000000)">
                            <g id="Group" transform="translate(0.000000, 11.000000)">
                                <polygon id="Rectangle-9" points="0 0 32 0 32 32 0 32"></polygon>
                                <path d="M24.6666667,16 L30.6666667,16 C31.4030463,16 32,16.5969537 32,17.3333333 L32,24.6666667 L6,24.6666667 L6,8.66666667 C6,7.930287 6.59695367,7.33333333 7.33333333,7.33333333 L22,7.33333333 C22.7363797,7.33333333 23.3333333,7.930287 23.3333333,8.66666667 L28.1894414,8.66666667 C28.8475362,8.66666667 29.4072023,9.14681484 29.5072703,9.79725709 L30.0512821,13.3333333 L26,13.3333333 C25.2636203,13.3333333 24.6666667,13.930287 24.6666667,14.6666667 L24.6666667,16 Z" id="Combined-Shape" fill="#55BC8A"></path>
                                <polygon id="Rectangle" fill="#303E5A" points="0 13.3333333 4.66666667 13.3333333 4.66666667 16 0 16"></polygon>
                                <polygon id="Rectangle-Copy" fill="#303E5A" points="2 17.3333333 4.66666667 17.3333333 4.66666667 20 2 20"></polygon>
                                <circle id="Oval-2-Copy" fill="#303E5A" cx="26" cy="24.6666667" r="2"></circle>
                                <circle id="Oval-2-Copy-2" fill="#303E5A" cx="12" cy="24.6666667" r="2"></circle>
                            </g>
                        </g>
                    </g>
                </g>
            </g>
        </g>
    </g>
</svg>