<?xml version="1.0" encoding="UTF-8"?>
<svg width="20px" height="26px" viewBox="0 0 20 26" version="1.1" xmlns="http://www.w3.org/2000/svg" xmlns:xlink="http://www.w3.org/1999/xlink">
    <!-- Generator: Sketch 49.3 (51167) - http://www.bohemiancoding.com/sketch -->
    <title>Icon-Premium</title>
    <desc>Created with Sketch.</desc>
    <defs></defs>
    <g id="home" stroke="none" stroke-width="1" fill="none" fill-rule="evenodd">
        <g id="Artboard" transform="translate(-166.000000, -3591.000000)">
            <g id="Group-26" transform="translate(0.000000, 752.000000)">
                <g id="Group-31" transform="translate(140.000000, 2684.000000)">
                    <g id="Group-13" transform="translate(0.000000, 121.000000)">
                        <g id="Group-10" transform="translate(20.000000, 20.000000)">
                            <g id="Icon-Premium" transform="translate(0.000000, 11.000000)">
                                <polygon id="Bound" points="0 0 32 0 32 32 0 32"></polygon>
                                <polygon id="Shape" fill="#55BC8A" points="6 3.33333333 26 3.33333333 26 8.66666667 6 8.66666667"></polygon>
                                <path d="M6,10 L26,10 L26,17.3333333 C26,21.0264529 23.9645172,24.4189241 20.7058824,26.1568627 L16,28.6666667 L11.2941176,26.1568627 C8.03548277,24.4189241 6,21.0264529 6,17.3333333 L6,10 Z" id="Shape" fill="#55BC8A"></path>
                                <polygon id="Star" fill="#303E5A" points="16 19.9647164 13.2093482 22.0015777 14.2841596 18.7180854 11.4846306 16.6934426 14.9395523 16.700994 16 13.4128347 17.0604477 16.700994 20.5153694 16.6934426 17.7158404 18.7180854 18.7906518 22.0015777"></polygon>
                            </g>
                        </g>
                    </g>
                </g>
            </g>
        </g>
    </g>
</svg>