<svg xmlns="http://www.w3.org/2000/svg" width="28" height="28" viewBox="0 0 28 28">
    <g fill="none" fill-rule="evenodd" transform="translate(1 1)">
        <circle cx="13" cy="13" r="13" stroke="#B6C2CD"/>
        <path fill="currentColor" d="M19.5 17.237c0 .516-.03 1.279-.092 2.29-.04.525-.236.945-.586 1.255-.351.31-.782.475-1.29.496-1.007.052-2.518.08-4.532.08-2.025 0-3.535-.028-4.532-.08-.509-.021-.938-.186-1.29-.496-.35-.31-.546-.73-.587-1.255-.06-1.01-.091-1.774-.091-2.29s.03-1.279.09-2.29c.042-.525.238-.943.589-1.254.35-.31.78-.476 1.29-.497.996-.052 2.506-.079 4.531-.079 2.024 0 3.535.027 4.531.079.51.021.94.187 1.29.497.35.311.546.73.587 1.255.062 1.01.092 1.773.092 2.289zM9.308 15.185h.93v-.79H7.506v.79h.916v4.626h.886v-4.626zm.869-9.613h1.114l-.84 2.604a10.55 10.55 0 0 1-.152.434c-.061.163-.114.31-.16.442a2.997 2.997 0 0 0-.114.434v2.778h-1.1V9.612c-.02-.126-.167-.573-.442-1.341l-.87-2.7h1.114L9.43 8.24h.076l.672-2.667zm1.51 14.239h.779v-3.995h-.778v3.03c-.173.201-.33.3-.473.3-.132 0-.199-.089-.199-.267v-3.063h-.793v3.362c0 .463.183.695.55.695.305 0 .61-.168.915-.505v.443zm2.38-11.335v2.558c0 .441-.127.778-.381 1.01-.254.231-.6.347-1.037.347-.418 0-.755-.123-1.015-.37-.26-.248-.39-.583-.39-1.003V8.46c0-.41.14-.723.42-.939.28-.216.624-.323 1.031-.323.386 0 .711.115.976.347.264.232.396.542.396.931zm-.99 2.636v-2.7a.314.314 0 0 0-.138-.26.478.478 0 0 0-.29-.102.418.418 0 0 0-.275.102.327.327 0 0 0-.122.26v2.7c0 .274.132.41.397.41.285 0 .427-.136.427-.41zm2.425 7.861v-2.21c0-.663-.254-.994-.762-.994-.255 0-.49.12-.703.363v-1.737h-.792v5.415h.792v-.317c.225.243.474.363.749.363.477.002.716-.293.716-.883zm-.808-2.177v2.099c0 .221-.092.331-.275.331a.52.52 0 0 1-.382-.173v-2.495a.46.46 0 0 1 .336-.158c.214 0 .32.132.32.396zm2.99-9.472v4.94h-.977v-.551c-.376.41-.753.615-1.129.615-.458 0-.686-.294-.686-.884v-4.12h.976v3.789c0 .22.086.33.26.33.172 0 .366-.125.58-.377V7.324h.976zm.732 11.35v-.3h-.809l.009.205a1.9 1.9 0 0 1 0 .245 1.495 1.495 0 0 1-.038.181.261.261 0 0 1-.107.158.404.404 0 0 1-.213.047.302.302 0 0 1-.237-.094.328.328 0 0 1-.092-.19 3.441 3.441 0 0 1-.008-.268V17.9h1.496v-1.01c0-.368-.097-.657-.29-.868-.193-.21-.468-.316-.824-.316-.345 0-.633.108-.862.323-.228.216-.343.504-.343.861v1.784c0 .379.1.681.297.907.199.226.481.34.847.34.783 0 1.174-.417 1.174-1.247zm-.809-1.832v.443h-.686v-.443c0-.284.117-.426.351-.426.224 0 .335.142.335.426z"/>
    </g>
</svg>
